%TF.GenerationSoftware,KiCad,Pcbnew,9.0.0*%
%TF.CreationDate,2025-03-11T10:11:04+01:00*%
%TF.ProjectId,PCB_Watersysteem,5043425f-5761-4746-9572-737973746565,rev?*%
%TF.SameCoordinates,Original*%
%TF.FileFunction,Paste,Top*%
%TF.FilePolarity,Positive*%
%FSLAX46Y46*%
G04 Gerber Fmt 4.6, Leading zero omitted, Abs format (unit mm)*
G04 Created by KiCad (PCBNEW 9.0.0) date 2025-03-11 10:11:04*
%MOMM*%
%LPD*%
G01*
G04 APERTURE LIST*
G04 Aperture macros list*
%AMRoundRect*
0 Rectangle with rounded corners*
0 $1 Rounding radius*
0 $2 $3 $4 $5 $6 $7 $8 $9 X,Y pos of 4 corners*
0 Add a 4 corners polygon primitive as box body*
4,1,4,$2,$3,$4,$5,$6,$7,$8,$9,$2,$3,0*
0 Add four circle primitives for the rounded corners*
1,1,$1+$1,$2,$3*
1,1,$1+$1,$4,$5*
1,1,$1+$1,$6,$7*
1,1,$1+$1,$8,$9*
0 Add four rect primitives between the rounded corners*
20,1,$1+$1,$2,$3,$4,$5,0*
20,1,$1+$1,$4,$5,$6,$7,0*
20,1,$1+$1,$6,$7,$8,$9,0*
20,1,$1+$1,$8,$9,$2,$3,0*%
G04 Aperture macros list end*
%ADD10R,1.500000X2.300000*%
%ADD11RoundRect,0.250000X0.350000X0.450000X-0.350000X0.450000X-0.350000X-0.450000X0.350000X-0.450000X0*%
%ADD12RoundRect,0.250000X-0.450000X0.350000X-0.450000X-0.350000X0.450000X-0.350000X0.450000X0.350000X0*%
%ADD13RoundRect,0.250000X-0.475000X0.337500X-0.475000X-0.337500X0.475000X-0.337500X0.475000X0.337500X0*%
%ADD14RoundRect,0.250000X0.325000X0.450000X-0.325000X0.450000X-0.325000X-0.450000X0.325000X-0.450000X0*%
%ADD15RoundRect,0.250000X-0.450000X0.325000X-0.450000X-0.325000X0.450000X-0.325000X0.450000X0.325000X0*%
%ADD16R,0.250000X1.100000*%
%ADD17RoundRect,0.250000X-1.500000X-0.550000X1.500000X-0.550000X1.500000X0.550000X-1.500000X0.550000X0*%
%ADD18R,1.500000X0.900000*%
%ADD19R,0.900000X1.500000*%
%ADD20R,0.900000X0.900000*%
%ADD21RoundRect,0.250000X0.550000X-1.500000X0.550000X1.500000X-0.550000X1.500000X-0.550000X-1.500000X0*%
G04 APERTURE END LIST*
D10*
%TO.C,SW2*%
X108200000Y-74050000D03*
X108200000Y-80750000D03*
%TD*%
D11*
%TO.C,R1*%
X67800000Y-59665000D03*
X65800000Y-59665000D03*
%TD*%
D12*
%TO.C,R4*%
X104800000Y-109537500D03*
X104800000Y-111537500D03*
%TD*%
%TO.C,R6*%
X84726750Y-111000000D03*
X84726750Y-113000000D03*
%TD*%
%TO.C,R5*%
X82600000Y-111000000D03*
X82600000Y-113000000D03*
%TD*%
D13*
%TO.C,C4*%
X88900000Y-110962500D03*
X88900000Y-113037500D03*
%TD*%
D14*
%TO.C,D1*%
X67825000Y-57665000D03*
X65775000Y-57665000D03*
%TD*%
D15*
%TO.C,D2*%
X108300000Y-85900000D03*
X108300000Y-87950000D03*
%TD*%
D16*
%TO.C,U3*%
X107000000Y-114987500D03*
X107500000Y-114987500D03*
X108000000Y-114987500D03*
X108500000Y-114987500D03*
X109000000Y-114987500D03*
X109000000Y-110687500D03*
X108500000Y-110687500D03*
X108000000Y-110687500D03*
X107500000Y-110687500D03*
X107000000Y-110687500D03*
%TD*%
D10*
%TO.C,SW1*%
X87800000Y-55020688D03*
X87800000Y-61720688D03*
%TD*%
D17*
%TO.C,C2*%
X76300000Y-84500000D03*
X81700000Y-84500000D03*
%TD*%
D18*
%TO.C,U2*%
X92350000Y-51080000D03*
X92350000Y-52350000D03*
X92350000Y-53620000D03*
X92350000Y-54890000D03*
X92350000Y-56160000D03*
X92350000Y-57430000D03*
X92350000Y-58700000D03*
X92350000Y-59970000D03*
X92350000Y-61240000D03*
X92350000Y-62510000D03*
X92350000Y-63780000D03*
X92350000Y-65050000D03*
X92350000Y-66320000D03*
X92350000Y-67590000D03*
D19*
X95390000Y-68840000D03*
X96660000Y-68840000D03*
X97930000Y-68840000D03*
X99200000Y-68840000D03*
X100470000Y-68840000D03*
X101740000Y-68840000D03*
X103010000Y-68840000D03*
X104280000Y-68840000D03*
X105550000Y-68840000D03*
X106820000Y-68840000D03*
D18*
X109850000Y-67590000D03*
X109850000Y-66320000D03*
X109850000Y-65050000D03*
X109850000Y-63780000D03*
X109850000Y-62510000D03*
X109850000Y-61240000D03*
X109850000Y-59970000D03*
X109850000Y-58700000D03*
X109850000Y-57430000D03*
X109850000Y-56160000D03*
X109850000Y-54890000D03*
X109850000Y-53620000D03*
X109850000Y-52350000D03*
X109850000Y-51080000D03*
D20*
X98200000Y-57400000D03*
X98200000Y-58800000D03*
X98200000Y-60200000D03*
X99600000Y-57400000D03*
X99600000Y-58800000D03*
X99600000Y-60200000D03*
X101000000Y-57400000D03*
X101000000Y-58800000D03*
X101000000Y-60200000D03*
%TD*%
D12*
%TO.C,R3*%
X106300000Y-85900000D03*
X106300000Y-87900000D03*
%TD*%
D13*
%TO.C,C3*%
X102800000Y-109400000D03*
X102800000Y-111475000D03*
%TD*%
D12*
%TO.C,R7*%
X86800000Y-111000000D03*
X86800000Y-113000000D03*
%TD*%
D21*
%TO.C,C1*%
X57000000Y-72700000D03*
X57000000Y-67300000D03*
%TD*%
D12*
%TO.C,R2*%
X104300000Y-85925000D03*
X104300000Y-87925000D03*
%TD*%
M02*
