%TF.GenerationSoftware,KiCad,Pcbnew,9.0.0*%
%TF.CreationDate,2025-03-11T10:11:04+01:00*%
%TF.ProjectId,PCB_Watersysteem,5043425f-5761-4746-9572-737973746565,rev?*%
%TF.SameCoordinates,Original*%
%TF.FileFunction,Paste,Bot*%
%TF.FilePolarity,Positive*%
%FSLAX46Y46*%
G04 Gerber Fmt 4.6, Leading zero omitted, Abs format (unit mm)*
G04 Created by KiCad (PCBNEW 9.0.0) date 2025-03-11 10:11:04*
%MOMM*%
%LPD*%
G01*
G04 APERTURE LIST*
G04 Aperture macros list*
%AMRoundRect*
0 Rectangle with rounded corners*
0 $1 Rounding radius*
0 $2 $3 $4 $5 $6 $7 $8 $9 X,Y pos of 4 corners*
0 Add a 4 corners polygon primitive as box body*
4,1,4,$2,$3,$4,$5,$6,$7,$8,$9,$2,$3,0*
0 Add four circle primitives for the rounded corners*
1,1,$1+$1,$2,$3*
1,1,$1+$1,$4,$5*
1,1,$1+$1,$6,$7*
1,1,$1+$1,$8,$9*
0 Add four rect primitives between the rounded corners*
20,1,$1+$1,$2,$3,$4,$5,0*
20,1,$1+$1,$4,$5,$6,$7,0*
20,1,$1+$1,$6,$7,$8,$9,0*
20,1,$1+$1,$8,$9,$2,$3,0*%
G04 Aperture macros list end*
%ADD10RoundRect,0.250000X-0.325000X-0.450000X0.325000X-0.450000X0.325000X0.450000X-0.325000X0.450000X0*%
%ADD11RoundRect,0.250000X0.350000X0.450000X-0.350000X0.450000X-0.350000X-0.450000X0.350000X-0.450000X0*%
%ADD12RoundRect,0.150000X0.150000X-0.587500X0.150000X0.587500X-0.150000X0.587500X-0.150000X-0.587500X0*%
%ADD13RoundRect,0.250000X-0.475000X0.337500X-0.475000X-0.337500X0.475000X-0.337500X0.475000X0.337500X0*%
%ADD14RoundRect,0.250000X0.475000X-0.337500X0.475000X0.337500X-0.475000X0.337500X-0.475000X-0.337500X0*%
%ADD15RoundRect,0.250000X-0.350000X-0.450000X0.350000X-0.450000X0.350000X0.450000X-0.350000X0.450000X0*%
%ADD16RoundRect,0.150000X-0.150000X0.587500X-0.150000X-0.587500X0.150000X-0.587500X0.150000X0.587500X0*%
%ADD17RoundRect,0.150000X0.875000X0.150000X-0.875000X0.150000X-0.875000X-0.150000X0.875000X-0.150000X0*%
%ADD18RoundRect,0.250001X-0.924999X0.499999X-0.924999X-0.499999X0.924999X-0.499999X0.924999X0.499999X0*%
%ADD19RoundRect,0.250000X0.450000X-0.350000X0.450000X0.350000X-0.450000X0.350000X-0.450000X-0.350000X0*%
%ADD20RoundRect,0.150000X-0.587500X-0.150000X0.587500X-0.150000X0.587500X0.150000X-0.587500X0.150000X0*%
%ADD21RoundRect,0.250000X-0.450000X0.350000X-0.450000X-0.350000X0.450000X-0.350000X0.450000X0.350000X0*%
%ADD22RoundRect,0.375000X0.375000X-0.625000X0.375000X0.625000X-0.375000X0.625000X-0.375000X-0.625000X0*%
%ADD23RoundRect,0.500000X1.400000X-0.500000X1.400000X0.500000X-1.400000X0.500000X-1.400000X-0.500000X0*%
%ADD24R,2.400000X1.550000*%
G04 APERTURE END LIST*
D10*
%TO.C,D10*%
X65887600Y-138506200D03*
X67937600Y-138506200D03*
%TD*%
%TO.C,D9*%
X65878600Y-126492000D03*
X67928600Y-126492000D03*
%TD*%
%TO.C,D8*%
X77638800Y-122072400D03*
X79688800Y-122072400D03*
%TD*%
%TO.C,D7*%
X89729200Y-121996200D03*
X91779200Y-121996200D03*
%TD*%
%TO.C,D6*%
X65904000Y-114503200D03*
X67954000Y-114503200D03*
%TD*%
%TO.C,D5*%
X65827800Y-102463600D03*
X67877800Y-102463600D03*
%TD*%
%TO.C,D4*%
X65904000Y-90551000D03*
X67954000Y-90551000D03*
%TD*%
D11*
%TO.C,R13*%
X106800000Y-63300000D03*
X104800000Y-63300000D03*
%TD*%
D12*
%TO.C,Q1*%
X76550000Y-93337500D03*
X74650000Y-93337500D03*
X75600000Y-91462500D03*
%TD*%
D13*
%TO.C,C14*%
X108900000Y-116162500D03*
X108900000Y-118237500D03*
%TD*%
%TO.C,C13*%
X110900000Y-116162500D03*
X110900000Y-118237500D03*
%TD*%
D12*
%TO.C,Q3*%
X76250000Y-114000000D03*
X74350000Y-114000000D03*
X75300000Y-112125000D03*
%TD*%
D14*
%TO.C,C12*%
X108800000Y-108537500D03*
X108800000Y-106462500D03*
%TD*%
D15*
%TO.C,R11*%
X104800000Y-59300000D03*
X106800000Y-59300000D03*
%TD*%
D16*
%TO.C,Q6*%
X72650000Y-122262500D03*
X74550000Y-122262500D03*
X73600000Y-124137500D03*
%TD*%
D17*
%TO.C,U5*%
X89600000Y-99370000D03*
X89600000Y-100640000D03*
X89600000Y-101910000D03*
X89600000Y-103180000D03*
X89600000Y-104450000D03*
X89600000Y-105720000D03*
X89600000Y-106990000D03*
X89600000Y-108260000D03*
X89600000Y-109530000D03*
X89600000Y-110800000D03*
X89600000Y-112070000D03*
X89600000Y-113340000D03*
X89600000Y-114610000D03*
X89600000Y-115880000D03*
X80300000Y-115880000D03*
X80300000Y-114610000D03*
X80300000Y-113340000D03*
X80300000Y-112070000D03*
X80300000Y-110800000D03*
X80300000Y-109530000D03*
X80300000Y-108260000D03*
X80300000Y-106990000D03*
X80300000Y-105720000D03*
X80300000Y-104450000D03*
X80300000Y-103180000D03*
X80300000Y-101910000D03*
X80300000Y-100640000D03*
X80300000Y-99370000D03*
%TD*%
D18*
%TO.C,C8*%
X69500000Y-70375000D03*
X69500000Y-73625000D03*
%TD*%
D14*
%TO.C,C11*%
X110800000Y-108537500D03*
X110800000Y-106462500D03*
%TD*%
D19*
%TO.C,R9*%
X89800000Y-54200000D03*
X89800000Y-52200000D03*
%TD*%
D20*
%TO.C,Q4*%
X94662500Y-118350000D03*
X94662500Y-116450000D03*
X96537500Y-117400000D03*
%TD*%
D15*
%TO.C,R10*%
X104800000Y-57300000D03*
X106800000Y-57300000D03*
%TD*%
%TO.C,R12*%
X104800000Y-61300000D03*
X106800000Y-61300000D03*
%TD*%
D13*
%TO.C,C10*%
X108200000Y-74162500D03*
X108200000Y-76237500D03*
%TD*%
%TO.C,C6*%
X94400000Y-52325000D03*
X94400000Y-54400000D03*
%TD*%
D21*
%TO.C,R15*%
X86400000Y-95400000D03*
X86400000Y-97400000D03*
%TD*%
D14*
%TO.C,C9*%
X70000000Y-78037500D03*
X70000000Y-75962500D03*
%TD*%
D13*
%TO.C,C5*%
X96398000Y-52325000D03*
X96398000Y-54400000D03*
%TD*%
D12*
%TO.C,Q2*%
X76450000Y-103637500D03*
X74550000Y-103637500D03*
X75500000Y-101762500D03*
%TD*%
D22*
%TO.C,U4*%
X77300000Y-77650000D03*
X75000000Y-77650000D03*
D23*
X75000000Y-71350000D03*
D22*
X72700000Y-77650000D03*
%TD*%
D16*
%TO.C,Q5*%
X83750000Y-118225000D03*
X85650000Y-118225000D03*
X84700000Y-120100000D03*
%TD*%
D14*
%TO.C,C7*%
X87800000Y-54437500D03*
X87800000Y-52362500D03*
%TD*%
D15*
%TO.C,R8*%
X104800000Y-55300000D03*
X106800000Y-55300000D03*
%TD*%
D24*
%TO.C,D3*%
X74900000Y-81000000D03*
X79100000Y-81000000D03*
%TD*%
D16*
%TO.C,Q7*%
X74150000Y-128862500D03*
X76050000Y-128862500D03*
X75100000Y-130737500D03*
%TD*%
D21*
%TO.C,R14*%
X89300000Y-95400000D03*
X89300000Y-97400000D03*
%TD*%
M02*
