M48
; DRILL file {KiCad 9.0.0} date 2025-03-11T10:09:48+0100
; FORMAT={-:-/ absolute / metric / decimal}
; #@! TF.CreationDate,2025-03-11T10:09:48+01:00
; #@! TF.GenerationSoftware,Kicad,Pcbnew,9.0.0
; #@! TF.FileFunction,MixedPlating,1,2
FMAT,2
METRIC
; #@! TA.AperFunction,Plated,PTH,ViaDrill
T1C0.300
; #@! TA.AperFunction,Plated,PTH,ComponentDrill
T2C0.300
; #@! TA.AperFunction,Plated,PTH,ViaDrill
T3C0.400
; #@! TA.AperFunction,Plated,PTH,ViaDrill
T4C0.500
; #@! TA.AperFunction,Plated,PTH,ComponentDrill
T5C0.890
; #@! TA.AperFunction,Plated,PTH,ComponentDrill
T6C1.000
; #@! TA.AperFunction,Plated,PTH,ComponentDrill
T7C1.300
; #@! TA.AperFunction,Plated,PTH,ComponentDrill
T8C2.000
; #@! TA.AperFunction,Plated,PTH,ComponentDrill
T9C2.010
; #@! TA.AperFunction,Plated,PTH,ComponentDrill
T10C3.200
%
G90
G05
T1
X44.475Y-130.962
X44.679Y-84.938
X45.0Y-60.0
X45.0Y-65.0
X45.0Y-70.0
X45.0Y-80.0
X45.0Y-90.0
X45.0Y-100.0
X45.0Y-110.0
X45.0Y-115.0
X45.0Y-135.0
X45.0Y-140.0
X50.0Y-55.0
X50.0Y-60.0
X50.0Y-65.0
X50.0Y-70.0
X50.0Y-75.0
X50.0Y-85.0
X50.0Y-95.0
X50.0Y-110.0
X50.0Y-130.0
X50.0Y-135.0
X50.0Y-140.0
X50.013Y-99.67
X50.038Y-88.011
X55.0Y-55.0
X55.0Y-60.0
X55.0Y-70.0
X55.0Y-80.0
X55.0Y-95.0
X55.0Y-105.0
X55.0Y-130.0
X55.0Y-140.0
X60.0Y-55.0
X60.0Y-65.0
X60.0Y-70.0
X60.0Y-80.0
X60.0Y-90.0
X60.0Y-100.0
X60.0Y-105.0
X60.0Y-110.0
X60.0Y-115.0
X60.0Y-125.0
X60.0Y-135.0
X60.0Y-140.0
X65.0Y-55.0
X65.0Y-65.0
X65.0Y-70.0
X65.0Y-75.0
X65.0Y-80.0
X65.0Y-85.0
X65.0Y-140.0
X67.1Y-89.1
X67.1Y-93.8
X67.1Y-105.9
X67.1Y-129.5
X67.107Y-100.965
X67.132Y-113.03
X67.132Y-124.993
X67.132Y-136.931
X67.2Y-117.8
X67.8Y-59.665
X67.825Y-57.665
X68.4Y-83.3
X69.3Y-140.0
X70.0Y-55.0
X70.0Y-60.0
X70.0Y-65.0
X70.0Y-80.0
X70.0Y-135.0
X71.3Y-85.2
X72.7Y-119.7
X73.5Y-82.8
X74.3Y-100.7
X74.35Y-114.0
X74.55Y-103.637
X74.55Y-122.262
X74.65Y-93.337
X75.0Y-140.0
X76.05Y-115.8
X76.05Y-128.862
X76.5Y-86.4
X76.5Y-121.0
X77.1Y-81.6
X78.9Y-129.5
X79.1Y-78.7
X79.1Y-81.0
X79.2Y-126.8
X80.0Y-70.0
X80.0Y-90.0
X80.0Y-95.0
X80.0Y-130.0
X80.0Y-135.0
X80.0Y-140.0
X80.3Y-112.07
X80.3Y-113.34
X80.3Y-114.61
X80.3Y-115.88
X81.6Y-80.9
X81.7Y-120.6
X82.0Y-109.8
X82.296Y-100.584
X82.296Y-102.616
X82.296Y-104.648
X82.3Y-106.5
X84.0Y-98.2
X84.328Y-100.584
X84.328Y-102.616
X84.328Y-104.648
X84.328Y-106.68
X85.0Y-70.0
X85.0Y-75.0
X85.0Y-80.0
X85.0Y-85.0
X85.0Y-130.0
X85.0Y-140.0
X85.65Y-118.225
X85.852Y-108.204
X85.852Y-109.728
X86.36Y-100.584
X86.36Y-102.616
X86.36Y-104.648
X86.36Y-106.68
X86.4Y-99.3
X87.6Y-115.1
X87.8Y-52.362
X87.8Y-61.721
X88.575Y-109.53
X89.8Y-119.8
X90.0Y-70.0
X90.0Y-75.0
X90.0Y-80.0
X90.0Y-85.0
X90.0Y-125.0
X90.6Y-50.9
X90.7Y-110.8
X92.35Y-51.08
X92.35Y-59.97
X92.35Y-61.24
X92.35Y-62.51
X92.35Y-63.78
X92.35Y-65.05
X92.35Y-66.32
X93.1Y-94.5
X93.5Y-86.6
X94.1Y-83.7
X94.1Y-98.4
X94.4Y-80.0
X94.662Y-116.45
X94.7Y-75.8
X95.0Y-60.0
X95.0Y-65.0
X95.0Y-102.7
X95.0Y-125.0
X95.3Y-120.1
X95.39Y-68.84
X95.4Y-104.9
X96.1Y-106.8
X96.9Y-108.5
X97.3Y-80.0
X97.3Y-83.6
X98.4Y-66.8
X98.5Y-53.6
X98.7Y-51.0
X100.0Y-55.0
X100.0Y-65.0
X100.0Y-125.0
X101.5Y-83.8
X102.4Y-81.0
X102.8Y-109.4
X102.8Y-111.475
X102.9Y-63.0
X103.4Y-56.1
X104.0Y-80.9
X104.0Y-83.8
X104.1Y-65.2
X104.3Y-87.925
X105.0Y-75.0
X105.0Y-80.0
X105.0Y-90.0
X105.0Y-120.0
X105.0Y-125.0
X105.0Y-130.0
X105.156Y-108.28
X105.32Y-65.02
X105.8Y-67.3
X105.9Y-93.6
X105.95Y-65.65
X106.25Y-111.188
X106.8Y-55.3
X107.088Y-111.926
X107.3Y-65.6
X107.6Y-116.237
X107.8Y-103.0
X108.0Y-113.938
X108.1Y-95.4
X108.2Y-55.8
X108.2Y-74.05
X108.2Y-76.237
X108.2Y-80.75
X108.3Y-85.9
X108.5Y-108.6
X108.5Y-116.237
X109.2Y-106.2
X109.2Y-118.337
X109.85Y-51.08
X109.85Y-61.24
X109.85Y-62.51
X109.85Y-63.78
X109.85Y-67.6
X110.0Y-130.0
X110.5Y-106.3
X110.894Y-108.794
X110.9Y-118.237
X111.14Y-115.727
X114.0Y-114.8
X114.0Y-116.7
X114.0Y-131.6
X114.2Y-99.7
X114.5Y-129.1
X115.0Y-55.0
X115.0Y-75.0
X115.4Y-101.4
X115.5Y-84.1
X117.4Y-84.2
T2
X98.2Y-58.1
X98.2Y-59.5
X98.9Y-57.4
X98.9Y-58.8
X98.9Y-60.2
X99.575Y-58.1
X99.575Y-59.5
X100.3Y-57.4
X100.3Y-58.8
X100.3Y-60.2
X101.0Y-58.1
X101.0Y-59.5
T3
X71.5Y-72.0
X71.5Y-73.5
X71.5Y-75.0
X71.5Y-76.5
X72.0Y-69.5
X73.5Y-69.5
X76.5Y-69.5
X78.0Y-69.5
X78.5Y-72.5
X78.5Y-74.0
X78.5Y-75.5
X94.4Y-54.4
X96.398Y-54.4
T4
X57.0Y-67.3
X69.5Y-73.625
X70.0Y-75.962
X77.3Y-77.65
X81.7Y-84.5
X87.8Y-55.021
X92.35Y-52.35
X92.35Y-53.62
X109.85Y-54.89
T5
X116.4Y-79.75
X116.4Y-82.29
X116.4Y-96.5
X116.4Y-99.04
X116.4Y-113.25
X116.4Y-115.79
X116.4Y-130.0
X116.4Y-132.54
T6
X61.0Y-57.0
X61.0Y-59.54
X63.0Y-65.332
X63.0Y-67.872
X63.0Y-76.0
X63.0Y-78.54
X71.18Y-82.83
X71.18Y-90.43
X71.18Y-94.84
X71.18Y-102.44
X71.19Y-130.84
X71.19Y-138.44
X71.2Y-106.833
X71.2Y-114.433
X71.2Y-118.84
X71.2Y-126.44
X74.98Y-53.75
X74.98Y-57.55
X74.98Y-61.35
X77.52Y-53.75
X77.52Y-57.55
X77.52Y-61.35
X80.0Y-119.7
X80.06Y-53.75
X80.06Y-57.55
X80.06Y-61.35
X81.542Y-65.332
X81.542Y-67.872
X81.542Y-76.0
X81.542Y-78.54
X82.6Y-53.75
X82.6Y-57.55
X82.6Y-61.35
X85.7Y-90.2
X85.7Y-92.74
X87.6Y-119.7
X89.4Y-90.2
X89.4Y-92.74
X92.01Y-119.68
X95.895Y-78.2
X95.9Y-81.8
X95.92Y-85.4
X96.0Y-71.8
X98.4Y-98.1
X98.4Y-100.64
X98.4Y-103.18
X98.4Y-105.72
X98.4Y-108.26
X98.4Y-110.8
X98.435Y-78.2
X98.44Y-81.8
X98.46Y-85.4
X98.54Y-71.8
X99.61Y-119.68
X100.975Y-78.2
X100.98Y-81.8
X101.0Y-85.4
X101.08Y-71.8
X103.62Y-71.8
T7
X47.473Y-120.171
X47.473Y-125.171
X47.473Y-132.109
X47.473Y-137.109
X47.498Y-96.19
X47.498Y-101.19
X47.498Y-108.157
X47.498Y-113.157
X47.523Y-67.695
X47.523Y-72.695
X47.523Y-84.154
X47.523Y-89.154
X77.6Y-143.4
X82.6Y-143.4
X90.8Y-143.4
X95.8Y-143.4
X102.3Y-143.4
X107.3Y-143.4
T8
X55.94Y-89.93
X55.94Y-101.94
X55.95Y-137.94
X55.96Y-113.933
X55.96Y-125.94
X58.48Y-83.33
X58.48Y-95.34
X58.49Y-131.34
X58.5Y-107.333
X58.5Y-119.34
X80.5Y-132.4
X87.1Y-134.94
X92.51Y-132.38
X99.11Y-134.92
T9
X121.48Y-77.21
X121.48Y-87.37
X121.48Y-93.96
X121.48Y-104.12
X121.48Y-110.71
X121.48Y-120.87
X121.48Y-127.46
X121.48Y-137.62
T10
X45.0Y-54.5
X45.0Y-145.5
X125.25Y-54.5
X125.25Y-145.5
M30
