0
SECTION
2
HEADER
9
$ANGDIR
70
1
9
$AUNITS
70
0
9
$PROJECTNAME
1
powermeting
9
$TDCREATE
40
2460808.36653320
9
$INSUNITS
70
4
0
ENDSEC
0
SECTION
2
ENTITIES
0
POLYLINE
66
1
8
outline
10
0.0
20
0.0
30
0.0
70
1
0
VERTEX
8
0
10
0.24130000000000001
20
3.1750000000000003
30
0
0
VERTEX
8
0
10
72.06
20
3.1750000000000003
30
0
0
VERTEX
8
0
10
72.3775
20
29.220000000000002
30
0
0
VERTEX
8
0
10
0.5588000000000001
20
29.220000000000002
30
0
0
VERTEX
8
0
10
0.24130000000000001
20
3.1750000000000003
30
0
0
SEQEND
0
POLYLINE
66
1
8
1_copper
10
0.0
20
0.0
30
0.0
70
1
0
VERTEX
8
0
10
9.3311125
20
13.993028125
30
0
42
0.29147367032718574
0
VERTEX
8
0
10
8.547815625
20
14.541500000000001
30
0
0
VERTEX
8
0
10
6.692184375
20
14.541500000000001
30
0
0
VERTEX
8
0
10
6.614853125000001
20
14.534734375000001
30
0
42
0.29147416119494524
0
VERTEX
8
0
10
5.8823375
20
13.92008125
30
0
0
VERTEX
8
0
10
5.878703125
20
13.9065125
30
0
0
VERTEX
8
0
10
5.56255
20
13.9065125
30
0
0
VERTEX
8
0
10
5.56659375
20
13.932040625
30
0
0
VERTEX
8
0
10
5.5945687500000005
20
14.018134375
30
0
42
5.985949430987591e-5
0
VERTEX
8
0
10
5.594590625
20
14.018203125000001
30
0
0
VERTEX
8
0
10
5.6246656250000004
20
14.110765625
30
0
0
VERTEX
8
0
10
5.688162500000001
20
14.235384375
30
0
0
VERTEX
8
0
10
5.688175
20
14.23540625
30
0
0
VERTEX
8
0
10
5.6881843750000005
20
14.235431250000001
30
0
0
VERTEX
8
0
10
5.709968750000001
20
14.278184375
30
0
0
VERTEX
8
0
10
5.820412500000001
20
14.430196875
30
0
0
VERTEX
8
0
10
5.9533000000000005
20
14.563084375
30
0
0
VERTEX
8
0
10
6.0921
20
14.663928125
30
0
0
VERTEX
8
0
10
6.0995718750000005
20
14.670309375
30
0
42
0.508886752293794
0
VERTEX
8
0
10
6.08415
20
15.07975625
30
0
0
VERTEX
8
0
10
6.07623125
20
15.085550000000001
30
0
42
0.03567970643787798
0
VERTEX
8
0
10
6.039996875
20
15.1040875
30
0
0
VERTEX
8
0
10
6.011603125000001
20
15.115846875
30
0
0
VERTEX
8
0
10
5.654343750000001
20
15.47310625
30
0
0
VERTEX
8
0
10
5.502834375
20
15.8388875
30
0
0
VERTEX
8
0
10
5.4941031250000005
20
15.856031250000001
30
0
0
VERTEX
8
0
10
5.48488125
20
15.874171875
30
0
0
VERTEX
8
0
10
5.484809375
20
15.874271875000002
30
0
0
VERTEX
8
0
10
5.4847625
20
15.8743625
30
0
0
VERTEX
8
0
10
5.475075
20
15.887703125000002
30
0
0
VERTEX
8
0
10
5.4615156250000005
20
15.906409375
30
0
42
0.03924578741684057
0
VERTEX
8
0
10
5.433400000000001
20
15.934596875
30
0
0
VERTEX
8
0
10
5.433318750000001
20
15.934656250000002
30
0
0
VERTEX
8
0
10
5.43323125
20
15.93474375
30
0
0
VERTEX
8
0
10
5.414831250000001
20
15.948131250000001
30
0
0
VERTEX
8
0
10
5.401225
20
15.958046875
30
0
0
VERTEX
8
0
10
5.40114375
20
15.958087500000001
30
0
0
VERTEX
8
0
10
5.4010375
20
15.958165625000001
30
0
42
0.039025447249600866
0
VERTEX
8
0
10
5.3657843750000005
20
15.976181250000002
30
0
0
VERTEX
8
0
10
5.365671875
20
15.976218750000001
30
0
0
VERTEX
8
0
10
5.365578125
20
15.976265625
30
0
42
0.03902851173049681
0
VERTEX
8
0
10
5.327940625
20
15.988553125000001
30
0
0
VERTEX
8
0
10
5.3278375
20
15.98856875
30
0
0
VERTEX
8
0
10
5.327725
20
15.98860625
30
0
42
0.07839299659450608
0
VERTEX
8
0
10
5.24881875
20
15.994950000000001
30
0
0
VERTEX
8
0
10
5.248696875
20
15.99493125
30
0
0
VERTEX
8
0
10
5.2485968750000005
20
15.99493125
30
0
0
VERTEX
8
0
10
5.2309625
20
15.992165625
30
0
0
VERTEX
8
0
10
5.2094812500000005
20
15.988815625
30
0
0
VERTEX
8
0
10
5.209365625
20
15.988778125000001
30
0
0
VERTEX
8
0
10
5.2092656250000005
20
15.9887625
30
0
42
0.0786146913217126
0
VERTEX
8
0
10
5.135871875
20
15.958515625
30
0
0
VERTEX
8
0
10
5.118803125
20
15.94616875
30
0
0
VERTEX
8
0
10
5.1037875
20
15.935321875000001
30
0
0
VERTEX
8
0
10
5.103715625
20
15.93525
30
0
0
VERTEX
8
0
10
5.103615625000001
20
15.935178125
30
0
0
VERTEX
8
0
10
5.088290625
20
15.91991875
30
0
0
VERTEX
8
0
10
5.075550000000001
20
15.907256250000001
30
0
0
VERTEX
8
0
10
5.0754906250000005
20
15.907171875000001
30
0
0
VERTEX
8
0
10
5.075403125
20
15.907087500000001
30
0
0
VERTEX
8
0
10
5.062940625
20
15.890021875
30
0
0
VERTEX
8
0
10
5.05204375
20
15.875125
30
0
0
VERTEX
8
0
10
5.051996875
20
15.875031250000001
30
0
0
VERTEX
8
0
10
5.051925000000001
20
15.874934375
30
0
0
VERTEX
8
0
10
5.033759375
20
15.839506250000001
30
0
0
VERTEX
8
0
10
5.033653125
20
15.839187500000001
30
0
0
VERTEX
8
0
10
5.033503125
20
15.838890625000001
30
0
0
VERTEX
8
0
10
5.0206875
20
15.807953125000001
30
0
0
VERTEX
8
0
10
4.856346875
20
15.643612500000001
30
0
0
VERTEX
8
0
10
4.6866
20
15.573303125
30
0
0
VERTEX
8
0
10
4.668675
20
15.564171875000001
30
0
0
VERTEX
8
0
10
4.651693750000001
20
15.555578125
30
0
42
0.11888751077315457
0
VERTEX
8
0
10
4.567325
20
15.471506250000001
30
0
0
VERTEX
8
0
10
4.549221875000001
20
15.436046875
30
0
42
0.00022334942533102904
0
VERTEX
8
0
10
4.549134375
20
15.4358375
30
0
0
VERTEX
8
0
10
4.478821875
20
15.266084375
30
0
0
VERTEX
8
0
10
4.3005562500000005
20
15.087821875000001
30
0
0
VERTEX
8
0
10
4.2941875000000005
20
15.08036875
30
0
42
0.39091149174810985
0
VERTEX
8
0
10
4.29366875
20
14.73664375
30
0
0
VERTEX
8
0
10
4.300237500000001
20
14.728928125000001
30
0
42
0.0916148081323588
0
VERTEX
8
0
10
4.38296875
20
14.673546875000001
30
0
0
VERTEX
8
0
10
4.38504375
20
14.6726875
30
0
0
VERTEX
8
0
10
4.549381250000001
20
14.50835
30
0
0
VERTEX
8
0
10
4.638321875
20
14.293634375
30
0
0
VERTEX
8
0
10
4.638321875
20
12.97749375
30
0
0
VERTEX
8
0
10
4.549381250000001
20
12.762778125
30
0
0
VERTEX
8
0
10
4.38504375
20
12.598440625
30
0
0
VERTEX
8
0
10
4.170328125
20
12.509500000000001
30
0
0
VERTEX
8
0
10
3.93791875
20
12.509500000000001
30
0
0
VERTEX
8
0
10
3.7232031250000004
20
12.598440625
30
0
0
VERTEX
8
0
10
3.558865625
20
12.762778125
30
0
0
VERTEX
8
0
10
3.4699250000000004
20
12.97749375
30
0
0
VERTEX
8
0
10
3.4699250000000004
20
14.293634375
30
0
0
VERTEX
8
0
10
3.558865625
20
14.508353125000001
30
0
0
VERTEX
8
0
10
3.73713125
20
14.686615625
30
0
0
VERTEX
8
0
10
3.7435
20
14.694068750000001
30
0
42
0.39091149174810985
0
VERTEX
8
0
10
3.7440187500000004
20
15.03779375
30
0
0
VERTEX
8
0
10
3.7374500000000004
20
15.045509375
30
0
42
0.0916148081323588
0
VERTEX
8
0
10
3.6547187500000002
20
15.100890625
30
0
0
VERTEX
8
0
10
3.65264375
20
15.101750000000001
30
0
0
VERTEX
8
0
10
3.4883031250000003
20
15.266090625
30
0
0
VERTEX
8
0
10
3.4179937500000004
20
15.4358375
30
0
0
VERTEX
8
0
10
3.4090031250000004
20
15.453487500000001
30
0
0
VERTEX
8
0
10
3.40026875
20
15.47074375
30
0
42
0.11888751077315457
0
VERTEX
8
0
10
3.316196875
20
15.5551125
30
0
0
VERTEX
8
0
10
3.2807375000000003
20
15.573215625000001
30
0
42
0.00022334942533102904
0
VERTEX
8
0
10
3.280528125
20
15.573303125
30
0
0
VERTEX
8
0
10
3.11078125
20
15.643612500000001
30
0
0
VERTEX
8
0
10
2.946440625
20
15.807953125000001
30
0
0
VERTEX
8
0
10
2.8575
20
16.02266875
30
0
0
VERTEX
8
0
10
2.8575
20
16.255078125
30
0
0
VERTEX
8
0
10
2.946440625
20
16.46979375
30
0
0
VERTEX
8
0
10
3.11078125
20
16.634134375000002
30
0
0
VERTEX
8
0
10
3.2798968750000004
20
16.704184375
30
0
0
VERTEX
8
0
10
3.2799093750000003
20
16.7041875
30
0
0
VERTEX
8
0
10
3.2799218750000003
20
16.70419375
30
0
0
VERTEX
8
0
10
3.2805250000000004
20
16.70444375
30
0
42
0.03924640429340027
0
VERTEX
8
0
10
3.3160000000000003
20
16.722515625
30
0
0
VERTEX
8
0
10
3.330746875
20
16.733225
30
0
0
VERTEX
8
0
10
3.347709375
20
16.745475000000003
30
0
42
0.07927568616975192
0
VERTEX
8
0
10
3.399803125
20
16.80624375
30
0
0
VERTEX
8
0
10
3.41790625
20
16.8417
30
0
0
VERTEX
8
0
10
3.417946875
20
16.841821875
30
0
0
VERTEX
8
0
10
3.4179906250000003
20
16.841909375
30
0
0
VERTEX
8
0
10
3.4883031250000003
20
17.011659375
30
0
0
VERTEX
8
0
10
3.65264375
20
17.176000000000002
30
0
0
VERTEX
8
0
10
3.8673593750000004
20
17.264940625
30
0
0
VERTEX
8
0
10
4.09976875
20
17.264940625
30
0
0
VERTEX
8
0
10
4.314484375
20
17.176000000000002
30
0
0
VERTEX
8
0
10
4.4788250000000005
20
17.011659375
30
0
0
VERTEX
8
0
10
4.5491375000000005
20
16.841909375
30
0
0
VERTEX
8
0
10
4.5584125
20
16.823700000000002
30
0
0
VERTEX
8
0
10
4.5668625
20
16.807003125
30
0
42
0.11889180092478509
0
VERTEX
8
0
10
4.6509375
20
16.72263125
30
0
0
VERTEX
8
0
10
4.686396875
20
16.704528125
30
0
0
VERTEX
8
0
10
4.686509375
20
16.704490625000002
30
0
0
VERTEX
8
0
10
4.686603125
20
16.70444375
30
0
0
VERTEX
8
0
10
4.856346875
20
16.634134375000002
30
0
0
VERTEX
8
0
10
5.02506875
20
16.4654125
30
0
0
VERTEX
8
0
10
5.029246875
20
16.457193750000002
30
0
0
VERTEX
8
0
10
5.029303125
20
16.457115625
30
0
0
VERTEX
8
0
10
5.02935625
20
16.4570125
30
0
42
0.03903936462654915
0
VERTEX
8
0
10
5.0526125
20
16.42495625
30
0
0
VERTEX
8
0
10
5.05269375
20
16.424875
30
0
0
VERTEX
8
0
10
5.0527500000000005
20
16.424796875000002
30
0
42
0.07840297997270558
0
VERTEX
8
0
10
5.112900000000001
20
16.37331875
30
0
0
VERTEX
8
0
10
5.1130031250000005
20
16.373265625000002
30
0
0
VERTEX
8
0
10
5.1130812500000005
20
16.373209375000002
30
0
0
VERTEX
8
0
10
5.129434375000001
20
16.364859375
30
0
0
VERTEX
8
0
10
5.14834375
20
16.3551875
30
0
42
0.07861544402278949
0
VERTEX
8
0
10
5.225496875
20
16.33650625
30
0
0
VERTEX
8
0
10
5.225609375
20
16.33650625
30
0
0
VERTEX
8
0
10
5.22570625
20
16.336490625
30
0
42
0.039245891332286065
0
VERTEX
8
0
10
5.26551875
20
16.336434375
30
0
0
VERTEX
8
0
10
5.286640625
20
16.339746875
30
0
0
VERTEX
8
0
10
5.304646875
20
16.34255625
30
0
0
VERTEX
8
0
10
5.304734375000001
20
16.342584375
30
0
0
VERTEX
8
0
10
5.304853125
20
16.342603125
30
0
0
VERTEX
8
0
10
5.326478125
20
16.349587500000002
30
0
0
VERTEX
8
0
10
5.342540625
20
16.3547625
30
0
0
VERTEX
8
0
10
5.342618750000001
20
16.354803125
30
0
0
VERTEX
8
0
10
5.3427375
20
16.354840625
30
0
0
VERTEX
8
0
10
5.362246875
20
16.3647375
30
0
0
VERTEX
8
0
10
5.3780625
20
16.372740625000002
30
0
42
0.07861308191605057
0
VERTEX
8
0
10
5.438578125
20
16.4241125
30
0
0
VERTEX
8
0
10
5.438646875
20
16.42420625
30
0
0
VERTEX
8
0
10
5.438715625
20
16.424275
30
0
0
VERTEX
8
0
10
5.449171875
20
16.438593750000003
30
0
0
VERTEX
8
0
10
5.462084375
20
16.456246875
30
0
0
VERTEX
8
0
10
5.4621375
20
16.456353125
30
0
0
VERTEX
8
0
10
5.46219375
20
16.456428125000002
30
0
0
VERTEX
8
0
10
5.4803625
20
16.491853125000002
30
0
42
0.0006688660770662846
0
VERTEX
8
0
10
5.480621875000001
20
16.49248125
30
0
0
VERTEX
8
0
10
5.654343750000001
20
16.911890625
30
0
0
VERTEX
8
0
10
5.95810625
20
17.215653125
30
0
0
VERTEX
8
0
10
5.97095625
20
17.230696875
30
0
0
VERTEX
8
0
10
5.983571875
20
17.245384375
30
0
42
0.1188925591799206
0
VERTEX
8
0
10
6.029343750000001
20
17.35535
30
0
0
VERTEX
8
0
10
6.032500000000001
20
17.3950375
30
0
42
0.00021838085343866683
0
VERTEX
8
0
10
6.032500000000001
20
17.395259375000002
30
0
0
VERTEX
8
0
10
6.032500000000001
20
20.890115625
30
0
0
VERTEX
8
0
10
6.114765625
20
21.08871875
30
0
0
VERTEX
8
0
10
6.11773125
20
21.097840625
30
0
42
0.02668522915130417
0
VERTEX
8
0
10
6.126568750000001
20
21.125034375000002
30
0
0
VERTEX
8
0
10
6.129650000000001
20
21.13105625
30
0
42
0.030163867519883387
0
VERTEX
8
0
10
6.14358125
20
21.1582875
30
0
0
VERTEX
8
0
10
6.22584375
20
21.356890625000002
30
0
0
VERTEX
8
0
10
6.58310625
20
21.714153125
30
0
0
VERTEX
8
0
10
6.781709375
20
21.796415625
30
0
0
VERTEX
8
0
10
6.7902562500000005
20
21.80076875
30
0
42
0.026682002587109916
0
VERTEX
8
0
10
6.815731250000001
20
21.813746875
30
0
0
VERTEX
8
0
10
6.822165625
20
21.815825
30
0
42
0.030170097027058976
0
VERTEX
8
0
10
6.851278125
20
21.82523125
30
0
0
VERTEX
8
0
10
7.04988125
20
21.907496875
30
0
0
VERTEX
8
0
10
7.555115625
20
21.907496875
30
0
0
VERTEX
8
0
10
7.75371875
20
21.82523125
30
0
0
VERTEX
8
0
10
7.762840625
20
21.822265625
30
0
42
0.02668522915130417
0
VERTEX
8
0
10
7.790034375
20
21.813428125
30
0
0
VERTEX
8
0
10
7.79605625
20
21.810346875
30
0
42
0.030163867519883387
0
VERTEX
8
0
10
7.8232875
20
21.796415625
30
0
0
VERTEX
8
0
10
8.021896875000001
20
21.71415
30
0
0
VERTEX
8
0
10
8.392890625
20
21.343153125
30
0
0
VERTEX
8
0
10
8.407356250000001
20
21.330796875
30
0
0
VERTEX
8
0
10
8.422803125
20
21.317553125
30
0
42
0.07861272482293717
0
VERTEX
8
0
10
8.493456250000001
20
21.281368750000002
30
0
0
VERTEX
8
0
10
8.49365625
20
21.281321875
30
0
0
VERTEX
8
0
10
8.493878125
20
21.281228125000002
30
0
42
0.15775566777786088
0
VERTEX
8
0
10
8.650265625000001
20
21.280956250000003
30
0
0
VERTEX
8
0
10
8.650456250000001
20
21.281034375
30
0
0
VERTEX
8
0
10
8.650690625000001
20
21.281090625
30
0
42
0.07861333258097596
0
VERTEX
8
0
10
8.72146875
20
21.31703125
30
0
0
VERTEX
8
0
10
8.751784375
20
21.342834375000002
30
0
0
VERTEX
8
0
10
8.751925
20
21.342996875
30
0
0
VERTEX
8
0
10
8.752103125
20
21.34315
30
0
0
VERTEX
8
0
10
8.81810625
20
21.409153125
30
0
42
0.15820544126615552
0
VERTEX
8
0
10
8.88934375
20
21.54885
30
0
0
VERTEX
8
0
10
8.8925
20
21.5885375
30
0
42
0.00021838085343866683
0
VERTEX
8
0
10
8.8925
20
21.588759375000002
30
0
0
VERTEX
8
0
10
8.8925
20
25.017615625
30
0
0
VERTEX
8
0
10
9.08584375
20
25.484390625
30
0
0
VERTEX
8
0
10
9.131612500000001
20
25.53015625
30
0
42
0.09849734197515327
0
VERTEX
8
0
10
9.186675000000001
20
25.612565625000002
30
0
0
VERTEX
8
0
10
9.220178125
20
25.693453125
30
0
0
VERTEX
8
0
10
9.384040625
20
25.857315625000002
30
0
0
VERTEX
8
0
10
9.59813125
20
25.945996875000002
30
0
0
VERTEX
8
0
10
9.64449375
20
25.945996875000002
30
0
42
0.09849272595214832
0
VERTEX
8
0
10
9.741696875
20
25.965331250000002
30
0
0
VERTEX
8
0
10
9.90988125
20
26.034996875
30
0
0
VERTEX
8
0
10
10.415115625
20
26.034996875
30
0
0
VERTEX
8
0
10
10.583300000000001
20
25.965331250000002
30
0
0
VERTEX
8
0
10
10.592421875000001
20
25.962365625
30
0
42
0.05865197407506995
0
VERTEX
8
0
10
10.6500125
20
25.94845
30
0
0
VERTEX
8
0
10
10.660484375000001
20
25.946787500000003
30
0
42
0.017033787399147546
0
VERTEX
8
0
10
10.680503125000001
20
25.945996875000002
30
0
0
VERTEX
8
0
10
10.726865625
20
25.945996875000002
30
0
0
VERTEX
8
0
10
10.940953125
20
25.85731875
30
0
0
VERTEX
8
0
10
10.9941375
20
25.80413125
30
0
42
0.32453115452290066
0
VERTEX
8
0
10
11.2887375
20
25.75725625
30
0
0
VERTEX
8
0
10
11.302196875
20
25.765475000000002
30
0
0
VERTEX
8
0
10
11.3148625
20
25.772540625
30
0
0
VERTEX
8
0
10
11.374178125
20
25.812171875
30
0
0
VERTEX
8
0
10
11.466321875
20
25.850340625
30
0
0
VERTEX
8
0
10
11.564128125
20
25.869796875000002
30
0
0
VERTEX
8
0
10
11.73749375
20
25.869796875000002
30
0
0
VERTEX
8
0
10
11.73749375
20
25.565
30
0
0
VERTEX
8
0
10
11.594153125
20
25.565
30
0
0
VERTEX
8
0
10
11.555225
20
25.557256250000002
30
0
0
VERTEX
8
0
10
11.518553125
20
25.542065625000003
30
0
0
VERTEX
8
0
10
11.48555
20
25.520015625000003
30
0
0
VERTEX
8
0
10
11.457484375
20
25.491950000000003
30
0
0
VERTEX
8
0
10
11.435434375
20
25.458946875000002
30
0
0
VERTEX
8
0
10
11.420243750000001
20
25.422275000000003
30
0
0
VERTEX
8
0
10
11.412500000000001
20
25.383346875
30
0
0
VERTEX
8
0
10
11.412500000000001
20
24.146653125
30
0
0
VERTEX
8
0
10
11.420243750000001
20
24.107725000000002
30
0
0
VERTEX
8
0
10
11.435434375
20
24.071053125000002
30
0
0
VERTEX
8
0
10
11.457484375
20
24.038050000000002
30
0
0
VERTEX
8
0
10
11.48555
20
24.009984375000002
30
0
0
VERTEX
8
0
10
11.518553125
20
23.987934375000002
30
0
0
VERTEX
8
0
10
11.555225
20
23.972743750000003
30
0
0
VERTEX
8
0
10
11.594153125
20
23.965
30
0
0
VERTEX
8
0
10
11.73749375
20
23.965
30
0
0
VERTEX
8
0
10
11.73749375
20
23.6602
30
0
0
VERTEX
8
0
10
11.686496875000001
20
23.6602
30
0
42
0.3684700915868439
0
VERTEX
8
0
10
11.4356875
20
23.44633125
30
0
0
VERTEX
8
0
10
11.432496875
20
23.406646875
30
0
42
0.0004398371729773942
0
VERTEX
8
0
10
11.432496875
20
23.406200000000002
30
0
0
VERTEX
8
0
10
11.432496875
20
20.70488125
30
0
0
VERTEX
8
0
10
11.23915
20
20.238103125000002
30
0
0
VERTEX
8
0
10
10.561890625
20
19.56084375
30
0
0
VERTEX
8
0
10
10.3632875
20
19.47858125
30
0
0
VERTEX
8
0
10
10.354740625
20
19.474228125
30
0
42
0.026682002587109916
0
VERTEX
8
0
10
10.329265625
20
19.46125
30
0
0
VERTEX
8
0
10
10.32283125
20
19.459171875000003
30
0
42
0.030170097027058976
0
VERTEX
8
0
10
10.29371875
20
19.449765625
30
0
0
VERTEX
8
0
10
10.095115625
20
19.3675
30
0
0
VERTEX
8
0
10
9.589881250000001
20
19.3675
30
0
0
VERTEX
8
0
10
9.391278125000001
20
19.449765625
30
0
0
VERTEX
8
0
10
9.382156250000001
20
19.45273125
30
0
42
0.02668522915130417
0
VERTEX
8
0
10
9.354962500000001
20
19.46156875
30
0
0
VERTEX
8
0
10
9.348940625000001
20
19.464650000000002
30
0
42
0.030163867519883387
0
VERTEX
8
0
10
9.321709375000001
20
19.47858125
30
0
0
VERTEX
8
0
10
9.1231
20
19.560846875
30
0
0
VERTEX
8
0
10
9.006103125000001
20
19.677846875
30
0
0
VERTEX
8
0
10
8.991540625
20
19.690284375
30
0
0
VERTEX
8
0
10
8.976009375
20
19.703578125
30
0
0
VERTEX
8
0
10
8.975909375
20
19.703640625000002
30
0
0
VERTEX
8
0
10
8.97583125
20
19.70370625
30
0
0
VERTEX
8
0
10
8.960634375
20
19.713025000000002
30
0
0
VERTEX
8
0
10
8.942087500000001
20
19.72441875
30
0
42
0.0002173379184390878
0
VERTEX
8
0
10
8.941890625000001
20
19.72451875
30
0
0
VERTEX
8
0
10
8.925025
20
19.7315125
30
0
0
VERTEX
8
0
10
8.905325000000001
20
19.739703125000002
30
0
0
VERTEX
8
0
10
8.905203125
20
19.739731250000002
30
0
0
VERTEX
8
0
10
8.905115625
20
19.73976875
30
0
0
VERTEX
8
0
10
8.88831875
20
19.7438125
30
0
0
VERTEX
8
0
10
8.866628125
20
19.749053125
30
0
42
0.11822454931339381
0
VERTEX
8
0
10
8.748515625
20
19.739978125
30
0
0
VERTEX
8
0
10
8.74840625
20
19.739934375
30
0
0
VERTEX
8
0
10
8.74830625
20
19.739909375
30
0
42
0.15798279300395632
0
VERTEX
8
0
10
8.621425
20
19.648118750000002
30
0
0
VERTEX
8
0
10
8.6213625
20
19.648015625
30
0
0
VERTEX
8
0
10
8.621296875
20
19.647940625
30
0
0
VERTEX
8
0
10
8.611565625
20
19.63213125
30
0
0
VERTEX
8
0
10
8.600525000000001
20
19.61423125
30
0
42
0.039461926730396835
0
VERTEX
8
0
10
8.585109375
20
19.5772875
30
0
0
VERTEX
8
0
10
8.580134375
20
19.556787500000002
30
0
0
VERTEX
8
0
10
8.575759375
20
19.538815625
30
0
0
VERTEX
8
0
10
8.575753125
20
19.53871875
30
0
0
VERTEX
8
0
10
8.575721875000001
20
19.538596875
30
0
0
VERTEX
8
0
10
8.572496875
20
19.498915625000002
30
0
42
0.0006612928453909052
0
VERTEX
8
0
10
8.572496875
20
19.49824375
30
0
0
VERTEX
8
0
10
8.572496875
20
17.716496875
30
0
0
VERTEX
8
0
10
8.574043750000001
20
17.6968125
30
0
0
VERTEX
8
0
10
8.575546875
20
17.677246875
30
0
42
0.3250160255310167
0
VERTEX
8
0
10
8.786365625
20
17.4656875
30
0
0
VERTEX
8
0
10
8.82605
20
17.462496875
30
0
42
0.0004398371729773942
0
VERTEX
8
0
10
8.826496875
20
17.462496875
30
0
0
VERTEX
8
0
10
12.852500000000001
20
17.462496875
30
0
0
VERTEX
8
0
10
12.872184375
20
17.464043750000002
30
0
0
VERTEX
8
0
10
12.89175
20
17.465546875
30
0
42
0.07905501625311913
0
VERTEX
8
0
10
12.96769375
20
17.490121875
30
0
0
VERTEX
8
0
10
12.983165625
20
17.499590625
30
0
0
VERTEX
8
0
10
13.00129375
20
17.510640625
30
0
42
0.03968384319261819
0
VERTEX
8
0
10
13.031946875000001
20
17.536734375
30
0
0
VERTEX
8
0
10
13.044
20
17.55081875
30
0
0
VERTEX
8
0
10
13.057571875
20
17.566621875
30
0
42
0.03968688094057927
0
VERTEX
8
0
10
13.078675
20
17.60090625
30
0
0
VERTEX
8
0
10
13.085784375000001
20
17.618009375
30
0
0
VERTEX
8
0
10
13.09381875
20
17.63724375
30
0
42
0.039685082989001585
0
VERTEX
8
0
10
13.103309375
20
17.676365625000003
30
0
0
VERTEX
8
0
10
13.1065
20
17.71605
30
0
42
0.0004398371729773942
0
VERTEX
8
0
10
13.1065
20
17.716496875
30
0
0
VERTEX
8
0
10
13.1065
20
17.898065625
30
0
0
VERTEX
8
0
10
13.194953125000001
20
18.11160625
30
0
0
VERTEX
8
0
10
13.358390625
20
18.275043750000002
30
0
0
VERTEX
8
0
10
13.57193125
20
18.363496875
30
0
0
VERTEX
8
0
10
15.003065625000001
20
18.363496875
30
0
0
VERTEX
8
0
10
15.21660625
20
18.275043750000002
30
0
0
VERTEX
8
0
10
15.38004375
20
18.11160625
30
0
0
VERTEX
8
0
10
15.468496875000001
20
17.898065625
30
0
0
VERTEX
8
0
10
15.468496875000001
20
17.100506250000002
30
0
0
VERTEX
8
0
10
15.469246875000001
20
17.090946875
30
0
42
0.08897469912680663
0
VERTEX
8
0
10
15.487831250000001
20
17.00330625
30
0
0
VERTEX
8
0
10
15.557496875
20
16.835115625
30
0
0
VERTEX
8
0
10
15.557496875
20
15.823759375000002
30
0
0
VERTEX
8
0
10
15.559021875000001
20
15.804343750000001
30
0
0
VERTEX
8
0
10
15.560512500000002
20
15.784728125
30
0
42
0.11889111699915356
0
VERTEX
8
0
10
15.605903125000001
20
15.67460625
30
0
0
VERTEX
8
0
10
15.631734375
20
15.644312500000002
30
0
0
VERTEX
8
0
10
15.631809375000001
20
15.644246875
30
0
0
VERTEX
8
0
10
15.631890625
20
15.644153125
30
0
0
VERTEX
8
0
10
16.009153125
20
15.266890625
30
0
0
VERTEX
8
0
10
16.024196875
20
15.254040625
30
0
0
VERTEX
8
0
10
16.038884375000002
20
15.241425000000001
30
0
42
0.1188925591799206
0
VERTEX
8
0
10
16.14885
20
15.195653125000002
30
0
0
VERTEX
8
0
10
16.188537500000002
20
15.192496875000002
30
0
42
0.00021838085343866683
0
VERTEX
8
0
10
16.188759375
20
15.192496875000002
30
0
0
VERTEX
8
0
10
16.7387
20
15.192496875000002
30
0
0
VERTEX
8
0
10
16.758384375000002
20
15.19404375
30
0
0
VERTEX
8
0
10
16.77795
20
15.195546875000002
30
0
42
0.3250160255310167
0
VERTEX
8
0
10
16.989509375
20
15.406365625000001
30
0
0
VERTEX
8
0
10
16.9927
20
15.446050000000001
30
0
42
0.0004398371729773942
0
VERTEX
8
0
10
16.9927
20
15.446496875000001
30
0
0
VERTEX
8
0
10
16.9927
20
15.59749375
30
0
0
VERTEX
8
0
10
17.2975
20
15.59749375
30
0
0
VERTEX
8
0
10
17.2975
20
15.454153125000001
30
0
0
VERTEX
8
0
10
17.305243750000002
20
15.415225000000001
30
0
0
VERTEX
8
0
10
17.320434375
20
15.378553125000002
30
0
0
VERTEX
8
0
10
17.342484375
20
15.345550000000001
30
0
0
VERTEX
8
0
10
17.37055
20
15.317484375000001
30
0
0
VERTEX
8
0
10
17.403553125000002
20
15.295434375000001
30
0
0
VERTEX
8
0
10
17.440225
20
15.28024375
30
0
0
VERTEX
8
0
10
17.479153125
20
15.2725
30
0
0
VERTEX
8
0
10
18.715846875
20
15.2725
30
0
0
VERTEX
8
0
10
18.754775000000002
20
15.28024375
30
0
0
VERTEX
8
0
10
18.791446875000002
20
15.295434375000001
30
0
0
VERTEX
8
0
10
18.824450000000002
20
15.317484375000001
30
0
0
VERTEX
8
0
10
18.852515625000002
20
15.345550000000001
30
0
0
VERTEX
8
0
10
18.874565625000002
20
15.378553125000002
30
0
0
VERTEX
8
0
10
18.88975625
20
15.415225000000001
30
0
0
VERTEX
8
0
10
18.8975
20
15.454153125000001
30
0
0
VERTEX
8
0
10
18.8975
20
16.390846875
30
0
0
VERTEX
8
0
10
18.88975625
20
16.429775
30
0
0
VERTEX
8
0
10
18.874565625000002
20
16.466446875
30
0
0
VERTEX
8
0
10
18.852515625000002
20
16.49945
30
0
0
VERTEX
8
0
10
18.824450000000002
20
16.527515625
30
0
0
VERTEX
8
0
10
18.791446875000002
20
16.549565625
30
0
0
VERTEX
8
0
10
18.754775000000002
20
16.564756250000002
30
0
0
VERTEX
8
0
10
18.715846875
20
16.5725
30
0
0
VERTEX
8
0
10
18.4225
20
16.5725
30
0
0
VERTEX
8
0
10
18.4225
20
16.877296875000003
30
0
0
VERTEX
8
0
10
18.7458625
20
16.877296875000003
30
0
0
VERTEX
8
0
10
18.74644375
20
16.87718125
30
0
42
0.4729688509427648
0
VERTEX
8
0
10
19.05
20
17.1263
30
0
0
VERTEX
8
0
10
19.05
20
18.667615625
30
0
0
VERTEX
8
0
10
19.243346875
20
19.13439375
30
0
0
VERTEX
8
0
10
22.458103125
20
22.34915
30
0
0
VERTEX
8
0
10
22.924881250000002
20
22.542496875
30
0
0
VERTEX
8
0
10
23.925875
20
22.542496875
30
0
0
VERTEX
8
0
10
23.937215625
20
22.5433875
30
0
0
VERTEX
8
0
10
23.948553125
20
22.543512500000002
30
0
42
0.8542320220608436
0
VERTEX
8
0
10
23.982396875000003
20
23.044128125
30
0
0
VERTEX
8
0
10
23.781965625
20
23.089875000000003
30
0
0
VERTEX
8
0
10
23.527509375
20
23.178912500000003
30
0
0
VERTEX
8
0
10
23.284581250000002
20
23.295903125000002
30
0
0
VERTEX
8
0
10
23.056318750000003
20
23.439328125
30
0
0
VERTEX
8
0
10
22.845565625000003
20
23.607396875000003
30
0
0
VERTEX
8
0
10
22.6549
20
23.7980625
30
0
0
VERTEX
8
0
10
22.486828125000002
20
24.00881875
30
0
0
VERTEX
8
0
10
22.343403125000002
20
24.237081250000003
30
0
0
VERTEX
8
0
10
22.226412500000002
20
24.480009375
30
0
0
VERTEX
8
0
10
22.137375000000002
20
24.734465625000002
30
0
0
VERTEX
8
0
10
22.10141875
20
24.892
30
0
0
VERTEX
8
0
10
22.414496875
20
24.892
30
0
0
VERTEX
8
0
10
22.42804375
20
24.837034375
30
0
42
0.7593587755233832
0
VERTEX
8
0
10
26.466956250000003
20
24.837034375
30
0
0
VERTEX
8
0
10
26.480503125000002
20
24.892
30
0
0
VERTEX
8
0
10
26.793578125
20
24.892
30
0
0
VERTEX
8
0
10
26.757621875
20
24.734465625000002
30
0
0
VERTEX
8
0
10
26.668584375000002
20
24.480009375
30
0
0
VERTEX
8
0
10
26.551593750000002
20
24.237081250000003
30
0
0
VERTEX
8
0
10
26.40816875
20
24.00881875
30
0
0
VERTEX
8
0
10
26.240096875000003
20
23.7980625
30
0
0
VERTEX
8
0
10
26.04943125
20
23.607396875000003
30
0
0
VERTEX
8
0
10
25.838678125
20
23.439328125
30
0
0
VERTEX
8
0
10
25.610415625
20
23.295903125000002
30
0
0
VERTEX
8
0
10
25.367487500000003
20
23.178912500000003
30
0
0
VERTEX
8
0
10
25.113031250000002
20
23.089875000000003
30
0
0
VERTEX
8
0
10
24.9126
20
23.044128125
30
0
0
VERTEX
8
0
10
24.901784375000002
20
23.040746875
30
0
0
VERTEX
8
0
10
24.890715625000002
20
23.03809375
30
0
42
0.8542317937709714
0
VERTEX
8
0
10
24.969121875000003
20
22.542496875
30
0
0
VERTEX
8
0
10
29.780115625
20
22.542496875
30
0
0
VERTEX
8
0
10
30.24689375
20
22.34915
30
0
0
VERTEX
8
0
10
30.60415
20
21.991893750000003
30
0
0
VERTEX
8
0
10
30.797496875
20
21.525115625
30
0
0
VERTEX
8
0
10
30.797496875
20
19.8965625
30
0
0
VERTEX
8
0
10
30.798246875
20
19.887003125
30
0
42
0.08897756327884906
0
VERTEX
8
0
10
30.81683125
20
19.799359375
30
0
0
VERTEX
8
0
10
30.908496875
20
19.5780625
30
0
0
VERTEX
8
0
10
30.908496875
20
18.14693125
30
0
0
VERTEX
8
0
10
30.82004375
20
17.933387500000002
30
0
0
VERTEX
8
0
10
30.652756250000003
20
17.766103125
30
0
0
VERTEX
8
0
10
30.640318750000002
20
17.751540625
30
0
0
VERTEX
8
0
10
30.627025
20
17.736009375000002
30
0
0
VERTEX
8
0
10
30.6269625
20
17.735909375000002
30
0
0
VERTEX
8
0
10
30.626896875
20
17.73583125
30
0
42
0.03924706461230991
0
VERTEX
8
0
10
30.606084375000002
20
17.701890625
30
0
0
VERTEX
8
0
10
30.599090625000002
20
17.685025
30
0
0
VERTEX
8
0
10
30.5909
20
17.665325
30
0
0
VERTEX
8
0
10
30.590871875
20
17.665203125
30
0
0
VERTEX
8
0
10
30.590834375
20
17.665115625000002
30
0
42
0.15798098299574814
0
VERTEX
8
0
10
30.590625000000003
20
17.508515625
30
0
0
VERTEX
8
0
10
30.590668750000003
20
17.50840625
30
0
0
VERTEX
8
0
10
30.59069375
20
17.50830625
30
0
42
0.039247073802806016
0
VERTEX
8
0
10
30.605881250000003
20
17.471503125
30
0
0
VERTEX
8
0
10
30.616896875000002
20
17.4534625
30
0
0
VERTEX
8
0
10
30.626503125000003
20
17.437703125000002
30
0
42
0.07861198241670349
0
VERTEX
8
0
10
30.682484375
20
17.381425
30
0
0
VERTEX
8
0
10
30.6825875
20
17.3813625
30
0
0
VERTEX
8
0
10
30.682662500000003
20
17.381296875
30
0
42
0.07861410780473853
0
VERTEX
8
0
10
30.753315625000003
20
17.345109375
30
0
0
VERTEX
8
0
10
30.773815625
20
17.340134375
30
0
0
VERTEX
8
0
10
30.7917875
20
17.335759375000002
30
0
0
VERTEX
8
0
10
30.791884375000002
20
17.335753125
30
0
0
VERTEX
8
0
10
30.79200625
20
17.335721875
30
0
0
VERTEX
8
0
10
30.8316875
20
17.332496875
30
0
42
0.0006612928453909052
0
VERTEX
8
0
10
30.832359375000003
20
17.332496875
30
0
0
VERTEX
8
0
10
31.178500000000003
20
17.332496875
30
0
0
VERTEX
8
0
10
31.198184375
20
17.33404375
30
0
0
VERTEX
8
0
10
31.217750000000002
20
17.335546875000002
30
0
42
0.15865412083411573
0
VERTEX
8
0
10
31.357946875000003
20
17.406734375
30
0
0
VERTEX
8
0
10
31.369528125000002
20
17.42026875
30
0
0
VERTEX
8
0
10
31.383571875
20
17.436621875
30
0
42
0.11866845662848316
0
VERTEX
8
0
10
31.429309375000003
20
17.546365625
30
0
0
VERTEX
8
0
10
31.4325
20
17.58605
30
0
42
0.0004398371729773942
0
VERTEX
8
0
10
31.4325
20
17.586496875
30
0
0
VERTEX
8
0
10
31.4325
20
23.747615625
30
0
0
VERTEX
8
0
10
31.625846875
20
24.214393750000003
30
0
0
VERTEX
8
0
10
35.028103125
20
27.61665
30
0
0
VERTEX
8
0
10
35.49488125
20
27.809996875000003
30
0
0
VERTEX
8
0
10
60.707615625
20
27.809996875000003
30
0
0
VERTEX
8
0
10
61.17439375
20
27.61665
30
0
0
VERTEX
8
0
10
67.43415
20
21.35689375
30
0
0
VERTEX
8
0
10
67.627496875
20
20.890115625
30
0
0
VERTEX
8
0
10
67.627496875
20
20.1190375
30
0
0
VERTEX
8
0
10
67.62825625
20
20.109381250000002
30
0
42
0.2929701029465215
0
VERTEX
8
0
10
67.78429375
20
19.884371875
30
0
0
VERTEX
8
0
10
67.96589375
20
19.809150000000002
30
0
0
VERTEX
8
0
10
68.32315
20
19.45189375
30
0
0
VERTEX
8
0
10
68.516496875
20
18.985115625000002
30
0
0
VERTEX
8
0
10
68.516496875
20
18.479881250000002
30
0
0
VERTEX
8
0
10
68.32315
20
18.013103125
30
0
0
VERTEX
8
0
10
67.96589375
20
17.655846875
30
0
0
VERTEX
8
0
10
67.9375
20
17.6440875
30
0
42
0.586122276233197
0
VERTEX
8
0
10
67.885396875
20
17.203928125
30
0
0
VERTEX
8
0
10
68.024196875
20
17.103084375
30
0
0
VERTEX
8
0
10
68.157084375
20
16.970196875
30
0
0
VERTEX
8
0
10
68.267528125
20
16.818184375
30
0
0
VERTEX
8
0
10
68.35283125000001
20
16.650765625000002
30
0
0
VERTEX
8
0
10
68.410903125
20
16.472040625
30
0
0
VERTEX
8
0
10
68.414946875
20
16.4465125
30
0
0
VERTEX
8
0
10
68.098796875
20
16.4465125
30
0
0
VERTEX
8
0
10
68.0951625
20
16.46008125
30
0
42
0.3152987629290699
0
VERTEX
8
0
10
67.28531562500001
20
17.081500000000002
30
0
0
VERTEX
8
0
10
65.42968437500001
20
17.081500000000002
30
0
0
VERTEX
8
0
10
65.35235312500001
20
17.074734375000002
30
0
42
0.916331393922359
0
VERTEX
8
0
10
65.42968437500001
20
15.303500000000001
30
0
0
VERTEX
8
0
10
67.28531562500001
20
15.303500000000001
30
0
0
VERTEX
8
0
10
67.36264687500001
20
15.310265625000001
30
0
42
0.29147416119494524
0
VERTEX
8
0
10
68.0951625
20
15.924918750000002
30
0
0
VERTEX
8
0
10
68.098796875
20
15.93848125
30
0
0
VERTEX
8
0
10
68.414946875
20
15.93848125
30
0
0
VERTEX
8
0
10
68.410903125
20
15.91295625
30
0
0
VERTEX
8
0
10
68.35283125000001
20
15.73423125
30
0
0
VERTEX
8
0
10
68.267528125
20
15.566812500000001
30
0
0
VERTEX
8
0
10
68.23099375000001
20
15.516528125
30
0
42
4.433839870078845e-5
0
VERTEX
8
0
10
68.23096562500001
20
15.5164875
30
0
0
VERTEX
8
0
10
68.157084375
20
15.414800000000001
30
0
0
VERTEX
8
0
10
68.024196875
20
15.2819125
30
0
0
VERTEX
8
0
10
67.885396875
20
15.181068750000001
30
0
0
VERTEX
8
0
10
67.877925
20
15.174687500000001
30
0
42
0.508886752293794
0
VERTEX
8
0
10
67.893346875
20
14.765240625
30
0
0
VERTEX
8
0
10
67.90126562500001
20
14.759446875
30
0
42
0.03567970643787798
0
VERTEX
8
0
10
67.9375
20
14.740909375000001
30
0
0
VERTEX
8
0
10
67.96589375
20
14.72915
30
0
0
VERTEX
8
0
10
68.32315
20
14.37189375
30
0
0
VERTEX
8
0
10
68.516496875
20
13.905115625
30
0
0
VERTEX
8
0
10
68.516496875
20
13.39988125
30
0
0
VERTEX
8
0
10
68.32315
20
12.933103125
30
0
0
VERTEX
8
0
10
67.95215
20
12.562103125
30
0
0
VERTEX
8
0
10
67.938928125
20
12.546625
30
0
0
VERTEX
8
0
10
67.926553125
20
12.532190625
30
0
42
0.03968395996860331
0
VERTEX
8
0
10
67.90548125000001
20
12.497890625
30
0
0
VERTEX
8
0
10
67.8974625
20
12.478559375000001
30
0
0
VERTEX
8
0
10
67.89036875000001
20
12.4615375
30
0
0
VERTEX
8
0
10
67.890321875
20
12.4613375
30
0
0
VERTEX
8
0
10
67.89022812500001
20
12.461115625000001
30
0
42
0.11822361722494255
0
VERTEX
8
0
10
67.880840625
20
12.343028125
30
0
0
VERTEX
8
0
10
67.885834375
20
12.322115625
30
0
0
VERTEX
8
0
10
67.88995625
20
12.304725000000001
30
0
42
0.07905182345548524
0
VERTEX
8
0
10
67.92603125000001
20
12.233525
30
0
0
VERTEX
8
0
10
67.9518375
20
12.203206250000001
30
0
42
0.00043933249264818523
0
VERTEX
8
0
10
67.95215312500001
20
12.202890625
30
0
0
VERTEX
8
0
10
68.32315
20
11.831896875
30
0
0
VERTEX
8
0
10
68.516496875
20
11.365115625000001
30
0
0
VERTEX
8
0
10
68.516496875
20
10.854759375
30
0
0
VERTEX
8
0
10
68.518021875
20
10.83534375
30
0
0
VERTEX
8
0
10
68.5195125
20
10.815728125
30
0
42
0.11889111699915356
0
VERTEX
8
0
10
68.564903125
20
10.70560625
30
0
0
VERTEX
8
0
10
68.590734375
20
10.6753125
30
0
0
VERTEX
8
0
10
68.590809375
20
10.675246875000001
30
0
0
VERTEX
8
0
10
68.590890625
20
10.675153125000001
30
0
0
VERTEX
8
0
10
70.29165
20
8.97439375
30
0
0
VERTEX
8
0
10
70.48499687500001
20
8.507615625
30
0
0
VERTEX
8
0
10
70.48499687500001
20
8.002384375
30
0
0
VERTEX
8
0
10
70.36395
20
7.710156250000001
30
0
0
VERTEX
8
0
10
70.36094375
20
7.70090625
30
0
42
0.1887573617125461
0
VERTEX
8
0
10
70.363865625
20
7.515959375
30
0
0
VERTEX
8
0
10
70.36825625
20
7.507321875000001
30
0
42
0.027022692175050784
0
VERTEX
8
0
10
70.38190312500001
20
7.48046875
30
0
0
VERTEX
8
0
10
70.383396875
20
7.478409375
30
0
0
VERTEX
8
0
10
70.383396875
20
6.501034375000001
30
0
0
VERTEX
8
0
10
69.69896250000001
20
5.8166
30
0
0
VERTEX
8
0
10
68.73103125
20
5.8166
30
0
0
VERTEX
8
0
10
68.17579375
20
6.371840625
30
0
0
VERTEX
8
0
10
68.168340625
20
6.378206250000001
30
0
42
0.4487882173951544
0
VERTEX
8
0
10
67.7909875
20
6.34193125
30
0
0
VERTEX
8
0
10
67.785859375
20
6.333600000000001
30
0
42
0.044761392830988275
0
VERTEX
8
0
10
67.76151875000001
20
6.289431250000001
30
0
0
VERTEX
8
0
10
67.75165
20
6.265603125
30
0
0
VERTEX
8
0
10
67.394390625
20
5.90834375
30
0
0
VERTEX
8
0
10
67.19578750000001
20
5.8260812500000005
30
0
0
VERTEX
8
0
10
67.187240625
20
5.821728125
30
0
42
0.026688757730753895
0
VERTEX
8
0
10
67.161759375
20
5.808746875000001
30
0
0
VERTEX
8
0
10
67.1553375
20
5.806671875
30
0
42
0.03017022526663982
0
VERTEX
8
0
10
67.126225
20
5.7972656250000005
30
0
0
VERTEX
8
0
10
66.92761875000001
20
5.715
30
0
0
VERTEX
8
0
10
65.493796875
20
5.715
30
0
0
VERTEX
8
0
10
65.4741125
20
5.713453125
30
0
0
VERTEX
8
0
10
65.454546875
20
5.71195
30
0
42
0.3250160255310167
0
VERTEX
8
0
10
65.2429875
20
5.50113125
30
0
0
VERTEX
8
0
10
65.239796875
20
5.461446875
30
0
42
0.0004398371729773942
0
VERTEX
8
0
10
65.239796875
20
5.461
30
0
0
VERTEX
8
0
10
65.239796875
20
5.407500000000001
30
0
0
VERTEX
8
0
10
64.935
20
5.407500000000001
30
0
0
VERTEX
8
0
10
64.935
20
5.550846875
30
0
0
VERTEX
8
0
10
64.92725625
20
5.589775
30
0
0
VERTEX
8
0
10
64.912065625
20
5.626446875
30
0
0
VERTEX
8
0
10
64.890015625
20
5.6594500000000005
30
0
0
VERTEX
8
0
10
64.86195000000001
20
5.6875156250000005
30
0
0
VERTEX
8
0
10
64.828946875
20
5.709565625000001
30
0
0
VERTEX
8
0
10
64.792275
20
5.72475625
30
0
0
VERTEX
8
0
10
64.753346875
20
5.7325
30
0
0
VERTEX
8
0
10
63.516653125000005
20
5.7325
30
0
0
VERTEX
8
0
10
63.477725
20
5.72475625
30
0
0
VERTEX
8
0
10
63.441053125
20
5.709565625000001
30
0
0
VERTEX
8
0
10
63.40805
20
5.6875156250000005
30
0
0
VERTEX
8
0
10
63.37998437500001
20
5.6594500000000005
30
0
0
VERTEX
8
0
10
63.357934375000006
20
5.626446875
30
0
0
VERTEX
8
0
10
63.342743750000004
20
5.589775
30
0
0
VERTEX
8
0
10
63.335
20
5.550846875
30
0
0
VERTEX
8
0
10
63.335
20
5.407500000000001
30
0
0
VERTEX
8
0
10
63.0302
20
5.407500000000001
30
0
0
VERTEX
8
0
10
63.0302
20
5.5808687500000005
30
0
0
VERTEX
8
0
10
63.049656250000005
20
5.678675
30
0
0
VERTEX
8
0
10
63.087825
20
5.77081875
30
0
0
VERTEX
8
0
10
63.12745625
20
5.830134375
30
0
42
0.3578110644503392
0
VERTEX
8
0
10
63.095865625
20
6.1508593750000005
30
0
0
VERTEX
8
0
10
63.042678125
20
6.20404375
30
0
0
VERTEX
8
0
10
62.954
20
6.41813125
30
0
0
VERTEX
8
0
10
62.954
20
6.464490625000001
30
0
42
0.09848985673121063
0
VERTEX
8
0
10
62.934665625
20
6.561690625000001
30
0
0
VERTEX
8
0
10
62.865
20
6.729878125
30
0
0
VERTEX
8
0
10
62.865
20
7.235118750000001
30
0
0
VERTEX
8
0
10
62.934665625
20
7.40330625
30
0
0
VERTEX
8
0
10
62.937625000000004
20
7.4124125
30
0
42
0.05866572623157031
0
VERTEX
8
0
10
62.951546875000005
20
7.470015625
30
0
0
VERTEX
8
0
10
62.953209375
20
7.480487500000001
30
0
42
0.01703392928229407
0
VERTEX
8
0
10
62.954
20
7.50050625
30
0
0
VERTEX
8
0
10
62.954
20
7.546865625000001
30
0
0
VERTEX
8
0
10
63.04268125
20
7.7609562500000004
30
0
0
VERTEX
8
0
10
63.20654375
20
7.92481875
30
0
0
VERTEX
8
0
10
63.287428125000005
20
7.958321875
30
0
42
0.09849294998358453
0
VERTEX
8
0
10
63.369834375
20
8.01338125
30
0
0
VERTEX
8
0
10
63.418103125
20
8.06165
30
0
0
VERTEX
8
0
10
63.88488125000001
20
8.254996875
30
0
0
VERTEX
8
0
10
66.80574375
20
8.254996875
30
0
0
VERTEX
8
0
10
66.82550937500001
20
8.25655
30
0
0
VERTEX
8
0
10
66.84521562500001
20
8.25808125
30
0
42
0.03946476197040606
0
VERTEX
8
0
10
66.88415
20
8.2674
30
0
0
VERTEX
8
0
10
66.90090000000001
20
8.274331250000001
30
0
0
VERTEX
8
0
10
66.92074062500001
20
8.282518750000001
30
0
0
VERTEX
8
0
10
66.92085
20
8.282584375
30
0
0
VERTEX
8
0
10
66.92093750000001
20
8.282621875
30
0
0
VERTEX
8
0
10
66.936384375
20
8.292075
30
0
0
VERTEX
8
0
10
66.954715625
20
8.303271875
30
0
42
0.03946573665418073
0
VERTEX
8
0
10
66.985190625
20
8.329234375
30
0
0
VERTEX
8
0
10
66.997090625
20
8.343140625
30
0
0
VERTEX
8
0
10
67.010946875
20
8.359303125
30
0
42
0.07861272482293717
0
VERTEX
8
0
10
67.04713125
20
8.42995625
30
0
0
VERTEX
8
0
10
67.04715312500001
20
8.43005
30
0
0
VERTEX
8
0
10
67.04720312500001
20
8.43016875
30
0
42
0.03924378809677847
0
VERTEX
8
0
10
67.05655312500001
20
8.468865625000001
30
0
0
VERTEX
8
0
10
67.058028125
20
8.487221875000001
30
0
0
VERTEX
8
0
10
67.05974375000001
20
8.508328125
30
0
42
0.0786134772481991
0
VERTEX
8
0
10
67.04754375
20
8.586765625
30
0
0
VERTEX
8
0
10
67.047509375
20
8.586853125000001
30
0
0
VERTEX
8
0
10
67.047478125
20
8.586978125
30
0
42
0.07861540623804233
0
VERTEX
8
0
10
67.0116
20
8.657790625
30
0
0
VERTEX
8
0
10
66.985821875
20
8.688128125
30
0
42
0.0006589979339786636
0
VERTEX
8
0
10
66.98535
20
8.688603125
30
0
0
VERTEX
8
0
10
65.90584375
20
9.76810625
30
0
0
VERTEX
8
0
10
65.8908
20
9.780956250000001
30
0
0
VERTEX
8
0
10
65.8761125
20
9.793571875
30
0
42
0.1188925591799206
0
VERTEX
8
0
10
65.766146875
20
9.839343750000001
30
0
0
VERTEX
8
0
10
65.726459375
20
9.842500000000001
30
0
42
0.00021838085343866683
0
VERTEX
8
0
10
65.7262375
20
9.842500000000001
30
0
0
VERTEX
8
0
10
60.986303125000006
20
9.842500000000001
30
0
0
VERTEX
8
0
10
60.976646875
20
9.841740625
30
0
42
0.292973188507941
0
VERTEX
8
0
10
60.7516375
20
9.6857
30
0
0
VERTEX
8
0
10
60.62031875
20
9.368665625
30
0
0
VERTEX
8
0
10
60.321256250000005
20
9.069603125
30
0
0
VERTEX
8
0
10
60.308034375000005
20
9.054125
30
0
0
VERTEX
8
0
10
60.295659375
20
9.039690625
30
0
42
0.19913787786506304
0
VERTEX
8
0
10
60.249946875000006
20
8.850528125
30
0
0
VERTEX
8
0
10
60.25483125
20
8.830078125
30
0
0
VERTEX
8
0
10
60.259062500000006
20
8.812225
30
0
42
0.07905182345548524
0
VERTEX
8
0
10
60.2951375
20
8.741025
30
0
0
VERTEX
8
0
10
60.320943750000005
20
8.710706250000001
30
0
42
0.00043933249264818523
0
VERTEX
8
0
10
60.321259375000004
20
8.710390625
30
0
0
VERTEX
8
0
10
60.620315625
20
8.4113375
30
0
0
VERTEX
8
0
10
60.832996875000006
20
7.897878125
30
0
0
VERTEX
8
0
10
60.832996875000006
20
7.34211875
30
0
0
VERTEX
8
0
10
60.620315625
20
6.8286625
30
0
0
VERTEX
8
0
10
60.227334375000005
20
6.43568125
30
0
0
VERTEX
8
0
10
59.713878125
20
6.223
30
0
0
VERTEX
8
0
10
57.12611875
20
6.223
30
0
0
VERTEX
8
0
10
56.612662500000006
20
6.43568125
30
0
0
VERTEX
8
0
10
56.21968125
20
6.8286625
30
0
0
VERTEX
8
0
10
56.007000000000005
20
7.34211875
30
0
0
VERTEX
8
0
10
56.007000000000005
20
7.897878125
30
0
0
VERTEX
8
0
10
56.21968125
20
8.4113375
30
0
0
VERTEX
8
0
10
56.5187375
20
8.710390625
30
0
0
VERTEX
8
0
10
56.531093750000004
20
8.72485625
30
0
0
VERTEX
8
0
10
56.544337500000005
20
8.740303125
30
0
42
0.07861272482293717
0
VERTEX
8
0
10
56.580521875
20
8.81095625
30
0
0
VERTEX
8
0
10
56.580568750000005
20
8.81115625
30
0
0
VERTEX
8
0
10
56.5806625
20
8.811378125000001
30
0
42
0.039244835380996594
0
VERTEX
8
0
10
56.589978125
20
8.850084375
30
0
0
VERTEX
8
0
10
56.59141875
20
8.868203125
30
0
0
VERTEX
8
0
10
56.593134375000005
20
8.889328125
30
0
42
0.0786134772481991
0
VERTEX
8
0
10
56.580934375000005
20
8.967765625
30
0
0
VERTEX
8
0
10
56.580856250000004
20
8.96795625
30
0
0
VERTEX
8
0
10
56.5808
20
8.968190625
30
0
42
0.07861333258097596
0
VERTEX
8
0
10
56.544859375
20
9.03896875
30
0
0
VERTEX
8
0
10
56.519056250000006
20
9.069284375
30
0
42
0.00044150739503261843
0
VERTEX
8
0
10
56.518740625
20
9.069603125
30
0
0
VERTEX
8
0
10
56.21968125
20
9.368662500000001
30
0
0
VERTEX
8
0
10
56.007000000000005
20
9.88211875
30
0
0
VERTEX
8
0
10
56.007000000000005
20
10.437878125000001
30
0
0
VERTEX
8
0
10
56.21968125
20
10.951334375
30
0
0
VERTEX
8
0
10
56.612662500000006
20
11.344315625
30
0
0
VERTEX
8
0
10
57.12611875
20
11.556996875000001
30
0
0
VERTEX
8
0
10
57.915737500000006
20
11.556996875000001
30
0
0
VERTEX
8
0
10
57.935153125
20
11.558521875
30
0
0
VERTEX
8
0
10
57.95476875
20
11.560012500000001
30
0
42
0.11889111699915356
0
VERTEX
8
0
10
58.064890625000004
20
11.605403125
30
0
0
VERTEX
8
0
10
58.095184375
20
11.631234375
30
0
0
VERTEX
8
0
10
58.09525
20
11.631309375
30
0
0
VERTEX
8
0
10
58.095343750000005
20
11.631390625
30
0
0
VERTEX
8
0
10
58.653103125
20
12.18915
30
0
0
VERTEX
8
0
10
59.119881250000006
20
12.382496875000001
30
0
0
VERTEX
8
0
10
62.04324375
20
12.382496875000001
30
0
0
VERTEX
8
0
10
62.062871875000006
20
12.384040625
30
0
0
VERTEX
8
0
10
62.082715625000006
20
12.385581250000001
30
0
42
0.0002179460313156103
0
VERTEX
8
0
10
62.082934375
20
12.385615625
30
0
0
VERTEX
8
0
10
62.103621875
20
12.390575
30
0
0
VERTEX
8
0
10
62.121440625000005
20
12.394834375
30
0
0
VERTEX
8
0
10
62.121531250000004
20
12.394871875
30
0
0
VERTEX
8
0
10
62.12165
20
12.3949
30
0
42
0.03924579410063594
0
VERTEX
8
0
10
62.158437500000005
20
12.410121875
30
0
0
VERTEX
8
0
10
62.174196875
20
12.419765625
30
0
0
VERTEX
8
0
10
62.19221875
20
12.430771875000001
30
0
0
VERTEX
8
0
10
62.1923125
20
12.430850000000001
30
0
0
VERTEX
8
0
10
62.192396875
20
12.430903125
30
0
0
VERTEX
8
0
10
62.205428125000005
20
12.442015625
30
0
0
VERTEX
8
0
10
62.222534375
20
12.456578125
30
0
42
0.03924797654909582
0
VERTEX
8
0
10
62.248446875000006
20
12.48680625
30
0
0
VERTEX
8
0
10
62.2485
20
12.48689375
30
0
0
VERTEX
8
0
10
62.248578125
20
12.486984375
30
0
42
0.03924568485360789
0
VERTEX
8
0
10
62.26941875
20
12.520906250000001
30
0
0
VERTEX
8
0
10
62.276187500000006
20
12.5371875
30
0
0
VERTEX
8
0
10
62.284634375
20
12.557459375
30
0
42
0.0394610260917614
0
VERTEX
8
0
10
62.294053125000005
20
12.596365625
30
0
0
VERTEX
8
0
10
62.295475
20
12.61405625
30
0
0
VERTEX
8
0
10
62.29724375
20
12.63583125
30
0
42
0.00021530407554702717
0
VERTEX
8
0
10
62.29724375
20
12.636050000000001
30
0
0
VERTEX
8
0
10
62.295884375
20
12.653740625000001
30
0
0
VERTEX
8
0
10
62.294228125000004
20
12.675528125000001
30
0
42
0.039247748448620876
0
VERTEX
8
0
10
62.28504375
20
12.71426875
30
0
0
VERTEX
8
0
10
62.28500625
20
12.714359375
30
0
0
VERTEX
8
0
10
62.284978125
20
12.714478125000001
30
0
42
0.07839560312185839
0
VERTEX
8
0
10
62.249228125
20
12.785109375000001
30
0
0
VERTEX
8
0
10
62.249165625
20
12.78518125
30
0
0
VERTEX
8
0
10
62.249100000000006
20
12.785290625
30
0
0
VERTEX
8
0
10
62.223321875
20
12.815628125
30
0
42
0.0006611728503220389
0
VERTEX
8
0
10
62.222846875
20
12.816103125000001
30
0
0
VERTEX
8
0
10
62.070296875000004
20
12.96865
30
0
0
VERTEX
8
0
10
62.070278125
20
12.968671875
30
0
0
VERTEX
8
0
10
62.07025625
20
12.968690625
30
0
0
VERTEX
8
0
10
62.070156250000004
20
12.968790625
30
0
0
VERTEX
8
0
10
62.070121875000005
20
12.968831250000001
30
0
0
VERTEX
8
0
10
61.863831250000004
20
13.175121875
30
0
0
VERTEX
8
0
10
61.863809375
20
13.175140625000001
30
0
0
VERTEX
8
0
10
61.470846875
20
13.568103125
30
0
0
VERTEX
8
0
10
61.2775
20
14.034881250000002
30
0
0
VERTEX
8
0
10
61.2775
20
20.688028125000002
30
0
0
VERTEX
8
0
10
61.275975
20
20.70744375
30
0
0
VERTEX
8
0
10
61.274484375
20
20.727059375
30
0
42
0.07927432836460169
0
VERTEX
8
0
10
61.249875
20
20.803221875000002
30
0
0
VERTEX
8
0
10
61.239896875
20
20.819525000000002
30
0
0
VERTEX
8
0
10
61.229487500000005
20
20.836640625
30
0
42
0.0005989937085294984
0
VERTEX
8
0
10
61.229093750000004
20
20.83718125
30
0
0
VERTEX
8
0
10
61.2032625
20
20.867475000000002
30
0
0
VERTEX
8
0
10
61.203187500000006
20
20.867540625
30
0
0
VERTEX
8
0
10
61.203106250000005
20
20.867634375
30
0
0
VERTEX
8
0
10
61.158225
20
20.912515625
30
0
0
VERTEX
8
0
10
61.14198125
20
20.926390625
30
0
0
VERTEX
8
0
10
61.1281625
20
20.93821875
30
0
0
VERTEX
8
0
10
61.128068750000004
20
20.938278125
30
0
0
VERTEX
8
0
10
61.127953125000005
20
20.938375
30
0
0
VERTEX
8
0
10
61.1095875
20
20.949634375000002
30
0
0
VERTEX
8
0
10
61.094243750000004
20
20.959065625
30
0
42
0.1986860422270584
0
VERTEX
8
0
10
60.900671875
20
20.974653125
30
0
0
VERTEX
8
0
10
60.900559375
20
20.97460625
30
0
0
VERTEX
8
0
10
60.900425000000006
20
20.974575
30
0
0
VERTEX
8
0
10
60.880171875
20
20.96621875
30
0
0
VERTEX
8
0
10
60.863856250000005
20
20.959503125
30
0
0
VERTEX
8
0
10
60.863759375
20
20.959443750000002
30
0
0
VERTEX
8
0
10
60.863621875
20
20.959387500000002
30
0
42
0.03898966154924663
0
VERTEX
8
0
10
60.829856250000006
20
20.9387875
30
0
0
VERTEX
8
0
10
60.829750000000004
20
20.938696875
30
0
0
VERTEX
8
0
10
60.829646875
20
20.938634375
30
0
42
0.039247908617801565
0
VERTEX
8
0
10
60.799328125
20
20.912828125
30
0
0
VERTEX
8
0
10
60.785340625
20
20.8965125
30
0
0
VERTEX
8
0
10
60.773571875
20
20.8828125
30
0
0
VERTEX
8
0
10
60.7735125
20
20.882715625
30
0
0
VERTEX
8
0
10
60.773415625000005
20
20.882603125
30
0
0
VERTEX
8
0
10
60.76234375
20
20.864615625000003
30
0
0
VERTEX
8
0
10
60.752665625000006
20
20.84893125
30
0
42
0.03711870134816208
0
VERTEX
8
0
10
60.73723125
20
20.81195
30
0
0
VERTEX
8
0
10
60.727843750000005
20
20.773259375000002
30
0
42
0.0006032890664807992
0
VERTEX
8
0
10
60.72774375
20
20.772637500000002
30
0
0
VERTEX
8
0
10
60.72426875
20
20.75069375
30
0
0
VERTEX
8
0
10
60.66003125
20
20.552984375
30
0
0
VERTEX
8
0
10
60.565650000000005
20
20.36775
30
0
0
VERTEX
8
0
10
60.54731875
20
20.342521875
30
0
0
VERTEX
8
0
10
60.547309375000005
20
20.342509375000002
30
0
0
VERTEX
8
0
10
60.5473
20
20.342493750000003
30
0
0
VERTEX
8
0
10
60.443453125000005
20
20.199562500000003
30
0
0
VERTEX
8
0
10
60.296434375000004
20
20.05254375
30
0
0
VERTEX
8
0
10
60.217903125
20
19.9954875
30
0
42
0.11822412182777539
0
VERTEX
8
0
10
60.140943750000005
20
19.90543125
30
0
0
VERTEX
8
0
10
60.1326625
20
19.885471875
30
0
0
VERTEX
8
0
10
60.125796875000006
20
19.868990625000002
30
0
42
0.03959093135107368
0
VERTEX
8
0
10
60.1163625
20
19.829953125
30
0
0
VERTEX
8
0
10
60.114665625
20
19.808668750000002
30
0
0
VERTEX
8
0
10
60.113200000000006
20
19.790615625
30
0
42
0.07861488934762492
0
VERTEX
8
0
10
60.1254125
20
19.712178125
30
0
0
VERTEX
8
0
10
60.125484375000006
20
19.712003125000003
30
0
0
VERTEX
8
0
10
60.125521875000004
20
19.711846875000003
30
0
42
0.03924764033826829
0
VERTEX
8
0
10
60.140703125
20
19.675040625
30
0
0
VERTEX
8
0
10
60.151734375000004
20
19.65696875
30
0
0
VERTEX
8
0
10
60.161243750000004
20
19.64134375
30
0
0
VERTEX
8
0
10
60.161350000000006
20
19.64121875
30
0
0
VERTEX
8
0
10
60.161446875
20
19.641059375
30
0
0
VERTEX
8
0
10
60.175509375000004
20
19.62453125
30
0
0
VERTEX
8
0
10
60.187000000000005
20
19.6109875
30
0
0
VERTEX
8
0
10
60.187125
20
19.610878125
30
0
0
VERTEX
8
0
10
60.187246875
20
19.610737500000003
30
0
0
VERTEX
8
0
10
60.21746875
20
19.584821875
30
0
42
0.0005327765502100807
0
VERTEX
8
0
10
60.217906250000006
20
19.584503125
30
0
0
VERTEX
8
0
10
60.296440625
20
19.527446875000003
30
0
0
VERTEX
8
0
10
60.443453125000005
20
19.380434375
30
0
0
VERTEX
8
0
10
60.565650000000005
20
19.212246875
30
0
0
VERTEX
8
0
10
60.66003125
20
19.0270125
30
0
0
VERTEX
8
0
10
60.72160625
20
18.837500000000002
30
0
0
VERTEX
8
0
10
60.401643750000005
20
18.837500000000002
30
0
42
0.31194087888304534
0
VERTEX
8
0
10
59.480359375000006
20
19.536
30
0
0
VERTEX
8
0
10
59.182
20
19.536
30
0
0
VERTEX
8
0
10
59.182
20
20.044
30
0
0
VERTEX
8
0
10
59.480359375000006
20
20.044
30
0
0
VERTEX
8
0
10
59.568740625000004
20
20.05173125
30
0
42
0.9163314512321996
0
VERTEX
8
0
10
59.480359375000006
20
22.076
30
0
0
VERTEX
8
0
10
57.359640625000004
20
22.076
30
0
0
VERTEX
8
0
10
57.271259375
20
22.06826875
30
0
42
0.26794902817390576
0
VERTEX
8
0
10
56.46444375
20
21.449178125
30
0
0
VERTEX
8
0
10
56.438356250000005
20
21.3775
30
0
0
VERTEX
8
0
10
56.118390625
20
21.3775
30
0
0
VERTEX
8
0
10
56.12054375
20
21.384121875
30
0
42
9.828231000369648e-5
0
VERTEX
8
0
10
56.120575
20
21.384218750000002
30
0
0
VERTEX
8
0
10
56.179965625
20
21.5670125
30
0
0
VERTEX
8
0
10
56.197475000000004
20
21.601375
30
0
42
6.541439951289753e-5
0
VERTEX
8
0
10
56.19750625
20
21.6014375
30
0
0
VERTEX
8
0
10
56.274346875000006
20
21.752246875
30
0
0
VERTEX
8
0
10
56.39654375
20
21.920434375000003
30
0
0
VERTEX
8
0
10
56.5435625
20
22.067453125
30
0
0
VERTEX
8
0
10
56.71175
20
22.18965
30
0
0
VERTEX
8
0
10
56.896984375
20
22.28403125
30
0
0
VERTEX
8
0
10
57.094696875000004
20
22.348268750000003
30
0
0
VERTEX
8
0
10
57.137946875000004
20
22.355118750000003
30
0
0
VERTEX
8
0
10
57.137953125
20
22.355118750000003
30
0
0
VERTEX
8
0
10
57.1379875
20
22.355125
30
0
0
VERTEX
8
0
10
57.154978125
20
22.359203125
30
0
0
VERTEX
8
0
10
57.176665625000005
20
22.364403125000003
30
0
42
3.890461841228172e-5
0
VERTEX
8
0
10
57.176703125
20
22.364415625
30
0
0
VERTEX
8
0
10
57.19868125
20
22.3735125
30
0
0
VERTEX
8
0
10
57.213453125
20
22.379625
30
0
0
VERTEX
8
0
10
57.213459375
20
22.379628125
30
0
0
VERTEX
8
0
10
57.2134875
20
22.379640625
30
0
0
VERTEX
8
0
10
57.235996875000005
20
22.393418750000002
30
0
0
VERTEX
8
0
10
57.2474125
20
22.40040625
30
0
0
VERTEX
8
0
10
57.247425
20
22.400415625
30
0
0
VERTEX
8
0
10
57.24744375
20
22.400428125
30
0
0
VERTEX
8
0
10
57.260112500000005
20
22.411234375
30
0
0
VERTEX
8
0
10
57.27770625
20
22.426237500000003
30
0
42
3.9148451986121584e-5
0
VERTEX
8
0
10
57.277734375
20
22.426265625000003
30
0
0
VERTEX
8
0
10
57.2885125
20
22.438865625000002
30
0
0
VERTEX
8
0
10
57.303593750000005
20
22.4564875
30
0
0
VERTEX
8
0
10
57.30360625
20
22.45650625
30
0
0
VERTEX
8
0
10
57.303615625000006
20
22.45651875
30
0
0
VERTEX
8
0
10
57.309971875
20
22.46686875
30
0
0
VERTEX
8
0
10
57.324434375
20
22.490409375000002
30
0
0
VERTEX
8
0
10
57.324446875
20
22.490437500000002
30
0
0
VERTEX
8
0
10
57.324450000000006
20
22.49044375
30
0
0
VERTEX
8
0
10
57.326871875
20
22.496268750000002
30
0
0
VERTEX
8
0
10
57.33971875
20
22.527171875
30
0
0
VERTEX
8
0
10
57.339725
20
22.5272
30
0
0
VERTEX
8
0
10
57.339728125
20
22.527206250000003
30
0
0
VERTEX
8
0
10
57.341553125000004
20
22.5347625
30
0
0
VERTEX
8
0
10
57.34906875
20
22.56586875
30
0
0
VERTEX
8
0
10
57.349071875
20
22.565890625
30
0
0
VERTEX
8
0
10
57.349075000000006
20
22.565909375
30
0
0
VERTEX
8
0
10
57.350350000000006
20
22.5817875
30
0
0
VERTEX
8
0
10
57.352259375
20
22.605553125
30
0
0
VERTEX
8
0
10
57.35225625
20
22.605575
30
0
0
VERTEX
8
0
10
57.352259375
20
22.60559375
30
0
0
VERTEX
8
0
10
57.351006250000005
20
22.62188125
30
0
0
VERTEX
8
0
10
57.349209375
20
22.64525
30
0
0
VERTEX
8
0
10
57.349203125
20
22.645271875000002
30
0
0
VERTEX
8
0
10
57.349203125
20
22.645287500000002
30
0
0
VERTEX
8
0
10
57.345968750000004
20
22.65886875
30
0
0
VERTEX
8
0
10
57.339993750000005
20
22.683981250000002
30
0
0
VERTEX
8
0
10
57.339984375
20
22.684003125
30
0
0
VERTEX
8
0
10
57.33998125
20
22.68401875
30
0
0
VERTEX
8
0
10
57.335831250000005
20
22.694090625
30
0
0
VERTEX
8
0
10
57.3248375
20
22.720796875
30
0
0
VERTEX
8
0
10
57.324821875000005
20
22.72081875
30
0
0
VERTEX
8
0
10
57.324818750000006
20
22.72083125
30
0
0
VERTEX
8
0
10
57.317209375000004
20
22.7333125
30
0
0
VERTEX
8
0
10
57.304115625
20
22.75479375
30
0
0
VERTEX
8
0
10
57.304106250000004
20
22.75480625
30
0
0
VERTEX
8
0
10
57.30409375
20
22.754825
30
0
42
0.03924543795925192
0
VERTEX
8
0
10
57.278309375
20
22.785159375000003
30
0
0
VERTEX
8
0
10
57.265625
20
22.79605
30
0
0
VERTEX
8
0
10
57.248134375
20
22.811071875
30
0
0
VERTEX
8
0
10
57.248112500000005
20
22.811084375
30
0
0
VERTEX
8
0
10
57.248103125
20
22.81109375
30
0
0
VERTEX
8
0
10
57.2385875
20
22.816959375
30
0
0
VERTEX
8
0
10
57.214246875
20
22.831971875
30
0
0
VERTEX
8
0
10
57.21421875
20
22.831984375
30
0
0
VERTEX
8
0
10
57.2142125
20
22.8319875
30
0
0
VERTEX
8
0
10
57.2052125
20
22.835746875
30
0
0
VERTEX
8
0
10
57.177512500000006
20
22.84731875
30
0
42
3.890562725041667e-5
0
VERTEX
8
0
10
57.177475
20
22.84733125
30
0
0
VERTEX
8
0
10
57.159287500000005
20
22.85175625
30
0
0
VERTEX
8
0
10
57.13883125
20
22.8567375
30
0
0
VERTEX
8
0
10
57.138809375
20
22.856740625
30
0
0
VERTEX
8
0
10
57.138790625000006
20
22.85674375
30
0
0
VERTEX
8
0
10
57.099112500000004
20
22.86
30
0
42
0.0008396870004093691
0
VERTEX
8
0
10
57.098259375000005
20
22.86
30
0
0
VERTEX
8
0
10
40.231728125000004
20
22.86
30
0
0
VERTEX
8
0
10
40.19745625
20
22.85730625
30
0
0
VERTEX
8
0
10
40.192071875
20
22.856884375
30
0
0
VERTEX
8
0
10
40.192068750000004
20
22.856884375
30
0
0
VERTEX
8
0
10
40.192037500000005
20
22.85688125
30
0
0
VERTEX
8
0
10
40.163421875000004
20
22.85001875
30
0
0
VERTEX
8
0
10
40.153353125
20
22.847606250000002
30
0
0
VERTEX
8
0
10
40.153343750000005
20
22.847603125000003
30
0
0
VERTEX
8
0
10
40.153321875
20
22.847596875
30
0
42
0.03921409914817312
0
VERTEX
8
0
10
40.1165625
20
22.832390625000002
30
0
0
VERTEX
8
0
10
40.116543750000005
20
22.832378125
30
0
0
VERTEX
8
0
10
40.116534375
20
22.832375000000003
30
0
0
VERTEX
8
0
10
40.107321875000004
20
22.8267375
30
0
0
VERTEX
8
0
10
40.082603125
20
22.811615625
30
0
0
VERTEX
8
0
10
40.082584375
20
22.811600000000002
30
0
0
VERTEX
8
0
10
40.082575
20
22.81159375
30
0
0
VERTEX
8
0
10
40.071990625000005
20
22.802568750000002
30
0
0
VERTEX
8
0
10
40.052303125
20
22.7857875
30
0
0
VERTEX
8
0
10
40.026415625
20
22.755540625000002
30
0
0
VERTEX
8
0
10
40.026409375
20
22.75553125
30
0
0
VERTEX
8
0
10
40.026393750000004
20
22.755512500000002
30
0
0
VERTEX
8
0
10
40.0141125
20
22.735521875
30
0
0
VERTEX
8
0
10
40.00556875
20
22.721621875
30
0
0
VERTEX
8
0
10
40.0055625
20
22.721603125
30
0
0
VERTEX
8
0
10
40.005553125
20
22.721590625
30
0
0
VERTEX
8
0
10
39.99179375
20
22.688496875000002
30
0
0
VERTEX
8
0
10
39.99028125
20
22.684859375000002
30
0
0
VERTEX
8
0
10
39.99028125
20
22.684856250000003
30
0
0
VERTEX
8
0
10
39.99026875
20
22.684828125000003
30
0
0
VERTEX
8
0
10
39.98256875
20
22.652965625
30
0
0
VERTEX
8
0
10
39.980925
20
22.646162500000003
30
0
0
VERTEX
8
0
10
39.980925
20
22.646153125
30
0
0
VERTEX
8
0
10
39.98091875
20
22.64613125
30
0
0
VERTEX
8
0
10
39.978915625
20
22.621234375
30
0
0
VERTEX
8
0
10
39.977728125
20
22.606478125000002
30
0
0
VERTEX
8
0
10
39.977728125
20
22.606446875
30
0
0
VERTEX
8
0
10
39.980778125
20
22.566750000000003
30
0
0
VERTEX
8
0
10
39.988228125
20
22.535440625
30
0
0
VERTEX
8
0
10
39.989984375
20
22.52805
30
0
0
VERTEX
8
0
10
39.989987500000005
20
22.5280375
30
0
0
VERTEX
8
0
10
39.989993750000004
20
22.52801875
30
0
42
0.03921494162868814
0
VERTEX
8
0
10
40.005134375000004
20
22.491231250000002
30
0
0
VERTEX
8
0
10
40.00515625
20
22.491196875
30
0
0
VERTEX
8
0
10
40.019481250000005
20
22.467690625
30
0
0
VERTEX
8
0
10
40.025853125000005
20
22.457234375000002
30
0
0
VERTEX
8
0
10
40.025859375
20
22.457228125
30
0
0
VERTEX
8
0
10
40.025871875
20
22.457206250000002
30
0
0
VERTEX
8
0
10
40.0460125
20
22.433503125
30
0
0
VERTEX
8
0
10
40.051628125
20
22.426890625000002
30
0
42
3.0448594052819127e-5
0
VERTEX
8
0
10
40.05165
20
22.42686875
30
0
0
VERTEX
8
0
10
40.081853125
20
22.400928125
30
0
0
VERTEX
8
0
10
40.109603125
20
22.3838125
30
0
0
VERTEX
8
0
10
40.115709375
20
22.380043750000002
30
0
0
VERTEX
8
0
10
40.115728125000004
20
22.3800375
30
0
0
VERTEX
8
0
10
40.115740625
20
22.380028125000003
30
0
0
VERTEX
8
0
10
40.13339375
20
22.372653125
30
0
0
VERTEX
8
0
10
40.15244375
20
22.364690625
30
0
0
VERTEX
8
0
10
40.152465625000005
20
22.364684375
30
0
0
VERTEX
8
0
10
40.152475
20
22.36468125
30
0
0
VERTEX
8
0
10
40.19115625
20
22.355262500000002
30
0
42
0.0007971926420063544
0
VERTEX
8
0
10
40.19200625
20
22.355125
30
0
0
VERTEX
8
0
10
40.235296875
20
22.348268750000003
30
0
0
VERTEX
8
0
10
40.433012500000004
20
22.28403125
30
0
0
VERTEX
8
0
10
40.618246875000004
20
22.18965
30
0
0
VERTEX
8
0
10
40.786434375
20
22.067453125
30
0
0
VERTEX
8
0
10
40.933453125
20
21.920434375000003
30
0
0
VERTEX
8
0
10
41.05565
20
21.752246875
30
0
0
VERTEX
8
0
10
41.150031250000005
20
21.5670125
30
0
0
VERTEX
8
0
10
41.21160625
20
21.3775
30
0
0
VERTEX
8
0
10
40.89164375
20
21.3775
30
0
0
VERTEX
8
0
10
40.865556250000004
20
21.449178125
30
0
42
0.29147316602716916
0
VERTEX
8
0
10
39.970359375
20
22.076
30
0
0
VERTEX
8
0
10
37.849640625
20
22.076
30
0
0
VERTEX
8
0
10
37.761259375
20
22.06826875
30
0
42
0.9163314512321996
0
VERTEX
8
0
10
37.849640625
20
20.044
30
0
0
VERTEX
8
0
10
38.148
20
20.044
30
0
0
VERTEX
8
0
10
38.148
20
19.536
30
0
0
VERTEX
8
0
10
37.849640625
20
19.536
30
0
0
VERTEX
8
0
10
37.761259375
20
19.528268750000002
30
0
42
0.26794902817390576
0
VERTEX
8
0
10
36.95444375
20
18.909178125
30
0
0
VERTEX
8
0
10
36.92835625
20
18.837500000000002
30
0
0
VERTEX
8
0
10
36.608390625
20
18.837500000000002
30
0
0
VERTEX
8
0
10
36.610543750000005
20
18.844121875000003
30
0
42
9.828231000369648e-5
0
VERTEX
8
0
10
36.610575000000004
20
18.84421875
30
0
0
VERTEX
8
0
10
36.669965625
20
19.0270125
30
0
0
VERTEX
8
0
10
36.687478125
20
19.061378125
30
0
42
6.178053333853231e-5
0
VERTEX
8
0
10
36.68750625
20
19.0614375
30
0
0
VERTEX
8
0
10
36.764346875
20
19.212246875
30
0
0
VERTEX
8
0
10
36.88654375
20
19.380434375
30
0
0
VERTEX
8
0
10
37.0335625
20
19.527453125
30
0
0
VERTEX
8
0
10
37.11209375
20
19.584509375
30
0
42
0.03924500389039438
0
VERTEX
8
0
10
37.14236875
20
19.6103625
30
0
0
VERTEX
8
0
10
37.154146875
20
19.624146875
30
0
0
VERTEX
8
0
10
37.168028125
20
19.640346875000002
30
0
42
0.1990421153703579
0
VERTEX
8
0
10
37.213718750000005
20
19.829425
30
0
0
VERTEX
8
0
10
37.2095
20
19.847093750000003
30
0
0
VERTEX
8
0
10
37.204584375
20
19.86781875
30
0
0
VERTEX
8
0
10
37.2045125
20
19.86799375
30
0
0
VERTEX
8
0
10
37.204475
20
19.86815
30
0
0
VERTEX
8
0
10
37.197628125
20
19.88475
30
0
0
VERTEX
8
0
10
37.189453125
20
19.90464375
30
0
42
0.039247038453873
0
VERTEX
8
0
10
37.168753125
20
19.938653125000002
30
0
0
VERTEX
8
0
10
37.168646875
20
19.938778125000002
30
0
0
VERTEX
8
0
10
37.16855
20
19.9389375
30
0
42
0.038899534225947746
0
VERTEX
8
0
10
37.142996875
20
19.969009375000002
30
0
0
VERTEX
8
0
10
37.142871875000004
20
19.96911875
30
0
0
VERTEX
8
0
10
37.14275
20
19.969259375
30
0
0
VERTEX
8
0
10
37.112528125000004
20
19.995175
30
0
42
0.0005327765502100807
0
VERTEX
8
0
10
37.112090625
20
19.99549375
30
0
0
VERTEX
8
0
10
37.033556250000004
20
20.05255
30
0
0
VERTEX
8
0
10
36.88654375
20
20.199562500000003
30
0
0
VERTEX
8
0
10
36.764346875
20
20.36775
30
0
0
VERTEX
8
0
10
36.669965625
20
20.552984375
30
0
0
VERTEX
8
0
10
36.634128125000004
20
20.663290625000002
30
0
0
VERTEX
8
0
10
36.626571875
20
20.6815375
30
0
0
VERTEX
8
0
10
36.619034375
20
20.699803125000003
30
0
42
0.15820307291225538
0
VERTEX
8
0
10
36.508346875
20
20.810878125000002
30
0
0
VERTEX
8
0
10
36.508196875
20
20.810940625
30
0
0
VERTEX
8
0
10
36.508075000000005
20
20.811015625
30
0
42
0.2816963375619811
0
VERTEX
8
0
10
36.243700000000004
20
20.790609375000003
30
0
0
VERTEX
8
0
10
36.21336875
20
20.764821875000003
30
0
42
0.0005785265387378825
0
VERTEX
8
0
10
36.212953125
20
20.76440625
30
0
0
VERTEX
8
0
10
36.078890625
20
20.630340625000002
30
0
0
VERTEX
8
0
10
36.066534375
20
20.615875000000003
30
0
0
VERTEX
8
0
10
36.053425000000004
20
20.6006125
30
0
42
0.11889612979554684
0
VERTEX
8
0
10
36.007650000000005
20
20.49064375
30
0
0
VERTEX
8
0
10
36.004496875
20
20.45095625
30
0
42
0.00021530506820652086
0
VERTEX
8
0
10
36.004496875
20
20.450737500000002
30
0
0
VERTEX
8
0
10
36.004496875
20
15.73319375
30
0
0
VERTEX
8
0
10
35.811150000000005
20
15.266415625
30
0
0
VERTEX
8
0
10
33.8915625
20
13.346828125
30
0
0
VERTEX
8
0
10
33.891543750000004
20
13.34680625
30
0
0
VERTEX
8
0
10
33.80550625
20
13.26076875
30
0
0
VERTEX
8
0
10
33.805493750000004
20
13.260759375000001
30
0
0
VERTEX
8
0
10
33.6781375
20
13.133403125000001
30
0
0
VERTEX
8
0
10
33.664915625
20
13.117925000000001
30
0
0
VERTEX
8
0
10
33.65240625
20
13.103309375
30
0
0
VERTEX
8
0
10
33.65234375
20
13.103209375
30
0
0
VERTEX
8
0
10
33.652278125
20
13.10313125
30
0
42
0.07839596348570517
0
VERTEX
8
0
10
33.61628125
20
13.032625000000001
30
0
0
VERTEX
8
0
10
33.616253125
20
13.032503125
30
0
0
VERTEX
8
0
10
33.616215625
20
13.032415625
30
0
42
0.15798098299574814
0
VERTEX
8
0
10
33.61600625
20
12.875815625000001
30
0
0
VERTEX
8
0
10
33.61605
20
12.87570625
30
0
0
VERTEX
8
0
10
33.616075
20
12.87560625
30
0
42
0.11822457350209489
0
VERTEX
8
0
10
33.67781875
20
12.774509375000001
30
0
0
VERTEX
8
0
10
33.691259375
20
12.762987500000001
30
0
0
VERTEX
8
0
10
33.707865625000004
20
12.748725
30
0
0
VERTEX
8
0
10
33.707978125000004
20
12.74865625
30
0
0
VERTEX
8
0
10
33.708046875
20
12.748596875
30
0
0
VERTEX
8
0
10
33.722715625
20
12.739565625000001
30
0
0
VERTEX
8
0
10
33.741753125
20
12.727825000000001
30
0
42
0.039461926730396835
0
VERTEX
8
0
10
33.778696875
20
12.712409375
30
0
0
VERTEX
8
0
10
33.7996
20
12.707337500000001
30
0
0
VERTEX
8
0
10
33.81716875
20
12.703059375
30
0
0
VERTEX
8
0
10
33.817265625000005
20
12.703053125
30
0
0
VERTEX
8
0
10
33.8173875
20
12.703021875000001
30
0
0
VERTEX
8
0
10
33.857071875
20
12.699796875
30
0
42
0.000658217078071595
0
VERTEX
8
0
10
33.857740625
20
12.699796875
30
0
0
VERTEX
8
0
10
34.303368750000004
20
12.699796875
30
0
0
VERTEX
8
0
10
34.401175
20
12.680340625000001
30
0
0
VERTEX
8
0
10
34.493325
20
12.642171875
30
0
0
VERTEX
8
0
10
34.576240625000004
20
12.586771875
30
0
0
VERTEX
8
0
10
34.646771875
20
12.516240625
30
0
0
VERTEX
8
0
10
34.702171875000005
20
12.433325
30
0
0
VERTEX
8
0
10
34.740340625
20
12.341175
30
0
0
VERTEX
8
0
10
34.759796875
20
12.24336875
30
0
0
VERTEX
8
0
10
34.759796875
20
12.07
30
0
0
VERTEX
8
0
10
34.455
20
12.07
30
0
0
VERTEX
8
0
10
34.455
20
12.213346875000001
30
0
0
VERTEX
8
0
10
34.44725625
20
12.252275000000001
30
0
0
VERTEX
8
0
10
34.432065625
20
12.288946875
30
0
0
VERTEX
8
0
10
34.410015625
20
12.321950000000001
30
0
0
VERTEX
8
0
10
34.38195
20
12.350015625000001
30
0
0
VERTEX
8
0
10
34.348946875
20
12.372065625000001
30
0
0
VERTEX
8
0
10
34.312275
20
12.38725625
30
0
0
VERTEX
8
0
10
34.273346875
20
12.395000000000001
30
0
0
VERTEX
8
0
10
33.036653125
20
12.395000000000001
30
0
0
VERTEX
8
0
10
32.997725
20
12.38725625
30
0
0
VERTEX
8
0
10
32.961053125
20
12.372065625000001
30
0
0
VERTEX
8
0
10
32.92805
20
12.350015625000001
30
0
0
VERTEX
8
0
10
32.899984375
20
12.321950000000001
30
0
0
VERTEX
8
0
10
32.877934375
20
12.288946875
30
0
0
VERTEX
8
0
10
32.86274375
20
12.252275000000001
30
0
0
VERTEX
8
0
10
32.855000000000004
20
12.213346875000001
30
0
0
VERTEX
8
0
10
32.855000000000004
20
12.07
30
0
0
VERTEX
8
0
10
32.550200000000004
20
12.07
30
0
0
VERTEX
8
0
10
32.550200000000004
20
12.24336875
30
0
0
VERTEX
8
0
10
32.56965625
20
12.34118125
30
0
0
VERTEX
8
0
10
32.597871875
20
12.40929375
30
0
0
VERTEX
8
0
10
32.600893750000004
20
12.418596875
30
0
0
VERTEX
8
0
10
32.60466875
20
12.427671875000001
30
0
42
0.5099655881070437
0
VERTEX
8
0
10
32.363209375000004
20
12.7605
30
0
0
VERTEX
8
0
10
32.089287500000005
20
12.7605
30
0
0
VERTEX
8
0
10
32.07950625
20
12.75973125
30
0
42
0.49676995501473675
0
VERTEX
8
0
10
31.847553125
20
12.42851875
30
0
0
VERTEX
8
0
10
31.851546875
20
12.418812500000001
30
0
0
VERTEX
8
0
10
31.854625000000002
20
12.40929375
30
0
0
VERTEX
8
0
10
31.882840625
20
12.34118125
30
0
0
VERTEX
8
0
10
31.902296875
20
12.24336875
30
0
0
VERTEX
8
0
10
31.902296875
20
12.07
30
0
0
VERTEX
8
0
10
31.5975
20
12.07
30
0
0
VERTEX
8
0
10
31.5975
20
12.213346875000001
30
0
0
VERTEX
8
0
10
31.58975625
20
12.252275000000001
30
0
0
VERTEX
8
0
10
31.574565625
20
12.288946875
30
0
0
VERTEX
8
0
10
31.552515625
20
12.321950000000001
30
0
0
VERTEX
8
0
10
31.52445
20
12.350015625000001
30
0
0
VERTEX
8
0
10
31.491446875
20
12.372065625000001
30
0
0
VERTEX
8
0
10
31.454775
20
12.38725625
30
0
0
VERTEX
8
0
10
31.415846875000003
20
12.395000000000001
30
0
0
VERTEX
8
0
10
30.179153125000003
20
12.395000000000001
30
0
0
VERTEX
8
0
10
30.140225
20
12.38725625
30
0
0
VERTEX
8
0
10
30.103553125
20
12.372065625000001
30
0
0
VERTEX
8
0
10
30.07055
20
12.350015625000001
30
0
0
VERTEX
8
0
10
30.042484375
20
12.321950000000001
30
0
0
VERTEX
8
0
10
30.020434375
20
12.288946875
30
0
0
VERTEX
8
0
10
30.00524375
20
12.252275000000001
30
0
0
VERTEX
8
0
10
29.997500000000002
20
12.213346875000001
30
0
0
VERTEX
8
0
10
29.997500000000002
20
11.276653125000001
30
0
0
VERTEX
8
0
10
30.00524375
20
11.237725000000001
30
0
0
VERTEX
8
0
10
30.020434375
20
11.201053125000001
30
0
0
VERTEX
8
0
10
30.042484375
20
11.168050000000001
30
0
0
VERTEX
8
0
10
30.07055
20
11.139984375000001
30
0
0
VERTEX
8
0
10
30.103553125
20
11.117934375
30
0
0
VERTEX
8
0
10
30.140225
20
11.10274375
30
0
0
VERTEX
8
0
10
30.179153125000003
20
11.095
30
0
0
VERTEX
8
0
10
31.415846875000003
20
11.095
30
0
0
VERTEX
8
0
10
31.454775
20
11.10274375
30
0
0
VERTEX
8
0
10
31.491446875
20
11.117934375
30
0
0
VERTEX
8
0
10
31.52445
20
11.139984375000001
30
0
0
VERTEX
8
0
10
31.552515625
20
11.168050000000001
30
0
0
VERTEX
8
0
10
31.574565625
20
11.201053125000001
30
0
0
VERTEX
8
0
10
31.58975625
20
11.237725000000001
30
0
0
VERTEX
8
0
10
31.5975
20
11.276653125000001
30
0
0
VERTEX
8
0
10
31.5975
20
11.41999375
30
0
0
VERTEX
8
0
10
31.902293750000002
20
11.41999375
30
0
0
VERTEX
8
0
10
31.902293750000002
20
11.368996875
30
0
42
0.3684700915868439
0
VERTEX
8
0
10
32.1161625
20
11.118187500000001
30
0
0
VERTEX
8
0
10
32.155846875
20
11.114996875000001
30
0
42
0.0004398371729773942
0
VERTEX
8
0
10
32.15629375
20
11.114996875000001
30
0
0
VERTEX
8
0
10
32.2962
20
11.114996875000001
30
0
0
VERTEX
8
0
10
32.315884375
20
11.11654375
30
0
0
VERTEX
8
0
10
32.33545
20
11.118046875000001
30
0
42
0.15865412083411573
0
VERTEX
8
0
10
32.475646875
20
11.189234375
30
0
0
VERTEX
8
0
10
32.4873375
20
11.202896875
30
0
0
VERTEX
8
0
10
32.501271875
20
11.219121875
30
0
42
0.11866845662848316
0
VERTEX
8
0
10
32.547009375
20
11.328865625
30
0
0
VERTEX
8
0
10
32.550200000000004
20
11.36855
30
0
42
0.0004398371729773942
0
VERTEX
8
0
10
32.550200000000004
20
11.368996875
30
0
0
VERTEX
8
0
10
32.550200000000004
20
11.41999375
30
0
0
VERTEX
8
0
10
32.855000000000004
20
11.41999375
30
0
0
VERTEX
8
0
10
32.855000000000004
20
11.276653125000001
30
0
0
VERTEX
8
0
10
32.86274375
20
11.237725000000001
30
0
0
VERTEX
8
0
10
32.877934375
20
11.201053125000001
30
0
0
VERTEX
8
0
10
32.899984375
20
11.168050000000001
30
0
0
VERTEX
8
0
10
32.92805
20
11.139984375000001
30
0
0
VERTEX
8
0
10
32.961053125
20
11.117934375
30
0
0
VERTEX
8
0
10
32.997725
20
11.10274375
30
0
0
VERTEX
8
0
10
33.036653125
20
11.095
30
0
0
VERTEX
8
0
10
34.273346875
20
11.095
30
0
0
VERTEX
8
0
10
34.312275
20
11.10274375
30
0
0
VERTEX
8
0
10
34.348946875
20
11.117934375
30
0
0
VERTEX
8
0
10
34.38195
20
11.139984375000001
30
0
0
VERTEX
8
0
10
34.410015625
20
11.168050000000001
30
0
0
VERTEX
8
0
10
34.432065625
20
11.201053125000001
30
0
0
VERTEX
8
0
10
34.44725625
20
11.237725000000001
30
0
0
VERTEX
8
0
10
34.455
20
11.276653125000001
30
0
0
VERTEX
8
0
10
34.455
20
11.41999375
30
0
0
VERTEX
8
0
10
34.759796875
20
11.41999375
30
0
0
VERTEX
8
0
10
34.759796875
20
11.246628125
30
0
0
VERTEX
8
0
10
34.740340625
20
11.148821875000001
30
0
0
VERTEX
8
0
10
34.702171875000005
20
11.056678125000001
30
0
0
VERTEX
8
0
10
34.662540625
20
10.997362500000001
30
0
42
0.3578110644503392
0
VERTEX
8
0
10
34.694131250000005
20
10.6766375
30
0
0
VERTEX
8
0
10
34.747318750000005
20
10.623453125000001
30
0
0
VERTEX
8
0
10
34.835996875
20
10.409365625000001
30
0
0
VERTEX
8
0
10
34.835996875
20
10.363003125
30
0
42
0.09849272595214832
0
VERTEX
8
0
10
34.85533125
20
10.2658
30
0
0
VERTEX
8
0
10
34.924996875000005
20
10.097615625000001
30
0
0
VERTEX
8
0
10
34.924996875000005
20
9.59238125
30
0
0
VERTEX
8
0
10
34.85533125
20
9.424196875
30
0
0
VERTEX
8
0
10
34.852365625000004
20
9.415075
30
0
42
0.05865197407506995
0
VERTEX
8
0
10
34.83845
20
9.357484375
30
0
0
VERTEX
8
0
10
34.8367875
20
9.3470125
30
0
42
0.11520739992446456
0
VERTEX
8
0
10
34.812865625
20
9.222825
30
0
0
VERTEX
8
0
10
34.810484375
20
9.212975
30
0
42
0.49746665126087514
0
VERTEX
8
0
10
35.054325
20
8.889996875
30
0
0
VERTEX
8
0
10
36.575137500000004
20
8.889996875
30
0
0
VERTEX
8
0
10
36.59658125
20
8.891681250000001
30
0
0
VERTEX
8
0
10
36.6146125
20
8.893084375
30
0
0
VERTEX
8
0
10
36.614703125
20
8.89310625
30
0
0
VERTEX
8
0
10
36.614828125
20
8.893115625
30
0
0
VERTEX
8
0
10
36.636696875
20
8.898359375
30
0
0
VERTEX
8
0
10
36.653334375
20
8.902334375
30
0
0
VERTEX
8
0
10
36.653425
20
8.902371875
30
0
0
VERTEX
8
0
10
36.653543750000004
20
8.9024
30
0
42
0.03903086785168829
0
VERTEX
8
0
10
36.6901375
20
8.917521875
30
0
0
VERTEX
8
0
10
36.6902375
20
8.917584375
30
0
0
VERTEX
8
0
10
36.69033125
20
8.917621875
30
0
0
VERTEX
8
0
10
36.705737500000005
20
8.927050000000001
30
0
0
VERTEX
8
0
10
36.724115625
20
8.938275
30
0
0
VERTEX
8
0
10
36.724203125
20
8.93835
30
0
0
VERTEX
8
0
10
36.724290625
20
8.938403125
30
0
0
VERTEX
8
0
10
36.738309375
20
8.95035625
30
0
0
VERTEX
8
0
10
36.75443125
20
8.96408125
30
0
42
0.00021314133614794517
0
VERTEX
8
0
10
36.754584375
20
8.964234375
30
0
0
VERTEX
8
0
10
36.766721875
20
8.978418750000001
30
0
0
VERTEX
8
0
10
36.78034375
20
8.994306250000001
30
0
0
VERTEX
8
0
10
36.78040625
20
8.99440625
30
0
0
VERTEX
8
0
10
36.780471875
20
8.994484375
30
0
42
0.19845944858617365
0
VERTEX
8
0
10
36.82611875
20
9.18303125
30
0
0
VERTEX
8
0
10
36.826096875000005
20
9.183121875000001
30
0
0
VERTEX
8
0
10
36.8260875
20
9.183246875
30
0
0
VERTEX
8
0
10
36.821125
20
9.204096875000001
30
0
0
VERTEX
8
0
10
36.8169375
20
9.221771875
30
0
42
0.039246456536613704
0
VERTEX
8
0
10
36.801812500000004
20
9.258600000000001
30
0
0
VERTEX
8
0
10
36.801759375
20
9.2586875
30
0
0
VERTEX
8
0
10
36.801715625
20
9.25879375
30
0
0
VERTEX
8
0
10
36.7922875
20
9.274259375
30
0
0
VERTEX
8
0
10
36.781121875000004
20
9.2926125
30
0
42
0.00021596238628487764
0
VERTEX
8
0
10
36.78099375
20
9.292790625
30
0
0
VERTEX
8
0
10
36.755215625000005
20
9.323128125
30
0
0
VERTEX
8
0
10
36.754962500000005
20
9.323346875
30
0
0
VERTEX
8
0
10
36.754740625000004
20
9.323606250000001
30
0
0
VERTEX
8
0
10
36.70968125
20
9.368665625
30
0
0
VERTEX
8
0
10
36.497
20
9.88211875
30
0
0
VERTEX
8
0
10
36.497
20
10.437878125000001
30
0
0
VERTEX
8
0
10
36.70968125
20
10.951334375
30
0
0
VERTEX
8
0
10
37.1026625
20
11.344315625
30
0
0
VERTEX
8
0
10
37.61611875
20
11.556996875000001
30
0
0
VERTEX
8
0
10
40.203878125
20
11.556996875000001
30
0
0
VERTEX
8
0
10
40.717334375
20
11.344315625
30
0
0
VERTEX
8
0
10
41.110315625000005
20
10.951334375
30
0
0
VERTEX
8
0
10
41.322996875
20
10.437878125000001
30
0
0
VERTEX
8
0
10
41.322996875
20
9.88211875
30
0
0
VERTEX
8
0
10
41.110315625000005
20
9.368662500000001
30
0
0
VERTEX
8
0
10
40.81125625
20
9.069603125
30
0
0
VERTEX
8
0
10
40.798034375
20
9.054125
30
0
0
VERTEX
8
0
10
40.785659375
20
9.039690625
30
0
42
0.19913787786506304
0
VERTEX
8
0
10
40.739946875
20
8.850528125
30
0
0
VERTEX
8
0
10
40.744831250000004
20
8.830078125
30
0
0
VERTEX
8
0
10
40.7490625
20
8.812225
30
0
42
0.07905182345548524
0
VERTEX
8
0
10
40.785137500000005
20
8.741025
30
0
0
VERTEX
8
0
10
40.81094375
20
8.710706250000001
30
0
42
0.00043933249264818523
0
VERTEX
8
0
10
40.811259375
20
8.710390625
30
0
0
VERTEX
8
0
10
41.110315625000005
20
8.4113375
30
0
0
VERTEX
8
0
10
41.322996875
20
7.897878125
30
0
0
VERTEX
8
0
10
41.322996875
20
7.34211875
30
0
0
VERTEX
8
0
10
41.110315625000005
20
6.8286625
30
0
0
VERTEX
8
0
10
40.717334375
20
6.43568125
30
0
0
VERTEX
8
0
10
40.203878125
20
6.223
30
0
0
VERTEX
8
0
10
38.3195625
20
6.223
30
0
0
VERTEX
8
0
10
38.299878125
20
6.221453125
30
0
0
VERTEX
8
0
10
38.2803125
20
6.21995
30
0
42
0.2821731582948369
0
VERTEX
8
0
10
38.078103125
20
6.0478281250000006
30
0
0
VERTEX
8
0
10
38.07310625
20
6.027150000000001
30
0
0
VERTEX
8
0
10
38.068825000000004
20
6.009571875000001
30
0
42
0.0004394183465184195
0
VERTEX
8
0
10
38.068753125
20
6.00913125
30
0
0
VERTEX
8
0
10
38.0655625
20
5.969446875
30
0
42
0.0004398371729773942
0
VERTEX
8
0
10
38.0655625
20
5.969
30
0
0
VERTEX
8
0
10
38.0655625
20
5.7130937500000005
30
0
0
VERTEX
8
0
10
37.976621875
20
5.498378125
30
0
0
VERTEX
8
0
10
37.812281250000005
20
5.3340375
30
0
0
VERTEX
8
0
10
37.77080625
20
5.316859375
30
0
42
0.30334835632732
0
VERTEX
8
0
10
37.61400625
20
5.08219375
30
0
0
VERTEX
8
0
10
37.61400625
20
4.08749375
30
0
0
VERTEX
8
0
10
37.59193125
20
4.034203125
30
0
42
0.5345179869898072
0
VERTEX
8
0
10
37.82659375
20
3.682996875
30
0
0
VERTEX
8
0
10
63.232462500000004
20
3.682996875
30
0
0
VERTEX
8
0
10
63.242375
20
3.6837750000000002
30
0
42
0.667216981505505
0
VERTEX
8
0
10
63.405003125
20
4.122603125
30
0
0
VERTEX
8
0
10
63.398021875000005
20
4.129625
30
0
42
0.07286703077043985
0
VERTEX
8
0
10
63.329653125
20
4.171665625
30
0
0
VERTEX
8
0
10
63.296675
20
4.185325000000001
30
0
0
VERTEX
8
0
10
63.21375625
20
4.240725
30
0
0
VERTEX
8
0
10
63.143225
20
4.3112562500000005
30
0
0
VERTEX
8
0
10
63.087825
20
4.3941718750000005
30
0
0
VERTEX
8
0
10
63.049656250000005
20
4.486321875
30
0
0
VERTEX
8
0
10
63.0302
20
4.584128125
30
0
0
VERTEX
8
0
10
63.0302
20
4.75749375
30
0
0
VERTEX
8
0
10
63.335
20
4.75749375
30
0
0
VERTEX
8
0
10
63.335
20
4.6141531250000005
30
0
0
VERTEX
8
0
10
63.342743750000004
20
4.5752250000000005
30
0
0
VERTEX
8
0
10
63.357934375000006
20
4.538553125
30
0
0
VERTEX
8
0
10
63.37998437500001
20
4.50555
30
0
0
VERTEX
8
0
10
63.40805
20
4.477484375
30
0
0
VERTEX
8
0
10
63.441053125
20
4.455434375
30
0
0
VERTEX
8
0
10
63.477725
20
4.4402437500000005
30
0
0
VERTEX
8
0
10
63.516653125000005
20
4.4325
30
0
0
VERTEX
8
0
10
64.753346875
20
4.4325
30
0
0
VERTEX
8
0
10
64.792275
20
4.4402437500000005
30
0
0
VERTEX
8
0
10
64.828946875
20
4.455434375
30
0
0
VERTEX
8
0
10
64.86195000000001
20
4.477484375
30
0
0
VERTEX
8
0
10
64.890015625
20
4.50555
30
0
0
VERTEX
8
0
10
64.912065625
20
4.538553125
30
0
0
VERTEX
8
0
10
64.92725625
20
4.5752250000000005
30
0
0
VERTEX
8
0
10
64.935
20
4.6141531250000005
30
0
0
VERTEX
8
0
10
64.935
20
4.75749375
30
0
0
VERTEX
8
0
10
65.239796875
20
4.75749375
30
0
0
VERTEX
8
0
10
65.239796875
20
4.584128125
30
0
0
VERTEX
8
0
10
65.220340625
20
4.486321875
30
0
0
VERTEX
8
0
10
65.18217187500001
20
4.3941718750000005
30
0
0
VERTEX
8
0
10
65.126771875
20
4.3112562500000005
30
0
0
VERTEX
8
0
10
65.056240625
20
4.240725
30
0
0
VERTEX
8
0
10
64.973321875
20
4.185325000000001
30
0
0
VERTEX
8
0
10
64.94034375
20
4.171665625
30
0
42
0.8206975909826976
0
VERTEX
8
0
10
65.037534375
20
3.682996875
30
0
0
VERTEX
8
0
10
71.30723437500001
20
3.682996875
30
0
0
VERTEX
8
0
10
71.32535625
20
3.684421875
30
0
0
VERTEX
8
0
10
71.343421875
20
3.6855875
30
0
42
0.3283893594490421
0
VERTEX
8
0
10
71.55804375000001
20
3.896865625
30
0
0
VERTEX
8
0
10
71.55975000000001
20
3.91808125
30
0
0
VERTEX
8
0
10
71.561215625
20
3.9339000000000004
30
0
0
VERTEX
8
0
10
71.6626375
20
12.25365625
30
0
0
VERTEX
8
0
10
71.661953125
20
12.26398125
30
0
42
0.42669405022938556
0
VERTEX
8
0
10
71.39065000000001
20
12.5101125
30
0
0
VERTEX
8
0
10
71.286803125
20
12.50273125
30
0
0
VERTEX
8
0
10
70.89920625
20
12.631931250000001
30
0
0
VERTEX
8
0
10
70.89865625
20
12.63206875
30
0
0
VERTEX
8
0
10
70.8981375
20
12.632284375000001
30
0
42
0.0376630840571434
0
VERTEX
8
0
10
70.85945625000001
20
12.641703125000001
30
0
0
VERTEX
8
0
10
70.84566562500001
20
12.6428125
30
0
0
VERTEX
8
0
10
70.843421875
20
12.643006250000001
30
0
0
VERTEX
8
0
10
70.758803125
20
12.678059375
30
0
42
0.017744322426349282
0
VERTEX
8
0
10
70.74191875
20
12.6843625
30
0
0
VERTEX
8
0
10
69.65120312500001
20
13.047931250000001
30
0
0
VERTEX
8
0
10
69.64006875
20
13.05069375
30
0
0
VERTEX
8
0
10
69.62912187500001
20
13.0542
30
0
42
0.015315548304379123
0
VERTEX
8
0
10
69.61256250000001
20
13.057521875
30
0
0
VERTEX
8
0
10
69.600390625
20
13.058575000000001
30
0
0
VERTEX
8
0
10
69.588884375
20
13.060328125
30
0
0
VERTEX
8
0
10
69.57836875000001
20
13.061075
30
0
0
VERTEX
8
0
10
69.527715625
20
13.086403125
30
0
0
VERTEX
8
0
10
69.509371875
20
13.093840625
30
0
0
VERTEX
8
0
10
69.494434375
20
13.100190625
30
0
0
VERTEX
8
0
10
69.44072187500001
20
13.11809375
30
0
0
VERTEX
8
0
10
69.43276875000001
20
13.124990625
30
0
42
0.03583957764345263
0
VERTEX
8
0
10
69.400740625
20
13.148637500000001
30
0
0
VERTEX
8
0
10
69.389871875
20
13.154284375000001
30
0
0
VERTEX
8
0
10
69.379928125
20
13.160296875
30
0
0
VERTEX
8
0
10
69.370503125
20
13.165009375
30
0
0
VERTEX
8
0
10
69.3334
20
13.207790625000001
30
0
0
VERTEX
8
0
10
69.319196875
20
13.221781250000001
30
0
0
VERTEX
8
0
10
69.307925
20
13.233265625000001
30
0
0
VERTEX
8
0
10
69.26514375000001
20
13.270368750000001
30
0
0
VERTEX
8
0
10
69.26043125
20
13.279793750000001
30
0
42
0.03584293232640515
0
VERTEX
8
0
10
69.239890625
20
13.3139
30
0
0
VERTEX
8
0
10
69.23200625
20
13.32328125
30
0
0
VERTEX
8
0
10
69.225125
20
13.332634375000001
30
0
0
VERTEX
8
0
10
69.21822812500001
20
13.3405875
30
0
0
VERTEX
8
0
10
69.200325
20
13.394300000000001
30
0
0
VERTEX
8
0
10
69.192565625
20
13.412640625
30
0
0
VERTEX
8
0
10
69.1865375
20
13.427581250000001
30
0
0
VERTEX
8
0
10
69.161209375
20
13.478234375000001
30
0
0
VERTEX
8
0
10
69.16046250000001
20
13.488753125
30
0
42
0.03584120189558384
0
VERTEX
8
0
10
69.1545375
20
13.528121875
30
0
0
VERTEX
8
0
10
69.150840625
20
13.5398125
30
0
0
VERTEX
8
0
10
69.148065625
20
13.551075
30
0
0
VERTEX
8
0
10
69.14473125
20
13.561075
30
0
0
VERTEX
8
0
10
69.148746875
20
13.617559375
30
0
0
VERTEX
8
0
10
69.1486
20
13.6374625
30
0
0
VERTEX
8
0
10
69.148746875
20
13.653571875
30
0
0
VERTEX
8
0
10
69.14473125
20
13.710053125
30
0
0
VERTEX
8
0
10
69.148065625
20
13.720053125000002
30
0
42
0.03584105300575811
0
VERTEX
8
0
10
69.15765625
20
13.75869375
30
0
0
VERTEX
8
0
10
69.15871250000001
20
13.770875
30
0
0
VERTEX
8
0
10
69.16046250000001
20
13.782375
30
0
0
VERTEX
8
0
10
69.161209375
20
13.792893750000001
30
0
0
VERTEX
8
0
10
69.1865375
20
13.843546875000001
30
0
0
VERTEX
8
0
10
69.19397500000001
20
13.861890625000001
30
0
0
VERTEX
8
0
10
69.200325
20
13.876828125000001
30
0
0
VERTEX
8
0
10
69.21822812500001
20
13.930540625
30
0
0
VERTEX
8
0
10
69.225125
20
13.938493750000001
30
0
42
0.03583957764345263
0
VERTEX
8
0
10
69.248771875
20
13.970521875000001
30
0
0
VERTEX
8
0
10
69.25441875
20
13.981390625000001
30
0
0
VERTEX
8
0
10
69.26043125
20
13.991334375000001
30
0
0
VERTEX
8
0
10
69.26514375000001
20
14.000759375000001
30
0
0
VERTEX
8
0
10
69.307925
20
14.037862500000001
30
0
0
VERTEX
8
0
10
69.321915625
20
14.052065625000001
30
0
0
VERTEX
8
0
10
69.3334
20
14.063337500000001
30
0
0
VERTEX
8
0
10
69.370503125
20
14.10611875
30
0
0
VERTEX
8
0
10
69.379928125
20
14.11083125
30
0
42
0.03584293232640515
0
VERTEX
8
0
10
69.414034375
20
14.131371875000001
30
0
0
VERTEX
8
0
10
69.423415625
20
14.13925625
30
0
0
VERTEX
8
0
10
69.43276875000001
20
14.1461375
30
0
0
VERTEX
8
0
10
69.440725
20
14.1530375
30
0
0
VERTEX
8
0
10
69.49444062500001
20
14.170943750000001
30
0
0
VERTEX
8
0
10
69.51268125
20
14.178659375
30
0
0
VERTEX
8
0
10
69.5277125
20
14.184725
30
0
0
VERTEX
8
0
10
69.57836875000001
20
14.210053125
30
0
0
VERTEX
8
0
10
69.588884375
20
14.2108
30
0
42
0.06278555551353097
0
VERTEX
8
0
10
69.65120312500001
20
14.223196875000001
30
0
0
VERTEX
8
0
10
70.645225
20
14.554534375000001
30
0
0
VERTEX
8
0
10
70.662575
20
14.561875
30
0
0
VERTEX
8
0
10
70.680096875
20
14.569125000000001
30
0
42
0.6700996482841902
0
VERTEX
8
0
10
70.64223750000001
20
15.037440625
30
0
0
VERTEX
8
0
10
70.623765625
20
15.041784375
30
0
0
VERTEX
8
0
10
70.605475
20
15.0462375
30
0
42
0.001800173278801299
0
VERTEX
8
0
10
70.60348125
20
15.046553125
30
0
0
VERTEX
8
0
10
70.57870625000001
20
15.048390625000001
30
0
0
VERTEX
8
0
10
70.564903125
20
15.0495
30
0
0
VERTEX
8
0
10
70.54941875
20
15.0495
30
0
0
VERTEX
8
0
10
70.334703125
20
15.138440625000001
30
0
0
VERTEX
8
0
10
70.170365625
20
15.302778125000001
30
0
0
VERTEX
8
0
10
70.08142500000001
20
15.51749375
30
0
0
VERTEX
8
0
10
70.08142500000001
20
16.833634375
30
0
0
VERTEX
8
0
10
70.170365625
20
17.04835
30
0
0
VERTEX
8
0
10
70.3347
20
17.212684375000002
30
0
0
VERTEX
8
0
10
70.398853125
20
17.23925625
30
0
42
0.039246193198293394
0
VERTEX
8
0
10
70.43432812500001
20
17.257328125
30
0
0
VERTEX
8
0
10
70.44910625
20
17.268059375
30
0
0
VERTEX
8
0
10
70.466378125
20
17.280578125
30
0
0
VERTEX
8
0
10
70.466465625
20
17.280665625
30
0
0
VERTEX
8
0
10
70.46654375
20
17.280721875
30
0
0
VERTEX
8
0
10
70.478803125
20
17.29296875
30
0
0
VERTEX
8
0
10
70.49456875
20
17.30869375
30
0
0
VERTEX
8
0
10
70.49463750000001
20
17.3087875
30
0
0
VERTEX
8
0
10
70.494709375
20
17.308859375
30
0
42
0.03903111630415235
0
VERTEX
8
0
10
70.518015625
20
17.340868750000002
30
0
0
VERTEX
8
0
10
70.518059375
20
17.340953125000002
30
0
0
VERTEX
8
0
10
70.51813125000001
20
17.341053125000002
30
0
0
VERTEX
8
0
10
70.527675
20
17.359746875000003
30
0
0
VERTEX
8
0
10
70.53615
20
17.3763125
30
0
0
VERTEX
8
0
10
70.53618125
20
17.376409375
30
0
0
VERTEX
8
0
10
70.536234375
20
17.3765125
30
0
42
0.03903135666721995
0
VERTEX
8
0
10
70.548521875
20
17.414153125000002
30
0
0
VERTEX
8
0
10
70.54853750000001
20
17.41425
30
0
0
VERTEX
8
0
10
70.548575
20
17.414365625000002
30
0
42
0.03903003200901448
0
VERTEX
8
0
10
70.55483125
20
17.4534625
30
0
0
VERTEX
8
0
10
70.55483125
20
17.453584375000002
30
0
0
VERTEX
8
0
10
70.55484687500001
20
17.453681250000002
30
0
0
VERTEX
8
0
10
70.55486875
20
17.470371875
30
0
0
VERTEX
8
0
10
70.55491875
20
17.493275
30
0
0
VERTEX
8
0
10
70.5549
20
17.493396875000002
30
0
0
VERTEX
8
0
10
70.5549
20
17.493493750000003
30
0
42
0.078397155022932
0
VERTEX
8
0
10
70.536578125
20
17.570509375
30
0
0
VERTEX
8
0
10
70.536525
20
17.57061875
30
0
0
VERTEX
8
0
10
70.53649375
20
17.570709375
30
0
0
VERTEX
8
0
10
70.52874375
20
17.5859875
30
0
0
VERTEX
8
0
10
70.5186
20
17.60603125
30
0
0
VERTEX
8
0
10
70.518525
20
17.606134375
30
0
0
VERTEX
8
0
10
70.518484375
20
17.606215625
30
0
0
VERTEX
8
0
10
70.508425
20
17.620121875000002
30
0
0
VERTEX
8
0
10
70.49529062500001
20
17.638309375000002
30
0
42
0.03924578800637429
0
VERTEX
8
0
10
70.467225
20
17.666546875
30
0
0
VERTEX
8
0
10
70.46713125000001
20
17.666615625000002
30
0
0
VERTEX
8
0
10
70.467059375
20
17.666687500000002
30
0
0
VERTEX
8
0
10
70.452596875
20
17.677246875
30
0
0
VERTEX
8
0
10
70.435090625
20
17.690053125000002
30
0
42
0.00021258346106887706
0
VERTEX
8
0
10
70.43490625
20
17.690165625000002
30
0
0
VERTEX
8
0
10
70.39948125000001
20
17.70833125
30
0
42
0.000663185914683345
0
VERTEX
8
0
10
70.398859375
20
17.708590625
30
0
0
VERTEX
8
0
10
70.31494375
20
17.74335
30
0
0
VERTEX
8
0
10
70.150603125
20
17.907690625
30
0
0
VERTEX
8
0
10
70.08029375000001
20
18.077437500000002
30
0
0
VERTEX
8
0
10
70.071334375
20
18.095025
30
0
0
VERTEX
8
0
10
70.06256875
20
18.11234375
30
0
42
0.11888751077315457
0
VERTEX
8
0
10
69.978496875
20
18.1967125
30
0
0
VERTEX
8
0
10
69.9430375
20
18.214815625
30
0
42
0.00022334942533102904
0
VERTEX
8
0
10
69.942828125
20
18.214903125
30
0
0
VERTEX
8
0
10
69.77308125
20
18.2852125
30
0
0
VERTEX
8
0
10
69.60874062500001
20
18.449553125
30
0
0
VERTEX
8
0
10
69.5198
20
18.66426875
30
0
0
VERTEX
8
0
10
69.5198
20
18.896678125
30
0
0
VERTEX
8
0
10
69.60874062500001
20
19.11139375
30
0
0
VERTEX
8
0
10
69.77308125
20
19.275734375000003
30
0
0
VERTEX
8
0
10
69.94219687500001
20
19.345784375
30
0
0
VERTEX
8
0
10
69.942209375
20
19.3457875
30
0
0
VERTEX
8
0
10
69.942221875
20
19.345793750000002
30
0
0
VERTEX
8
0
10
69.942825
20
19.34604375
30
0
42
0.15820737332979573
0
VERTEX
8
0
10
70.06210312500001
20
19.44784375
30
0
0
VERTEX
8
0
10
70.08020625
20
19.4833
30
0
0
VERTEX
8
0
10
70.080246875
20
19.483421875
30
0
0
VERTEX
8
0
10
70.080290625
20
19.483509375
30
0
0
VERTEX
8
0
10
70.150603125
20
19.653259375
30
0
0
VERTEX
8
0
10
70.31494375
20
19.817600000000002
30
0
0
VERTEX
8
0
10
70.52965937500001
20
19.906540625
30
0
0
VERTEX
8
0
10
70.76206875
20
19.906540625
30
0
0
VERTEX
8
0
10
70.97678437500001
20
19.817600000000002
30
0
0
VERTEX
8
0
10
71.141125
20
19.653259375
30
0
0
VERTEX
8
0
10
71.2114375
20
19.483509375
30
0
0
VERTEX
8
0
10
71.22044062500001
20
19.4658375
30
0
0
VERTEX
8
0
10
71.2291625
20
19.448600000000003
30
0
42
0.059634368939456284
0
VERTEX
8
0
10
71.267021875
20
19.401684375000002
30
0
0
VERTEX
8
0
10
71.28053750000001
20
19.3880875
30
0
0
VERTEX
8
0
10
71.28079375
20
19.387900000000002
30
0
0
VERTEX
8
0
10
71.281040625
20
19.387653125
30
0
42
0.035850472301365566
0
VERTEX
8
0
10
71.3132375
20
19.36423125
30
0
0
VERTEX
8
0
10
71.348696875
20
19.346128125
30
0
0
VERTEX
8
0
10
71.348809375
20
19.346090625000002
30
0
0
VERTEX
8
0
10
71.348903125
20
19.34604375
30
0
0
VERTEX
8
0
10
71.400478125
20
19.32468125
30
0
42
0.5305964850400094
0
VERTEX
8
0
10
71.751659375
20
19.556250000000002
30
0
0
VERTEX
8
0
10
71.857690625
20
28.254403125
30
0
0
VERTEX
8
0
10
71.857603125
20
28.255728125
30
0
0
VERTEX
8
0
10
71.857709375
20
28.257053125000002
30
0
42
0.36847056727743993
0
VERTEX
8
0
10
71.64428125
20
28.5082375
30
0
0
VERTEX
8
0
10
71.628521875
20
28.50950625
30
0
0
VERTEX
8
0
10
71.60725000000001
20
28.511475
30
0
42
0.0034849985132966188
0
VERTEX
8
0
10
71.60370937500001
20
28.5115
30
0
0
VERTEX
8
0
10
1.30911875
20
28.5115
30
0
0
VERTEX
8
0
10
1.290996875
20
28.510075
30
0
0
VERTEX
8
0
10
1.27293125
20
28.508909375
30
0
42
0.3283893594490421
0
VERTEX
8
0
10
1.058309375
20
28.297631250000002
30
0
0
VERTEX
8
0
10
1.056603125
20
28.276415625000002
30
0
0
VERTEX
8
0
10
1.0551375
20
28.260596875
30
0
0
VERTEX
8
0
10
0.758659375
20
3.9400937500000004
30
0
0
VERTEX
8
0
10
0.758746875
20
3.9387687500000004
30
0
0
VERTEX
8
0
10
0.7586406250000001
20
3.9374437500000004
30
0
42
0.36847056727743993
0
VERTEX
8
0
10
0.97206875
20
3.686259375
30
0
0
VERTEX
8
0
10
0.9878281250000001
20
3.684990625
30
0
0
VERTEX
8
0
10
1.0091
20
3.683021875
30
0
42
0.0034849985132966188
0
VERTEX
8
0
10
1.012640625
20
3.682996875
30
0
0
VERTEX
8
0
10
5.946912500000001
20
3.682996875
30
0
0
VERTEX
8
0
10
5.95669375
20
3.6837656250000004
30
0
42
0.5096955237499844
0
VERTEX
8
0
10
6.184656250000001
20
4.024671875
30
0
0
VERTEX
8
0
10
6.1815750000000005
20
4.034203125
30
0
0
VERTEX
8
0
10
6.1595
20
4.08749375
30
0
0
VERTEX
8
0
10
6.1595
20
5.0179625
30
0
0
VERTEX
8
0
10
6.15839375
20
5.032046875
30
0
0
VERTEX
8
0
10
6.157928125000001
20
5.046184375
30
0
42
0.6684962417107401
0
VERTEX
8
0
10
5.7069125000000005
20
5.176325
30
0
0
VERTEX
8
0
10
5.611928125
20
5.057215625
30
0
0
VERTEX
8
0
10
5.420275
20
4.8655625
30
0
0
VERTEX
8
0
10
5.208434375
20
4.696625
30
0
0
VERTEX
8
0
10
4.978946875
20
4.552431250000001
30
0
0
VERTEX
8
0
10
4.7347906250000005
20
4.43485
30
0
0
VERTEX
8
0
10
4.478990625
20
4.345340625
30
0
0
VERTEX
8
0
10
4.31799375
20
4.308596875
30
0
0
VERTEX
8
0
10
4.31799375
20
4.621621875000001
30
0
0
VERTEX
8
0
10
4.3763250000000005
20
4.635996875
30
0
42
0.26256008909205725
0
VERTEX
8
0
10
5.841503125
20
6.1011750000000005
30
0
0
VERTEX
8
0
10
5.855878125
20
6.1595
30
0
0
VERTEX
8
0
10
6.142509375
20
6.1595
30
0
0
VERTEX
8
0
10
6.161925
20
6.161025
30
0
0
VERTEX
8
0
10
6.181540625
20
6.162515625
30
0
42
0.11889111699915356
0
VERTEX
8
0
10
6.2916625
20
6.207906250000001
30
0
0
VERTEX
8
0
10
6.32195625
20
6.2337375
30
0
0
VERTEX
8
0
10
6.322021875
20
6.2338125
30
0
0
VERTEX
8
0
10
6.322115625
20
6.23389375
30
0
0
VERTEX
8
0
10
6.412778125
20
6.3245562500000005
30
0
0
VERTEX
8
0
10
6.62749375
20
6.413496875
30
0
0
VERTEX
8
0
10
7.4316562500000005
20
6.413496875
30
0
0
VERTEX
8
0
10
7.843453125000001
20
6.215184375000001
30
0
0
VERTEX
8
0
10
7.8458625
20
6.214250000000001
30
0
0
VERTEX
8
0
10
7.84809375
20
6.213009375
30
0
42
0.23980070592065428
0
VERTEX
8
0
10
8.078278125
20
6.222703125000001
30
0
0
VERTEX
8
0
10
8.091521875
20
6.231628125
30
0
0
VERTEX
8
0
10
8.10728125
20
6.241753125000001
30
0
42
0.00592209292762787
0
VERTEX
8
0
10
8.112028125
20
6.24545
30
0
0
VERTEX
8
0
10
8.22421875
20
6.334921875
30
0
0
VERTEX
8
0
10
8.685175000000001
20
6.44013125
30
0
0
VERTEX
8
0
10
9.149059375
20
6.334253125
30
0
0
VERTEX
8
0
10
9.153178125
20
6.3316187500000005
30
0
0
VERTEX
8
0
10
9.16696875
20
6.322290625
30
0
42
0.24664685533311423
0
VERTEX
8
0
10
9.403065625
20
6.3145750000000005
30
0
0
VERTEX
8
0
10
9.416500000000001
20
6.322465625
30
0
0
VERTEX
8
0
10
9.431990625000001
20
6.331
30
0
42
0.007340439023883313
0
VERTEX
8
0
10
9.438159375
20
6.335190625
30
0
0
VERTEX
8
0
10
9.49406875
20
6.37438125
30
0
0
VERTEX
8
0
10
9.72093125
20
6.424796875
30
0
0
VERTEX
8
0
10
9.949825
20
6.384553125
30
0
0
VERTEX
8
0
10
10.145906250000001
20
6.259775
30
0
0
VERTEX
8
0
10
10.24871875
20
6.11309375
30
0
0
VERTEX
8
0
10
10.251353125
20
6.1099000000000006
30
0
0
VERTEX
8
0
10
10.253568750000001
20
6.106409375
30
0
42
0.509964762313722
0
VERTEX
8
0
10
10.664703125
20
6.113090625
30
0
0
VERTEX
8
0
10
10.76751875
20
6.259771875
30
0
0
VERTEX
8
0
10
10.963603125
20
6.384553125
30
0
0
VERTEX
8
0
10
11.192496875
20
6.424796875
30
0
0
VERTEX
8
0
10
11.45014375
20
6.367540625
30
0
0
VERTEX
8
0
10
11.451328125
20
6.367071875000001
30
0
42
0.17443809682444325
0
VERTEX
8
0
10
11.62313125
20
6.3752031250000005
30
0
0
VERTEX
8
0
10
11.715578125
20
6.413496875
30
0
0
VERTEX
8
0
10
12.670471875
20
6.413496875
30
0
0
VERTEX
8
0
10
12.776265625
20
6.369675
30
0
42
0.15820261843201075
0
VERTEX
8
0
10
12.9325875
20
6.357315625
30
0
0
VERTEX
8
0
10
12.9704625
20
6.369590625000001
30
0
0
VERTEX
8
0
10
12.970553125
20
6.3696375000000005
30
0
0
VERTEX
8
0
10
12.970671875
20
6.369675
30
0
0
VERTEX
8
0
10
13.076465625
20
6.413496875
30
0
0
VERTEX
8
0
10
13.880625
20
6.413496875
30
0
0
VERTEX
8
0
10
14.183990625
20
6.267403125
30
0
0
VERTEX
8
0
10
14.19970625
20
6.261303125
30
0
0
VERTEX
8
0
10
14.215156250000001
20
6.254862500000001
30
0
42
0.19868329246896282
0
VERTEX
8
0
10
14.408793750000001
20
6.2695718750000005
30
0
0
VERTEX
8
0
10
14.411459375000002
20
6.27119375
30
0
0
VERTEX
8
0
10
14.414325
20
6.272453125
30
0
42
0.03551016214691999
0
VERTEX
8
0
10
14.447818750000001
20
6.293971875
30
0
0
VERTEX
8
0
10
14.461646875000001
20
6.30629375
30
0
0
VERTEX
8
0
10
14.473803125
20
6.31664375
30
0
0
VERTEX
8
0
10
14.48171875
20
6.324559375000001
30
0
0
VERTEX
8
0
10
14.531771875
20
6.3452906250000005
30
0
0
VERTEX
8
0
10
14.55118125
20
6.355175
30
0
0
VERTEX
8
0
10
14.565256250000001
20
6.362153125000001
30
0
0
VERTEX
8
0
10
14.611715625
20
6.390031250000001
30
0
0
VERTEX
8
0
10
14.624578125000001
20
6.39194375
30
0
0
VERTEX
8
0
10
14.635034375
20
6.39435
30
0
0
VERTEX
8
0
10
14.645678125
20
6.396
30
0
42
0.016570631900658266
0
VERTEX
8
0
10
14.663378125000001
20
6.400871875
30
0
0
VERTEX
8
0
10
14.674006250000001
20
6.405153125
30
0
0
VERTEX
8
0
10
14.684409375000001
20
6.408515625000001
30
0
0
VERTEX
8
0
10
14.696434375
20
6.413496875
30
0
0
VERTEX
8
0
10
14.750621875
20
6.413496875
30
0
0
VERTEX
8
0
10
14.772396875
20
6.415206250000001
30
0
0
VERTEX
8
0
10
14.78800625
20
6.4162625
30
0
0
VERTEX
8
0
10
14.841593750000001
20
6.4242375
30
0
0
VERTEX
8
0
10
14.854215625
20
6.42108125
30
0
0
VERTEX
8
0
10
14.864815625
20
6.419300000000001
30
0
0
VERTEX
8
0
10
14.875246875
20
6.416759375000001
30
0
42
0.01658482945631905
0
VERTEX
8
0
10
14.893478125000001
20
6.414481250000001
30
0
0
VERTEX
8
0
10
14.904956250000001
20
6.4143718750000005
30
0
0
VERTEX
8
0
10
14.915818750000001
20
6.413496875
30
0
0
VERTEX
8
0
10
14.928840625000001
20
6.413496875
30
0
0
VERTEX
8
0
10
14.978903125
20
6.392759375000001
30
0
0
VERTEX
8
0
10
14.999721875
20
6.38599375
30
0
0
VERTEX
8
0
10
15.014503125000001
20
6.3810093750000005
30
0
0
VERTEX
8
0
10
15.0670625
20
6.36786875
30
0
0
VERTEX
8
0
10
15.077518750000001
20
6.360121875
30
0
0
VERTEX
8
0
10
15.086618750000001
20
6.354425
30
0
0
VERTEX
8
0
10
15.0953
20
6.348075000000001
30
0
0
VERTEX
8
0
10
15.103312500000001
20
6.343975
30
0
0
VERTEX
8
0
10
15.111265625000001
20
6.338996875
30
0
0
VERTEX
8
0
10
15.121821875
20
6.3345062500000004
30
0
0
VERTEX
8
0
10
15.13153125
20
6.329537500000001
30
0
0
VERTEX
8
0
10
15.143556250000001
20
6.3245562500000005
30
0
0
VERTEX
8
0
10
15.174896875
20
6.293215625
30
0
0
VERTEX
8
0
10
15.191237500000002
20
6.27925625
30
0
0
VERTEX
8
0
10
15.204815625
20
6.267615625
30
0
42
0.1986813390830096
0
VERTEX
8
0
10
15.3935375
20
6.2218406250000005
30
0
0
VERTEX
8
0
10
15.3937375
20
6.2218875
30
0
0
VERTEX
8
0
10
15.393971875
20
6.22190625
30
0
42
0.0781796731247193
0
VERTEX
8
0
10
15.469106250000001
20
6.246146875
30
0
0
VERTEX
8
0
10
15.46928125
20
6.246253125
30
0
0
VERTEX
8
0
10
15.4695
20
6.24634375
30
0
42
0.039245358137696564
0
VERTEX
8
0
10
15.503475
20
6.267096875
30
0
0
VERTEX
8
0
10
15.533793750000001
20
6.2929031250000005
30
0
0
VERTEX
8
0
10
15.5339375
20
6.293071875
30
0
0
VERTEX
8
0
10
15.5341125
20
6.293221875
30
0
0
VERTEX
8
0
10
15.565446875000001
20
6.3245562500000005
30
0
0
VERTEX
8
0
10
15.577462500000001
20
6.329534375000001
30
0
0
VERTEX
8
0
10
15.587025
20
6.334406250000001
30
0
0
VERTEX
8
0
10
15.596934375
20
6.338581250000001
30
0
42
0.016583814016686942
0
VERTEX
8
0
10
15.612937500000001
20
6.34760625
30
0
0
VERTEX
8
0
10
15.622215625
20
6.35434375
30
0
0
VERTEX
8
0
10
15.631475
20
6.360115625000001
30
0
0
VERTEX
8
0
10
15.641934375
20
6.367865625
30
0
0
VERTEX
8
0
10
15.69450625
20
6.38100625
30
0
0
VERTEX
8
0
10
15.715240625000002
20
6.38795625
30
0
0
VERTEX
8
0
10
15.730115625000002
20
6.3927625
30
0
0
VERTEX
8
0
10
15.780168750000001
20
6.413496875
30
0
0
VERTEX
8
0
10
15.79318125
20
6.413496875
30
0
0
VERTEX
8
0
10
15.8038875
20
6.4143375
30
0
0
VERTEX
8
0
10
15.814631250000001
20
6.414403125000001
30
0
42
0.016586043446946395
0
VERTEX
8
0
10
15.832871875
20
6.416615625
30
0
0
VERTEX
8
0
10
15.844050000000001
20
6.419296875000001
30
0
0
VERTEX
8
0
10
15.85478125
20
6.42108125
30
0
0
VERTEX
8
0
10
15.86740625
20
6.4242375
30
0
0
VERTEX
8
0
10
15.921006250000001
20
6.4162625
30
0
0
VERTEX
8
0
10
15.942815625000001
20
6.414750000000001
30
0
0
VERTEX
8
0
10
15.9583875
20
6.413496875
30
0
0
VERTEX
8
0
10
16.012565625
20
6.413496875
30
0
0
VERTEX
8
0
10
16.02458125
20
6.408518750000001
30
0
0
VERTEX
8
0
10
16.034796875
20
6.405196875000001
30
0
0
VERTEX
8
0
10
16.044771875000002
20
6.4011375
30
0
42
0.01656015787175709
0
VERTEX
8
0
10
16.06244375
20
6.396209375000001
30
0
0
VERTEX
8
0
10
16.073796875
20
6.39440625
30
0
0
VERTEX
8
0
10
16.084421875
20
6.39194375
30
0
0
VERTEX
8
0
10
16.097293750000002
20
6.390028125000001
30
0
0
VERTEX
8
0
10
16.143759375000002
20
6.362150000000001
30
0
0
VERTEX
8
0
10
16.163240625
20
6.35245
30
0
0
VERTEX
8
0
10
16.177215625000002
20
6.345296875000001
30
0
0
VERTEX
8
0
10
16.189690625
20
6.340128125000001
30
0
42
0.1582044301712685
0
VERTEX
8
0
10
16.3460125
20
6.32775625
30
0
0
VERTEX
8
0
10
16.3838875
20
6.340025000000001
30
0
0
VERTEX
8
0
10
16.383990625
20
6.340078125000001
30
0
0
VERTEX
8
0
10
16.384118750000003
20
6.34011875
30
0
0
VERTEX
8
0
10
16.561265625
20
6.413496875
30
0
0
VERTEX
8
0
10
17.51615625
20
6.413496875
30
0
0
VERTEX
8
0
10
17.539209375000002
20
6.403946875
30
0
42
0.13801342961084428
0
VERTEX
8
0
10
17.675725
20
6.388459375
30
0
0
VERTEX
8
0
10
17.694896875
20
6.391434375
30
0
0
VERTEX
8
0
10
17.6952
20
6.39153125
30
0
0
VERTEX
8
0
10
17.695531250000002
20
6.391584375
30
0
0
VERTEX
8
0
10
17.73340625
20
6.4038562500000005
30
0
42
0.0002170153941273368
0
VERTEX
8
0
10
17.733628125
20
6.403946875
30
0
0
VERTEX
8
0
10
17.75668125
20
6.413496875
30
0
0
VERTEX
8
0
10
18.892196875
20
6.413496875
30
0
0
VERTEX
8
0
10
18.935840625
20
6.39541875
30
0
42
0.15820673774858285
0
VERTEX
8
0
10
19.092165625
20
6.38305625
30
0
0
VERTEX
8
0
10
19.1300375
20
6.395328125000001
30
0
0
VERTEX
8
0
10
19.130140625
20
6.395381250000001
30
0
0
VERTEX
8
0
10
19.13025
20
6.395415625
30
0
0
VERTEX
8
0
10
19.1739
20
6.413496875
30
0
0
VERTEX
8
0
10
19.767556250000002
20
6.413496875
30
0
0
VERTEX
8
0
10
19.88499375
20
6.364850000000001
30
0
0
VERTEX
8
0
10
19.898490625
20
6.360462500000001
30
0
0
VERTEX
8
0
10
19.91178125
20
6.35546875
30
0
42
0.16388640984189276
0
VERTEX
8
0
10
20.0736375
20
6.362959375
30
0
0
VERTEX
8
0
10
20.07919375
20
6.364759375
30
0
0
VERTEX
8
0
10
20.092796875
20
6.371675000000001
30
0
0
VERTEX
8
0
10
20.10555625
20
6.3774781250000006
30
0
0
VERTEX
8
0
10
20.139903125
20
6.396559375000001
30
0
0
VERTEX
8
0
10
20.153165625
20
6.399150000000001
30
0
0
VERTEX
8
0
10
20.16795
20
6.40144375
30
0
42
0.009161972627014205
0
VERTEX
8
0
10
20.177534375
20
6.4039093750000005
30
0
0
VERTEX
8
0
10
20.192684375000002
20
6.409434375
30
0
0
VERTEX
8
0
10
20.205259375
20
6.413496875
30
0
0
VERTEX
8
0
10
20.273771875
20
6.413496875
30
0
42
0.028607199021247393
0
VERTEX
8
0
10
20.302765625
20
6.41515625
30
0
0
VERTEX
8
0
10
20.370840625
20
6.422978125
30
0
0
VERTEX
8
0
10
20.384065625
20
6.420296875
30
0
0
VERTEX
8
0
10
20.398596875000003
20
6.416759375000001
30
0
42
0.009172815242193022
0
VERTEX
8
0
10
20.408406250000002
20
6.415365625000001
30
0
0
VERTEX
8
0
10
20.4245625
20
6.414671875000001
30
0
0
VERTEX
8
0
10
20.437687500000003
20
6.413615625
30
0
0
VERTEX
8
0
10
20.500971875
20
6.3874
30
0
42
0.028623021204196797
0
VERTEX
8
0
10
20.528409375000003
20
6.377834375
30
0
0
VERTEX
8
0
10
20.594290625
20
6.3590125
30
0
0
VERTEX
8
0
10
20.60548125
20
6.351475000000001
30
0
0
VERTEX
8
0
10
20.617571875
20
6.342634375
30
0
42
0.03947265367976819
0
VERTEX
8
0
10
20.653806250000002
20
6.324096875
30
0
0
VERTEX
8
0
10
20.67613125
20
6.314850000000001
30
0
42
0.15820365904719808
0
VERTEX
8
0
10
20.832453125
20
6.30249375
30
0
0
VERTEX
8
0
10
20.870328125
20
6.314765625000001
30
0
42
0.00021648722231504416
0
VERTEX
8
0
10
20.870531250000003
20
6.314850000000001
30
0
0
VERTEX
8
0
10
21.10868125
20
6.413496875
30
0
0
VERTEX
8
0
10
21.3410875
20
6.413496875
30
0
0
VERTEX
8
0
10
21.555803125
20
6.3245562500000005
30
0
0
VERTEX
8
0
10
21.55969375
20
6.320665625
30
0
42
0.3394702916554073
0
VERTEX
8
0
10
21.866309375
20
6.28029375
30
0
0
VERTEX
8
0
10
22.0970125
20
6.413493750000001
30
0
0
VERTEX
8
0
10
22.18361875
20
6.413493750000001
30
0
0
VERTEX
8
0
10
22.183659375
20
6.413496875
30
0
0
VERTEX
8
0
10
23.008421875
20
6.413496875
30
0
0
VERTEX
8
0
10
23.2231375
20
6.3245562500000005
30
0
0
VERTEX
8
0
10
23.391734375000002
20
6.155959375
30
0
0
VERTEX
8
0
10
23.3962875
20
6.147
30
0
42
0.00019531230717874037
0
VERTEX
8
0
10
23.3964
20
6.146815625
30
0
0
VERTEX
8
0
10
23.4099
20
6.12821875
30
0
0
VERTEX
8
0
10
23.41965
20
6.114765625
30
0
0
VERTEX
8
0
10
23.419715625000002
20
6.1147
30
0
0
VERTEX
8
0
10
23.419790625
20
6.114596875
30
0
0
VERTEX
8
0
10
23.435737500000002
20
6.0986343750000005
30
0
0
VERTEX
8
0
10
23.4477625
20
6.086575000000001
30
0
0
VERTEX
8
0
10
23.44784375
20
6.0865156250000005
30
0
0
VERTEX
8
0
10
23.447928125
20
6.08643125
30
0
42
0.11822357174900917
0
VERTEX
8
0
10
23.553431250000003
20
6.0325625
30
0
0
VERTEX
8
0
10
23.57165
20
6.029653125
30
0
0
VERTEX
8
0
10
23.59253125
20
6.026303125
30
0
0
VERTEX
8
0
10
23.592650000000003
20
6.026303125
30
0
0
VERTEX
8
0
10
23.592746875
20
6.0262875000000005
30
0
0
VERTEX
8
0
10
23.61205
20
6.026259375
30
0
0
VERTEX
8
0
10
23.63234375
20
6.026215625
30
0
0
VERTEX
8
0
10
23.63244375
20
6.02623125
30
0
0
VERTEX
8
0
10
23.632559375
20
6.02623125
30
0
42
0.18477135677091727
0
VERTEX
8
0
10
23.805615625
20
6.1139
30
0
0
VERTEX
8
0
10
23.805675
20
6.113984375
30
0
0
VERTEX
8
0
10
23.805759375
20
6.114065625
30
0
42
0.03771443521017697
0
VERTEX
8
0
10
23.829125
20
6.14603125
30
0
0
VERTEX
8
0
10
23.82918125
20
6.14614375
30
0
0
VERTEX
8
0
10
23.8292375
20
6.14621875
30
0
0
VERTEX
8
0
10
23.834190625
20
6.155875
30
0
0
VERTEX
8
0
10
24.002871875
20
6.3245562500000005
30
0
0
VERTEX
8
0
10
24.2175875
20
6.413496875
30
0
0
VERTEX
8
0
10
24.73474375
20
6.413496875
30
0
0
VERTEX
8
0
10
24.754509375
20
6.41505
30
0
0
VERTEX
8
0
10
24.774215625
20
6.41658125
30
0
42
0.03946476197040606
0
VERTEX
8
0
10
24.81315
20
6.4259
30
0
0
VERTEX
8
0
10
24.829900000000002
20
6.4328312500000004
30
0
0
VERTEX
8
0
10
24.849740625000003
20
6.4410187500000005
30
0
0
VERTEX
8
0
10
24.84985
20
6.441084375
30
0
0
VERTEX
8
0
10
24.849937500000003
20
6.441121875
30
0
0
VERTEX
8
0
10
24.864771875000002
20
6.450200000000001
30
0
0
VERTEX
8
0
10
24.883715625
20
6.461771875
30
0
42
0.03946573665418073
0
VERTEX
8
0
10
24.914190625
20
6.4877343750000005
30
0
0
VERTEX
8
0
10
24.926309375000002
20
6.501896875
30
0
0
VERTEX
8
0
10
24.939946875
20
6.517803125
30
0
42
0.039466281660223576
0
VERTEX
8
0
10
24.96091875
20
6.55190625
30
0
0
VERTEX
8
0
10
24.969071875
20
6.57151875
30
0
0
VERTEX
8
0
10
24.97613125
20
6.58845625
30
0
0
VERTEX
8
0
10
24.976153125
20
6.588550000000001
30
0
0
VERTEX
8
0
10
24.976203125
20
6.58866875
30
0
42
0.03924378809677847
0
VERTEX
8
0
10
24.985553125000003
20
6.627365625
30
0
0
VERTEX
8
0
10
24.986946875
20
6.644712500000001
30
0
0
VERTEX
8
0
10
24.98874375
20
6.666828125
30
0
42
0.0786134772481991
0
VERTEX
8
0
10
24.97654375
20
6.745265625
30
0
0
VERTEX
8
0
10
24.976509375000003
20
6.745346875
30
0
0
VERTEX
8
0
10
24.976478125
20
6.745478125
30
0
42
0.039246634323272696
0
VERTEX
8
0
10
24.961321875
20
6.78229375
30
0
0
VERTEX
8
0
10
24.9521875
20
6.797278125
30
0
0
VERTEX
8
0
10
24.940731250000002
20
6.816109375
30
0
42
0.0002202563564220726
0
VERTEX
8
0
10
24.9406
20
6.816290625000001
30
0
0
VERTEX
8
0
10
24.914821875
20
6.8466281250000005
30
0
42
0.0006589979339786636
0
VERTEX
8
0
10
24.914350000000002
20
6.847103125
30
0
0
VERTEX
8
0
10
23.36084375
20
8.400606250000001
30
0
0
VERTEX
8
0
10
23.3458
20
8.413456250000001
30
0
0
VERTEX
8
0
10
23.3311125
20
8.426071875
30
0
42
0.1188925591799206
0
VERTEX
8
0
10
23.221146875000002
20
8.47184375
30
0
0
VERTEX
8
0
10
23.181459375000003
20
8.475
30
0
42
0.00021838085343866683
0
VERTEX
8
0
10
23.1812375
20
8.475
30
0
0
VERTEX
8
0
10
16.03738125
20
8.475
30
0
0
VERTEX
8
0
10
15.570603125
20
8.668346875000001
30
0
0
VERTEX
8
0
10
13.210846875000001
20
11.028103125000001
30
0
0
VERTEX
8
0
10
13.0175
20
11.49488125
30
0
0
VERTEX
8
0
10
13.0175
20
14.6685
30
0
0
VERTEX
8
0
10
13.016075
20
14.686615625
30
0
0
VERTEX
8
0
10
13.01445
20
14.70775
30
0
42
0.3250160255310167
0
VERTEX
8
0
10
12.80363125
20
14.919309375000001
30
0
0
VERTEX
8
0
10
12.763946875
20
14.922500000000001
30
0
42
0.0004398371729773942
0
VERTEX
8
0
10
12.7635
20
14.922500000000001
30
0
0
VERTEX
8
0
10
9.540490625
20
14.922500000000001
30
0
0
VERTEX
8
0
10
9.519046875
20
14.920815625000001
30
0
0
VERTEX
8
0
10
9.501015625
20
14.9194125
30
0
0
VERTEX
8
0
10
9.500925
20
14.919390625
30
0
0
VERTEX
8
0
10
9.5008
20
14.91938125
30
0
0
VERTEX
8
0
10
9.479381250000001
20
14.91424375
30
0
0
VERTEX
8
0
10
9.462290625
20
14.9101625
30
0
0
VERTEX
8
0
10
9.462196875
20
14.910125
30
0
0
VERTEX
8
0
10
9.462084375
20
14.910096875
30
0
42
0.03903086785168829
0
VERTEX
8
0
10
9.425490625
20
14.894975
30
0
0
VERTEX
8
0
10
9.425390625
20
14.8949125
30
0
0
VERTEX
8
0
10
9.425296875
20
14.894875
30
0
42
0.039033087301355185
0
VERTEX
8
0
10
9.391512500000001
20
14.874221875
30
0
0
VERTEX
8
0
10
9.391425
20
14.874146875000001
30
0
0
VERTEX
8
0
10
9.3913375
20
14.87409375
30
0
42
0.07839719486599583
0
VERTEX
8
0
10
9.335284375
20
14.818190625000002
30
0
0
VERTEX
8
0
10
9.335221875
20
14.818090625
30
0
0
VERTEX
8
0
10
9.33515625
20
14.8180125
30
0
42
0.03924568485360789
0
VERTEX
8
0
10
9.314315625
20
14.784090625000001
30
0
0
VERTEX
8
0
10
9.305418750000001
20
14.76269375
30
0
0
VERTEX
8
0
10
9.299100000000001
20
14.747534375
30
0
0
VERTEX
8
0
10
9.299075
20
14.7474375
30
0
0
VERTEX
8
0
10
9.29903125
20
14.747328125000001
30
0
42
0.07861067050465266
0
VERTEX
8
0
10
9.286490625
20
14.668946875000001
30
0
0
VERTEX
8
0
10
9.288128125
20
14.647621875
30
0
0
VERTEX
8
0
10
9.289509375
20
14.629465625
30
0
0
VERTEX
8
0
10
9.28953125
20
14.629375000000001
30
0
0
VERTEX
8
0
10
9.289540625
20
14.62925
30
0
0
VERTEX
8
0
10
9.29479375
20
14.607168750000001
30
0
0
VERTEX
8
0
10
9.298690625
20
14.590725
30
0
42
0.00021302821035842074
0
VERTEX
8
0
10
9.29875625
20
14.590518750000001
30
0
0
VERTEX
8
0
10
9.307562500000001
20
14.569125000000001
30
0
0
VERTEX
8
0
10
9.313815625
20
14.553896875000001
30
0
0
VERTEX
8
0
10
9.313868750000001
20
14.553809375
30
0
0
VERTEX
8
0
10
9.3139125
20
14.553703125
30
0
42
0.0392476775190729
0
VERTEX
8
0
10
9.334634375
20
14.51970625
30
0
0
VERTEX
8
0
10
9.3604125
20
14.48936875
30
0
0
VERTEX
8
0
10
9.360678125
20
14.489140625000001
30
0
0
VERTEX
8
0
10
9.360890625
20
14.488890625000002
30
0
0
VERTEX
8
0
10
9.419578125000001
20
14.430206250000001
30
0
0
VERTEX
8
0
10
9.530028125000001
20
14.278184375
30
0
0
VERTEX
8
0
10
9.61533125
20
14.110765625
30
0
0
VERTEX
8
0
10
9.673403125
20
13.932040625
30
0
0
VERTEX
8
0
10
9.677446875000001
20
13.9065125
30
0
0
VERTEX
8
0
10
9.361296875
20
13.9065125
30
0
0
VERTEX
8
0
10
9.3576625
20
13.92008125
30
0
0
SEQEND
0
POLYLINE
66
1
8
1_copper
10
0.0
20
0.0
30
0.0
70
1
0
VERTEX
8
0
10
70.625878125
20
25.907993750000003
30
0
0
VERTEX
8
0
10
70.611503125
20
25.966325
30
0
42
0.26256008909205725
0
VERTEX
8
0
10
69.146325
20
27.431503125000003
30
0
0
VERTEX
8
0
10
69.08799375000001
20
27.445878125
30
0
0
VERTEX
8
0
10
69.08799375000001
20
27.7589
30
0
0
VERTEX
8
0
10
69.248990625
20
27.72215625
30
0
0
VERTEX
8
0
10
69.504790625
20
27.632646875000002
30
0
0
VERTEX
8
0
10
69.748946875
20
27.515065625000002
30
0
0
VERTEX
8
0
10
69.978434375
20
27.370871875000002
30
0
0
VERTEX
8
0
10
70.190275
20
27.201934375
30
0
0
VERTEX
8
0
10
70.381934375
20
27.010275
30
0
0
VERTEX
8
0
10
70.550871875
20
26.798434375000003
30
0
0
VERTEX
8
0
10
70.695065625
20
26.568946875
30
0
0
VERTEX
8
0
10
70.812646875
20
26.324790625000002
30
0
0
VERTEX
8
0
10
70.90215625
20
26.068990625
30
0
0
VERTEX
8
0
10
70.9389
20
25.907993750000003
30
0
0
SEQEND
0
POLYLINE
66
1
8
1_copper
10
0.0
20
0.0
30
0.0
70
1
0
VERTEX
8
0
10
66.221096875
20
25.907993750000003
30
0
0
VERTEX
8
0
10
66.257840625
20
26.068990625
30
0
0
VERTEX
8
0
10
66.34735
20
26.324790625000002
30
0
0
VERTEX
8
0
10
66.46493125
20
26.568946875
30
0
0
VERTEX
8
0
10
66.609125
20
26.798434375000003
30
0
0
VERTEX
8
0
10
66.7780625
20
27.010275
30
0
0
VERTEX
8
0
10
66.969721875
20
27.201934375
30
0
0
VERTEX
8
0
10
67.1815625
20
27.370871875000002
30
0
0
VERTEX
8
0
10
67.41105
20
27.515065625000002
30
0
0
VERTEX
8
0
10
67.65520625
20
27.632646875000002
30
0
0
VERTEX
8
0
10
67.91100625
20
27.72215625
30
0
0
VERTEX
8
0
10
68.072
20
27.7589
30
0
0
VERTEX
8
0
10
68.072
20
27.445878125
30
0
0
VERTEX
8
0
10
68.013675
20
27.431503125000003
30
0
42
0.26256008909205725
0
VERTEX
8
0
10
66.548496875
20
25.966325
30
0
0
VERTEX
8
0
10
66.534121875
20
25.907993750000003
30
0
0
SEQEND
0
POLYLINE
66
1
8
1_copper
10
0.0
20
0.0
30
0.0
70
1
0
VERTEX
8
0
10
26.48050625
20
25.907993750000003
30
0
0
VERTEX
8
0
10
26.466956250000003
20
25.962965625000002
30
0
42
0.262560347097013
0
VERTEX
8
0
10
25.010465625000002
20
27.41945625
30
0
0
VERTEX
8
0
10
24.955493750000002
20
27.433006250000002
30
0
0
VERTEX
8
0
10
24.955493750000002
20
27.746078125
30
0
0
VERTEX
8
0
10
25.113031250000002
20
27.710121875000002
30
0
0
VERTEX
8
0
10
25.367487500000003
20
27.621084375000002
30
0
0
VERTEX
8
0
10
25.610415625
20
27.504093750000003
30
0
0
VERTEX
8
0
10
25.838678125
20
27.360668750000002
30
0
0
VERTEX
8
0
10
26.04943125
20
27.192600000000002
30
0
0
VERTEX
8
0
10
26.2401
20
27.001931250000002
30
0
0
VERTEX
8
0
10
26.40816875
20
26.791178125000002
30
0
0
VERTEX
8
0
10
26.551593750000002
20
26.562915625000002
30
0
0
VERTEX
8
0
10
26.668584375000002
20
26.3199875
30
0
0
VERTEX
8
0
10
26.757621875
20
26.065531250000003
30
0
0
VERTEX
8
0
10
26.793578125
20
25.907993750000003
30
0
0
SEQEND
0
POLYLINE
66
1
8
1_copper
10
0.0
20
0.0
30
0.0
70
1
0
VERTEX
8
0
10
22.10141875
20
25.907993750000003
30
0
0
VERTEX
8
0
10
22.137375000000002
20
26.065531250000003
30
0
0
VERTEX
8
0
10
22.226412500000002
20
26.3199875
30
0
0
VERTEX
8
0
10
22.343403125000002
20
26.562915625000002
30
0
0
VERTEX
8
0
10
22.486828125000002
20
26.791178125000002
30
0
0
VERTEX
8
0
10
22.654896875000002
20
27.001931250000002
30
0
0
VERTEX
8
0
10
22.845565625000003
20
27.192600000000002
30
0
0
VERTEX
8
0
10
23.056318750000003
20
27.360668750000002
30
0
0
VERTEX
8
0
10
23.284581250000002
20
27.504093750000003
30
0
0
VERTEX
8
0
10
23.527509375
20
27.621084375000002
30
0
0
VERTEX
8
0
10
23.781965625
20
27.710121875000002
30
0
0
VERTEX
8
0
10
23.939500000000002
20
27.746078125
30
0
0
VERTEX
8
0
10
23.939500000000002
20
27.433003125000003
30
0
0
VERTEX
8
0
10
23.884534375
20
27.41945625
30
0
42
0.262560347097013
0
VERTEX
8
0
10
22.42804375
20
25.962965625000002
30
0
0
VERTEX
8
0
10
22.414493750000002
20
25.907993750000003
30
0
0
SEQEND
0
POLYLINE
66
1
8
1_copper
10
0.0
20
0.0
30
0.0
70
1
0
VERTEX
8
0
10
6.16050625
20
25.907993750000003
30
0
0
VERTEX
8
0
10
6.146956250000001
20
25.962965625000002
30
0
42
0.262560347097013
0
VERTEX
8
0
10
4.690465625
20
27.41945625
30
0
0
VERTEX
8
0
10
4.63549375
20
27.433006250000002
30
0
0
VERTEX
8
0
10
4.63549375
20
27.746078125
30
0
0
VERTEX
8
0
10
4.79303125
20
27.710121875000002
30
0
0
VERTEX
8
0
10
5.0474875
20
27.621084375000002
30
0
0
VERTEX
8
0
10
5.2904156250000005
20
27.504093750000003
30
0
0
VERTEX
8
0
10
5.518678125
20
27.360668750000002
30
0
0
VERTEX
8
0
10
5.72943125
20
27.192600000000002
30
0
0
VERTEX
8
0
10
5.920100000000001
20
27.001931250000002
30
0
0
VERTEX
8
0
10
6.08816875
20
26.791178125000002
30
0
0
VERTEX
8
0
10
6.23159375
20
26.562915625000002
30
0
0
VERTEX
8
0
10
6.348584375000001
20
26.3199875
30
0
0
VERTEX
8
0
10
6.4376218750000005
20
26.065531250000003
30
0
0
VERTEX
8
0
10
6.473578125
20
25.907993750000003
30
0
0
SEQEND
0
POLYLINE
66
1
8
1_copper
10
0.0
20
0.0
30
0.0
70
1
0
VERTEX
8
0
10
1.78141875
20
25.907993750000003
30
0
0
VERTEX
8
0
10
1.8173750000000002
20
26.065531250000003
30
0
0
VERTEX
8
0
10
1.9064125
20
26.3199875
30
0
0
VERTEX
8
0
10
2.023403125
20
26.562915625000002
30
0
0
VERTEX
8
0
10
2.166828125
20
26.791178125000002
30
0
0
VERTEX
8
0
10
2.334896875
20
27.001931250000002
30
0
0
VERTEX
8
0
10
2.525565625
20
27.192600000000002
30
0
0
VERTEX
8
0
10
2.73631875
20
27.360668750000002
30
0
0
VERTEX
8
0
10
2.96458125
20
27.504093750000003
30
0
0
VERTEX
8
0
10
3.2075093750000003
20
27.621084375000002
30
0
0
VERTEX
8
0
10
3.4619656250000004
20
27.710121875000002
30
0
0
VERTEX
8
0
10
3.6195000000000004
20
27.746078125
30
0
0
VERTEX
8
0
10
3.6195000000000004
20
27.433003125000003
30
0
0
VERTEX
8
0
10
3.564534375
20
27.41945625
30
0
42
0.262560347097013
0
VERTEX
8
0
10
2.10804375
20
25.962965625000002
30
0
0
VERTEX
8
0
10
2.0944937500000003
20
25.907993750000003
30
0
0
SEQEND
0
POLYLINE
66
1
8
1_copper
10
0.0
20
0.0
30
0.0
70
1
0
VERTEX
8
0
10
12.7125
20
25.09
30
0
0
VERTEX
8
0
10
12.7125
20
25.383346875
30
0
0
VERTEX
8
0
10
12.70475625
20
25.422275000000003
30
0
0
VERTEX
8
0
10
12.689565625
20
25.458946875000002
30
0
0
VERTEX
8
0
10
12.667515625
20
25.491950000000003
30
0
0
VERTEX
8
0
10
12.63945
20
25.520015625000003
30
0
0
VERTEX
8
0
10
12.606446875000001
20
25.542065625000003
30
0
0
VERTEX
8
0
10
12.569775
20
25.557256250000002
30
0
0
VERTEX
8
0
10
12.530846875
20
25.565
30
0
0
VERTEX
8
0
10
12.387500000000001
20
25.565
30
0
0
VERTEX
8
0
10
12.387500000000001
20
25.869796875000002
30
0
0
VERTEX
8
0
10
12.560868750000001
20
25.869796875000002
30
0
0
VERTEX
8
0
10
12.658675
20
25.850340625
30
0
0
VERTEX
8
0
10
12.750825
20
25.812171875
30
0
0
VERTEX
8
0
10
12.833740625
20
25.756771875000002
30
0
0
VERTEX
8
0
10
12.904271875000001
20
25.686240625
30
0
0
VERTEX
8
0
10
12.959671875000002
20
25.603325
30
0
0
VERTEX
8
0
10
12.997840625
20
25.511175
30
0
0
VERTEX
8
0
10
13.017296875000001
20
25.41336875
30
0
0
VERTEX
8
0
10
13.017296875000001
20
25.09
30
0
0
SEQEND
0
POLYLINE
66
1
8
1_copper
10
0.0
20
0.0
30
0.0
70
1
0
VERTEX
8
0
10
3.4619656250000004
20
23.089875000000003
30
0
0
VERTEX
8
0
10
3.2075093750000003
20
23.178912500000003
30
0
0
VERTEX
8
0
10
2.96458125
20
23.295903125000002
30
0
0
VERTEX
8
0
10
2.73631875
20
23.439328125
30
0
0
VERTEX
8
0
10
2.525565625
20
23.607396875000003
30
0
0
VERTEX
8
0
10
2.3349
20
23.7980625
30
0
0
VERTEX
8
0
10
2.166828125
20
24.00881875
30
0
0
VERTEX
8
0
10
2.023403125
20
24.237081250000003
30
0
0
VERTEX
8
0
10
1.9064125
20
24.480009375
30
0
0
VERTEX
8
0
10
1.8173750000000002
20
24.734465625000002
30
0
0
VERTEX
8
0
10
1.78141875
20
24.892
30
0
0
VERTEX
8
0
10
2.094496875
20
24.892
30
0
0
VERTEX
8
0
10
2.10804375
20
24.837034375
30
0
42
0.262560347097013
0
VERTEX
8
0
10
3.564534375
20
23.38054375
30
0
0
VERTEX
8
0
10
3.6195000000000004
20
23.366996875
30
0
0
VERTEX
8
0
10
3.6195000000000004
20
23.05391875
30
0
0
SEQEND
0
POLYLINE
66
1
8
1_copper
10
0.0
20
0.0
30
0.0
70
1
0
VERTEX
8
0
10
67.91100625
20
23.077840625
30
0
0
VERTEX
8
0
10
67.65520625
20
23.167350000000003
30
0
0
VERTEX
8
0
10
67.41105
20
23.28493125
30
0
0
VERTEX
8
0
10
67.1815625
20
23.429125000000003
30
0
0
VERTEX
8
0
10
66.969721875
20
23.5980625
30
0
0
VERTEX
8
0
10
66.7780625
20
23.789721875
30
0
0
VERTEX
8
0
10
66.609125
20
24.001562500000002
30
0
0
VERTEX
8
0
10
66.46493125
20
24.23105
30
0
0
VERTEX
8
0
10
66.34735
20
24.475206250000003
30
0
0
VERTEX
8
0
10
66.257840625
20
24.73100625
30
0
0
VERTEX
8
0
10
66.221096875
20
24.892
30
0
0
VERTEX
8
0
10
66.534121875
20
24.892
30
0
0
VERTEX
8
0
10
66.548496875
20
24.833675
30
0
42
0.26256008909205725
0
VERTEX
8
0
10
68.013675
20
23.368496875
30
0
0
VERTEX
8
0
10
68.072
20
23.354121875
30
0
0
VERTEX
8
0
10
68.072
20
23.041096875
30
0
0
SEQEND
0
POLYLINE
66
1
8
1_copper
10
0.0
20
0.0
30
0.0
70
1
0
VERTEX
8
0
10
69.08799375000001
20
23.354121875
30
0
0
VERTEX
8
0
10
69.146325
20
23.368496875
30
0
42
0.26256008909205725
0
VERTEX
8
0
10
70.611503125
20
24.833675
30
0
0
VERTEX
8
0
10
70.625878125
20
24.892
30
0
0
VERTEX
8
0
10
70.9389
20
24.892
30
0
0
VERTEX
8
0
10
70.90215625
20
24.73100625
30
0
0
VERTEX
8
0
10
70.812646875
20
24.475206250000003
30
0
0
VERTEX
8
0
10
70.695065625
20
24.23105
30
0
0
VERTEX
8
0
10
70.550871875
20
24.001562500000002
30
0
0
VERTEX
8
0
10
70.381934375
20
23.789721875
30
0
0
VERTEX
8
0
10
70.190275
20
23.5980625
30
0
0
VERTEX
8
0
10
69.978434375
20
23.429125000000003
30
0
0
VERTEX
8
0
10
69.748946875
20
23.28493125
30
0
0
VERTEX
8
0
10
69.504790625
20
23.167350000000003
30
0
0
VERTEX
8
0
10
69.248990625
20
23.077840625
30
0
0
VERTEX
8
0
10
69.08799375000001
20
23.041096875
30
0
0
SEQEND
0
POLYLINE
66
1
8
1_copper
10
0.0
20
0.0
30
0.0
70
1
0
VERTEX
8
0
10
4.63549375
20
23.366993750000002
30
0
0
VERTEX
8
0
10
4.690465625
20
23.38054375
30
0
42
0.262560347097013
0
VERTEX
8
0
10
6.146956250000001
20
24.837034375
30
0
0
VERTEX
8
0
10
6.160503125
20
24.892
30
0
0
VERTEX
8
0
10
6.473578125
20
24.892
30
0
0
VERTEX
8
0
10
6.4376218750000005
20
24.734465625000002
30
0
0
VERTEX
8
0
10
6.348584375000001
20
24.480009375
30
0
0
VERTEX
8
0
10
6.23159375
20
24.237081250000003
30
0
0
VERTEX
8
0
10
6.08816875
20
24.00881875
30
0
0
VERTEX
8
0
10
5.9200968750000005
20
23.7980625
30
0
0
VERTEX
8
0
10
5.72943125
20
23.607396875000003
30
0
0
VERTEX
8
0
10
5.518678125
20
23.439328125
30
0
0
VERTEX
8
0
10
5.2904156250000005
20
23.295903125000002
30
0
0
VERTEX
8
0
10
5.0474875
20
23.178912500000003
30
0
0
VERTEX
8
0
10
4.79303125
20
23.089875000000003
30
0
0
VERTEX
8
0
10
4.63549375
20
23.05391875
30
0
0
SEQEND
0
POLYLINE
66
1
8
1_copper
10
0.0
20
0.0
30
0.0
70
1
0
VERTEX
8
0
10
12.387500000000001
20
23.6602
30
0
0
VERTEX
8
0
10
12.387500000000001
20
23.965
30
0
0
VERTEX
8
0
10
12.530846875
20
23.965
30
0
0
VERTEX
8
0
10
12.569775
20
23.972743750000003
30
0
0
VERTEX
8
0
10
12.606446875000001
20
23.987934375000002
30
0
0
VERTEX
8
0
10
12.63945
20
24.009984375000002
30
0
0
VERTEX
8
0
10
12.667515625
20
24.038050000000002
30
0
0
VERTEX
8
0
10
12.689565625
20
24.071053125000002
30
0
0
VERTEX
8
0
10
12.70475625
20
24.107725000000002
30
0
0
VERTEX
8
0
10
12.7125
20
24.146653125
30
0
0
VERTEX
8
0
10
12.7125
20
24.439993750000003
30
0
0
VERTEX
8
0
10
13.017296875000001
20
24.439993750000003
30
0
0
VERTEX
8
0
10
13.017296875000001
20
24.116628125000002
30
0
0
VERTEX
8
0
10
12.997840625
20
24.018821875
30
0
0
VERTEX
8
0
10
12.959671875000002
20
23.926671875
30
0
0
VERTEX
8
0
10
12.904271875000001
20
23.843756250000002
30
0
0
VERTEX
8
0
10
12.833740625
20
23.773225
30
0
0
VERTEX
8
0
10
12.750825
20
23.717825
30
0
0
VERTEX
8
0
10
12.658675
20
23.67965625
30
0
0
VERTEX
8
0
10
12.560868750000001
20
23.6602
30
0
0
SEQEND
0
POLYLINE
66
1
8
1_copper
10
0.0
20
0.0
30
0.0
70
1
0
VERTEX
8
0
10
13.1827
20
21.282500000000002
30
0
0
VERTEX
8
0
10
13.1827
20
22.132225000000002
30
0
0
VERTEX
8
0
10
13.202093750000001
20
22.229734375
30
0
0
VERTEX
8
0
10
13.24015625
20
22.321618750000003
30
0
0
VERTEX
8
0
10
13.2953875
20
22.40428125
30
0
0
VERTEX
8
0
10
13.365715625
20
22.474609375
30
0
0
VERTEX
8
0
10
13.448378125000001
20
22.529840625000002
30
0
0
VERTEX
8
0
10
13.5402625
20
22.567903125
30
0
0
VERTEX
8
0
10
13.637771875
20
22.587296875
30
0
0
VERTEX
8
0
10
13.88749375
20
22.587296875
30
0
0
VERTEX
8
0
10
13.88749375
20
22.282500000000002
30
0
0
VERTEX
8
0
10
13.667803125
20
22.282500000000002
30
0
0
VERTEX
8
0
10
13.629162500000001
20
22.274815625000002
30
0
0
VERTEX
8
0
10
13.592765625
20
22.2597375
30
0
0
VERTEX
8
0
10
13.56000625
20
22.23785
30
0
0
VERTEX
8
0
10
13.532150000000001
20
22.209993750000002
30
0
0
VERTEX
8
0
10
13.510262500000001
20
22.177234375
30
0
0
VERTEX
8
0
10
13.495184375000001
20
22.1408375
30
0
0
VERTEX
8
0
10
13.4875
20
22.102196875
30
0
0
VERTEX
8
0
10
13.4875
20
21.282500000000002
30
0
0
SEQEND
0
POLYLINE
66
1
8
1_copper
10
0.0
20
0.0
30
0.0
70
1
0
VERTEX
8
0
10
15.0875
20
21.282500000000002
30
0
0
VERTEX
8
0
10
15.0875
20
22.102196875
30
0
0
VERTEX
8
0
10
15.079815625
20
22.1408375
30
0
0
VERTEX
8
0
10
15.064737500000001
20
22.177234375
30
0
0
VERTEX
8
0
10
15.042850000000001
20
22.209993750000002
30
0
0
VERTEX
8
0
10
15.01499375
20
22.23785
30
0
0
VERTEX
8
0
10
14.982234375
20
22.2597375
30
0
0
VERTEX
8
0
10
14.945837500000001
20
22.274815625000002
30
0
0
VERTEX
8
0
10
14.907196875
20
22.282500000000002
30
0
0
VERTEX
8
0
10
14.6875
20
22.282500000000002
30
0
0
VERTEX
8
0
10
14.6875
20
22.587296875
30
0
0
VERTEX
8
0
10
14.937225000000002
20
22.587296875
30
0
0
VERTEX
8
0
10
15.034734375000001
20
22.567903125
30
0
0
VERTEX
8
0
10
15.12661875
20
22.529840625000002
30
0
0
VERTEX
8
0
10
15.20928125
20
22.474609375
30
0
0
VERTEX
8
0
10
15.279609375000001
20
22.40428125
30
0
0
VERTEX
8
0
10
15.334840625
20
22.321618750000003
30
0
0
VERTEX
8
0
10
15.372903125
20
22.229734375
30
0
0
VERTEX
8
0
10
15.392296875000001
20
22.132225000000002
30
0
0
VERTEX
8
0
10
15.392296875000001
20
21.282500000000002
30
0
0
SEQEND
0
POLYLINE
66
1
8
1_copper
10
0.0
20
0.0
30
0.0
70
1
0
VERTEX
8
0
10
56.118390625
20
18.837500000000002
30
0
0
VERTEX
8
0
10
56.12054375
20
18.844121875000003
30
0
42
9.828231000369648e-5
0
VERTEX
8
0
10
56.120575
20
18.84421875
30
0
0
VERTEX
8
0
10
56.179965625
20
19.0270125
30
0
0
VERTEX
8
0
10
56.197478125
20
19.061378125
30
0
42
6.178053333853231e-5
0
VERTEX
8
0
10
56.19750625
20
19.0614375
30
0
0
VERTEX
8
0
10
56.274346875000006
20
19.212246875
30
0
0
VERTEX
8
0
10
56.39654375
20
19.380434375
30
0
0
VERTEX
8
0
10
56.54355625
20
19.527446875000003
30
0
0
VERTEX
8
0
10
56.622090625000006
20
19.584503125
30
0
42
0.0782665910021389
0
VERTEX
8
0
10
56.678025000000005
20
19.640340625
30
0
0
VERTEX
8
0
10
56.678109375000005
20
19.640478125
30
0
0
VERTEX
8
0
10
56.67823125
20
19.640621875
30
0
42
0.2394368321265673
0
VERTEX
8
0
10
56.714584375
20
19.867809375
30
0
0
VERTEX
8
0
10
56.714521875
20
19.8679625
30
0
0
VERTEX
8
0
10
56.714478125
20
19.86814375
30
0
42
0.07826544849781784
0
VERTEX
8
0
10
56.67875625
20
19.93864375
30
0
0
VERTEX
8
0
10
56.678650000000005
20
19.93876875
30
0
0
VERTEX
8
0
10
56.678553125
20
19.938928125
30
0
42
0.03924613355427131
0
VERTEX
8
0
10
56.652753125000004
20
19.969250000000002
30
0
0
VERTEX
8
0
10
56.62253125
20
19.99516875
30
0
42
0.0005327779931857281
0
VERTEX
8
0
10
56.622093750000005
20
19.9954875
30
0
0
VERTEX
8
0
10
56.5435625
20
20.05254375
30
0
0
VERTEX
8
0
10
56.39654375
20
20.199562500000003
30
0
0
VERTEX
8
0
10
56.274346875000006
20
20.36775
30
0
0
VERTEX
8
0
10
56.179965625
20
20.552984375
30
0
0
VERTEX
8
0
10
56.11839375
20
20.74249375
30
0
0
VERTEX
8
0
10
56.438356250000005
20
20.74249375
30
0
42
0.31193927656553877
0
VERTEX
8
0
10
57.359640625000004
20
20.044
30
0
0
VERTEX
8
0
10
57.658
20
20.044
30
0
0
VERTEX
8
0
10
57.658
20
19.536
30
0
0
VERTEX
8
0
10
57.359640625000004
20
19.536
30
0
0
VERTEX
8
0
10
57.271259375
20
19.528268750000002
30
0
42
0.26794902817390576
0
VERTEX
8
0
10
56.46444375
20
18.909178125
30
0
0
VERTEX
8
0
10
56.438356250000005
20
18.837500000000002
30
0
0
SEQEND
0
POLYLINE
66
1
8
1_copper
10
0.0
20
0.0
30
0.0
70
1
0
VERTEX
8
0
10
40.89164375
20
18.837500000000002
30
0
0
VERTEX
8
0
10
40.865556250000004
20
18.909178125
30
0
42
0.29147316602716916
0
VERTEX
8
0
10
39.970359375
20
19.536
30
0
0
VERTEX
8
0
10
39.672000000000004
20
19.536
30
0
0
VERTEX
8
0
10
39.672000000000004
20
20.044
30
0
0
VERTEX
8
0
10
39.970359375
20
20.044
30
0
0
VERTEX
8
0
10
40.058740625
20
20.05173125
30
0
42
0.26794902817390576
0
VERTEX
8
0
10
40.865556250000004
20
20.670821875
30
0
0
VERTEX
8
0
10
40.89164375
20
20.74249375
30
0
0
VERTEX
8
0
10
41.211603125
20
20.74249375
30
0
0
VERTEX
8
0
10
41.150031250000005
20
20.552984375
30
0
0
VERTEX
8
0
10
41.05565
20
20.36775
30
0
0
VERTEX
8
0
10
41.037318750000004
20
20.342521875
30
0
0
VERTEX
8
0
10
41.037309375
20
20.342509375000002
30
0
0
VERTEX
8
0
10
41.0373
20
20.342493750000003
30
0
0
VERTEX
8
0
10
40.933453125
20
20.199562500000003
30
0
0
VERTEX
8
0
10
40.786440625000004
20
20.05255
30
0
0
VERTEX
8
0
10
40.70790625
20
19.99549375
30
0
42
0.3241501612309002
0
VERTEX
8
0
10
40.615412500000005
20
19.712187500000002
30
0
0
VERTEX
8
0
10
40.615475
20
19.712034375
30
0
0
VERTEX
8
0
10
40.61551875
20
19.711853125
30
0
42
0.0392446310632585
0
VERTEX
8
0
10
40.630700000000004
20
19.675050000000002
30
0
0
VERTEX
8
0
10
40.641737500000005
20
19.65696875
30
0
0
VERTEX
8
0
10
40.651240625
20
19.641353125000002
30
0
0
VERTEX
8
0
10
40.651346875
20
19.641228125
30
0
0
VERTEX
8
0
10
40.65144375
20
19.641068750000002
30
0
42
0.03924613355427131
0
VERTEX
8
0
10
40.67724375
20
19.610746875
30
0
0
VERTEX
8
0
10
40.707465625000005
20
19.584828125
30
0
42
0.0005327779931857281
0
VERTEX
8
0
10
40.707903125
20
19.584509375
30
0
0
VERTEX
8
0
10
40.786434375
20
19.527453125
30
0
0
VERTEX
8
0
10
40.933453125
20
19.380434375
30
0
0
VERTEX
8
0
10
41.05565
20
19.212246875
30
0
0
VERTEX
8
0
10
41.150031250000005
20
19.0270125
30
0
0
VERTEX
8
0
10
41.21160625
20
18.837500000000002
30
0
0
SEQEND
0
POLYLINE
66
1
8
1_copper
10
0.0
20
0.0
30
0.0
70
1
0
VERTEX
8
0
10
13.637771875
20
19.1777
30
0
0
VERTEX
8
0
10
13.5402625
20
19.19709375
30
0
0
VERTEX
8
0
10
13.448378125000001
20
19.23515625
30
0
0
VERTEX
8
0
10
13.365715625
20
19.2903875
30
0
0
VERTEX
8
0
10
13.2953875
20
19.360715625
30
0
0
VERTEX
8
0
10
13.24015625
20
19.443378125000002
30
0
0
VERTEX
8
0
10
13.202093750000001
20
19.5352625
30
0
0
VERTEX
8
0
10
13.1827
20
19.632771875
30
0
0
VERTEX
8
0
10
13.1827
20
20.48249375
30
0
0
VERTEX
8
0
10
13.4875
20
20.48249375
30
0
0
VERTEX
8
0
10
13.4875
20
19.662803125
30
0
0
VERTEX
8
0
10
13.495184375000001
20
19.6241625
30
0
0
VERTEX
8
0
10
13.510262500000001
20
19.587765625
30
0
0
VERTEX
8
0
10
13.532150000000001
20
19.55500625
30
0
0
VERTEX
8
0
10
13.56000625
20
19.527150000000002
30
0
0
VERTEX
8
0
10
13.592765625
20
19.5052625
30
0
0
VERTEX
8
0
10
13.629162500000001
20
19.490184375000002
30
0
0
VERTEX
8
0
10
13.667803125
20
19.4825
30
0
0
VERTEX
8
0
10
13.88749375
20
19.4825
30
0
0
VERTEX
8
0
10
13.88749375
20
19.1777
30
0
0
SEQEND
0
POLYLINE
66
1
8
1_copper
10
0.0
20
0.0
30
0.0
70
1
0
VERTEX
8
0
10
14.6875
20
19.1777
30
0
0
VERTEX
8
0
10
14.6875
20
19.4825
30
0
0
VERTEX
8
0
10
14.907196875
20
19.4825
30
0
0
VERTEX
8
0
10
14.945837500000001
20
19.490184375000002
30
0
0
VERTEX
8
0
10
14.982234375
20
19.5052625
30
0
0
VERTEX
8
0
10
15.01499375
20
19.527150000000002
30
0
0
VERTEX
8
0
10
15.042850000000001
20
19.55500625
30
0
0
VERTEX
8
0
10
15.064737500000001
20
19.587765625
30
0
0
VERTEX
8
0
10
15.079815625
20
19.6241625
30
0
0
VERTEX
8
0
10
15.0875
20
19.662803125
30
0
0
VERTEX
8
0
10
15.0875
20
20.48249375
30
0
0
VERTEX
8
0
10
15.39229375
20
20.48249375
30
0
0
VERTEX
8
0
10
15.392296875000001
20
19.632771875
30
0
0
VERTEX
8
0
10
15.372903125
20
19.5352625
30
0
0
VERTEX
8
0
10
15.334840625
20
19.443378125000002
30
0
0
VERTEX
8
0
10
15.279609375000001
20
19.360715625
30
0
0
VERTEX
8
0
10
15.20928125
20
19.2903875
30
0
0
VERTEX
8
0
10
15.12661875
20
19.23515625
30
0
0
VERTEX
8
0
10
15.034734375000001
20
19.19709375
30
0
0
VERTEX
8
0
10
14.937225000000002
20
19.1777
30
0
0
SEQEND
0
POLYLINE
66
1
8
1_copper
10
0.0
20
0.0
30
0.0
70
1
0
VERTEX
8
0
10
57.30004375
20
17.1992
30
0
0
VERTEX
8
0
10
57.094709375
20
17.231721875
30
0
0
VERTEX
8
0
10
56.896984375
20
17.295965625
30
0
0
VERTEX
8
0
10
56.71175
20
17.390346875000002
30
0
0
VERTEX
8
0
10
56.5435625
20
17.512543750000003
30
0
0
VERTEX
8
0
10
56.39654375
20
17.6595625
30
0
0
VERTEX
8
0
10
56.274346875000006
20
17.82775
30
0
0
VERTEX
8
0
10
56.179965625
20
18.012984375000002
30
0
0
VERTEX
8
0
10
56.11839375
20
18.202493750000002
30
0
0
VERTEX
8
0
10
56.438356250000005
20
18.202493750000002
30
0
0
VERTEX
8
0
10
56.46444375
20
18.130821875000002
30
0
42
0.29147316602716916
0
VERTEX
8
0
10
57.359640625000004
20
17.504
30
0
0
VERTEX
8
0
10
58.10249375
20
17.504
30
0
0
VERTEX
8
0
10
58.10249375
20
17.199196875000002
30
0
0
SEQEND
0
POLYLINE
66
1
8
1_copper
10
0.0
20
0.0
30
0.0
70
1
0
VERTEX
8
0
10
37.79004375
20
17.1992
30
0
0
VERTEX
8
0
10
37.584709375
20
17.231721875
30
0
0
VERTEX
8
0
10
37.386984375000004
20
17.295965625
30
0
0
VERTEX
8
0
10
37.201750000000004
20
17.390346875000002
30
0
0
VERTEX
8
0
10
37.0335625
20
17.512543750000003
30
0
0
VERTEX
8
0
10
36.88654375
20
17.6595625
30
0
0
VERTEX
8
0
10
36.764346875
20
17.82775
30
0
0
VERTEX
8
0
10
36.669965625
20
18.012984375000002
30
0
0
VERTEX
8
0
10
36.608393750000005
20
18.202493750000002
30
0
0
VERTEX
8
0
10
36.92835625
20
18.202493750000002
30
0
0
VERTEX
8
0
10
36.95444375
20
18.130821875000002
30
0
42
0.29147316602716916
0
VERTEX
8
0
10
37.849640625
20
17.504
30
0
0
VERTEX
8
0
10
38.59249375
20
17.504
30
0
0
VERTEX
8
0
10
38.59249375
20
17.199196875000002
30
0
0
SEQEND
0
POLYLINE
66
1
8
1_copper
10
0.0
20
0.0
30
0.0
70
1
0
VERTEX
8
0
10
39.2275
20
17.1992
30
0
0
VERTEX
8
0
10
39.2275
20
17.504
30
0
0
VERTEX
8
0
10
39.970359375
20
17.504
30
0
0
VERTEX
8
0
10
40.058740625
20
17.51173125
30
0
42
0.26794902817390576
0
VERTEX
8
0
10
40.865556250000004
20
18.130821875000002
30
0
0
VERTEX
8
0
10
40.89164375
20
18.202493750000002
30
0
0
VERTEX
8
0
10
41.211603125
20
18.202493750000002
30
0
0
VERTEX
8
0
10
41.150031250000005
20
18.012984375000002
30
0
0
VERTEX
8
0
10
41.05565
20
17.82775
30
0
0
VERTEX
8
0
10
41.037318750000004
20
17.802521875
30
0
0
VERTEX
8
0
10
41.037309375
20
17.802509375
30
0
0
VERTEX
8
0
10
41.0373
20
17.80249375
30
0
0
VERTEX
8
0
10
40.933453125
20
17.6595625
30
0
0
VERTEX
8
0
10
40.786434375
20
17.512543750000003
30
0
0
VERTEX
8
0
10
40.618246875000004
20
17.390346875000002
30
0
0
VERTEX
8
0
10
40.433012500000004
20
17.295965625
30
0
0
VERTEX
8
0
10
40.235287500000005
20
17.231721875
30
0
0
VERTEX
8
0
10
40.029953125
20
17.1992
30
0
0
SEQEND
0
POLYLINE
66
1
8
1_copper
10
0.0
20
0.0
30
0.0
70
1
0
VERTEX
8
0
10
58.737500000000004
20
17.1992
30
0
0
VERTEX
8
0
10
58.737500000000004
20
17.504
30
0
0
VERTEX
8
0
10
59.480359375000006
20
17.504
30
0
0
VERTEX
8
0
10
59.568740625000004
20
17.51173125
30
0
42
0.26794902817390576
0
VERTEX
8
0
10
60.37555625
20
18.130821875000002
30
0
0
VERTEX
8
0
10
60.401643750000005
20
18.202493750000002
30
0
0
VERTEX
8
0
10
60.721603125
20
18.202493750000002
30
0
0
VERTEX
8
0
10
60.66003125
20
18.012984375000002
30
0
0
VERTEX
8
0
10
60.565650000000005
20
17.82775
30
0
0
VERTEX
8
0
10
60.54731875
20
17.802521875
30
0
0
VERTEX
8
0
10
60.547309375000005
20
17.802509375
30
0
0
VERTEX
8
0
10
60.5473
20
17.80249375
30
0
0
VERTEX
8
0
10
60.443453125000005
20
17.6595625
30
0
0
VERTEX
8
0
10
60.296434375000004
20
17.512543750000003
30
0
0
VERTEX
8
0
10
60.128246875
20
17.390346875000002
30
0
0
VERTEX
8
0
10
59.9430125
20
17.295965625
30
0
0
VERTEX
8
0
10
59.7452875
20
17.231721875
30
0
0
VERTEX
8
0
10
59.539953125000004
20
17.1992
30
0
0
SEQEND
0
POLYLINE
66
1
8
1_copper
10
0.0
20
0.0
30
0.0
70
1
0
VERTEX
8
0
10
16.9927
20
16.247500000000002
30
0
0
VERTEX
8
0
10
16.9927
20
16.42086875
30
0
0
VERTEX
8
0
10
17.01215625
20
16.518675
30
0
0
VERTEX
8
0
10
17.050325
20
16.610825000000002
30
0
0
VERTEX
8
0
10
17.105725
20
16.693740625
30
0
0
VERTEX
8
0
10
17.17625625
20
16.764271875000002
30
0
0
VERTEX
8
0
10
17.259171875
20
16.819671875
30
0
0
VERTEX
8
0
10
17.351321875
20
16.857840625
30
0
0
VERTEX
8
0
10
17.449128125
20
16.877296875000003
30
0
0
VERTEX
8
0
10
17.772493750000002
20
16.877296875000003
30
0
0
VERTEX
8
0
10
17.772493750000002
20
16.5725
30
0
0
VERTEX
8
0
10
17.479153125
20
16.5725
30
0
0
VERTEX
8
0
10
17.440225
20
16.564756250000002
30
0
0
VERTEX
8
0
10
17.403553125000002
20
16.549565625
30
0
0
VERTEX
8
0
10
17.37055
20
16.527515625
30
0
0
VERTEX
8
0
10
17.342484375
20
16.49945
30
0
0
VERTEX
8
0
10
17.320434375
20
16.466446875
30
0
0
VERTEX
8
0
10
17.305243750000002
20
16.429775
30
0
0
VERTEX
8
0
10
17.2975
20
16.390846875
30
0
0
VERTEX
8
0
10
17.2975
20
16.247500000000002
30
0
0
SEQEND
0
POLYLINE
66
1
8
1_copper
10
0.0
20
0.0
30
0.0
70
1
0
VERTEX
8
0
10
6.6370375
20
12.4587
30
0
0
VERTEX
8
0
10
6.451456250000001
20
12.48809375
30
0
0
VERTEX
8
0
10
6.2727312500000005
20
12.546165625
30
0
0
VERTEX
8
0
10
6.1053125
20
12.63146875
30
0
0
VERTEX
8
0
10
5.9533000000000005
20
12.7419125
30
0
0
VERTEX
8
0
10
5.820412500000001
20
12.8748
30
0
0
VERTEX
8
0
10
5.709968750000001
20
13.0268125
30
0
0
VERTEX
8
0
10
5.6246656250000004
20
13.194231250000001
30
0
0
VERTEX
8
0
10
5.56659375
20
13.372956250000001
30
0
0
VERTEX
8
0
10
5.56255
20
13.398481250000001
30
0
0
VERTEX
8
0
10
5.878703125
20
13.398481250000001
30
0
0
VERTEX
8
0
10
5.8823375
20
13.38491875
30
0
42
0.3152987629290699
0
VERTEX
8
0
10
6.692184375
20
12.7635
30
0
0
VERTEX
8
0
10
7.36598125
20
12.7635
30
0
0
VERTEX
8
0
10
7.36598125
20
12.4587
30
0
0
SEQEND
0
POLYLINE
66
1
8
1_copper
10
0.0
20
0.0
30
0.0
70
1
0
VERTEX
8
0
10
7.8740125
20
12.4587
30
0
0
VERTEX
8
0
10
7.8740125
20
12.7635
30
0
0
VERTEX
8
0
10
8.547815625
20
12.7635
30
0
0
VERTEX
8
0
10
8.625146875
20
12.770265625
30
0
42
0.29147416119494524
0
VERTEX
8
0
10
9.3576625
20
13.38491875
30
0
0
VERTEX
8
0
10
9.361296875
20
13.398481250000001
30
0
0
VERTEX
8
0
10
9.677446875000001
20
13.398481250000001
30
0
0
VERTEX
8
0
10
9.673403125
20
13.372956250000001
30
0
0
VERTEX
8
0
10
9.61533125
20
13.194231250000001
30
0
0
VERTEX
8
0
10
9.530028125000001
20
13.0268125
30
0
0
VERTEX
8
0
10
9.49349375
20
12.976528125
30
0
42
4.433839870078845e-5
0
VERTEX
8
0
10
9.493465625
20
12.976487500000001
30
0
0
VERTEX
8
0
10
9.419584375000001
20
12.8748
30
0
0
VERTEX
8
0
10
9.286696875
20
12.7419125
30
0
0
VERTEX
8
0
10
9.134684375
20
12.63146875
30
0
0
VERTEX
8
0
10
8.967265625
20
12.546165625
30
0
0
VERTEX
8
0
10
8.788540625
20
12.48809375
30
0
0
VERTEX
8
0
10
8.602959375000001
20
12.4587
30
0
0
SEQEND
0
POLYLINE
66
1
8
1_copper
10
0.0
20
0.0
30
0.0
70
1
0
VERTEX
8
0
10
1.4510968750000002
20
7.17549375
30
0
0
VERTEX
8
0
10
1.487840625
20
7.336490625000001
30
0
0
VERTEX
8
0
10
1.57735
20
7.592290625
30
0
0
VERTEX
8
0
10
1.69493125
20
7.836446875
30
0
0
VERTEX
8
0
10
1.8391250000000001
20
8.065934375000001
30
0
0
VERTEX
8
0
10
2.0080625000000003
20
8.277775
30
0
0
VERTEX
8
0
10
2.1997218750000003
20
8.469434375
30
0
0
VERTEX
8
0
10
2.4115625
20
8.638371875
30
0
0
VERTEX
8
0
10
2.6410500000000003
20
8.782565625
30
0
0
VERTEX
8
0
10
2.88520625
20
8.900146875
30
0
0
VERTEX
8
0
10
3.14100625
20
8.989656250000001
30
0
0
VERTEX
8
0
10
3.302
20
9.0264
30
0
0
VERTEX
8
0
10
3.302
20
8.713378125
30
0
0
VERTEX
8
0
10
3.243675
20
8.699003125
30
0
42
0.26256008909205725
0
VERTEX
8
0
10
1.778496875
20
7.233825
30
0
0
VERTEX
8
0
10
1.764121875
20
7.17549375
30
0
0
SEQEND
0
POLYLINE
66
1
8
1_copper
10
0.0
20
0.0
30
0.0
70
1
0
VERTEX
8
0
10
5.855878125
20
7.17549375
30
0
0
VERTEX
8
0
10
5.841503125
20
7.233825
30
0
42
0.26256008909205725
0
VERTEX
8
0
10
4.3763250000000005
20
8.699003125
30
0
0
VERTEX
8
0
10
4.31799375
20
8.713378125
30
0
0
VERTEX
8
0
10
4.31799375
20
9.0264
30
0
0
VERTEX
8
0
10
4.478990625
20
8.989656250000001
30
0
0
VERTEX
8
0
10
4.7347906250000005
20
8.900146875
30
0
0
VERTEX
8
0
10
4.978946875
20
8.782565625
30
0
0
VERTEX
8
0
10
5.208434375
20
8.638371875
30
0
0
VERTEX
8
0
10
5.420275
20
8.469434375
30
0
0
VERTEX
8
0
10
5.611934375000001
20
8.277775
30
0
0
VERTEX
8
0
10
5.780871875
20
8.065934375000001
30
0
0
VERTEX
8
0
10
5.925065625
20
7.836446875
30
0
0
VERTEX
8
0
10
6.042646875
20
7.592290625
30
0
0
VERTEX
8
0
10
6.13215625
20
7.336490625000001
30
0
0
VERTEX
8
0
10
6.168900000000001
20
7.17549375
30
0
0
SEQEND
0
POLYLINE
66
1
8
1_copper
10
0.0
20
0.0
30
0.0
70
1
0
VERTEX
8
0
10
3.14100625
20
4.345340625
30
0
0
VERTEX
8
0
10
2.88520625
20
4.43485
30
0
0
VERTEX
8
0
10
2.6410500000000003
20
4.552431250000001
30
0
0
VERTEX
8
0
10
2.4115625
20
4.696625
30
0
0
VERTEX
8
0
10
2.1997218750000003
20
4.8655625
30
0
0
VERTEX
8
0
10
2.0080625000000003
20
5.057221875000001
30
0
0
VERTEX
8
0
10
1.8391250000000001
20
5.2690625
30
0
0
VERTEX
8
0
10
1.69493125
20
5.49855
30
0
0
VERTEX
8
0
10
1.57735
20
5.74270625
30
0
0
VERTEX
8
0
10
1.487840625
20
5.99850625
30
0
0
VERTEX
8
0
10
1.4510968750000002
20
6.1595
30
0
0
VERTEX
8
0
10
1.764121875
20
6.1595
30
0
0
VERTEX
8
0
10
1.778496875
20
6.1011750000000005
30
0
42
0.26256008909205725
0
VERTEX
8
0
10
3.243675
20
4.635996875
30
0
0
VERTEX
8
0
10
3.302
20
4.621621875000001
30
0
0
VERTEX
8
0
10
3.302
20
4.308596875
30
0
0
SEQEND
0
POLYLINE
66
1
8
16_copper
10
0.0
20
0.0
30
0.0
70
1
0
VERTEX
8
0
10
68.770859375
20
23.299690625
30
0
42
0.9999999999999999
0
VERTEX
8
0
10
68.38914062500001
20
27.500309375
30
0
0
VERTEX
8
0
10
68.262675
20
27.484953125
30
0
42
0.9413386747758196
0
VERTEX
8
0
10
68.643696875
20
23.292
30
0
0
SEQEND
0
POLYLINE
66
1
8
16_copper
10
0.0
20
0.0
30
0.0
70
1
0
VERTEX
8
0
10
4.317228125000001
20
23.312146875
30
0
42
0.9999999999999999
0
VERTEX
8
0
10
3.937771875
20
27.487853125
30
0
0
VERTEX
8
0
10
3.8120562500000004
20
27.472590625000002
30
0
42
0.941338515996849
0
VERTEX
8
0
10
4.19081875
20
23.3045
30
0
0
SEQEND
0
POLYLINE
66
1
8
16_copper
10
0.0
20
0.0
30
0.0
70
1
0
VERTEX
8
0
10
24.637228125
20
23.312146875
30
0
42
0.9999999999999999
0
VERTEX
8
0
10
24.257771875
20
27.487853125
30
0
0
VERTEX
8
0
10
24.13205625
20
27.472590625000002
30
0
42
0.941338515996849
0
VERTEX
8
0
10
24.510818750000002
20
23.3045
30
0
0
SEQEND
0
POLYLINE
66
1
8
16_copper
10
0.0
20
0.0
30
0.0
70
1
0
VERTEX
8
0
10
59.568740625000004
20
20.05173125
30
0
42
0.9163314512321996
0
VERTEX
8
0
10
59.480359375000006
20
22.076
30
0
0
VERTEX
8
0
10
57.359640625000004
20
22.076
30
0
0
VERTEX
8
0
10
57.271259375
20
22.06826875
30
0
42
0.9163314512321996
0
VERTEX
8
0
10
57.359640625000004
20
20.044
30
0
0
VERTEX
8
0
10
59.480359375000006
20
20.044
30
0
0
SEQEND
0
POLYLINE
66
1
8
16_copper
10
0.0
20
0.0
30
0.0
70
1
0
VERTEX
8
0
10
40.058740625
20
20.05173125
30
0
42
0.9163314512321996
0
VERTEX
8
0
10
39.970359375
20
22.076
30
0
0
VERTEX
8
0
10
37.849640625
20
22.076
30
0
0
VERTEX
8
0
10
37.761259375
20
22.06826875
30
0
42
0.9163314512321996
0
VERTEX
8
0
10
37.849640625
20
20.044
30
0
0
VERTEX
8
0
10
39.970359375
20
20.044
30
0
0
SEQEND
0
POLYLINE
66
1
8
16_copper
10
0.0
20
0.0
30
0.0
70
1
0
VERTEX
8
0
10
40.058740625
20
17.51173125
30
0
42
0.9163314512321996
0
VERTEX
8
0
10
39.970359375
20
19.536
30
0
0
VERTEX
8
0
10
37.849640625
20
19.536
30
0
0
VERTEX
8
0
10
37.761259375
20
19.528268750000002
30
0
42
0.9163314512321996
0
VERTEX
8
0
10
37.849640625
20
17.504
30
0
0
VERTEX
8
0
10
39.970359375
20
17.504
30
0
0
SEQEND
0
POLYLINE
66
1
8
16_copper
10
0.0
20
0.0
30
0.0
70
1
0
VERTEX
8
0
10
59.568740625000004
20
17.51173125
30
0
42
0.9163314512321996
0
VERTEX
8
0
10
59.480359375000006
20
19.536
30
0
0
VERTEX
8
0
10
57.359640625000004
20
19.536
30
0
0
VERTEX
8
0
10
57.271259375
20
19.528268750000002
30
0
42
0.9163314512321996
0
VERTEX
8
0
10
57.359640625000004
20
17.504
30
0
0
VERTEX
8
0
10
59.480359375000006
20
17.504
30
0
0
SEQEND
0
POLYLINE
66
1
8
16_copper
10
0.0
20
0.0
30
0.0
70
1
0
VERTEX
8
0
10
67.23144375
20
15.4378375
30
0
42
0.9063472543261978
0
VERTEX
8
0
10
67.156934375
20
16.9545
30
0
0
VERTEX
8
0
10
65.558065625
20
16.9545
30
0
0
VERTEX
8
0
10
65.48355625
20
16.9471625
30
0
42
0.9063472543261978
0
VERTEX
8
0
10
65.558065625
20
15.4305
30
0
0
VERTEX
8
0
10
67.156934375
20
15.4305
30
0
0
SEQEND
0
POLYLINE
66
1
8
16_copper
10
0.0
20
0.0
30
0.0
70
1
0
VERTEX
8
0
10
8.49394375
20
12.897837500000001
30
0
42
0.9063472543261978
0
VERTEX
8
0
10
8.419434375
20
14.4145
30
0
0
VERTEX
8
0
10
6.820565625
20
14.4145
30
0
0
VERTEX
8
0
10
6.7460562500000005
20
14.4071625
30
0
42
0.9063472543261978
0
VERTEX
8
0
10
6.820565625
20
12.890500000000001
30
0
0
VERTEX
8
0
10
8.419434375
20
12.890500000000001
30
0
0
SEQEND
0
POLYLINE
66
1
8
16_copper
10
0.0
20
0.0
30
0.0
70
1
0
VERTEX
8
0
10
4.000859375
20
4.567190625
30
0
42
0.9999999999999999
0
VERTEX
8
0
10
3.619140625
20
8.767809375
30
0
0
VERTEX
8
0
10
3.492675
20
8.752453125
30
0
42
0.9413386747758196
0
VERTEX
8
0
10
3.8736968750000003
20
4.5595
30
0
0
SEQEND
0
POLYLINE
66
1
8
1_copper
10
0.0
20
0.0
30
0.0
70
1
0
VERTEX
8
0
10
37.74841875
20
24.89045625
30
0
0
VERTEX
8
0
10
37.714559375
20
24.888965625
30
0
42
0.11403010718922836
0
VERTEX
8
0
10
37.388484375000004
20
24.782221875
30
0
0
VERTEX
8
0
10
37.3618125
20
24.764412500000002
30
0
0
VERTEX
8
0
10
37.331896875000005
20
24.74449375
30
0
0
VERTEX
8
0
10
37.3314875
20
24.7441625
30
0
0
VERTEX
8
0
10
37.331106250000005
20
24.743909375
30
0
42
0.022323751848733576
0
VERTEX
8
0
10
37.278165625
20
24.701218750000002
30
0
0
VERTEX
8
0
10
37.27773125
20
24.700809375000002
30
0
0
VERTEX
8
0
10
37.277428125
20
24.700565625
30
0
0
VERTEX
8
0
10
37.276081250000004
20
24.6992625
30
0
0
VERTEX
8
0
10
37.243684375
20
24.668815625
30
0
0
VERTEX
8
0
10
34.195684375
20
21.620815625000002
30
0
0
VERTEX
8
0
10
34.1723625
20
21.595278125
30
0
0
VERTEX
8
0
10
34.1497875
20
21.570628125000002
30
0
42
0.15984383596272408
0
VERTEX
8
0
10
33.973968750000004
20
21.129293750000002
30
0
0
VERTEX
8
0
10
33.97395
20
21.128690625
30
0
0
VERTEX
8
0
10
33.973909375
20
21.128309375
30
0
0
VERTEX
8
0
10
33.973881250000005
20
21.126453125
30
0
0
VERTEX
8
0
10
33.972500000000004
20
21.082
30
0
0
VERTEX
8
0
10
33.972500000000004
20
16.30144375
30
0
0
VERTEX
8
0
10
32.46355625
20
14.7925
30
0
0
VERTEX
8
0
10
28.318
20
14.7925
30
0
0
VERTEX
8
0
10
28.28391875
20
14.79095625
30
0
0
VERTEX
8
0
10
28.250059375000003
20
14.789465625
30
0
42
0.11403010718922836
0
VERTEX
8
0
10
27.923984375
20
14.682721875
30
0
0
VERTEX
8
0
10
27.8973125
20
14.664912500000002
30
0
0
VERTEX
8
0
10
27.867396875
20
14.644993750000001
30
0
0
VERTEX
8
0
10
27.8669875
20
14.6446625
30
0
0
VERTEX
8
0
10
27.86660625
20
14.644409375
30
0
42
0.022323751848733576
0
VERTEX
8
0
10
27.813665625000002
20
14.60171875
30
0
0
VERTEX
8
0
10
27.81323125
20
14.601309375000001
30
0
0
VERTEX
8
0
10
27.812928125000003
20
14.601065625
30
0
0
VERTEX
8
0
10
27.81158125
20
14.5997625
30
0
0
VERTEX
8
0
10
27.779184375
20
14.569315625000002
30
0
0
VERTEX
8
0
10
27.401184375
20
14.191315625000001
30
0
0
VERTEX
8
0
10
27.377862500000003
20
14.165778125000001
30
0
0
VERTEX
8
0
10
27.355287500000003
20
14.141128125
30
0
42
0.15984383596272408
0
VERTEX
8
0
10
27.17946875
20
13.699793750000001
30
0
0
VERTEX
8
0
10
27.179450000000003
20
13.699190625
30
0
0
VERTEX
8
0
10
27.179409375000002
20
13.698809375000002
30
0
0
VERTEX
8
0
10
27.179381250000002
20
13.696953125
30
0
0
VERTEX
8
0
10
27.178
20
13.6525
30
0
0
VERTEX
8
0
10
27.178
20
12.507000000000001
30
0
0
VERTEX
8
0
10
25.149587500000003
20
12.507000000000001
30
0
0
VERTEX
8
0
10
25.146934375
20
12.508659375
30
0
42
0.8075023748221424
0
VERTEX
8
0
10
24.15800625
20
11.394396875
30
0
0
VERTEX
8
0
10
24.20128125
20
11.340665625
30
0
0
VERTEX
8
0
10
24.233684375000003
20
11.306184375
30
0
0
VERTEX
8
0
10
24.333684375
20
11.206184375000001
30
0
42
0.182820162799453
0
VERTEX
8
0
10
24.82520625
20
10.984468750000001
30
0
0
VERTEX
8
0
10
24.825809375000002
20
10.98445
30
0
0
VERTEX
8
0
10
24.826190625000002
20
10.984409375
30
0
0
VERTEX
8
0
10
24.828046875000002
20
10.98438125
30
0
0
VERTEX
8
0
10
24.872500000000002
20
10.983
30
0
0
VERTEX
8
0
10
27.94
20
10.983
30
0
0
VERTEX
8
0
10
27.951340625
20
10.9835125
30
0
42
0.1329110867345116
0
VERTEX
8
0
10
28.334015625000003
20
11.092778125
30
0
0
VERTEX
8
0
10
28.337343750000002
20
11.095
30
0
0
VERTEX
8
0
10
28.558346875
20
11.095
30
0
0
VERTEX
8
0
10
28.597275
20
11.10274375
30
0
0
VERTEX
8
0
10
28.633946875000003
20
11.117934375
30
0
0
VERTEX
8
0
10
28.66695
20
11.139984375000001
30
0
0
VERTEX
8
0
10
28.695015625
20
11.168050000000001
30
0
0
VERTEX
8
0
10
28.717065625
20
11.201053125000001
30
0
0
VERTEX
8
0
10
28.732256250000002
20
11.237725000000001
30
0
0
VERTEX
8
0
10
28.740000000000002
20
11.276653125000001
30
0
0
VERTEX
8
0
10
28.740000000000002
20
12.213346875000001
30
0
0
VERTEX
8
0
10
28.732256250000002
20
12.252275000000001
30
0
0
VERTEX
8
0
10
28.717065625
20
12.288946875
30
0
0
VERTEX
8
0
10
28.702
20
12.311496875000001
30
0
0
VERTEX
8
0
10
28.702
20
13.268500000000001
30
0
0
VERTEX
8
0
10
32.7791875
20
13.268500000000001
30
0
0
VERTEX
8
0
10
32.81326875
20
13.270043750000001
30
0
0
VERTEX
8
0
10
32.847128125000005
20
13.271534375
30
0
42
0.11403010718922836
0
VERTEX
8
0
10
33.173203125
20
13.378278125000001
30
0
0
VERTEX
8
0
10
33.199875
20
13.3960875
30
0
0
VERTEX
8
0
10
33.229790625
20
13.41600625
30
0
0
VERTEX
8
0
10
33.2302
20
13.416337500000001
30
0
0
VERTEX
8
0
10
33.23058125
20
13.416590625000001
30
0
42
0.022323751848733576
0
VERTEX
8
0
10
33.283521875
20
13.45928125
30
0
0
VERTEX
8
0
10
33.28395625
20
13.459690625
30
0
0
VERTEX
8
0
10
33.284259375000005
20
13.459934375000001
30
0
0
VERTEX
8
0
10
33.28560625
20
13.461237500000001
30
0
0
VERTEX
8
0
10
33.318003125000004
20
13.491684375
30
0
0
VERTEX
8
0
10
35.273315625
20
15.446996875
30
0
0
VERTEX
8
0
10
35.2966375
20
15.472534375
30
0
0
VERTEX
8
0
10
35.3192125
20
15.497184375000002
30
0
42
0.15984383596272408
0
VERTEX
8
0
10
35.495031250000004
20
15.93851875
30
0
0
VERTEX
8
0
10
35.49505
20
15.939121875000001
30
0
0
VERTEX
8
0
10
35.495090625
20
15.939503125
30
0
0
VERTEX
8
0
10
35.49511875
20
15.941359375000001
30
0
0
VERTEX
8
0
10
35.496500000000005
20
15.985812500000002
30
0
0
VERTEX
8
0
10
35.496500000000005
20
20.76636875
30
0
0
VERTEX
8
0
10
38.09813125
20
23.368000000000002
30
0
0
VERTEX
8
0
10
59.42115625
20
23.368000000000002
30
0
0
VERTEX
8
0
10
61.785500000000006
20
21.003656250000002
30
0
0
VERTEX
8
0
10
61.785500000000006
20
14.287500000000001
30
0
0
VERTEX
8
0
10
61.787103125
20
14.2521
30
0
0
VERTEX
8
0
10
61.788534375000005
20
14.219559375000001
30
0
42
0.11403010718922836
0
VERTEX
8
0
10
61.895278125000004
20
13.893484375
30
0
0
VERTEX
8
0
10
61.9130875
20
13.8668125
30
0
0
VERTEX
8
0
10
61.933006250000005
20
13.836896875
30
0
0
VERTEX
8
0
10
61.9333375
20
13.8364875
30
0
0
VERTEX
8
0
10
61.933590625
20
13.83610625
30
0
42
0.022323751848733576
0
VERTEX
8
0
10
61.97628125
20
13.783165625
30
0
0
VERTEX
8
0
10
61.976690625
20
13.782731250000001
30
0
0
VERTEX
8
0
10
61.976934375000006
20
13.782428125000001
30
0
0
VERTEX
8
0
10
61.978237500000006
20
13.781081250000002
30
0
0
VERTEX
8
0
10
62.008684375
20
13.748684375
30
0
0
VERTEX
8
0
10
62.64368437500001
20
13.113684375
30
0
0
VERTEX
8
0
10
62.669221875000005
20
13.090362500000001
30
0
0
VERTEX
8
0
10
62.693871875000006
20
13.067787500000001
30
0
42
0.15984383596272408
0
VERTEX
8
0
10
63.13520625
20
12.89196875
30
0
0
VERTEX
8
0
10
63.135809375
20
12.891950000000001
30
0
0
VERTEX
8
0
10
63.136190625000005
20
12.891909375000001
30
0
0
VERTEX
8
0
10
63.138046875
20
12.89188125
30
0
0
VERTEX
8
0
10
63.182500000000005
20
12.890500000000001
30
0
0
VERTEX
8
0
10
65.010321875
20
12.890500000000001
30
0
0
VERTEX
8
0
10
65.057615625
20
12.863196875
30
0
42
0.10951730635510627
0
VERTEX
8
0
10
65.42968437500001
20
12.7635
30
0
0
VERTEX
8
0
10
67.28531562500001
20
12.7635
30
0
0
VERTEX
8
0
10
67.36264687500001
20
12.770265625
30
0
42
0.916331393922359
0
VERTEX
8
0
10
67.28531562500001
20
14.541500000000001
30
0
0
VERTEX
8
0
10
65.42968437500001
20
14.541500000000001
30
0
0
VERTEX
8
0
10
65.35235312500001
20
14.534734375000001
30
0
42
0.08748887291847965
0
VERTEX
8
0
10
65.057615625
20
14.441803125
30
0
0
VERTEX
8
0
10
65.010321875
20
14.4145
30
0
0
VERTEX
8
0
10
63.49813125
20
14.4145
30
0
0
VERTEX
8
0
10
63.3095
20
14.60313125
30
0
0
VERTEX
8
0
10
63.3095
20
21.3192875
30
0
0
VERTEX
8
0
10
63.307956250000004
20
21.35336875
30
0
0
VERTEX
8
0
10
63.306465625
20
21.387228125
30
0
42
0.11403010718922836
0
VERTEX
8
0
10
63.199721875
20
21.713303125
30
0
0
VERTEX
8
0
10
63.1819125
20
21.739975
30
0
0
VERTEX
8
0
10
63.16199375
20
21.769890625000002
30
0
0
VERTEX
8
0
10
63.161662500000006
20
21.770300000000002
30
0
0
VERTEX
8
0
10
63.161409375000005
20
21.770681250000003
30
0
42
0.022323751848733576
0
VERTEX
8
0
10
63.118718750000006
20
21.823621875
30
0
0
VERTEX
8
0
10
63.118309375
20
21.82405625
30
0
0
VERTEX
8
0
10
63.118065625
20
21.824359375
30
0
0
VERTEX
8
0
10
63.1167625
20
21.82570625
30
0
0
VERTEX
8
0
10
63.086315625000005
20
21.858103125
30
0
0
VERTEX
8
0
10
60.275603125
20
24.668815625
30
0
0
VERTEX
8
0
10
60.250065625000005
20
24.6921375
30
0
0
VERTEX
8
0
10
60.225415625000004
20
24.7147125
30
0
42
0.15984383596272408
0
VERTEX
8
0
10
59.78408125
20
24.890531250000002
30
0
0
VERTEX
8
0
10
59.783478125
20
24.89055
30
0
0
VERTEX
8
0
10
59.783096875000005
20
24.890590625
30
0
0
VERTEX
8
0
10
59.781240625
20
24.89061875
30
0
0
VERTEX
8
0
10
59.736787500000005
20
24.892
30
0
0
VERTEX
8
0
10
37.7825
20
24.892
30
0
0
SEQEND
0
POLYLINE
66
1
8
16_copper
10
0.0
20
0.0
30
0.0
70
1
0
VERTEX
8
0
10
67.23144375
20
12.897837500000001
30
0
42
0.9063472543261978
0
VERTEX
8
0
10
67.156934375
20
14.4145
30
0
0
VERTEX
8
0
10
65.558065625
20
14.4145
30
0
0
VERTEX
8
0
10
65.48355625
20
14.4071625
30
0
42
0.9063472543261978
0
VERTEX
8
0
10
65.558065625
20
12.890500000000001
30
0
0
VERTEX
8
0
10
67.156934375
20
12.890500000000001
30
0
0
SEQEND
0
POLYLINE
66
1
8
1_copper
10
0.0
20
0.0
30
0.0
70
1
0
VERTEX
8
0
10
35.71341875
20
27.30045625
30
0
0
VERTEX
8
0
10
35.679559375000004
20
27.298965625
30
0
42
0.11403010718922836
0
VERTEX
8
0
10
35.353484375
20
27.192221875
30
0
0
VERTEX
8
0
10
35.3268125
20
27.174412500000003
30
0
0
VERTEX
8
0
10
35.296896875
20
27.15449375
30
0
0
VERTEX
8
0
10
35.296487500000005
20
27.1541625
30
0
0
VERTEX
8
0
10
35.29610625
20
27.153909375
30
0
42
0.022323751848733576
0
VERTEX
8
0
10
35.243165625
20
27.111218750000003
30
0
0
VERTEX
8
0
10
35.24273125
20
27.110809375000002
30
0
0
VERTEX
8
0
10
35.242428125
20
27.110565625
30
0
0
VERTEX
8
0
10
35.24108125
20
27.1092625
30
0
0
VERTEX
8
0
10
35.208684375000004
20
27.078815625
30
0
0
VERTEX
8
0
10
32.163684375
20
24.033815625000003
30
0
0
VERTEX
8
0
10
32.1403625
20
24.008278125
30
0
0
VERTEX
8
0
10
32.1177875
20
23.983628125000003
30
0
42
0.15984383596272408
0
VERTEX
8
0
10
31.94196875
20
23.542293750000002
30
0
0
VERTEX
8
0
10
31.941950000000002
20
23.541690625
30
0
0
VERTEX
8
0
10
31.941909375
20
23.541309375
30
0
0
VERTEX
8
0
10
31.94188125
20
23.539453125
30
0
0
VERTEX
8
0
10
31.9405
20
23.495
30
0
0
VERTEX
8
0
10
31.9405
20
17.14313125
30
0
0
VERTEX
8
0
10
31.62186875
20
16.8245
30
0
0
VERTEX
8
0
10
30.445040625
20
16.8245
30
0
0
VERTEX
8
0
10
30.422234375000002
20
16.839737500000002
30
0
0
VERTEX
8
0
10
30.3858375
20
16.854815625
30
0
0
VERTEX
8
0
10
30.347196875
20
16.8625
30
0
0
VERTEX
8
0
10
28.707803125
20
16.8625
30
0
0
VERTEX
8
0
10
28.669162500000002
20
16.854815625
30
0
0
VERTEX
8
0
10
28.632765625
20
16.839737500000002
30
0
0
VERTEX
8
0
10
28.609959375000003
20
16.8245
30
0
0
VERTEX
8
0
10
26.317540625000003
20
16.8245
30
0
0
VERTEX
8
0
10
26.294734375
20
16.839737500000002
30
0
0
VERTEX
8
0
10
26.2583375
20
16.854815625
30
0
0
VERTEX
8
0
10
26.219696875
20
16.8625
30
0
0
VERTEX
8
0
10
24.580303125
20
16.8625
30
0
0
VERTEX
8
0
10
24.5416625
20
16.854815625
30
0
0
VERTEX
8
0
10
24.505265625
20
16.839737500000002
30
0
0
VERTEX
8
0
10
24.472506250000002
20
16.81785
30
0
0
VERTEX
8
0
10
24.444650000000003
20
16.78999375
30
0
0
VERTEX
8
0
10
24.440900000000003
20
16.78438125
30
0
0
VERTEX
8
0
10
24.413353125
20
16.775384375
30
0
42
0.045640898310215984
0
VERTEX
8
0
10
24.288484375
20
16.714721875000002
30
0
0
VERTEX
8
0
10
24.2618125
20
16.6969125
30
0
0
VERTEX
8
0
10
24.231896875
20
16.67699375
30
0
0
VERTEX
8
0
10
24.2314875
20
16.6766625
30
0
0
VERTEX
8
0
10
24.23110625
20
16.676409375000002
30
0
42
0.022323751848733576
0
VERTEX
8
0
10
24.178165625000002
20
16.63371875
30
0
0
VERTEX
8
0
10
24.17773125
20
16.633309375
30
0
0
VERTEX
8
0
10
24.177428125000002
20
16.633065625
30
0
0
VERTEX
8
0
10
24.176081250000003
20
16.6317625
30
0
0
VERTEX
8
0
10
24.143684375
20
16.601315625
30
0
0
VERTEX
8
0
10
22.313684375
20
14.771315625000002
30
0
0
VERTEX
8
0
10
22.2903625
20
14.745778125000001
30
0
0
VERTEX
8
0
10
22.2677875
20
14.721128125
30
0
42
0.15984383596272408
0
VERTEX
8
0
10
22.09196875
20
14.279793750000001
30
0
0
VERTEX
8
0
10
22.09195
20
14.279190625
30
0
0
VERTEX
8
0
10
22.091909375
20
14.278809375
30
0
0
VERTEX
8
0
10
22.09188125
20
14.276953125
30
0
0
VERTEX
8
0
10
22.090500000000002
20
14.2325
30
0
0
VERTEX
8
0
10
22.090500000000002
20
12.7795
30
0
0
VERTEX
8
0
10
20.32
20
12.7795
30
0
0
VERTEX
8
0
10
20.251078125
20
12.776378125
30
0
42
0.11370270732236455
0
VERTEX
8
0
10
19.925984375000002
20
12.669721875
30
0
0
VERTEX
8
0
10
19.92265625
20
12.6675
30
0
0
VERTEX
8
0
10
19.701653125
20
12.6675
30
0
0
VERTEX
8
0
10
19.662725000000002
20
12.659756250000001
30
0
0
VERTEX
8
0
10
19.626053125000002
20
12.644565625
30
0
0
VERTEX
8
0
10
19.59305
20
12.622515625
30
0
0
VERTEX
8
0
10
19.564984375
20
12.59445
30
0
0
VERTEX
8
0
10
19.542934375
20
12.561446875000001
30
0
0
VERTEX
8
0
10
19.527743750000003
20
12.524775
30
0
0
VERTEX
8
0
10
19.52
20
12.485846875
30
0
0
VERTEX
8
0
10
19.52
20
11.549153125
30
0
0
VERTEX
8
0
10
19.527743750000003
20
11.510225
30
0
0
VERTEX
8
0
10
19.542934375
20
11.473553125
30
0
0
VERTEX
8
0
10
19.564984375
20
11.44055
30
0
0
VERTEX
8
0
10
19.59305
20
11.412484375
30
0
0
VERTEX
8
0
10
19.626053125000002
20
11.390434375
30
0
0
VERTEX
8
0
10
19.662725000000002
20
11.375243750000001
30
0
0
VERTEX
8
0
10
19.701653125
20
11.3675
30
0
0
VERTEX
8
0
10
19.923706250000002
20
11.3675
30
0
0
VERTEX
8
0
10
19.944709375000002
20
11.354325000000001
30
0
42
0.11370201830601007
0
VERTEX
8
0
10
20.272706250000002
20
11.25696875
30
0
0
VERTEX
8
0
10
20.32
20
11.255500000000001
30
0
0
VERTEX
8
0
10
22.3701
20
11.255500000000001
30
0
0
VERTEX
8
0
10
22.373684375
20
11.252778125
30
0
0
VERTEX
8
0
10
22.3822625
20
11.2454
30
0
42
0.6041138548128641
0
VERTEX
8
0
10
23.613031250000002
20
11.797706250000001
30
0
0
VERTEX
8
0
10
23.614409375
20
11.84205
30
0
0
VERTEX
8
0
10
23.6145
20
11.844015625
30
0
0
VERTEX
8
0
10
23.61448125
20
11.844421875
30
0
0
VERTEX
8
0
10
23.6145
20
11.845
30
0
0
VERTEX
8
0
10
23.6145
20
13.91686875
30
0
0
VERTEX
8
0
10
24.96013125
20
15.262500000000001
30
0
0
VERTEX
8
0
10
26.219696875
20
15.262500000000001
30
0
0
VERTEX
8
0
10
26.2583375
20
15.270184375000001
30
0
0
VERTEX
8
0
10
26.294734375
20
15.2852625
30
0
0
VERTEX
8
0
10
26.317540625000003
20
15.300500000000001
30
0
0
VERTEX
8
0
10
28.609959375000003
20
15.300500000000001
30
0
0
VERTEX
8
0
10
28.632765625
20
15.2852625
30
0
0
VERTEX
8
0
10
28.669162500000002
20
15.270184375000001
30
0
0
VERTEX
8
0
10
28.707803125
20
15.262500000000001
30
0
0
VERTEX
8
0
10
30.347196875
20
15.262500000000001
30
0
0
VERTEX
8
0
10
30.3858375
20
15.270184375000001
30
0
0
VERTEX
8
0
10
30.422234375000002
20
15.2852625
30
0
0
VERTEX
8
0
10
30.445040625
20
15.300500000000001
30
0
0
VERTEX
8
0
10
31.9375
20
15.300500000000001
30
0
0
VERTEX
8
0
10
31.97158125
20
15.302043750000001
30
0
0
VERTEX
8
0
10
32.005440625
20
15.303534375
30
0
42
0.11403010718922836
0
VERTEX
8
0
10
32.331515625
20
15.410278125000001
30
0
0
VERTEX
8
0
10
32.3581875
20
15.4280875
30
0
0
VERTEX
8
0
10
32.388103125
20
15.44800625
30
0
0
VERTEX
8
0
10
32.388512500000004
20
15.448337500000001
30
0
0
VERTEX
8
0
10
32.38889375
20
15.448590625000001
30
0
42
0.022323751848733576
0
VERTEX
8
0
10
32.441834375
20
15.49128125
30
0
0
VERTEX
8
0
10
32.442268750000004
20
15.491690625
30
0
0
VERTEX
8
0
10
32.442571875
20
15.491934375000001
30
0
0
VERTEX
8
0
10
32.44391875
20
15.493237500000001
30
0
0
VERTEX
8
0
10
32.476315625
20
15.523684375
30
0
0
VERTEX
8
0
10
33.241315625
20
16.288684375000003
30
0
0
VERTEX
8
0
10
33.2646375
20
16.314221875
30
0
0
VERTEX
8
0
10
33.2872125
20
16.338871875000002
30
0
42
0.15984383596272408
0
VERTEX
8
0
10
33.46303125
20
16.78020625
30
0
0
VERTEX
8
0
10
33.46305
20
16.780809375
30
0
0
VERTEX
8
0
10
33.463090625
20
16.781190625
30
0
0
VERTEX
8
0
10
33.46311875
20
16.783046875
30
0
0
VERTEX
8
0
10
33.4645
20
16.8275
30
0
0
VERTEX
8
0
10
33.4645
20
23.179368750000002
30
0
0
VERTEX
8
0
10
36.063131250000005
20
25.778000000000002
30
0
0
VERTEX
8
0
10
60.13936875
20
25.778000000000002
30
0
0
VERTEX
8
0
10
65.5955
20
20.32186875
30
0
0
VERTEX
8
0
10
65.5955
20
19.6215
30
0
0
VERTEX
8
0
10
65.42968437500001
20
19.6215
30
0
42
0.9572906161637668
0
VERTEX
8
0
10
65.42968437500001
20
17.843500000000002
30
0
0
VERTEX
8
0
10
67.28531562500001
20
17.843500000000002
30
0
0
VERTEX
8
0
10
67.36264687500001
20
17.850265625000002
30
0
42
0.916331393922359
0
VERTEX
8
0
10
67.28531562500001
20
19.6215
30
0
0
VERTEX
8
0
10
67.1195
20
19.6215
30
0
0
VERTEX
8
0
10
67.1195
20
20.6375
30
0
0
VERTEX
8
0
10
67.11795625
20
20.671581250000003
30
0
0
VERTEX
8
0
10
67.116465625
20
20.705440625
30
0
42
0.11403010718922836
0
VERTEX
8
0
10
67.009721875
20
21.031515625
30
0
0
VERTEX
8
0
10
66.9919125
20
21.058187500000003
30
0
0
VERTEX
8
0
10
66.97199375000001
20
21.088103125
30
0
0
VERTEX
8
0
10
66.97166250000001
20
21.0885125
30
0
0
VERTEX
8
0
10
66.97140937500001
20
21.08889375
30
0
42
0.022323751848733576
0
VERTEX
8
0
10
66.92871875
20
21.141834375000002
30
0
0
VERTEX
8
0
10
66.928309375
20
21.14226875
30
0
0
VERTEX
8
0
10
66.928065625
20
21.142571875
30
0
0
VERTEX
8
0
10
66.92676250000001
20
21.14391875
30
0
0
VERTEX
8
0
10
66.896315625
20
21.176315625
30
0
0
VERTEX
8
0
10
60.993815625
20
27.078815625
30
0
0
VERTEX
8
0
10
60.968278125000005
20
27.1021375
30
0
0
VERTEX
8
0
10
60.943628125000004
20
27.1247125
30
0
42
0.15984383596272408
0
VERTEX
8
0
10
60.50229375
20
27.300531250000002
30
0
0
VERTEX
8
0
10
60.501690625
20
27.30055
30
0
0
VERTEX
8
0
10
60.501309375000005
20
27.300590625
30
0
0
VERTEX
8
0
10
60.499453125
20
27.30061875
30
0
0
VERTEX
8
0
10
60.455000000000005
20
27.302
30
0
0
VERTEX
8
0
10
35.7475
20
27.302
30
0
0
SEQEND
0
POLYLINE
66
1
8
16_copper
10
0.0
20
0.0
30
0.0
70
1
0
VERTEX
8
0
10
67.23144375
20
17.9778375
30
0
42
0.9063472543261978
0
VERTEX
8
0
10
67.156934375
20
19.494500000000002
30
0
0
VERTEX
8
0
10
65.558065625
20
19.494500000000002
30
0
0
VERTEX
8
0
10
65.48355625
20
19.4871625
30
0
42
0.9063472543261978
0
VERTEX
8
0
10
65.558065625
20
17.9705
30
0
0
VERTEX
8
0
10
67.156934375
20
17.9705
30
0
0
SEQEND
0
POLYLINE
66
1
8
1_copper
10
0.0
20
0.0
30
0.0
70
1
0
VERTEX
8
0
10
64.10341875
20
7.74545625
30
0
0
VERTEX
8
0
10
64.069559375
20
7.743965625
30
0
42
0.11378954811208465
0
VERTEX
8
0
10
63.743484375
20
7.637221875000001
30
0
0
VERTEX
8
0
10
63.7364125
20
7.6325
30
0
0
VERTEX
8
0
10
63.516653125000005
20
7.6325
30
0
0
VERTEX
8
0
10
63.477725
20
7.624756250000001
30
0
0
VERTEX
8
0
10
63.441053125
20
7.609565625
30
0
0
VERTEX
8
0
10
63.40805
20
7.587515625
30
0
0
VERTEX
8
0
10
63.37998437500001
20
7.55945
30
0
0
VERTEX
8
0
10
63.357934375000006
20
7.526446875
30
0
0
VERTEX
8
0
10
63.342743750000004
20
7.489775000000001
30
0
0
VERTEX
8
0
10
63.335
20
7.450846875000001
30
0
0
VERTEX
8
0
10
63.335
20
6.514153125
30
0
0
VERTEX
8
0
10
63.342743750000004
20
6.475225
30
0
0
VERTEX
8
0
10
63.357934375000006
20
6.438553125
30
0
0
VERTEX
8
0
10
63.37998437500001
20
6.405550000000001
30
0
0
VERTEX
8
0
10
63.40805
20
6.377484375
30
0
0
VERTEX
8
0
10
63.441053125
20
6.355434375000001
30
0
0
VERTEX
8
0
10
63.477725
20
6.34024375
30
0
0
VERTEX
8
0
10
63.516653125000005
20
6.3325000000000005
30
0
0
VERTEX
8
0
10
63.737584375000004
20
6.3325000000000005
30
0
0
VERTEX
8
0
10
63.740140625
20
6.3307875000000005
30
0
42
0.13670205749839265
0
VERTEX
8
0
10
64.134015625
20
6.2205
30
0
0
VERTEX
8
0
10
64.190803125
20
6.223
30
0
0
VERTEX
8
0
10
66.32345000000001
20
6.223
30
0
0
VERTEX
8
0
10
66.34885
20
6.1976
30
0
0
VERTEX
8
0
10
67.00115000000001
20
6.1976
30
0
0
VERTEX
8
0
10
67.4624
20
6.65885
30
0
0
VERTEX
8
0
10
67.4624
20
7.3111500000000005
30
0
0
VERTEX
8
0
10
67.00115000000001
20
7.7724
30
0
0
VERTEX
8
0
10
66.34885
20
7.7724
30
0
0
VERTEX
8
0
10
66.32345000000001
20
7.747000000000001
30
0
0
VERTEX
8
0
10
64.1375
20
7.747000000000001
30
0
0
SEQEND
0
POLYLINE
66
1
8
16_copper
10
0.0
20
0.0
30
0.0
70
1
0
VERTEX
8
0
10
67.3354
20
6.71145625
30
0
0
VERTEX
8
0
10
67.3354
20
7.25854375
30
0
0
VERTEX
8
0
10
66.94854375
20
7.6454
30
0
0
VERTEX
8
0
10
66.40145625000001
20
7.6454
30
0
0
VERTEX
8
0
10
66.0146
20
7.25854375
30
0
0
VERTEX
8
0
10
66.0146
20
6.71145625
30
0
0
VERTEX
8
0
10
66.40145625000001
20
6.3246
30
0
0
VERTEX
8
0
10
66.94854375
20
6.3246
30
0
0
SEQEND
0
POLYLINE
66
1
8
1_copper
10
0.0
20
0.0
30
0.0
70
1
0
VERTEX
8
0
10
59.33841875
20
11.872956250000001
30
0
0
VERTEX
8
0
10
59.304559375000004
20
11.871465625
30
0
42
0.11403010718922836
0
VERTEX
8
0
10
58.978484375
20
11.764721875000001
30
0
0
VERTEX
8
0
10
58.9518125
20
11.7469125
30
0
0
VERTEX
8
0
10
58.921896875
20
11.72699375
30
0
0
VERTEX
8
0
10
58.921487500000005
20
11.7266625
30
0
0
VERTEX
8
0
10
58.92110625
20
11.726409375000001
30
0
42
0.022323751848733576
0
VERTEX
8
0
10
58.868165625
20
11.68371875
30
0
0
VERTEX
8
0
10
58.867731250000006
20
11.683309375
30
0
0
VERTEX
8
0
10
58.867428125
20
11.683065625000001
30
0
0
VERTEX
8
0
10
58.86608125
20
11.681762500000001
30
0
0
VERTEX
8
0
10
58.833684375000004
20
11.651315625
30
0
0
VERTEX
8
0
10
58.358368750000004
20
11.176
30
0
0
VERTEX
8
0
10
57.359640625000004
20
11.176
30
0
0
VERTEX
8
0
10
57.271259375
20
11.168268750000001
30
0
42
0.9163314512321996
0
VERTEX
8
0
10
57.359640625000004
20
9.144
30
0
0
VERTEX
8
0
10
57.658
20
9.144
30
0
0
VERTEX
8
0
10
57.658
20
8.636000000000001
30
0
0
VERTEX
8
0
10
57.359640625000004
20
8.636000000000001
30
0
0
VERTEX
8
0
10
57.271259375
20
8.62826875
30
0
42
0.9163314512321996
0
VERTEX
8
0
10
57.359640625000004
20
6.604
30
0
0
VERTEX
8
0
10
59.480359375000006
20
6.604
30
0
0
VERTEX
8
0
10
59.568740625000004
20
6.61173125
30
0
42
0.9163314512321996
0
VERTEX
8
0
10
59.480359375000006
20
8.636000000000001
30
0
0
VERTEX
8
0
10
59.182
20
8.636000000000001
30
0
0
VERTEX
8
0
10
59.182
20
9.144
30
0
0
VERTEX
8
0
10
59.480359375000006
20
9.144
30
0
0
VERTEX
8
0
10
59.568740625000004
20
9.151731250000001
30
0
42
0.41421356237309503
0
VERTEX
8
0
10
60.444268750000006
20
10.292740625
30
0
0
VERTEX
8
0
10
60.434084375000005
20
10.3505
30
0
0
VERTEX
8
0
10
65.010321875
20
10.3505
30
0
0
VERTEX
8
0
10
65.057615625
20
10.323196875
30
0
42
0.10951730635510627
0
VERTEX
8
0
10
65.42968437500001
20
10.223500000000001
30
0
0
VERTEX
8
0
10
66.16886875
20
10.223500000000001
30
0
0
VERTEX
8
0
10
68.676184375
20
7.716184375
30
0
0
VERTEX
8
0
10
68.72712812500001
20
7.66965625
30
0
0
VERTEX
8
0
10
68.76065
20
7.6442000000000005
30
0
0
VERTEX
8
0
10
68.4276
20
7.3111500000000005
30
0
0
VERTEX
8
0
10
68.4276
20
6.65885
30
0
0
VERTEX
8
0
10
68.88885
20
6.1976
30
0
0
VERTEX
8
0
10
69.54115
20
6.1976
30
0
0
VERTEX
8
0
10
70.00240000000001
20
6.65885
30
0
0
VERTEX
8
0
10
70.00240000000001
20
7.3111500000000005
30
0
0
VERTEX
8
0
10
69.66944375
20
7.64410625
30
0
0
VERTEX
8
0
10
69.68446250000001
20
7.6547937500000005
30
0
42
0.43175566387640385
0
VERTEX
8
0
10
69.78621875
20
8.759334375
30
0
0
VERTEX
8
0
10
69.753815625
20
8.793815625
30
0
0
VERTEX
8
0
10
67.9625
20
10.58513125
30
0
0
VERTEX
8
0
10
67.99699062500001
20
10.634384375
30
0
42
0.577349993335251
0
VERTEX
8
0
10
67.28531562500001
20
12.0015
30
0
0
VERTEX
8
0
10
65.42968437500001
20
12.0015
30
0
0
VERTEX
8
0
10
65.35235312500001
20
11.994734375
30
0
42
0.08748887291847965
0
VERTEX
8
0
10
65.057615625
20
11.901803125
30
0
0
VERTEX
8
0
10
65.010321875
20
11.874500000000001
30
0
0
VERTEX
8
0
10
59.3725
20
11.874500000000001
30
0
0
SEQEND
0
POLYLINE
66
1
8
16_copper
10
0.0
20
0.0
30
0.0
70
1
0
VERTEX
8
0
10
67.23144375
20
10.3578375
30
0
42
0.9063472543261978
0
VERTEX
8
0
10
67.156934375
20
11.874500000000001
30
0
0
VERTEX
8
0
10
65.558065625
20
11.874500000000001
30
0
0
VERTEX
8
0
10
65.48355625
20
11.867162500000001
30
0
42
0.9063472543261978
0
VERTEX
8
0
10
65.558065625
20
10.3505
30
0
0
VERTEX
8
0
10
67.156934375
20
10.3505
30
0
0
SEQEND
0
POLYLINE
66
1
8
16_copper
10
0.0
20
0.0
30
0.0
70
1
0
VERTEX
8
0
10
59.568740625000004
20
9.151731250000001
30
0
42
0.9163314512321996
0
VERTEX
8
0
10
59.480359375000006
20
11.176
30
0
0
VERTEX
8
0
10
57.359640625000004
20
11.176
30
0
0
VERTEX
8
0
10
57.271259375
20
11.168268750000001
30
0
42
0.9163314512321996
0
VERTEX
8
0
10
57.359640625000004
20
9.144
30
0
0
VERTEX
8
0
10
59.480359375000006
20
9.144
30
0
0
SEQEND
0
POLYLINE
66
1
8
16_copper
10
0.0
20
0.0
30
0.0
70
1
0
VERTEX
8
0
10
59.568740625000004
20
6.61173125
30
0
42
0.9163314512321996
0
VERTEX
8
0
10
59.480359375000006
20
8.636000000000001
30
0
0
VERTEX
8
0
10
57.359640625000004
20
8.636000000000001
30
0
0
VERTEX
8
0
10
57.271259375
20
8.62826875
30
0
42
0.9163314512321996
0
VERTEX
8
0
10
57.359640625000004
20
6.604
30
0
0
VERTEX
8
0
10
59.480359375000006
20
6.604
30
0
0
SEQEND
0
POLYLINE
66
1
8
16_copper
10
0.0
20
0.0
30
0.0
70
1
0
VERTEX
8
0
10
69.8754
20
6.71145625
30
0
0
VERTEX
8
0
10
69.8754
20
7.25854375
30
0
0
VERTEX
8
0
10
69.48854375
20
7.6454
30
0
0
VERTEX
8
0
10
68.94145625
20
7.6454
30
0
0
VERTEX
8
0
10
68.55460000000001
20
7.25854375
30
0
0
VERTEX
8
0
10
68.55460000000001
20
6.71145625
30
0
0
VERTEX
8
0
10
68.94145625
20
6.3246
30
0
0
VERTEX
8
0
10
69.48854375
20
6.3246
30
0
0
SEQEND
0
POLYLINE
66
1
8
1_copper
10
0.0
20
0.0
30
0.0
70
1
0
VERTEX
8
0
10
20.388921875
20
13.163621875
30
0
42
0.15984401522484898
0
VERTEX
8
0
10
20.825071875000003
20
13.351934375
30
0
0
VERTEX
8
0
10
20.841128125
20
13.367500000000001
30
0
0
VERTEX
8
0
10
20.938346875
20
13.367500000000001
30
0
0
VERTEX
8
0
10
20.977275000000002
20
13.375243750000001
30
0
0
VERTEX
8
0
10
21.013946875000002
20
13.390434375
30
0
0
VERTEX
8
0
10
21.046950000000002
20
13.412484375
30
0
0
VERTEX
8
0
10
21.075015625000002
20
13.44055
30
0
0
VERTEX
8
0
10
21.097065625000003
20
13.473553125
30
0
0
VERTEX
8
0
10
21.11225625
20
13.510225
30
0
0
VERTEX
8
0
10
21.12
20
13.549153125
30
0
0
VERTEX
8
0
10
21.12
20
14.485846875
30
0
0
VERTEX
8
0
10
21.11225625
20
14.524775
30
0
0
VERTEX
8
0
10
21.097065625000003
20
14.561446875000001
30
0
0
VERTEX
8
0
10
21.082
20
14.583996875
30
0
0
VERTEX
8
0
10
21.082
20
18.09936875
30
0
0
VERTEX
8
0
10
23.49313125
20
20.5105
30
0
0
VERTEX
8
0
10
24.638
20
20.5105
30
0
0
VERTEX
8
0
10
24.638
20
19.6625
30
0
0
VERTEX
8
0
10
24.580303125
20
19.6625
30
0
0
VERTEX
8
0
10
24.5416625
20
19.654815625
30
0
0
VERTEX
8
0
10
24.505265625
20
19.639737500000003
30
0
0
VERTEX
8
0
10
24.472506250000002
20
19.61785
30
0
0
VERTEX
8
0
10
24.444650000000003
20
19.58999375
30
0
0
VERTEX
8
0
10
24.4227625
20
19.557234375
30
0
0
VERTEX
8
0
10
24.407684375000002
20
19.520837500000003
30
0
0
VERTEX
8
0
10
24.400000000000002
20
19.482196875
30
0
0
VERTEX
8
0
10
24.400000000000002
20
18.242803125000002
30
0
0
VERTEX
8
0
10
24.407684375000002
20
18.204162500000002
30
0
0
VERTEX
8
0
10
24.4227625
20
18.167765625
30
0
0
VERTEX
8
0
10
24.444650000000003
20
18.13500625
30
0
0
VERTEX
8
0
10
24.472506250000002
20
18.10715
30
0
0
VERTEX
8
0
10
24.505265625
20
18.085262500000002
30
0
0
VERTEX
8
0
10
24.5416625
20
18.070184375
30
0
0
VERTEX
8
0
10
24.580303125
20
18.0625
30
0
0
VERTEX
8
0
10
26.219696875
20
18.0625
30
0
0
VERTEX
8
0
10
26.2583375
20
18.070184375
30
0
0
VERTEX
8
0
10
26.294734375
20
18.085262500000002
30
0
0
VERTEX
8
0
10
26.327493750000002
20
18.10715
30
0
0
VERTEX
8
0
10
26.35535
20
18.13500625
30
0
0
VERTEX
8
0
10
26.3772375
20
18.167765625
30
0
0
VERTEX
8
0
10
26.392315625000002
20
18.204162500000002
30
0
0
VERTEX
8
0
10
26.400000000000002
20
18.242803125000002
30
0
0
VERTEX
8
0
10
26.400000000000002
20
19.482196875
30
0
0
VERTEX
8
0
10
26.392315625000002
20
19.520837500000003
30
0
0
VERTEX
8
0
10
26.3772375
20
19.557234375
30
0
0
VERTEX
8
0
10
26.35535
20
19.58999375
30
0
0
VERTEX
8
0
10
26.327493750000002
20
19.61785
30
0
0
VERTEX
8
0
10
26.294734375
20
19.639737500000003
30
0
0
VERTEX
8
0
10
26.2583375
20
19.654815625
30
0
0
VERTEX
8
0
10
26.219696875
20
19.6625
30
0
0
VERTEX
8
0
10
26.162000000000003
20
19.6625
30
0
0
VERTEX
8
0
10
26.162000000000003
20
20.5105
30
0
0
VERTEX
8
0
10
28.765500000000003
20
20.5105
30
0
0
VERTEX
8
0
10
28.765500000000003
20
19.6625
30
0
0
VERTEX
8
0
10
28.707803125
20
19.6625
30
0
0
VERTEX
8
0
10
28.669162500000002
20
19.654815625
30
0
0
VERTEX
8
0
10
28.632765625
20
19.639737500000003
30
0
0
VERTEX
8
0
10
28.60000625
20
19.61785
30
0
0
VERTEX
8
0
10
28.57215
20
19.58999375
30
0
0
VERTEX
8
0
10
28.550262500000002
20
19.557234375
30
0
0
VERTEX
8
0
10
28.535184375
20
19.520837500000003
30
0
0
VERTEX
8
0
10
28.5275
20
19.482196875
30
0
0
VERTEX
8
0
10
28.5275
20
18.242803125000002
30
0
0
VERTEX
8
0
10
28.535184375
20
18.204162500000002
30
0
0
VERTEX
8
0
10
28.550262500000002
20
18.167765625
30
0
0
VERTEX
8
0
10
28.57215
20
18.13500625
30
0
0
VERTEX
8
0
10
28.60000625
20
18.10715
30
0
0
VERTEX
8
0
10
28.632765625
20
18.085262500000002
30
0
0
VERTEX
8
0
10
28.669162500000002
20
18.070184375
30
0
0
VERTEX
8
0
10
28.707803125
20
18.0625
30
0
0
VERTEX
8
0
10
30.347196875
20
18.0625
30
0
0
VERTEX
8
0
10
30.3858375
20
18.070184375
30
0
0
VERTEX
8
0
10
30.422234375000002
20
18.085262500000002
30
0
0
VERTEX
8
0
10
30.45499375
20
18.10715
30
0
0
VERTEX
8
0
10
30.482850000000003
20
18.13500625
30
0
0
VERTEX
8
0
10
30.5047375
20
18.167765625
30
0
0
VERTEX
8
0
10
30.519815625000003
20
18.204162500000002
30
0
0
VERTEX
8
0
10
30.5275
20
18.242803125000002
30
0
0
VERTEX
8
0
10
30.5275
20
19.482196875
30
0
0
VERTEX
8
0
10
30.519815625000003
20
19.520837500000003
30
0
0
VERTEX
8
0
10
30.5047375
20
19.557234375
30
0
0
VERTEX
8
0
10
30.482850000000003
20
19.58999375
30
0
0
VERTEX
8
0
10
30.45499375
20
19.61785
30
0
0
VERTEX
8
0
10
30.422234375000002
20
19.639737500000003
30
0
0
VERTEX
8
0
10
30.3858375
20
19.654815625
30
0
0
VERTEX
8
0
10
30.347196875
20
19.6625
30
0
0
VERTEX
8
0
10
30.2895
20
19.6625
30
0
0
VERTEX
8
0
10
30.2895
20
21.2725
30
0
0
VERTEX
8
0
10
30.288471875000003
20
21.295175
30
0
0
VERTEX
8
0
10
30.28815
20
21.317828125000002
30
0
42
0.37902248261655797
0
VERTEX
8
0
10
29.57479375
20
22.03303125
30
0
0
VERTEX
8
0
10
29.559221875000002
20
22.033515625
30
0
42
0.005302476207665791
0
VERTEX
8
0
10
29.543075
20
22.034015625000002
30
0
0
VERTEX
8
0
10
29.5275
20
22.0345
30
0
0
VERTEX
8
0
10
23.177500000000002
20
22.0345
30
0
0
VERTEX
8
0
10
23.143418750000002
20
22.03295625
30
0
0
VERTEX
8
0
10
23.109559375
20
22.031465625000003
30
0
42
0.11403010718922836
0
VERTEX
8
0
10
22.783484375
20
21.924721875
30
0
0
VERTEX
8
0
10
22.756812500000002
20
21.9069125
30
0
0
VERTEX
8
0
10
22.726896875
20
21.886993750000002
30
0
0
VERTEX
8
0
10
22.7264875
20
21.8866625
30
0
0
VERTEX
8
0
10
22.72610625
20
21.886409375
30
0
42
0.022323751848733576
0
VERTEX
8
0
10
22.673165625
20
21.84371875
30
0
0
VERTEX
8
0
10
22.672731250000002
20
21.843309375
30
0
0
VERTEX
8
0
10
22.672428125
20
21.843065625
30
0
0
VERTEX
8
0
10
22.67108125
20
21.8417625
30
0
0
VERTEX
8
0
10
22.638684375
20
21.811315625000002
30
0
0
VERTEX
8
0
10
19.781184375000002
20
18.953815625
30
0
0
VERTEX
8
0
10
19.7578625
20
18.928278125000002
30
0
0
VERTEX
8
0
10
19.735287500000002
20
18.903628125
30
0
42
0.15984383596272408
0
VERTEX
8
0
10
19.55946875
20
18.46229375
30
0
0
VERTEX
8
0
10
19.559450000000002
20
18.461690625
30
0
0
VERTEX
8
0
10
19.559409375
20
18.461309375000003
30
0
0
VERTEX
8
0
10
19.55938125
20
18.459453125
30
0
0
VERTEX
8
0
10
19.558
20
18.415
30
0
0
VERTEX
8
0
10
19.558
20
14.6845
30
0
0
VERTEX
8
0
10
15.87313125
20
14.6845
30
0
0
VERTEX
8
0
10
15.0875
20
15.470131250000001
30
0
0
VERTEX
8
0
10
15.0875
20
17.802196875
30
0
0
VERTEX
8
0
10
15.079815625
20
17.8408375
30
0
0
VERTEX
8
0
10
15.064737500000001
20
17.877234375
30
0
0
VERTEX
8
0
10
15.042850000000001
20
17.90999375
30
0
0
VERTEX
8
0
10
15.01499375
20
17.93785
30
0
0
VERTEX
8
0
10
14.982234375
20
17.9597375
30
0
0
VERTEX
8
0
10
14.945837500000001
20
17.974815625
30
0
0
VERTEX
8
0
10
14.907196875
20
17.9825
30
0
0
VERTEX
8
0
10
13.667803125
20
17.9825
30
0
0
VERTEX
8
0
10
13.629162500000001
20
17.974815625
30
0
0
VERTEX
8
0
10
13.592765625
20
17.9597375
30
0
0
VERTEX
8
0
10
13.56000625
20
17.93785
30
0
0
VERTEX
8
0
10
13.532150000000001
20
17.90999375
30
0
0
VERTEX
8
0
10
13.510262500000001
20
17.877234375
30
0
0
VERTEX
8
0
10
13.495184375000001
20
17.8408375
30
0
0
VERTEX
8
0
10
13.4875
20
17.802196875
30
0
0
VERTEX
8
0
10
13.4875
20
16.9545
30
0
0
VERTEX
8
0
10
8.967178125
20
16.9545
30
0
0
VERTEX
8
0
10
8.919884375
20
16.981803125000003
30
0
42
0.10951730635510627
0
VERTEX
8
0
10
8.547815625
20
17.081500000000002
30
0
0
VERTEX
8
0
10
8.0645
20
17.081500000000002
30
0
0
VERTEX
8
0
10
8.0645
20
20.28595
30
0
0
VERTEX
8
0
10
8.0899
20
20.31135
30
0
0
VERTEX
8
0
10
8.0899
20
20.96365
30
0
0
VERTEX
8
0
10
7.62865
20
21.4249
30
0
0
VERTEX
8
0
10
6.97635
20
21.4249
30
0
0
VERTEX
8
0
10
6.5151
20
20.96365
30
0
0
VERTEX
8
0
10
6.5151
20
20.31135
30
0
0
VERTEX
8
0
10
6.540500000000001
20
20.28595
30
0
0
VERTEX
8
0
10
6.540500000000001
20
17.061621875
30
0
0
VERTEX
8
0
10
6.538403125
20
17.061253125
30
0
42
0.8769764556266981
0
VERTEX
8
0
10
6.692184375
20
15.303500000000001
30
0
0
VERTEX
8
0
10
8.547815625
20
15.303500000000001
30
0
0
VERTEX
8
0
10
8.625146875
20
15.310265625000001
30
0
42
0.08748887291847965
0
VERTEX
8
0
10
8.919884375
20
15.403196875
30
0
0
VERTEX
8
0
10
8.967178125
20
15.4305
30
0
0
VERTEX
8
0
10
13.4875
20
15.4305
30
0
0
VERTEX
8
0
10
13.4875
20
15.362803125000001
30
0
0
VERTEX
8
0
10
13.495184375000001
20
15.3241625
30
0
0
VERTEX
8
0
10
13.510262500000001
20
15.287765625
30
0
0
VERTEX
8
0
10
13.525500000000001
20
15.264959375
30
0
0
VERTEX
8
0
10
13.525500000000001
20
11.7475
30
0
0
VERTEX
8
0
10
13.528621875
20
11.678578125000001
30
0
42
0.254167635753158
0
VERTEX
8
0
10
13.932506250000001
20
11.07326875
30
0
0
VERTEX
8
0
10
13.95226875
20
11.036825
30
0
0
VERTEX
8
0
10
13.990506250000001
20
10.979396875
30
0
0
VERTEX
8
0
10
14.03378125
20
10.925665625
30
0
0
VERTEX
8
0
10
14.066184375
20
10.891184375
30
0
0
VERTEX
8
0
10
15.751184375000001
20
9.206184375000001
30
0
0
VERTEX
8
0
10
15.776721875000002
20
9.1828625
30
0
0
VERTEX
8
0
10
15.801371875000001
20
9.1602875
30
0
42
0.15984383596272408
0
VERTEX
8
0
10
16.24270625
20
8.98446875
30
0
0
VERTEX
8
0
10
16.243309375
20
8.98445
30
0
0
VERTEX
8
0
10
16.243690625
20
8.984409375
30
0
0
VERTEX
8
0
10
16.245546875000002
20
8.98438125
30
0
0
VERTEX
8
0
10
16.29
20
8.983
30
0
0
VERTEX
8
0
10
23.49686875
20
8.983
30
0
0
VERTEX
8
0
10
25.398684375000002
20
7.081184375
30
0
0
VERTEX
8
0
10
25.424221875
20
7.057862500000001
30
0
0
VERTEX
8
0
10
25.448871875000002
20
7.0352875
30
0
42
0.15984383596272408
0
VERTEX
8
0
10
25.890206250000002
20
6.8594687500000004
30
0
0
VERTEX
8
0
10
25.890809375
20
6.859450000000001
30
0
0
VERTEX
8
0
10
25.891190625
20
6.859409375
30
0
0
VERTEX
8
0
10
25.893046875
20
6.85938125
30
0
0
VERTEX
8
0
10
25.9375
20
6.8580000000000005
30
0
0
VERTEX
8
0
10
37.2215
20
6.8580000000000005
30
0
0
VERTEX
8
0
10
37.274909375
20
6.8131843750000005
30
0
42
0.15391460160656725
0
VERTEX
8
0
10
37.849640625
20
6.604
30
0
0
VERTEX
8
0
10
39.970359375
20
6.604
30
0
0
VERTEX
8
0
10
40.058740625
20
6.61173125
30
0
42
0.9163314512321996
0
VERTEX
8
0
10
39.970359375
20
8.636000000000001
30
0
0
VERTEX
8
0
10
39.672000000000004
20
8.636000000000001
30
0
0
VERTEX
8
0
10
39.672000000000004
20
9.144
30
0
0
VERTEX
8
0
10
39.970359375
20
9.144
30
0
0
VERTEX
8
0
10
40.058740625
20
9.151731250000001
30
0
42
0.9163314512321996
0
VERTEX
8
0
10
39.970359375
20
11.176
30
0
0
VERTEX
8
0
10
37.849640625
20
11.176
30
0
0
VERTEX
8
0
10
37.761259375
20
11.168268750000001
30
0
42
0.9163314512321996
0
VERTEX
8
0
10
37.849640625
20
9.144
30
0
0
VERTEX
8
0
10
38.148
20
9.144
30
0
0
VERTEX
8
0
10
38.148
20
8.636000000000001
30
0
0
VERTEX
8
0
10
37.849640625
20
8.636000000000001
30
0
0
VERTEX
8
0
10
37.761259375
20
8.62826875
30
0
42
0.13165246072046807
0
VERTEX
8
0
10
37.274909375
20
8.426815625
30
0
0
VERTEX
8
0
10
37.2215
20
8.382
30
0
0
VERTEX
8
0
10
26.253131250000003
20
8.382
30
0
0
VERTEX
8
0
10
24.351315625
20
10.283815625
30
0
0
VERTEX
8
0
10
24.325778125000003
20
10.3071375
30
0
0
VERTEX
8
0
10
24.301128125
20
10.329712500000001
30
0
42
0.15984383596272408
0
VERTEX
8
0
10
23.85979375
20
10.50553125
30
0
0
VERTEX
8
0
10
23.859190625
20
10.505550000000001
30
0
0
VERTEX
8
0
10
23.858809375
20
10.505590625
30
0
0
VERTEX
8
0
10
23.856953125
20
10.50561875
30
0
0
VERTEX
8
0
10
23.8125
20
10.507
30
0
0
VERTEX
8
0
10
16.605631250000002
20
10.507
30
0
0
VERTEX
8
0
10
15.24
20
11.872631250000001
30
0
0
VERTEX
8
0
10
15.24
20
12.52736875
30
0
0
VERTEX
8
0
10
15.87313125
20
13.1605
30
0
0
VERTEX
8
0
10
20.32
20
13.1605
30
0
0
SEQEND
0
POLYLINE
66
1
8
16_copper
10
0.0
20
0.0
30
0.0
70
1
0
VERTEX
8
0
10
7.9629
20
20.36395625
30
0
0
VERTEX
8
0
10
7.9629
20
20.91104375
30
0
0
VERTEX
8
0
10
7.57604375
20
21.297900000000002
30
0
0
VERTEX
8
0
10
7.02895625
20
21.297900000000002
30
0
0
VERTEX
8
0
10
6.6421
20
20.91104375
30
0
0
VERTEX
8
0
10
6.6421
20
20.36395625
30
0
0
VERTEX
8
0
10
7.02895625
20
19.9771
30
0
0
VERTEX
8
0
10
7.57604375
20
19.9771
30
0
0
SEQEND
0
POLYLINE
66
1
8
16_copper
10
0.0
20
0.0
30
0.0
70
1
0
VERTEX
8
0
10
8.49394375
20
15.4378375
30
0
42
0.9063472543261978
0
VERTEX
8
0
10
8.419434375
20
16.9545
30
0
0
VERTEX
8
0
10
6.820565625
20
16.9545
30
0
0
VERTEX
8
0
10
6.7460562500000005
20
16.9471625
30
0
42
0.9063472543261978
0
VERTEX
8
0
10
6.820565625
20
15.4305
30
0
0
VERTEX
8
0
10
8.419434375
20
15.4305
30
0
0
SEQEND
0
POLYLINE
66
1
8
16_copper
10
0.0
20
0.0
30
0.0
70
1
0
VERTEX
8
0
10
40.058740625
20
9.151731250000001
30
0
42
0.9163314512321996
0
VERTEX
8
0
10
39.970359375
20
11.176
30
0
0
VERTEX
8
0
10
37.849640625
20
11.176
30
0
0
VERTEX
8
0
10
37.761259375
20
11.168268750000001
30
0
42
0.9163314512321996
0
VERTEX
8
0
10
37.849640625
20
9.144
30
0
0
VERTEX
8
0
10
39.970359375
20
9.144
30
0
0
SEQEND
0
POLYLINE
66
1
8
16_copper
10
0.0
20
0.0
30
0.0
70
1
0
VERTEX
8
0
10
40.058740625
20
6.61173125
30
0
42
0.9163314512321996
0
VERTEX
8
0
10
39.970359375
20
8.636000000000001
30
0
0
VERTEX
8
0
10
37.849640625
20
8.636000000000001
30
0
0
VERTEX
8
0
10
37.761259375
20
8.62826875
30
0
42
0.9163314512321996
0
VERTEX
8
0
10
37.849640625
20
6.604
30
0
0
VERTEX
8
0
10
39.970359375
20
6.604
30
0
0
SEQEND
0
POLYLINE
66
1
8
1_copper
10
0.0
20
0.0
30
0.0
70
1
0
VERTEX
8
0
10
10.629900000000001
20
20.31135
30
0
0
VERTEX
8
0
10
10.629900000000001
20
20.34726875
30
0
42
0.2170834437770118
0
VERTEX
8
0
10
10.923031250000001
20
20.91020625
30
0
0
VERTEX
8
0
10
10.92305
20
20.910809375
30
0
0
VERTEX
8
0
10
10.923090625
20
20.911190625
30
0
0
VERTEX
8
0
10
10.92311875
20
20.913046875000003
30
0
0
VERTEX
8
0
10
10.9245
20
20.9575
30
0
0
VERTEX
8
0
10
10.9245
20
24.765
30
0
0
VERTEX
8
0
10
10.921378125
20
24.833921875
30
0
42
0.11370270732236455
0
VERTEX
8
0
10
10.814721875
20
25.159015625000002
30
0
0
VERTEX
8
0
10
10.8125
20
25.16234375
30
0
0
VERTEX
8
0
10
10.8125
20
25.383346875
30
0
0
VERTEX
8
0
10
10.80475625
20
25.422275000000003
30
0
0
VERTEX
8
0
10
10.789565625
20
25.458946875000002
30
0
0
VERTEX
8
0
10
10.767515625
20
25.491950000000003
30
0
0
VERTEX
8
0
10
10.73945
20
25.520015625000003
30
0
0
VERTEX
8
0
10
10.706446875000001
20
25.542065625000003
30
0
0
VERTEX
8
0
10
10.669775000000001
20
25.557256250000002
30
0
0
VERTEX
8
0
10
10.630846875000001
20
25.565
30
0
0
VERTEX
8
0
10
9.694153125
20
25.565
30
0
0
VERTEX
8
0
10
9.655225
20
25.557256250000002
30
0
0
VERTEX
8
0
10
9.618553125
20
25.542065625000003
30
0
0
VERTEX
8
0
10
9.585550000000001
20
25.520015625000003
30
0
0
VERTEX
8
0
10
9.557484375
20
25.491950000000003
30
0
0
VERTEX
8
0
10
9.535434375000001
20
25.458946875000002
30
0
0
VERTEX
8
0
10
9.52024375
20
25.422275000000003
30
0
0
VERTEX
8
0
10
9.512500000000001
20
25.383346875
30
0
0
VERTEX
8
0
10
9.512500000000001
20
25.161293750000002
30
0
0
VERTEX
8
0
10
9.499325
20
25.140290625000002
30
0
42
0.11370201830601007
0
VERTEX
8
0
10
9.40196875
20
24.812293750000002
30
0
0
VERTEX
8
0
10
9.400500000000001
20
24.765
30
0
0
VERTEX
8
0
10
9.400500000000001
20
21.309050000000003
30
0
0
VERTEX
8
0
10
9.055100000000001
20
20.96365
30
0
0
VERTEX
8
0
10
9.055100000000001
20
20.31135
30
0
0
VERTEX
8
0
10
9.516350000000001
20
19.8501
30
0
0
VERTEX
8
0
10
10.168650000000001
20
19.8501
30
0
0
SEQEND
0
POLYLINE
66
1
8
16_copper
10
0.0
20
0.0
30
0.0
70
1
0
VERTEX
8
0
10
10.5029
20
20.36395625
30
0
0
VERTEX
8
0
10
10.5029
20
20.91104375
30
0
0
VERTEX
8
0
10
10.116043750000001
20
21.297900000000002
30
0
0
VERTEX
8
0
10
9.568956250000001
20
21.297900000000002
30
0
0
VERTEX
8
0
10
9.1821
20
20.91104375
30
0
0
VERTEX
8
0
10
9.1821
20
20.36395625
30
0
0
VERTEX
8
0
10
9.568956250000001
20
19.9771
30
0
0
VERTEX
8
0
10
10.116043750000001
20
19.9771
30
0
0
SEQEND
0
POLYLINE
66
1
8
1_copper
10
0.0
20
0.0
30
0.0
70
1
0
VERTEX
8
0
10
27.871078125
20
10.603878125000001
30
0
42
0.11370270732236455
0
VERTEX
8
0
10
27.545984375
20
10.497221875000001
30
0
0
VERTEX
8
0
10
27.54265625
20
10.495000000000001
30
0
0
VERTEX
8
0
10
27.321653125
20
10.495000000000001
30
0
0
VERTEX
8
0
10
27.282725000000003
20
10.48725625
30
0
0
VERTEX
8
0
10
27.246053125
20
10.472065625
30
0
0
VERTEX
8
0
10
27.213050000000003
20
10.450015625
30
0
0
VERTEX
8
0
10
27.184984375000003
20
10.42195
30
0
0
VERTEX
8
0
10
27.162934375000003
20
10.388946875
30
0
0
VERTEX
8
0
10
27.14774375
20
10.352275
30
0
0
VERTEX
8
0
10
27.14
20
10.313346875
30
0
0
VERTEX
8
0
10
27.14
20
9.376653125
30
0
0
VERTEX
8
0
10
27.14774375
20
9.337725
30
0
0
VERTEX
8
0
10
27.162934375000003
20
9.301053125000001
30
0
0
VERTEX
8
0
10
27.184984375000003
20
9.26805
30
0
0
VERTEX
8
0
10
27.213050000000003
20
9.239984375
30
0
0
VERTEX
8
0
10
27.246053125
20
9.217934375
30
0
0
VERTEX
8
0
10
27.282725000000003
20
9.20274375
30
0
0
VERTEX
8
0
10
27.321653125
20
9.195
30
0
0
VERTEX
8
0
10
27.54370625
20
9.195
30
0
0
VERTEX
8
0
10
27.564709375
20
9.181825
30
0
42
0.11370201830601007
0
VERTEX
8
0
10
27.89270625
20
9.084468750000001
30
0
0
VERTEX
8
0
10
27.94
20
9.083
30
0
0
VERTEX
8
0
10
33.655
20
9.083
30
0
0
VERTEX
8
0
10
33.723921875
20
9.086121875
30
0
42
0.11370270732236455
0
VERTEX
8
0
10
34.049015625
20
9.192778125
30
0
0
VERTEX
8
0
10
34.05234375
20
9.195
30
0
0
VERTEX
8
0
10
34.273346875
20
9.195
30
0
0
VERTEX
8
0
10
34.312275
20
9.20274375
30
0
0
VERTEX
8
0
10
34.348946875
20
9.217934375
30
0
0
VERTEX
8
0
10
34.38195
20
9.239984375
30
0
0
VERTEX
8
0
10
34.410015625
20
9.26805
30
0
0
VERTEX
8
0
10
34.432065625
20
9.301053125000001
30
0
0
VERTEX
8
0
10
34.44725625
20
9.337725
30
0
0
VERTEX
8
0
10
34.455
20
9.376653125
30
0
0
VERTEX
8
0
10
34.455
20
10.313346875
30
0
0
VERTEX
8
0
10
34.44725625
20
10.352275
30
0
0
VERTEX
8
0
10
34.432065625
20
10.388946875
30
0
0
VERTEX
8
0
10
34.410015625
20
10.42195
30
0
0
VERTEX
8
0
10
34.38195
20
10.450015625
30
0
0
VERTEX
8
0
10
34.348946875
20
10.472065625
30
0
0
VERTEX
8
0
10
34.312275
20
10.48725625
30
0
0
VERTEX
8
0
10
34.273346875
20
10.495000000000001
30
0
0
VERTEX
8
0
10
34.05129375
20
10.495000000000001
30
0
0
VERTEX
8
0
10
34.030290625
20
10.508175000000001
30
0
42
0.11370201830601007
0
VERTEX
8
0
10
33.70229375
20
10.60553125
30
0
0
VERTEX
8
0
10
33.655
20
10.607000000000001
30
0
0
VERTEX
8
0
10
27.94
20
10.607000000000001
30
0
0
SEQEND
0
CIRCLE
8
drills_via_1_16
10
3.81
20
6.6675
30
0
40
1.6
0
CIRCLE
8
drills_via_1_16
10
68.58
20
25.400000000000002
30
0
40
1.6
0
CIRCLE
8
drills_via_1_16
10
4.1275
20
25.400000000000002
30
0
40
1.5875000000000001
0
CIRCLE
8
drills_via_1_16
10
24.4475
20
25.400000000000002
30
0
40
1.5875000000000001
0
CIRCLE
8
drills_PTH
10
38.910000000000004
20
7.62
30
0
40
0.635
0
CIRCLE
8
drills_PTH
10
58.42
20
7.62
30
0
40
0.635
0
CIRCLE
8
drills_PTH
10
58.42
20
10.16
30
0
40
0.635
0
CIRCLE
8
drills_PTH
10
38.910000000000004
20
10.16
30
0
40
0.635
0
CIRCLE
8
drills_PTH
10
38.910000000000004
20
18.52
30
0
40
0.635
0
CIRCLE
8
drills_PTH
10
58.42
20
18.52
30
0
40
0.635
0
CIRCLE
8
drills_PTH
10
58.42
20
21.060000000000002
30
0
40
0.635
0
CIRCLE
8
drills_PTH
10
38.910000000000004
20
21.060000000000002
30
0
40
0.635
0
CIRCLE
8
drills_PTH
10
7.62
20
13.6525
30
0
40
0.508
0
CIRCLE
8
drills_PTH
10
7.62
20
16.1925
30
0
40
0.508
0
CIRCLE
8
drills_PTH
10
66.3575
20
11.1125
30
0
40
0.508
0
CIRCLE
8
drills_PTH
10
66.3575
20
13.6525
30
0
40
0.508
0
CIRCLE
8
drills_PTH
10
66.3575
20
16.1925
30
0
40
0.508
0
CIRCLE
8
drills_PTH
10
66.3575
20
18.7325
30
0
40
0.508
0
CIRCLE
8
drills_PTH
10
69.215
20
6.985
30
0
40
0.40640000000000004
0
CIRCLE
8
drills_PTH
10
66.675
20
6.985
30
0
40
0.40640000000000004
0
CIRCLE
8
drills_PTH
10
7.3025
20
20.6375
30
0
40
0.40640000000000004
0
CIRCLE
8
drills_PTH
10
9.842500000000001
20
20.6375
30
0
40
0.40640000000000004
0
ENDSEC
0
EOF