M48
;Layer_Color=9474304
;FILE_FORMAT=4:4
METRIC,LZ
;TYPE=PLATED
T01F00S00C0.3000
T02F00S00C1.1000
T03F00S00C3.5000
%
T01
X00105Y0004
X00125
X00145
X00155Y0006
X00135
X00115
X00125Y0008
X00105
X00115Y001
X00135
X00155
X00145Y0012
X00125
X00105
X00115Y0014
X00135
X00155
X00185Y0012
X00205
X00225
X00245
X00265
X00285
X00305
X00325
X00345
X00365
X00375Y001
X00355
X00335
X00315
X00295
X00275
X00255
X00235
X00215
X00195
X00205Y0008
X00225
X00245
X00265
X00285
X00305
X00325
X00345
X00365
X00375Y0006
X00355
X00335
X00315
X00295
X00275
X00255
X00235
X00215
X00195
X00205Y0004
X00225
X00245
X00265
X00285
X00305
X00325
X00345
X00365
X00405
X00425
X00445
X00465
X00485
X00495Y0006
X00475
X00455
X00435
X00415
X00425Y0008
X00445
X00465
X00485
X00495Y001
X00475
X00455
X00435
X00415
X00425Y0012
X00445
X00465
X00485
X00405
X00185Y0004
X00505
X00525
X00545
X00565
X00585
X00605
X00625
X00645001
X00665001
X00685001
X00705001
X00725001
X00745001
X00765001
X00785001
X00805001
X00825001
X00815001Y0006
X00795001
X00775001
X00755001
X00735001
X00715001
X00695001
X00675001
X00655001
X00635
X00645001Y0008
X00665001
X00685001
X00705001
X00725001
X00745001
X00765001
X00785001
X00805001
X00815001Y001
X00795001
X00775001
X00755001
X00735001
X00715001
X00695001
X00675001
X00655001
X00635
X00645001Y0012
X00665001
X00685001
X00705001
X00725001
X00745001
X00765001
X00785001
X00805001
X00825001
X00865001
X00885001
X00895001Y0014
X00875001
Y001
X00895001
X00885001Y0008
X00865001
X00875001Y0006
X00895001
X00885001Y0004
X00865001
X00595Y0006
X00575
X00555
X00535
X00515
X00525Y0008
X00545
X00565
X00585
X00595Y001
X00575
X00555
X00535
X00515
X00525Y0012
X00545
X00565
X00585
X00605
X00625
X00505
Y0008
X00905001
Y0012
Y0004
Y0016
X00915001Y0018
X00905001Y0022
X00915001Y0024
X00955001
X00925001Y0028
X00905001
X00915001Y003
X00905001Y0032
Y0036
Y004
Y0044
X00885001
X00865001
X00845001
X00855001Y0042
X00875001
X00895001
X00885001Y004
X00865001
X00875001Y0038
X00895001
X00885001Y0036
X00865001
X00845001
X00855001Y0038
Y0034
X00875001
X00895001
X00885001Y0032
X00865001
X00855001Y0028
X00865001Y0026
X00845001
X00805001
X00785001
X00765001
X00745001
X00725001
X00705001
X00685001
X00695001Y0028
X00715001
X00735001
X00755001
X00775001
X00795001
X00815001
X00795001Y0024
X00775001
X00755001
X00735001
X00715001
X00695001
X00705001Y0022
X00725001
X00745001
X00765001
X00785001
X00805001
X00815001Y002
X00795001
X00775001
X00755001
X00735001
X00715001
X00695001
X00705001Y0018
X00725001
X00745001
X00765001
X00785001
X00805001
X00845001
X00865001
X00875001Y002
X00855001
X00865001Y0022
X00885001
X00895001Y0024
X00875001
X00845001Y0022
X00895001Y003
X00805001Y0034
X00785001
X00765001
X00745001
X00725001
X00705001
X00685001
X00665001
X00645001
X00625
X00605
X00585
X00565
X00545
X00525
X00505
X00515Y0036
X00535
X00555
X00575
X00595
X00615
X00635
X00655001
X00675001
X00695001
X00715001
X00735001
X00755001
X00775001
X00795001
X00785001Y0038
X00765001
X00745001
X00725001
X00705001
X00685001
X00665001
X00645001
X00625
X00605
X00585
X00565
X00545
X00525
X00535Y004
X00555
X00575
X00595
X00615
X00635
X00655001
X00675001
X00695001
X00715001
X00735001
X00755001
X00775001
X00795001
X00805001Y0042
X00785001
X00765001
X00745001
X00725001
X00705001
X00685001
X00665001
X00645001
X00625
X00605
X00585
X00565
X00545
X00525
X00505
X00515Y0044
X00535
X00555
X00575
X00595
X00615
X00635
X00655001
X00675001
X00695001
X00715001
X00735001
X00755001
X00775001
X00795001
X00655001Y0028
X00635
X00615
X00595
X00575
X00555
X00535
X00545Y0026
X00565
X00585
X00605
X00625
X00645001
X00635Y0024
X00615
X00595
X00575
X00555
X00535
X00545Y0022
X00565
X00585
X00605
X00625
X00645001
X00655001Y002
X00635
X00615
X00595
X00575
X00555
X00535
X00545Y0018
X00565
X00585
X00605
X00625
X00645001
X00685001
Y0022
X00525
Y0026
Y0018
X00485
X00465
X00445
X00425
X00405
X00385
X00365
X00375Y002
X00395
X00415
X00435
X00455
X00475
X00495
X00485Y0022
X00465
X00445
X00425
X00405
X00385
X00365
X00375Y0024
X00395
X00415
X00435
X00455
X00465Y0026
X00485
X00495Y0028
X00475
X00455
X00435
X00415
X00395
X00375
X00385Y0026
X00405
X00425
X00445
X00365
X00325
X00305
X00285
X00265
X00245
X00225
X00205
X00185
X00195Y0028
X00215
X00235
X00255
X00275
X00295
X00315
X00295Y0024
X00275
X00255
X00235
X00215
X00225Y0022
X00245
X00265
X00285
X00305
X00325
X00315Y002
X00295
X00275
X00255
X00235
X00215
X00195
X00205Y0022
X00185
Y0018
X00205
X00225
X00245
X00265
X00285
X00305
X00325
Y0034
X00345
X00365
X00385
X00405
X00425
X00445
X00465
X00475Y0036
X00455
X00435
X00415
X00395
X00375
X00355
X00335
X00315
X00295
X00275
X00255
X00235
X00215
X00195
X00175
X00145
X00125
X00105
X00115Y0038
X00135
X00125Y004
X00105
X00115Y0042
X00135
X00145Y0044
X00125
X00105
X00175
X00195
X00215
X00235
X00255
X00275
X00295
X00315
X00335
X00355
X00375
X00395
X00415
X00435
X00455
X00475
X00465Y0042
X00445
X00425
X00405
X00385
X00365
X00345
X00325
X00305
X00285
X00265
X00245
X00225
X00205
X00185
X00165
X00195Y004
X00215
X00235
X00255
X00275
X00295
X00315
X00335
X00355
X00375
X00395
X00415
X00435
X00455
X00465Y0038
X00445
X00425
X00405
X00385
X00365
X00345
X00325
X00305
X00285
X00265
X00245
X00225
X00205
Y0034
X00225
X00245
X00265
X00285
X00305
X00185
X00135
X00115
X00105Y0032
Y0026
X00125
X00145
X00155Y0028
X00135
Y0024
X00115
X00125Y0022
X00145
X00155Y002
X00115Y0018
X00125Y0016
X00105
X00095Y0018
Y0024
Y003
X00075
X00085Y0032
X00065
X00075Y0034
X00095
X00085Y0036
T02
X009425Y001605
Y001859
Y002113
Y002367
Y002621
Y002875
X0006Y002862
Y002608
Y002354
Y0021
Y001846
Y001592
T03
X0005Y00045
X0095
Y00435
X0005
M30
