G04*
G04 #@! TF.GenerationSoftware,Altium Limited,Altium Designer,25.3.3 (18)*
G04*
G04 Layer_Color=16711935*
%FSLAX44Y44*%
%MOMM*%
G71*
G04*
G04 #@! TF.SameCoordinates,1FD36998-6F79-4F76-A579-B8A6C8C858E4*
G04*
G04*
G04 #@! TF.FilePolarity,Negative*
G04*
G01*
G75*
%ADD17C,1.8532*%
%ADD18C,3.7032*%
%ADD19C,0.8032*%
G36*
X866160Y462000D02*
X128000Y462000D01*
Y25000D01*
X868223D01*
X866160Y462000D01*
D02*
G37*
D17*
X60000Y286200D02*
D03*
Y260800D02*
D03*
Y235400D02*
D03*
Y210000D02*
D03*
Y184600D02*
D03*
Y159200D02*
D03*
X942500Y287500D02*
D03*
Y262100D02*
D03*
Y236700D02*
D03*
Y211300D02*
D03*
Y185900D02*
D03*
Y160500D02*
D03*
D18*
X950000Y435000D02*
D03*
X50000D02*
D03*
Y45000D02*
D03*
X950000D02*
D03*
D19*
X815001Y280000D02*
D03*
X805001Y260000D02*
D03*
Y220000D02*
D03*
X815001Y200000D02*
D03*
X805001Y180000D02*
D03*
X795001Y280000D02*
D03*
X785001Y260000D02*
D03*
X795001Y240000D02*
D03*
X785001Y220000D02*
D03*
X795001Y200000D02*
D03*
X785001Y180000D02*
D03*
X775001Y280000D02*
D03*
X765001Y260000D02*
D03*
X775001Y240000D02*
D03*
X765001Y220000D02*
D03*
X775001Y200000D02*
D03*
X765001Y180000D02*
D03*
X755001Y280000D02*
D03*
X745001Y260000D02*
D03*
X755001Y240000D02*
D03*
X745001Y220000D02*
D03*
X755001Y200000D02*
D03*
X745001Y180000D02*
D03*
X735001Y280000D02*
D03*
X725001Y260000D02*
D03*
X735001Y240000D02*
D03*
X725001Y220000D02*
D03*
X735001Y200000D02*
D03*
X725001Y180000D02*
D03*
X715001Y280000D02*
D03*
X705001Y260000D02*
D03*
X715001Y240000D02*
D03*
X705001Y220000D02*
D03*
X715001Y200000D02*
D03*
X705001Y180000D02*
D03*
X695001Y280000D02*
D03*
X685001Y260000D02*
D03*
X695001Y240000D02*
D03*
X685001Y220000D02*
D03*
X695001Y200000D02*
D03*
X685001Y180000D02*
D03*
X655001Y280000D02*
D03*
X645001Y260000D02*
D03*
Y220000D02*
D03*
X655001Y200000D02*
D03*
X645001Y180000D02*
D03*
X635000Y280000D02*
D03*
X625000Y260000D02*
D03*
X635000Y240000D02*
D03*
X625000Y220000D02*
D03*
X635000Y200000D02*
D03*
X625000Y180000D02*
D03*
X615000Y280000D02*
D03*
X605000Y260000D02*
D03*
X615000Y240000D02*
D03*
X605000Y220000D02*
D03*
X615000Y200000D02*
D03*
X605000Y180000D02*
D03*
X595000Y280000D02*
D03*
X585000Y260000D02*
D03*
X595000Y240000D02*
D03*
X585000Y220000D02*
D03*
X595000Y200000D02*
D03*
X585000Y180000D02*
D03*
X575000Y280000D02*
D03*
X565000Y260000D02*
D03*
X575000Y240000D02*
D03*
X565000Y220000D02*
D03*
X575000Y200000D02*
D03*
X565000Y180000D02*
D03*
X555000Y280000D02*
D03*
X545000Y260000D02*
D03*
X555000Y240000D02*
D03*
X545000Y220000D02*
D03*
X555000Y200000D02*
D03*
X545000Y180000D02*
D03*
X535000Y280000D02*
D03*
X525000Y260000D02*
D03*
X535000Y240000D02*
D03*
X525000Y220000D02*
D03*
X535000Y200000D02*
D03*
X525000Y180000D02*
D03*
X495000Y280000D02*
D03*
X485000Y260000D02*
D03*
Y220000D02*
D03*
X495000Y200000D02*
D03*
X485000Y180000D02*
D03*
X475000Y280000D02*
D03*
X465000Y260000D02*
D03*
Y220000D02*
D03*
X475000Y200000D02*
D03*
X465000Y180000D02*
D03*
X455000Y280000D02*
D03*
X445000Y260000D02*
D03*
X455000Y240000D02*
D03*
X445000Y220000D02*
D03*
X455000Y200000D02*
D03*
X445000Y180000D02*
D03*
X435000Y280000D02*
D03*
X425000Y260000D02*
D03*
X435000Y240000D02*
D03*
X425000Y220000D02*
D03*
X435000Y200000D02*
D03*
X425000Y180000D02*
D03*
X415000Y280000D02*
D03*
X405000Y260000D02*
D03*
X415000Y240000D02*
D03*
X405000Y220000D02*
D03*
X415000Y200000D02*
D03*
X405000Y180000D02*
D03*
X395000Y280000D02*
D03*
X385000Y260000D02*
D03*
X395000Y240000D02*
D03*
X385000Y220000D02*
D03*
X395000Y200000D02*
D03*
X385000Y180000D02*
D03*
X375000Y280000D02*
D03*
X365000Y260000D02*
D03*
X375000Y240000D02*
D03*
X365000Y220000D02*
D03*
X375000Y200000D02*
D03*
X365000Y180000D02*
D03*
X325000Y260000D02*
D03*
Y220000D02*
D03*
Y180000D02*
D03*
X315000Y280000D02*
D03*
X305000Y260000D02*
D03*
Y220000D02*
D03*
X315000Y200000D02*
D03*
X305000Y180000D02*
D03*
X295000Y280000D02*
D03*
X285000Y260000D02*
D03*
X295000Y240000D02*
D03*
X285000Y220000D02*
D03*
X295000Y200000D02*
D03*
X285000Y180000D02*
D03*
X275000Y280000D02*
D03*
X265000Y260000D02*
D03*
X275000Y240000D02*
D03*
X265000Y220000D02*
D03*
X275000Y200000D02*
D03*
X265000Y180000D02*
D03*
X255000Y280000D02*
D03*
X245000Y260000D02*
D03*
X255000Y240000D02*
D03*
X245000Y220000D02*
D03*
X255000Y200000D02*
D03*
X245000Y180000D02*
D03*
X235000Y280000D02*
D03*
X225000Y260000D02*
D03*
X235000Y240000D02*
D03*
X225000Y220000D02*
D03*
X235000Y200000D02*
D03*
X225000Y180000D02*
D03*
X215000Y280000D02*
D03*
X205000Y260000D02*
D03*
X215000Y240000D02*
D03*
X205000Y220000D02*
D03*
X215000Y200000D02*
D03*
X205000Y180000D02*
D03*
X195000Y280000D02*
D03*
X185000Y260000D02*
D03*
Y220000D02*
D03*
X195000Y200000D02*
D03*
X185000Y180000D02*
D03*
X955001Y240000D02*
D03*
X915001D02*
D03*
X905001Y220000D02*
D03*
X895001Y240000D02*
D03*
X885001Y220000D02*
D03*
X865001Y260000D02*
D03*
X875001Y240000D02*
D03*
X865001Y220000D02*
D03*
X875001Y200000D02*
D03*
X865001Y180000D02*
D03*
X855001Y280000D02*
D03*
X845001Y260000D02*
D03*
Y220000D02*
D03*
X855001Y200000D02*
D03*
X845001Y180000D02*
D03*
X155000Y280000D02*
D03*
X145000Y260000D02*
D03*
Y220000D02*
D03*
X155000Y200000D02*
D03*
X135000Y280000D02*
D03*
X125000Y260000D02*
D03*
X135000Y240000D02*
D03*
X125000Y220000D02*
D03*
X105000Y260000D02*
D03*
X115000Y240000D02*
D03*
X95000D02*
D03*
X915001Y180000D02*
D03*
X905001Y160000D02*
D03*
Y120000D02*
D03*
Y80000D02*
D03*
Y40000D02*
D03*
X895001Y140000D02*
D03*
X885001Y120000D02*
D03*
X895001Y100000D02*
D03*
X885001Y80000D02*
D03*
X895001Y60000D02*
D03*
X885001Y40000D02*
D03*
X875001Y140000D02*
D03*
X865001Y120000D02*
D03*
X875001Y100000D02*
D03*
X865001Y80000D02*
D03*
X875001Y60000D02*
D03*
X865001Y40000D02*
D03*
X825001Y120000D02*
D03*
Y40000D02*
D03*
X805001Y120000D02*
D03*
X815001Y100000D02*
D03*
X805001Y80000D02*
D03*
X815001Y60000D02*
D03*
X805001Y40000D02*
D03*
X785001Y120000D02*
D03*
X795001Y100000D02*
D03*
X785001Y80000D02*
D03*
X795001Y60000D02*
D03*
X785001Y40000D02*
D03*
X765001Y120000D02*
D03*
X775001Y100000D02*
D03*
X765001Y80000D02*
D03*
X775001Y60000D02*
D03*
X765001Y40000D02*
D03*
X745001Y120000D02*
D03*
X755001Y100000D02*
D03*
X745001Y80000D02*
D03*
X755001Y60000D02*
D03*
X745001Y40000D02*
D03*
X725001Y120000D02*
D03*
X735001Y100000D02*
D03*
X725001Y80000D02*
D03*
X735001Y60000D02*
D03*
X725001Y40000D02*
D03*
X705001Y120000D02*
D03*
X715001Y100000D02*
D03*
X705001Y80000D02*
D03*
X715001Y60000D02*
D03*
X705001Y40000D02*
D03*
X685001Y120000D02*
D03*
X695001Y100000D02*
D03*
X685001Y80000D02*
D03*
X695001Y60000D02*
D03*
X685001Y40000D02*
D03*
X665001Y120000D02*
D03*
X675001Y100000D02*
D03*
X665001Y80000D02*
D03*
X675001Y60000D02*
D03*
X665001Y40000D02*
D03*
X645001Y120000D02*
D03*
X655001Y100000D02*
D03*
X645001Y80000D02*
D03*
X655001Y60000D02*
D03*
X645001Y40000D02*
D03*
X625000Y120000D02*
D03*
X635000Y100000D02*
D03*
Y60000D02*
D03*
X625000Y40000D02*
D03*
X605000Y120000D02*
D03*
Y40000D02*
D03*
X585000Y120000D02*
D03*
X595000Y100000D02*
D03*
X585000Y80000D02*
D03*
X595000Y60000D02*
D03*
X585000Y40000D02*
D03*
X565000Y120000D02*
D03*
X575000Y100000D02*
D03*
X565000Y80000D02*
D03*
X575000Y60000D02*
D03*
X565000Y40000D02*
D03*
X545000Y120000D02*
D03*
X555000Y100000D02*
D03*
X545000Y80000D02*
D03*
X555000Y60000D02*
D03*
X545000Y40000D02*
D03*
X525000Y120000D02*
D03*
X535000Y100000D02*
D03*
X525000Y80000D02*
D03*
X535000Y60000D02*
D03*
X525000Y40000D02*
D03*
X505000Y120000D02*
D03*
X515000Y100000D02*
D03*
X505000Y80000D02*
D03*
X515000Y60000D02*
D03*
X505000Y40000D02*
D03*
X485000Y120000D02*
D03*
X495000Y100000D02*
D03*
X485000Y80000D02*
D03*
X495000Y60000D02*
D03*
X485000Y40000D02*
D03*
X465000Y120000D02*
D03*
X475000Y100000D02*
D03*
X465000Y80000D02*
D03*
X475000Y60000D02*
D03*
X465000Y40000D02*
D03*
X445000Y120000D02*
D03*
X455000Y100000D02*
D03*
X445000Y80000D02*
D03*
X455000Y60000D02*
D03*
X445000Y40000D02*
D03*
X425000Y120000D02*
D03*
X435000Y100000D02*
D03*
X425000Y80000D02*
D03*
X435000Y60000D02*
D03*
X425000Y40000D02*
D03*
X405000Y120000D02*
D03*
X415000Y100000D02*
D03*
Y60000D02*
D03*
X405000Y40000D02*
D03*
X365000Y120000D02*
D03*
X375000Y100000D02*
D03*
X365000Y80000D02*
D03*
X375000Y60000D02*
D03*
X365000Y40000D02*
D03*
X345000Y120000D02*
D03*
X355000Y100000D02*
D03*
X345000Y80000D02*
D03*
X355000Y60000D02*
D03*
X345000Y40000D02*
D03*
X325000Y120000D02*
D03*
X335000Y100000D02*
D03*
X325000Y80000D02*
D03*
X335000Y60000D02*
D03*
X325000Y40000D02*
D03*
X305000Y120000D02*
D03*
X315000Y100000D02*
D03*
X305000Y80000D02*
D03*
X315000Y60000D02*
D03*
X305000Y40000D02*
D03*
X285000Y120000D02*
D03*
X295000Y100000D02*
D03*
X285000Y80000D02*
D03*
X295000Y60000D02*
D03*
X285000Y40000D02*
D03*
X265000Y120000D02*
D03*
X275000Y100000D02*
D03*
X265000Y80000D02*
D03*
X275000Y60000D02*
D03*
X265000Y40000D02*
D03*
X245000Y120000D02*
D03*
X255000Y100000D02*
D03*
X245000Y80000D02*
D03*
X255000Y60000D02*
D03*
X245000Y40000D02*
D03*
X225000Y120000D02*
D03*
X235000Y100000D02*
D03*
X225000Y80000D02*
D03*
X235000Y60000D02*
D03*
X225000Y40000D02*
D03*
X205000Y120000D02*
D03*
X215000Y100000D02*
D03*
X205000Y80000D02*
D03*
X215000Y60000D02*
D03*
X205000Y40000D02*
D03*
X185000Y120000D02*
D03*
X195000Y100000D02*
D03*
Y60000D02*
D03*
X185000Y40000D02*
D03*
X155000Y140000D02*
D03*
X145000Y120000D02*
D03*
X155000Y100000D02*
D03*
Y60000D02*
D03*
X145000Y40000D02*
D03*
X125000Y160000D02*
D03*
X135000Y140000D02*
D03*
X125000Y120000D02*
D03*
X135000Y100000D02*
D03*
X125000Y80000D02*
D03*
X135000Y60000D02*
D03*
X125000Y40000D02*
D03*
X115000Y180000D02*
D03*
X105000Y160000D02*
D03*
X115000Y140000D02*
D03*
X105000Y120000D02*
D03*
X115000Y100000D02*
D03*
X105000Y80000D02*
D03*
X115000Y60000D02*
D03*
X105000Y40000D02*
D03*
X95000Y180000D02*
D03*
X925001Y280000D02*
D03*
X905001Y440000D02*
D03*
Y400000D02*
D03*
Y360000D02*
D03*
Y320000D02*
D03*
X915001Y300000D02*
D03*
X905001Y280000D02*
D03*
X885001Y440000D02*
D03*
X895001Y420000D02*
D03*
X885001Y400000D02*
D03*
X895001Y380000D02*
D03*
X885001Y360000D02*
D03*
X895001Y340000D02*
D03*
X885001Y320000D02*
D03*
X895001Y300000D02*
D03*
X865001Y440000D02*
D03*
X875001Y420000D02*
D03*
X865001Y400000D02*
D03*
X875001Y380000D02*
D03*
X865001Y360000D02*
D03*
X875001Y340000D02*
D03*
X865001Y320000D02*
D03*
X845001Y440000D02*
D03*
X855001Y420000D02*
D03*
Y380000D02*
D03*
X845001Y360000D02*
D03*
X855001Y340000D02*
D03*
X805001Y420000D02*
D03*
Y340000D02*
D03*
X795001Y440000D02*
D03*
X785001Y420000D02*
D03*
X795001Y400000D02*
D03*
X785001Y380000D02*
D03*
X795001Y360000D02*
D03*
X785001Y340000D02*
D03*
X775001Y440000D02*
D03*
X765001Y420000D02*
D03*
X775001Y400000D02*
D03*
X765001Y380000D02*
D03*
X775001Y360000D02*
D03*
X765001Y340000D02*
D03*
X755001Y440000D02*
D03*
X745001Y420000D02*
D03*
X755001Y400000D02*
D03*
X745001Y380000D02*
D03*
X755001Y360000D02*
D03*
X745001Y340000D02*
D03*
X735001Y440000D02*
D03*
X725001Y420000D02*
D03*
X735001Y400000D02*
D03*
X725001Y380000D02*
D03*
X735001Y360000D02*
D03*
X725001Y340000D02*
D03*
X715001Y440000D02*
D03*
X705001Y420000D02*
D03*
X715001Y400000D02*
D03*
X705001Y380000D02*
D03*
X715001Y360000D02*
D03*
X705001Y340000D02*
D03*
X695001Y440000D02*
D03*
X685001Y420000D02*
D03*
X695001Y400000D02*
D03*
X685001Y380000D02*
D03*
X695001Y360000D02*
D03*
X685001Y340000D02*
D03*
X675001Y440000D02*
D03*
X665001Y420000D02*
D03*
X675001Y400000D02*
D03*
X665001Y380000D02*
D03*
X675001Y360000D02*
D03*
X665001Y340000D02*
D03*
X655001Y440000D02*
D03*
X645001Y420000D02*
D03*
X655001Y400000D02*
D03*
X645001Y380000D02*
D03*
X655001Y360000D02*
D03*
X645001Y340000D02*
D03*
X635000Y440000D02*
D03*
X625000Y420000D02*
D03*
X635000Y400000D02*
D03*
X625000Y380000D02*
D03*
X635000Y360000D02*
D03*
X625000Y340000D02*
D03*
X615000Y440000D02*
D03*
X605000Y420000D02*
D03*
X615000Y400000D02*
D03*
X605000Y380000D02*
D03*
X615000Y360000D02*
D03*
X605000Y340000D02*
D03*
X595000Y440000D02*
D03*
X585000Y420000D02*
D03*
X595000Y400000D02*
D03*
X585000Y380000D02*
D03*
X595000Y360000D02*
D03*
X585000Y340000D02*
D03*
X575000Y440000D02*
D03*
X565000Y420000D02*
D03*
X575000Y400000D02*
D03*
X565000Y380000D02*
D03*
X575000Y360000D02*
D03*
X565000Y340000D02*
D03*
X555000Y440000D02*
D03*
X545000Y420000D02*
D03*
X555000Y400000D02*
D03*
X545000Y380000D02*
D03*
X555000Y360000D02*
D03*
X545000Y340000D02*
D03*
X535000Y440000D02*
D03*
X525000Y420000D02*
D03*
X535000Y400000D02*
D03*
X525000Y380000D02*
D03*
X535000Y360000D02*
D03*
X525000Y340000D02*
D03*
X515000Y440000D02*
D03*
X505000Y420000D02*
D03*
X515000Y360000D02*
D03*
X505000Y340000D02*
D03*
X145000Y440000D02*
D03*
Y360000D02*
D03*
X125000Y440000D02*
D03*
X135000Y420000D02*
D03*
X125000Y400000D02*
D03*
X135000Y380000D02*
D03*
X125000Y360000D02*
D03*
X135000Y340000D02*
D03*
X105000Y440000D02*
D03*
X115000Y420000D02*
D03*
X105000Y400000D02*
D03*
X115000Y380000D02*
D03*
X105000Y360000D02*
D03*
X115000Y340000D02*
D03*
X105000Y320000D02*
D03*
X85000Y360000D02*
D03*
X95000Y340000D02*
D03*
X85000Y320000D02*
D03*
X95000Y300000D02*
D03*
X75000Y340000D02*
D03*
X65000Y320000D02*
D03*
X75000Y300000D02*
D03*
X475000Y440000D02*
D03*
X465000Y420000D02*
D03*
Y380000D02*
D03*
X475000Y360000D02*
D03*
X465000Y340000D02*
D03*
X455000Y440000D02*
D03*
X445000Y420000D02*
D03*
X455000Y400000D02*
D03*
X445000Y380000D02*
D03*
X455000Y360000D02*
D03*
X445000Y340000D02*
D03*
X435000Y440000D02*
D03*
X425000Y420000D02*
D03*
X435000Y400000D02*
D03*
X425000Y380000D02*
D03*
X435000Y360000D02*
D03*
X425000Y340000D02*
D03*
X415000Y440000D02*
D03*
X405000Y420000D02*
D03*
X415000Y400000D02*
D03*
X405000Y380000D02*
D03*
X415000Y360000D02*
D03*
X405000Y340000D02*
D03*
X395000Y440000D02*
D03*
X385000Y420000D02*
D03*
X395000Y400000D02*
D03*
X385000Y380000D02*
D03*
X395000Y360000D02*
D03*
X385000Y340000D02*
D03*
X375000Y440000D02*
D03*
X365000Y420000D02*
D03*
X375000Y400000D02*
D03*
X365000Y380000D02*
D03*
X375000Y360000D02*
D03*
X365000Y340000D02*
D03*
X355000Y440000D02*
D03*
X345000Y420000D02*
D03*
X355000Y400000D02*
D03*
X345000Y380000D02*
D03*
X355000Y360000D02*
D03*
X345000Y340000D02*
D03*
X335000Y440000D02*
D03*
X325000Y420000D02*
D03*
X335000Y400000D02*
D03*
X325000Y380000D02*
D03*
X335000Y360000D02*
D03*
X325000Y340000D02*
D03*
X315000Y440000D02*
D03*
X305000Y420000D02*
D03*
X315000Y400000D02*
D03*
X305000Y380000D02*
D03*
X315000Y360000D02*
D03*
X305000Y340000D02*
D03*
X295000Y440000D02*
D03*
X285000Y420000D02*
D03*
X295000Y400000D02*
D03*
X285000Y380000D02*
D03*
X295000Y360000D02*
D03*
X285000Y340000D02*
D03*
X275000Y440000D02*
D03*
X265000Y420000D02*
D03*
X275000Y400000D02*
D03*
X265000Y380000D02*
D03*
X275000Y360000D02*
D03*
X265000Y340000D02*
D03*
X255000Y440000D02*
D03*
X245000Y420000D02*
D03*
X255000Y400000D02*
D03*
X245000Y380000D02*
D03*
X255000Y360000D02*
D03*
X245000Y340000D02*
D03*
X235000Y440000D02*
D03*
X225000Y420000D02*
D03*
X235000Y400000D02*
D03*
X225000Y380000D02*
D03*
X235000Y360000D02*
D03*
X225000Y340000D02*
D03*
X215000Y440000D02*
D03*
X205000Y420000D02*
D03*
X215000Y400000D02*
D03*
X205000Y380000D02*
D03*
X215000Y360000D02*
D03*
X205000Y340000D02*
D03*
X195000Y440000D02*
D03*
X185000Y420000D02*
D03*
X195000Y400000D02*
D03*
Y360000D02*
D03*
X185000Y340000D02*
D03*
X175000Y440000D02*
D03*
X165000Y420000D02*
D03*
X175000Y360000D02*
D03*
M02*
