%TF.GenerationSoftware,KiCad,Pcbnew,9.0.0*%
%TF.CreationDate,2025-03-11T10:11:04+01:00*%
%TF.ProjectId,PCB_Watersysteem,5043425f-5761-4746-9572-737973746565,rev?*%
%TF.SameCoordinates,Original*%
%TF.FileFunction,Legend,Bot*%
%TF.FilePolarity,Positive*%
%FSLAX46Y46*%
G04 Gerber Fmt 4.6, Leading zero omitted, Abs format (unit mm)*
G04 Created by KiCad (PCBNEW 9.0.0) date 2025-03-11 10:11:04*
%MOMM*%
%LPD*%
G01*
G04 APERTURE LIST*
%ADD10C,0.100000*%
%ADD11C,0.366228*%
%ADD12C,0.125000*%
%ADD13C,0.150000*%
%ADD14C,0.254000*%
%ADD15C,0.000000*%
%ADD16C,0.120000*%
%ADD17C,0.200000*%
G04 APERTURE END LIST*
D10*
X102159715Y-127856739D02*
X102159715Y-128666262D01*
X102159715Y-128666262D02*
X102112096Y-128761500D01*
X102112096Y-128761500D02*
X102064477Y-128809120D01*
X102064477Y-128809120D02*
X101969239Y-128856739D01*
X101969239Y-128856739D02*
X101778763Y-128856739D01*
X101778763Y-128856739D02*
X101683525Y-128809120D01*
X101683525Y-128809120D02*
X101635906Y-128761500D01*
X101635906Y-128761500D02*
X101588287Y-128666262D01*
X101588287Y-128666262D02*
X101588287Y-127856739D01*
X101112096Y-128856739D02*
X101112096Y-127856739D01*
X101112096Y-127856739D02*
X100540668Y-128856739D01*
X100540668Y-128856739D02*
X100540668Y-127856739D01*
X100112096Y-128809120D02*
X99969239Y-128856739D01*
X99969239Y-128856739D02*
X99731144Y-128856739D01*
X99731144Y-128856739D02*
X99635906Y-128809120D01*
X99635906Y-128809120D02*
X99588287Y-128761500D01*
X99588287Y-128761500D02*
X99540668Y-128666262D01*
X99540668Y-128666262D02*
X99540668Y-128571024D01*
X99540668Y-128571024D02*
X99588287Y-128475786D01*
X99588287Y-128475786D02*
X99635906Y-128428167D01*
X99635906Y-128428167D02*
X99731144Y-128380548D01*
X99731144Y-128380548D02*
X99921620Y-128332929D01*
X99921620Y-128332929D02*
X100016858Y-128285310D01*
X100016858Y-128285310D02*
X100064477Y-128237691D01*
X100064477Y-128237691D02*
X100112096Y-128142453D01*
X100112096Y-128142453D02*
X100112096Y-128047215D01*
X100112096Y-128047215D02*
X100064477Y-127951977D01*
X100064477Y-127951977D02*
X100016858Y-127904358D01*
X100016858Y-127904358D02*
X99921620Y-127856739D01*
X99921620Y-127856739D02*
X99683525Y-127856739D01*
X99683525Y-127856739D02*
X99540668Y-127904358D01*
X99159715Y-128571024D02*
X98683525Y-128571024D01*
X99254953Y-128856739D02*
X98921620Y-127856739D01*
X98921620Y-127856739D02*
X98588287Y-128856739D01*
X97921620Y-128332929D02*
X98254953Y-128332929D01*
X98254953Y-128856739D02*
X98254953Y-127856739D01*
X98254953Y-127856739D02*
X97778763Y-127856739D01*
X97397810Y-128332929D02*
X97064477Y-128332929D01*
X96921620Y-128856739D02*
X97397810Y-128856739D01*
X97397810Y-128856739D02*
X97397810Y-127856739D01*
X97397810Y-127856739D02*
X96921620Y-127856739D01*
X95397810Y-128332929D02*
X95254953Y-128380548D01*
X95254953Y-128380548D02*
X95207334Y-128428167D01*
X95207334Y-128428167D02*
X95159715Y-128523405D01*
X95159715Y-128523405D02*
X95159715Y-128666262D01*
X95159715Y-128666262D02*
X95207334Y-128761500D01*
X95207334Y-128761500D02*
X95254953Y-128809120D01*
X95254953Y-128809120D02*
X95350191Y-128856739D01*
X95350191Y-128856739D02*
X95731143Y-128856739D01*
X95731143Y-128856739D02*
X95731143Y-127856739D01*
X95731143Y-127856739D02*
X95397810Y-127856739D01*
X95397810Y-127856739D02*
X95302572Y-127904358D01*
X95302572Y-127904358D02*
X95254953Y-127951977D01*
X95254953Y-127951977D02*
X95207334Y-128047215D01*
X95207334Y-128047215D02*
X95207334Y-128142453D01*
X95207334Y-128142453D02*
X95254953Y-128237691D01*
X95254953Y-128237691D02*
X95302572Y-128285310D01*
X95302572Y-128285310D02*
X95397810Y-128332929D01*
X95397810Y-128332929D02*
X95731143Y-128332929D01*
X94731143Y-127856739D02*
X94731143Y-128666262D01*
X94731143Y-128666262D02*
X94683524Y-128761500D01*
X94683524Y-128761500D02*
X94635905Y-128809120D01*
X94635905Y-128809120D02*
X94540667Y-128856739D01*
X94540667Y-128856739D02*
X94350191Y-128856739D01*
X94350191Y-128856739D02*
X94254953Y-128809120D01*
X94254953Y-128809120D02*
X94207334Y-128761500D01*
X94207334Y-128761500D02*
X94159715Y-128666262D01*
X94159715Y-128666262D02*
X94159715Y-127856739D01*
X93826381Y-127856739D02*
X93254953Y-127856739D01*
X93540667Y-128856739D02*
X93540667Y-127856739D01*
X91826381Y-128332929D02*
X92159714Y-128332929D01*
X92159714Y-128856739D02*
X92159714Y-127856739D01*
X92159714Y-127856739D02*
X91683524Y-127856739D01*
X91302571Y-127856739D02*
X91302571Y-128666262D01*
X91302571Y-128666262D02*
X91254952Y-128761500D01*
X91254952Y-128761500D02*
X91207333Y-128809120D01*
X91207333Y-128809120D02*
X91112095Y-128856739D01*
X91112095Y-128856739D02*
X90921619Y-128856739D01*
X90921619Y-128856739D02*
X90826381Y-128809120D01*
X90826381Y-128809120D02*
X90778762Y-128761500D01*
X90778762Y-128761500D02*
X90731143Y-128666262D01*
X90731143Y-128666262D02*
X90731143Y-127856739D01*
X90254952Y-128856739D02*
X90254952Y-127856739D01*
X90254952Y-127856739D02*
X89683524Y-128856739D01*
X89683524Y-128856739D02*
X89683524Y-127856739D01*
X123292515Y-71602019D02*
X123292515Y-70602019D01*
X123292515Y-70602019D02*
X123054420Y-70602019D01*
X123054420Y-70602019D02*
X122911563Y-70649638D01*
X122911563Y-70649638D02*
X122816325Y-70744876D01*
X122816325Y-70744876D02*
X122768706Y-70840114D01*
X122768706Y-70840114D02*
X122721087Y-71030590D01*
X122721087Y-71030590D02*
X122721087Y-71173447D01*
X122721087Y-71173447D02*
X122768706Y-71363923D01*
X122768706Y-71363923D02*
X122816325Y-71459161D01*
X122816325Y-71459161D02*
X122911563Y-71554400D01*
X122911563Y-71554400D02*
X123054420Y-71602019D01*
X123054420Y-71602019D02*
X123292515Y-71602019D01*
X122102039Y-70602019D02*
X121911563Y-70602019D01*
X121911563Y-70602019D02*
X121816325Y-70649638D01*
X121816325Y-70649638D02*
X121721087Y-70744876D01*
X121721087Y-70744876D02*
X121673468Y-70935352D01*
X121673468Y-70935352D02*
X121673468Y-71268685D01*
X121673468Y-71268685D02*
X121721087Y-71459161D01*
X121721087Y-71459161D02*
X121816325Y-71554400D01*
X121816325Y-71554400D02*
X121911563Y-71602019D01*
X121911563Y-71602019D02*
X122102039Y-71602019D01*
X122102039Y-71602019D02*
X122197277Y-71554400D01*
X122197277Y-71554400D02*
X122292515Y-71459161D01*
X122292515Y-71459161D02*
X122340134Y-71268685D01*
X122340134Y-71268685D02*
X122340134Y-70935352D01*
X122340134Y-70935352D02*
X122292515Y-70744876D01*
X122292515Y-70744876D02*
X122197277Y-70649638D01*
X122197277Y-70649638D02*
X122102039Y-70602019D01*
X120482991Y-71602019D02*
X120482991Y-70602019D01*
X120482991Y-70602019D02*
X119911563Y-71602019D01*
X119911563Y-71602019D02*
X119911563Y-70602019D01*
X119244896Y-70602019D02*
X119054420Y-70602019D01*
X119054420Y-70602019D02*
X118959182Y-70649638D01*
X118959182Y-70649638D02*
X118863944Y-70744876D01*
X118863944Y-70744876D02*
X118816325Y-70935352D01*
X118816325Y-70935352D02*
X118816325Y-71268685D01*
X118816325Y-71268685D02*
X118863944Y-71459161D01*
X118863944Y-71459161D02*
X118959182Y-71554400D01*
X118959182Y-71554400D02*
X119054420Y-71602019D01*
X119054420Y-71602019D02*
X119244896Y-71602019D01*
X119244896Y-71602019D02*
X119340134Y-71554400D01*
X119340134Y-71554400D02*
X119435372Y-71459161D01*
X119435372Y-71459161D02*
X119482991Y-71268685D01*
X119482991Y-71268685D02*
X119482991Y-70935352D01*
X119482991Y-70935352D02*
X119435372Y-70744876D01*
X119435372Y-70744876D02*
X119340134Y-70649638D01*
X119340134Y-70649638D02*
X119244896Y-70602019D01*
X118530610Y-70602019D02*
X117959182Y-70602019D01*
X118244896Y-71602019D02*
X118244896Y-70602019D01*
X116959181Y-70602019D02*
X116721086Y-71602019D01*
X116721086Y-71602019D02*
X116530610Y-70887733D01*
X116530610Y-70887733D02*
X116340134Y-71602019D01*
X116340134Y-71602019D02*
X116102039Y-70602019D01*
X115768705Y-71316304D02*
X115292515Y-71316304D01*
X115863943Y-71602019D02*
X115530610Y-70602019D01*
X115530610Y-70602019D02*
X115197277Y-71602019D01*
X115006800Y-70602019D02*
X114435372Y-70602019D01*
X114721086Y-71602019D02*
X114721086Y-70602019D01*
X114102038Y-71078209D02*
X113768705Y-71078209D01*
X113625848Y-71602019D02*
X114102038Y-71602019D01*
X114102038Y-71602019D02*
X114102038Y-70602019D01*
X114102038Y-70602019D02*
X113625848Y-70602019D01*
X112625848Y-71602019D02*
X112959181Y-71125828D01*
X113197276Y-71602019D02*
X113197276Y-70602019D01*
X113197276Y-70602019D02*
X112816324Y-70602019D01*
X112816324Y-70602019D02*
X112721086Y-70649638D01*
X112721086Y-70649638D02*
X112673467Y-70697257D01*
X112673467Y-70697257D02*
X112625848Y-70792495D01*
X112625848Y-70792495D02*
X112625848Y-70935352D01*
X112625848Y-70935352D02*
X112673467Y-71030590D01*
X112673467Y-71030590D02*
X112721086Y-71078209D01*
X112721086Y-71078209D02*
X112816324Y-71125828D01*
X112816324Y-71125828D02*
X113197276Y-71125828D01*
X112197276Y-71506780D02*
X112149657Y-71554400D01*
X112149657Y-71554400D02*
X112197276Y-71602019D01*
X112197276Y-71602019D02*
X112244895Y-71554400D01*
X112244895Y-71554400D02*
X112197276Y-71506780D01*
X112197276Y-71506780D02*
X112197276Y-71602019D01*
X112197276Y-71221066D02*
X112244895Y-70649638D01*
X112244895Y-70649638D02*
X112197276Y-70602019D01*
X112197276Y-70602019D02*
X112149657Y-70649638D01*
X112149657Y-70649638D02*
X112197276Y-71221066D01*
X112197276Y-71221066D02*
X112197276Y-70602019D01*
X89750000Y-136500000D02*
X89750000Y-135400000D01*
X89750000Y-135000000D02*
X89750000Y-133900000D01*
X89750000Y-133500000D02*
X89750000Y-132400000D01*
X89750000Y-132000000D02*
X89750000Y-130900000D01*
X89750000Y-130500000D02*
X89750000Y-129400000D01*
X86750000Y-138500000D02*
X87665255Y-137889830D01*
X87998075Y-137667950D02*
X88913331Y-137057779D01*
X89246151Y-136835899D02*
X89749999Y-136500000D01*
X110750000Y-139000000D02*
X110750000Y-140100000D01*
X110750000Y-140500000D02*
X110750000Y-141600000D01*
X110750000Y-142000000D02*
X110750000Y-143100000D01*
X110750000Y-143500000D02*
X110750000Y-144600000D01*
X110750000Y-145000000D02*
X110750000Y-146100000D01*
X110750000Y-146500000D02*
X110750000Y-147600000D01*
X110750000Y-148000000D02*
X110750000Y-149100000D01*
X110750000Y-149500000D02*
X110750000Y-150000000D01*
X86750000Y-150000000D02*
X86750000Y-148900000D01*
X86750000Y-148500000D02*
X86750000Y-147400000D01*
X86750000Y-147000000D02*
X86750000Y-145900000D01*
X86750000Y-145500000D02*
X86750000Y-144400000D01*
X86750000Y-144000000D02*
X86750000Y-142900000D01*
X86750000Y-142500000D02*
X86750000Y-141400000D01*
X86750000Y-141000000D02*
X86750000Y-139900000D01*
X86750000Y-139500000D02*
X86750000Y-138500000D01*
X101000000Y-129250000D02*
X101784326Y-130021254D01*
X102069536Y-130301710D02*
X102853862Y-131072964D01*
X103139071Y-131353420D02*
X103923397Y-132124674D01*
D11*
X87983114Y-99383772D02*
G75*
G02*
X87616886Y-99383772I-183114J0D01*
G01*
X87616886Y-99383772D02*
G75*
G02*
X87983114Y-99383772I183114J0D01*
G01*
D10*
X108000800Y-136321800D02*
X108788725Y-137089377D01*
X109075244Y-137368495D02*
X109863169Y-138136072D01*
X110149687Y-138415191D02*
X110749999Y-139000000D01*
X89750000Y-129250000D02*
X90850000Y-129250000D01*
X91250000Y-129250000D02*
X92350000Y-129250000D01*
X92750000Y-129250000D02*
X93850000Y-129250000D01*
X94250000Y-129250000D02*
X95350000Y-129250000D01*
X95750000Y-129250000D02*
X96850000Y-129250000D01*
X97250000Y-129250000D02*
X98350000Y-129250000D01*
X98750000Y-129250000D02*
X99850000Y-129250000D01*
X100250000Y-129250000D02*
X101000000Y-129250000D01*
X65103884Y-112808533D02*
X65865789Y-112808533D01*
X67865789Y-112808533D02*
X68627694Y-112808533D01*
X68246741Y-112427580D02*
X68246741Y-113189485D01*
X65103884Y-136808533D02*
X65865789Y-136808533D01*
X67865789Y-136808533D02*
X68627694Y-136808533D01*
X68246741Y-136427580D02*
X68246741Y-137189485D01*
X122196115Y-63172419D02*
X122196115Y-62172419D01*
X122196115Y-62172419D02*
X121958020Y-62172419D01*
X121958020Y-62172419D02*
X121815163Y-62220038D01*
X121815163Y-62220038D02*
X121719925Y-62315276D01*
X121719925Y-62315276D02*
X121672306Y-62410514D01*
X121672306Y-62410514D02*
X121624687Y-62600990D01*
X121624687Y-62600990D02*
X121624687Y-62743847D01*
X121624687Y-62743847D02*
X121672306Y-62934323D01*
X121672306Y-62934323D02*
X121719925Y-63029561D01*
X121719925Y-63029561D02*
X121815163Y-63124800D01*
X121815163Y-63124800D02*
X121958020Y-63172419D01*
X121958020Y-63172419D02*
X122196115Y-63172419D01*
X121005639Y-62172419D02*
X120815163Y-62172419D01*
X120815163Y-62172419D02*
X120719925Y-62220038D01*
X120719925Y-62220038D02*
X120624687Y-62315276D01*
X120624687Y-62315276D02*
X120577068Y-62505752D01*
X120577068Y-62505752D02*
X120577068Y-62839085D01*
X120577068Y-62839085D02*
X120624687Y-63029561D01*
X120624687Y-63029561D02*
X120719925Y-63124800D01*
X120719925Y-63124800D02*
X120815163Y-63172419D01*
X120815163Y-63172419D02*
X121005639Y-63172419D01*
X121005639Y-63172419D02*
X121100877Y-63124800D01*
X121100877Y-63124800D02*
X121196115Y-63029561D01*
X121196115Y-63029561D02*
X121243734Y-62839085D01*
X121243734Y-62839085D02*
X121243734Y-62505752D01*
X121243734Y-62505752D02*
X121196115Y-62315276D01*
X121196115Y-62315276D02*
X121100877Y-62220038D01*
X121100877Y-62220038D02*
X121005639Y-62172419D01*
X119386591Y-63172419D02*
X119386591Y-62172419D01*
X119386591Y-62172419D02*
X118815163Y-63172419D01*
X118815163Y-63172419D02*
X118815163Y-62172419D01*
X118148496Y-62172419D02*
X117958020Y-62172419D01*
X117958020Y-62172419D02*
X117862782Y-62220038D01*
X117862782Y-62220038D02*
X117767544Y-62315276D01*
X117767544Y-62315276D02*
X117719925Y-62505752D01*
X117719925Y-62505752D02*
X117719925Y-62839085D01*
X117719925Y-62839085D02*
X117767544Y-63029561D01*
X117767544Y-63029561D02*
X117862782Y-63124800D01*
X117862782Y-63124800D02*
X117958020Y-63172419D01*
X117958020Y-63172419D02*
X118148496Y-63172419D01*
X118148496Y-63172419D02*
X118243734Y-63124800D01*
X118243734Y-63124800D02*
X118338972Y-63029561D01*
X118338972Y-63029561D02*
X118386591Y-62839085D01*
X118386591Y-62839085D02*
X118386591Y-62505752D01*
X118386591Y-62505752D02*
X118338972Y-62315276D01*
X118338972Y-62315276D02*
X118243734Y-62220038D01*
X118243734Y-62220038D02*
X118148496Y-62172419D01*
X117434210Y-62172419D02*
X116862782Y-62172419D01*
X117148496Y-63172419D02*
X117148496Y-62172419D01*
X115767543Y-62648609D02*
X115434210Y-62648609D01*
X115291353Y-63172419D02*
X115767543Y-63172419D01*
X115767543Y-63172419D02*
X115767543Y-62172419D01*
X115767543Y-62172419D02*
X115291353Y-62172419D01*
X114910400Y-62886704D02*
X114434210Y-62886704D01*
X115005638Y-63172419D02*
X114672305Y-62172419D01*
X114672305Y-62172419D02*
X114338972Y-63172419D01*
X114148495Y-62172419D02*
X113577067Y-62172419D01*
X113862781Y-63172419D02*
X113862781Y-62172419D01*
X113243733Y-63077180D02*
X113196114Y-63124800D01*
X113196114Y-63124800D02*
X113243733Y-63172419D01*
X113243733Y-63172419D02*
X113291352Y-63124800D01*
X113291352Y-63124800D02*
X113243733Y-63077180D01*
X113243733Y-63077180D02*
X113243733Y-63172419D01*
X113243733Y-62791466D02*
X113291352Y-62220038D01*
X113291352Y-62220038D02*
X113243733Y-62172419D01*
X113243733Y-62172419D02*
X113196114Y-62220038D01*
X113196114Y-62220038D02*
X113243733Y-62791466D01*
X113243733Y-62791466D02*
X113243733Y-62172419D01*
X65103884Y-100808533D02*
X65865789Y-100808533D01*
X67865789Y-100808533D02*
X68627694Y-100808533D01*
X68246741Y-100427580D02*
X68246741Y-101189485D01*
X76803884Y-123758533D02*
X77565789Y-123758533D01*
X81089599Y-123758533D02*
X81851504Y-123758533D01*
X81470551Y-123377580D02*
X81470551Y-124139485D01*
X67308533Y-74396115D02*
X67308533Y-73634211D01*
X67308533Y-70110400D02*
X67308533Y-69348496D01*
X66927580Y-69729448D02*
X67689485Y-69729448D01*
X86619675Y-72395446D02*
X87619675Y-72633541D01*
X87619675Y-72633541D02*
X86905389Y-72824017D01*
X86905389Y-72824017D02*
X87619675Y-73014493D01*
X87619675Y-73014493D02*
X86619675Y-73252589D01*
X87619675Y-73633541D02*
X86619675Y-73633541D01*
X87619675Y-74062112D02*
X87095865Y-74062112D01*
X87095865Y-74062112D02*
X87000627Y-74014493D01*
X87000627Y-74014493D02*
X86953008Y-73919255D01*
X86953008Y-73919255D02*
X86953008Y-73776398D01*
X86953008Y-73776398D02*
X87000627Y-73681160D01*
X87000627Y-73681160D02*
X87048246Y-73633541D01*
X87619675Y-74966874D02*
X87095865Y-74966874D01*
X87095865Y-74966874D02*
X87000627Y-74919255D01*
X87000627Y-74919255D02*
X86953008Y-74824017D01*
X86953008Y-74824017D02*
X86953008Y-74633541D01*
X86953008Y-74633541D02*
X87000627Y-74538303D01*
X87572056Y-74966874D02*
X87619675Y-74871636D01*
X87619675Y-74871636D02*
X87619675Y-74633541D01*
X87619675Y-74633541D02*
X87572056Y-74538303D01*
X87572056Y-74538303D02*
X87476817Y-74490684D01*
X87476817Y-74490684D02*
X87381579Y-74490684D01*
X87381579Y-74490684D02*
X87286341Y-74538303D01*
X87286341Y-74538303D02*
X87238722Y-74633541D01*
X87238722Y-74633541D02*
X87238722Y-74871636D01*
X87238722Y-74871636D02*
X87191103Y-74966874D01*
X86953008Y-75300208D02*
X86953008Y-75681160D01*
X86619675Y-75443065D02*
X87476817Y-75443065D01*
X87476817Y-75443065D02*
X87572056Y-75490684D01*
X87572056Y-75490684D02*
X87619675Y-75585922D01*
X87619675Y-75585922D02*
X87619675Y-75681160D01*
X87619675Y-77204970D02*
X87095865Y-77204970D01*
X87095865Y-77204970D02*
X87000627Y-77157351D01*
X87000627Y-77157351D02*
X86953008Y-77062113D01*
X86953008Y-77062113D02*
X86953008Y-76871637D01*
X86953008Y-76871637D02*
X87000627Y-76776399D01*
X87572056Y-77204970D02*
X87619675Y-77109732D01*
X87619675Y-77109732D02*
X87619675Y-76871637D01*
X87619675Y-76871637D02*
X87572056Y-76776399D01*
X87572056Y-76776399D02*
X87476817Y-76728780D01*
X87476817Y-76728780D02*
X87381579Y-76728780D01*
X87381579Y-76728780D02*
X87286341Y-76776399D01*
X87286341Y-76776399D02*
X87238722Y-76871637D01*
X87238722Y-76871637D02*
X87238722Y-77109732D01*
X87238722Y-77109732D02*
X87191103Y-77204970D01*
X87619675Y-77681161D02*
X86953008Y-77681161D01*
X87143484Y-77681161D02*
X87048246Y-77728780D01*
X87048246Y-77728780D02*
X87000627Y-77776399D01*
X87000627Y-77776399D02*
X86953008Y-77871637D01*
X86953008Y-77871637D02*
X86953008Y-77966875D01*
X87572056Y-78681161D02*
X87619675Y-78585923D01*
X87619675Y-78585923D02*
X87619675Y-78395447D01*
X87619675Y-78395447D02*
X87572056Y-78300209D01*
X87572056Y-78300209D02*
X87476817Y-78252590D01*
X87476817Y-78252590D02*
X87095865Y-78252590D01*
X87095865Y-78252590D02*
X87000627Y-78300209D01*
X87000627Y-78300209D02*
X86953008Y-78395447D01*
X86953008Y-78395447D02*
X86953008Y-78585923D01*
X86953008Y-78585923D02*
X87000627Y-78681161D01*
X87000627Y-78681161D02*
X87095865Y-78728780D01*
X87095865Y-78728780D02*
X87191103Y-78728780D01*
X87191103Y-78728780D02*
X87286341Y-78252590D01*
X86953008Y-79824019D02*
X87619675Y-80062114D01*
X86953008Y-80300209D02*
X87619675Y-80062114D01*
X87619675Y-80062114D02*
X87857770Y-79966876D01*
X87857770Y-79966876D02*
X87905389Y-79919257D01*
X87905389Y-79919257D02*
X87953008Y-79824019D01*
X87619675Y-80824019D02*
X87572056Y-80728781D01*
X87572056Y-80728781D02*
X87524436Y-80681162D01*
X87524436Y-80681162D02*
X87429198Y-80633543D01*
X87429198Y-80633543D02*
X87143484Y-80633543D01*
X87143484Y-80633543D02*
X87048246Y-80681162D01*
X87048246Y-80681162D02*
X87000627Y-80728781D01*
X87000627Y-80728781D02*
X86953008Y-80824019D01*
X86953008Y-80824019D02*
X86953008Y-80966876D01*
X86953008Y-80966876D02*
X87000627Y-81062114D01*
X87000627Y-81062114D02*
X87048246Y-81109733D01*
X87048246Y-81109733D02*
X87143484Y-81157352D01*
X87143484Y-81157352D02*
X87429198Y-81157352D01*
X87429198Y-81157352D02*
X87524436Y-81109733D01*
X87524436Y-81109733D02*
X87572056Y-81062114D01*
X87572056Y-81062114D02*
X87619675Y-80966876D01*
X87619675Y-80966876D02*
X87619675Y-80824019D01*
X86953008Y-82014495D02*
X87619675Y-82014495D01*
X86953008Y-81585924D02*
X87476817Y-81585924D01*
X87476817Y-81585924D02*
X87572056Y-81633543D01*
X87572056Y-81633543D02*
X87619675Y-81728781D01*
X87619675Y-81728781D02*
X87619675Y-81871638D01*
X87619675Y-81871638D02*
X87572056Y-81966876D01*
X87572056Y-81966876D02*
X87524436Y-82014495D01*
X89229619Y-72633541D02*
X89182000Y-72538303D01*
X89182000Y-72538303D02*
X89086761Y-72490684D01*
X89086761Y-72490684D02*
X88229619Y-72490684D01*
X89229619Y-73157351D02*
X89182000Y-73062113D01*
X89182000Y-73062113D02*
X89134380Y-73014494D01*
X89134380Y-73014494D02*
X89039142Y-72966875D01*
X89039142Y-72966875D02*
X88753428Y-72966875D01*
X88753428Y-72966875D02*
X88658190Y-73014494D01*
X88658190Y-73014494D02*
X88610571Y-73062113D01*
X88610571Y-73062113D02*
X88562952Y-73157351D01*
X88562952Y-73157351D02*
X88562952Y-73300208D01*
X88562952Y-73300208D02*
X88610571Y-73395446D01*
X88610571Y-73395446D02*
X88658190Y-73443065D01*
X88658190Y-73443065D02*
X88753428Y-73490684D01*
X88753428Y-73490684D02*
X89039142Y-73490684D01*
X89039142Y-73490684D02*
X89134380Y-73443065D01*
X89134380Y-73443065D02*
X89182000Y-73395446D01*
X89182000Y-73395446D02*
X89229619Y-73300208D01*
X89229619Y-73300208D02*
X89229619Y-73157351D01*
X89229619Y-74062113D02*
X89182000Y-73966875D01*
X89182000Y-73966875D02*
X89134380Y-73919256D01*
X89134380Y-73919256D02*
X89039142Y-73871637D01*
X89039142Y-73871637D02*
X88753428Y-73871637D01*
X88753428Y-73871637D02*
X88658190Y-73919256D01*
X88658190Y-73919256D02*
X88610571Y-73966875D01*
X88610571Y-73966875D02*
X88562952Y-74062113D01*
X88562952Y-74062113D02*
X88562952Y-74204970D01*
X88562952Y-74204970D02*
X88610571Y-74300208D01*
X88610571Y-74300208D02*
X88658190Y-74347827D01*
X88658190Y-74347827D02*
X88753428Y-74395446D01*
X88753428Y-74395446D02*
X89039142Y-74395446D01*
X89039142Y-74395446D02*
X89134380Y-74347827D01*
X89134380Y-74347827D02*
X89182000Y-74300208D01*
X89182000Y-74300208D02*
X89229619Y-74204970D01*
X89229619Y-74204970D02*
X89229619Y-74062113D01*
X89229619Y-74824018D02*
X88229619Y-74824018D01*
X88848666Y-74919256D02*
X89229619Y-75204970D01*
X88562952Y-75204970D02*
X88943904Y-74824018D01*
X89229619Y-75633542D02*
X88562952Y-75633542D01*
X88229619Y-75633542D02*
X88277238Y-75585923D01*
X88277238Y-75585923D02*
X88324857Y-75633542D01*
X88324857Y-75633542D02*
X88277238Y-75681161D01*
X88277238Y-75681161D02*
X88229619Y-75633542D01*
X88229619Y-75633542D02*
X88324857Y-75633542D01*
X88562952Y-76109732D02*
X89229619Y-76109732D01*
X88658190Y-76109732D02*
X88610571Y-76157351D01*
X88610571Y-76157351D02*
X88562952Y-76252589D01*
X88562952Y-76252589D02*
X88562952Y-76395446D01*
X88562952Y-76395446D02*
X88610571Y-76490684D01*
X88610571Y-76490684D02*
X88705809Y-76538303D01*
X88705809Y-76538303D02*
X89229619Y-76538303D01*
X88562952Y-77443065D02*
X89372476Y-77443065D01*
X89372476Y-77443065D02*
X89467714Y-77395446D01*
X89467714Y-77395446D02*
X89515333Y-77347827D01*
X89515333Y-77347827D02*
X89562952Y-77252589D01*
X89562952Y-77252589D02*
X89562952Y-77109732D01*
X89562952Y-77109732D02*
X89515333Y-77014494D01*
X89182000Y-77443065D02*
X89229619Y-77347827D01*
X89229619Y-77347827D02*
X89229619Y-77157351D01*
X89229619Y-77157351D02*
X89182000Y-77062113D01*
X89182000Y-77062113D02*
X89134380Y-77014494D01*
X89134380Y-77014494D02*
X89039142Y-76966875D01*
X89039142Y-76966875D02*
X88753428Y-76966875D01*
X88753428Y-76966875D02*
X88658190Y-77014494D01*
X88658190Y-77014494D02*
X88610571Y-77062113D01*
X88610571Y-77062113D02*
X88562952Y-77157351D01*
X88562952Y-77157351D02*
X88562952Y-77347827D01*
X88562952Y-77347827D02*
X88610571Y-77443065D01*
X88562952Y-78538304D02*
X88562952Y-78919256D01*
X89229619Y-78681161D02*
X88372476Y-78681161D01*
X88372476Y-78681161D02*
X88277238Y-78728780D01*
X88277238Y-78728780D02*
X88229619Y-78824018D01*
X88229619Y-78824018D02*
X88229619Y-78919256D01*
X89229619Y-79395447D02*
X89182000Y-79300209D01*
X89182000Y-79300209D02*
X89134380Y-79252590D01*
X89134380Y-79252590D02*
X89039142Y-79204971D01*
X89039142Y-79204971D02*
X88753428Y-79204971D01*
X88753428Y-79204971D02*
X88658190Y-79252590D01*
X88658190Y-79252590D02*
X88610571Y-79300209D01*
X88610571Y-79300209D02*
X88562952Y-79395447D01*
X88562952Y-79395447D02*
X88562952Y-79538304D01*
X88562952Y-79538304D02*
X88610571Y-79633542D01*
X88610571Y-79633542D02*
X88658190Y-79681161D01*
X88658190Y-79681161D02*
X88753428Y-79728780D01*
X88753428Y-79728780D02*
X89039142Y-79728780D01*
X89039142Y-79728780D02*
X89134380Y-79681161D01*
X89134380Y-79681161D02*
X89182000Y-79633542D01*
X89182000Y-79633542D02*
X89229619Y-79538304D01*
X89229619Y-79538304D02*
X89229619Y-79395447D01*
X89229619Y-80157352D02*
X88562952Y-80157352D01*
X88753428Y-80157352D02*
X88658190Y-80204971D01*
X88658190Y-80204971D02*
X88610571Y-80252590D01*
X88610571Y-80252590D02*
X88562952Y-80347828D01*
X88562952Y-80347828D02*
X88562952Y-80443066D01*
X89134380Y-80919257D02*
X89182000Y-80966876D01*
X89182000Y-80966876D02*
X89229619Y-80919257D01*
X89229619Y-80919257D02*
X89182000Y-80871638D01*
X89182000Y-80871638D02*
X89134380Y-80919257D01*
X89134380Y-80919257D02*
X89229619Y-80919257D01*
X88277238Y-80728781D02*
X88229619Y-80824019D01*
X88229619Y-80824019D02*
X88229619Y-81062114D01*
X88229619Y-81062114D02*
X88277238Y-81157352D01*
X88277238Y-81157352D02*
X88372476Y-81204971D01*
X88372476Y-81204971D02*
X88467714Y-81204971D01*
X88467714Y-81204971D02*
X88562952Y-81157352D01*
X88562952Y-81157352D02*
X88610571Y-81109733D01*
X88610571Y-81109733D02*
X88658190Y-81014495D01*
X88658190Y-81014495D02*
X88705809Y-80966876D01*
X88705809Y-80966876D02*
X88801047Y-80919257D01*
X88801047Y-80919257D02*
X88848666Y-80919257D01*
D12*
X89017131Y-123750633D02*
X89779036Y-123750633D01*
X91779036Y-123750633D02*
X92540941Y-123750633D01*
X92159988Y-123369680D02*
X92159988Y-124131585D01*
D10*
X65099284Y-88722733D02*
X65861189Y-88722733D01*
X67861189Y-88722733D02*
X68623094Y-88722733D01*
X68242141Y-88341780D02*
X68242141Y-89103685D01*
X65103884Y-124708533D02*
X65865789Y-124708533D01*
X67865789Y-124708533D02*
X68627694Y-124708533D01*
X68246741Y-124327580D02*
X68246741Y-125089485D01*
X74103884Y-83108533D02*
X74865789Y-83108533D01*
X79151504Y-83108533D02*
X79913409Y-83108533D01*
X79532456Y-82727580D02*
X79532456Y-83489485D01*
D13*
X68126885Y-140611019D02*
X68126885Y-139611019D01*
X68126885Y-139611019D02*
X67888790Y-139611019D01*
X67888790Y-139611019D02*
X67745933Y-139658638D01*
X67745933Y-139658638D02*
X67650695Y-139753876D01*
X67650695Y-139753876D02*
X67603076Y-139849114D01*
X67603076Y-139849114D02*
X67555457Y-140039590D01*
X67555457Y-140039590D02*
X67555457Y-140182447D01*
X67555457Y-140182447D02*
X67603076Y-140372923D01*
X67603076Y-140372923D02*
X67650695Y-140468161D01*
X67650695Y-140468161D02*
X67745933Y-140563400D01*
X67745933Y-140563400D02*
X67888790Y-140611019D01*
X67888790Y-140611019D02*
X68126885Y-140611019D01*
X66603076Y-140611019D02*
X67174504Y-140611019D01*
X66888790Y-140611019D02*
X66888790Y-139611019D01*
X66888790Y-139611019D02*
X66984028Y-139753876D01*
X66984028Y-139753876D02*
X67079266Y-139849114D01*
X67079266Y-139849114D02*
X67174504Y-139896733D01*
X65984028Y-139611019D02*
X65888790Y-139611019D01*
X65888790Y-139611019D02*
X65793552Y-139658638D01*
X65793552Y-139658638D02*
X65745933Y-139706257D01*
X65745933Y-139706257D02*
X65698314Y-139801495D01*
X65698314Y-139801495D02*
X65650695Y-139991971D01*
X65650695Y-139991971D02*
X65650695Y-140230066D01*
X65650695Y-140230066D02*
X65698314Y-140420542D01*
X65698314Y-140420542D02*
X65745933Y-140515780D01*
X65745933Y-140515780D02*
X65793552Y-140563400D01*
X65793552Y-140563400D02*
X65888790Y-140611019D01*
X65888790Y-140611019D02*
X65984028Y-140611019D01*
X65984028Y-140611019D02*
X66079266Y-140563400D01*
X66079266Y-140563400D02*
X66126885Y-140515780D01*
X66126885Y-140515780D02*
X66174504Y-140420542D01*
X66174504Y-140420542D02*
X66222123Y-140230066D01*
X66222123Y-140230066D02*
X66222123Y-139991971D01*
X66222123Y-139991971D02*
X66174504Y-139801495D01*
X66174504Y-139801495D02*
X66126885Y-139706257D01*
X66126885Y-139706257D02*
X66079266Y-139658638D01*
X66079266Y-139658638D02*
X65984028Y-139611019D01*
X67641694Y-128596819D02*
X67641694Y-127596819D01*
X67641694Y-127596819D02*
X67403599Y-127596819D01*
X67403599Y-127596819D02*
X67260742Y-127644438D01*
X67260742Y-127644438D02*
X67165504Y-127739676D01*
X67165504Y-127739676D02*
X67117885Y-127834914D01*
X67117885Y-127834914D02*
X67070266Y-128025390D01*
X67070266Y-128025390D02*
X67070266Y-128168247D01*
X67070266Y-128168247D02*
X67117885Y-128358723D01*
X67117885Y-128358723D02*
X67165504Y-128453961D01*
X67165504Y-128453961D02*
X67260742Y-128549200D01*
X67260742Y-128549200D02*
X67403599Y-128596819D01*
X67403599Y-128596819D02*
X67641694Y-128596819D01*
X66594075Y-128596819D02*
X66403599Y-128596819D01*
X66403599Y-128596819D02*
X66308361Y-128549200D01*
X66308361Y-128549200D02*
X66260742Y-128501580D01*
X66260742Y-128501580D02*
X66165504Y-128358723D01*
X66165504Y-128358723D02*
X66117885Y-128168247D01*
X66117885Y-128168247D02*
X66117885Y-127787295D01*
X66117885Y-127787295D02*
X66165504Y-127692057D01*
X66165504Y-127692057D02*
X66213123Y-127644438D01*
X66213123Y-127644438D02*
X66308361Y-127596819D01*
X66308361Y-127596819D02*
X66498837Y-127596819D01*
X66498837Y-127596819D02*
X66594075Y-127644438D01*
X66594075Y-127644438D02*
X66641694Y-127692057D01*
X66641694Y-127692057D02*
X66689313Y-127787295D01*
X66689313Y-127787295D02*
X66689313Y-128025390D01*
X66689313Y-128025390D02*
X66641694Y-128120628D01*
X66641694Y-128120628D02*
X66594075Y-128168247D01*
X66594075Y-128168247D02*
X66498837Y-128215866D01*
X66498837Y-128215866D02*
X66308361Y-128215866D01*
X66308361Y-128215866D02*
X66213123Y-128168247D01*
X66213123Y-128168247D02*
X66165504Y-128120628D01*
X66165504Y-128120628D02*
X66117885Y-128025390D01*
X79401894Y-124177219D02*
X79401894Y-123177219D01*
X79401894Y-123177219D02*
X79163799Y-123177219D01*
X79163799Y-123177219D02*
X79020942Y-123224838D01*
X79020942Y-123224838D02*
X78925704Y-123320076D01*
X78925704Y-123320076D02*
X78878085Y-123415314D01*
X78878085Y-123415314D02*
X78830466Y-123605790D01*
X78830466Y-123605790D02*
X78830466Y-123748647D01*
X78830466Y-123748647D02*
X78878085Y-123939123D01*
X78878085Y-123939123D02*
X78925704Y-124034361D01*
X78925704Y-124034361D02*
X79020942Y-124129600D01*
X79020942Y-124129600D02*
X79163799Y-124177219D01*
X79163799Y-124177219D02*
X79401894Y-124177219D01*
X78259037Y-123605790D02*
X78354275Y-123558171D01*
X78354275Y-123558171D02*
X78401894Y-123510552D01*
X78401894Y-123510552D02*
X78449513Y-123415314D01*
X78449513Y-123415314D02*
X78449513Y-123367695D01*
X78449513Y-123367695D02*
X78401894Y-123272457D01*
X78401894Y-123272457D02*
X78354275Y-123224838D01*
X78354275Y-123224838D02*
X78259037Y-123177219D01*
X78259037Y-123177219D02*
X78068561Y-123177219D01*
X78068561Y-123177219D02*
X77973323Y-123224838D01*
X77973323Y-123224838D02*
X77925704Y-123272457D01*
X77925704Y-123272457D02*
X77878085Y-123367695D01*
X77878085Y-123367695D02*
X77878085Y-123415314D01*
X77878085Y-123415314D02*
X77925704Y-123510552D01*
X77925704Y-123510552D02*
X77973323Y-123558171D01*
X77973323Y-123558171D02*
X78068561Y-123605790D01*
X78068561Y-123605790D02*
X78259037Y-123605790D01*
X78259037Y-123605790D02*
X78354275Y-123653409D01*
X78354275Y-123653409D02*
X78401894Y-123701028D01*
X78401894Y-123701028D02*
X78449513Y-123796266D01*
X78449513Y-123796266D02*
X78449513Y-123986742D01*
X78449513Y-123986742D02*
X78401894Y-124081980D01*
X78401894Y-124081980D02*
X78354275Y-124129600D01*
X78354275Y-124129600D02*
X78259037Y-124177219D01*
X78259037Y-124177219D02*
X78068561Y-124177219D01*
X78068561Y-124177219D02*
X77973323Y-124129600D01*
X77973323Y-124129600D02*
X77925704Y-124081980D01*
X77925704Y-124081980D02*
X77878085Y-123986742D01*
X77878085Y-123986742D02*
X77878085Y-123796266D01*
X77878085Y-123796266D02*
X77925704Y-123701028D01*
X77925704Y-123701028D02*
X77973323Y-123653409D01*
X77973323Y-123653409D02*
X78068561Y-123605790D01*
X91492294Y-124101019D02*
X91492294Y-123101019D01*
X91492294Y-123101019D02*
X91254199Y-123101019D01*
X91254199Y-123101019D02*
X91111342Y-123148638D01*
X91111342Y-123148638D02*
X91016104Y-123243876D01*
X91016104Y-123243876D02*
X90968485Y-123339114D01*
X90968485Y-123339114D02*
X90920866Y-123529590D01*
X90920866Y-123529590D02*
X90920866Y-123672447D01*
X90920866Y-123672447D02*
X90968485Y-123862923D01*
X90968485Y-123862923D02*
X91016104Y-123958161D01*
X91016104Y-123958161D02*
X91111342Y-124053400D01*
X91111342Y-124053400D02*
X91254199Y-124101019D01*
X91254199Y-124101019D02*
X91492294Y-124101019D01*
X90587532Y-123101019D02*
X89920866Y-123101019D01*
X89920866Y-123101019D02*
X90349437Y-124101019D01*
X67667094Y-116608019D02*
X67667094Y-115608019D01*
X67667094Y-115608019D02*
X67428999Y-115608019D01*
X67428999Y-115608019D02*
X67286142Y-115655638D01*
X67286142Y-115655638D02*
X67190904Y-115750876D01*
X67190904Y-115750876D02*
X67143285Y-115846114D01*
X67143285Y-115846114D02*
X67095666Y-116036590D01*
X67095666Y-116036590D02*
X67095666Y-116179447D01*
X67095666Y-116179447D02*
X67143285Y-116369923D01*
X67143285Y-116369923D02*
X67190904Y-116465161D01*
X67190904Y-116465161D02*
X67286142Y-116560400D01*
X67286142Y-116560400D02*
X67428999Y-116608019D01*
X67428999Y-116608019D02*
X67667094Y-116608019D01*
X66238523Y-115608019D02*
X66428999Y-115608019D01*
X66428999Y-115608019D02*
X66524237Y-115655638D01*
X66524237Y-115655638D02*
X66571856Y-115703257D01*
X66571856Y-115703257D02*
X66667094Y-115846114D01*
X66667094Y-115846114D02*
X66714713Y-116036590D01*
X66714713Y-116036590D02*
X66714713Y-116417542D01*
X66714713Y-116417542D02*
X66667094Y-116512780D01*
X66667094Y-116512780D02*
X66619475Y-116560400D01*
X66619475Y-116560400D02*
X66524237Y-116608019D01*
X66524237Y-116608019D02*
X66333761Y-116608019D01*
X66333761Y-116608019D02*
X66238523Y-116560400D01*
X66238523Y-116560400D02*
X66190904Y-116512780D01*
X66190904Y-116512780D02*
X66143285Y-116417542D01*
X66143285Y-116417542D02*
X66143285Y-116179447D01*
X66143285Y-116179447D02*
X66190904Y-116084209D01*
X66190904Y-116084209D02*
X66238523Y-116036590D01*
X66238523Y-116036590D02*
X66333761Y-115988971D01*
X66333761Y-115988971D02*
X66524237Y-115988971D01*
X66524237Y-115988971D02*
X66619475Y-116036590D01*
X66619475Y-116036590D02*
X66667094Y-116084209D01*
X66667094Y-116084209D02*
X66714713Y-116179447D01*
X67590894Y-104568419D02*
X67590894Y-103568419D01*
X67590894Y-103568419D02*
X67352799Y-103568419D01*
X67352799Y-103568419D02*
X67209942Y-103616038D01*
X67209942Y-103616038D02*
X67114704Y-103711276D01*
X67114704Y-103711276D02*
X67067085Y-103806514D01*
X67067085Y-103806514D02*
X67019466Y-103996990D01*
X67019466Y-103996990D02*
X67019466Y-104139847D01*
X67019466Y-104139847D02*
X67067085Y-104330323D01*
X67067085Y-104330323D02*
X67114704Y-104425561D01*
X67114704Y-104425561D02*
X67209942Y-104520800D01*
X67209942Y-104520800D02*
X67352799Y-104568419D01*
X67352799Y-104568419D02*
X67590894Y-104568419D01*
X66114704Y-103568419D02*
X66590894Y-103568419D01*
X66590894Y-103568419D02*
X66638513Y-104044609D01*
X66638513Y-104044609D02*
X66590894Y-103996990D01*
X66590894Y-103996990D02*
X66495656Y-103949371D01*
X66495656Y-103949371D02*
X66257561Y-103949371D01*
X66257561Y-103949371D02*
X66162323Y-103996990D01*
X66162323Y-103996990D02*
X66114704Y-104044609D01*
X66114704Y-104044609D02*
X66067085Y-104139847D01*
X66067085Y-104139847D02*
X66067085Y-104377942D01*
X66067085Y-104377942D02*
X66114704Y-104473180D01*
X66114704Y-104473180D02*
X66162323Y-104520800D01*
X66162323Y-104520800D02*
X66257561Y-104568419D01*
X66257561Y-104568419D02*
X66495656Y-104568419D01*
X66495656Y-104568419D02*
X66590894Y-104520800D01*
X66590894Y-104520800D02*
X66638513Y-104473180D01*
X67667094Y-92707619D02*
X67667094Y-91707619D01*
X67667094Y-91707619D02*
X67428999Y-91707619D01*
X67428999Y-91707619D02*
X67286142Y-91755238D01*
X67286142Y-91755238D02*
X67190904Y-91850476D01*
X67190904Y-91850476D02*
X67143285Y-91945714D01*
X67143285Y-91945714D02*
X67095666Y-92136190D01*
X67095666Y-92136190D02*
X67095666Y-92279047D01*
X67095666Y-92279047D02*
X67143285Y-92469523D01*
X67143285Y-92469523D02*
X67190904Y-92564761D01*
X67190904Y-92564761D02*
X67286142Y-92660000D01*
X67286142Y-92660000D02*
X67428999Y-92707619D01*
X67428999Y-92707619D02*
X67667094Y-92707619D01*
X66238523Y-92040952D02*
X66238523Y-92707619D01*
X66476618Y-91660000D02*
X66714713Y-92374285D01*
X66714713Y-92374285D02*
X66095666Y-92374285D01*
X103142857Y-63704819D02*
X103476190Y-63228628D01*
X103714285Y-63704819D02*
X103714285Y-62704819D01*
X103714285Y-62704819D02*
X103333333Y-62704819D01*
X103333333Y-62704819D02*
X103238095Y-62752438D01*
X103238095Y-62752438D02*
X103190476Y-62800057D01*
X103190476Y-62800057D02*
X103142857Y-62895295D01*
X103142857Y-62895295D02*
X103142857Y-63038152D01*
X103142857Y-63038152D02*
X103190476Y-63133390D01*
X103190476Y-63133390D02*
X103238095Y-63181009D01*
X103238095Y-63181009D02*
X103333333Y-63228628D01*
X103333333Y-63228628D02*
X103714285Y-63228628D01*
X102190476Y-63704819D02*
X102761904Y-63704819D01*
X102476190Y-63704819D02*
X102476190Y-62704819D01*
X102476190Y-62704819D02*
X102571428Y-62847676D01*
X102571428Y-62847676D02*
X102666666Y-62942914D01*
X102666666Y-62942914D02*
X102761904Y-62990533D01*
X101857142Y-62704819D02*
X101238095Y-62704819D01*
X101238095Y-62704819D02*
X101571428Y-63085771D01*
X101571428Y-63085771D02*
X101428571Y-63085771D01*
X101428571Y-63085771D02*
X101333333Y-63133390D01*
X101333333Y-63133390D02*
X101285714Y-63181009D01*
X101285714Y-63181009D02*
X101238095Y-63276247D01*
X101238095Y-63276247D02*
X101238095Y-63514342D01*
X101238095Y-63514342D02*
X101285714Y-63609580D01*
X101285714Y-63609580D02*
X101333333Y-63657200D01*
X101333333Y-63657200D02*
X101428571Y-63704819D01*
X101428571Y-63704819D02*
X101714285Y-63704819D01*
X101714285Y-63704819D02*
X101809523Y-63657200D01*
X101809523Y-63657200D02*
X101857142Y-63609580D01*
X76150057Y-95404761D02*
X76102438Y-95309523D01*
X76102438Y-95309523D02*
X76007200Y-95214285D01*
X76007200Y-95214285D02*
X75864342Y-95071428D01*
X75864342Y-95071428D02*
X75816723Y-94976190D01*
X75816723Y-94976190D02*
X75816723Y-94880952D01*
X76054819Y-94928571D02*
X76007200Y-94833333D01*
X76007200Y-94833333D02*
X75911961Y-94738095D01*
X75911961Y-94738095D02*
X75721485Y-94690476D01*
X75721485Y-94690476D02*
X75388152Y-94690476D01*
X75388152Y-94690476D02*
X75197676Y-94738095D01*
X75197676Y-94738095D02*
X75102438Y-94833333D01*
X75102438Y-94833333D02*
X75054819Y-94928571D01*
X75054819Y-94928571D02*
X75054819Y-95119047D01*
X75054819Y-95119047D02*
X75102438Y-95214285D01*
X75102438Y-95214285D02*
X75197676Y-95309523D01*
X75197676Y-95309523D02*
X75388152Y-95357142D01*
X75388152Y-95357142D02*
X75721485Y-95357142D01*
X75721485Y-95357142D02*
X75911961Y-95309523D01*
X75911961Y-95309523D02*
X76007200Y-95214285D01*
X76007200Y-95214285D02*
X76054819Y-95119047D01*
X76054819Y-95119047D02*
X76054819Y-94928571D01*
X76054819Y-96309523D02*
X76054819Y-95738095D01*
X76054819Y-96023809D02*
X75054819Y-96023809D01*
X75054819Y-96023809D02*
X75197676Y-95928571D01*
X75197676Y-95928571D02*
X75292914Y-95833333D01*
X75292914Y-95833333D02*
X75340533Y-95738095D01*
X109259580Y-119894642D02*
X109307200Y-119847023D01*
X109307200Y-119847023D02*
X109354819Y-119704166D01*
X109354819Y-119704166D02*
X109354819Y-119608928D01*
X109354819Y-119608928D02*
X109307200Y-119466071D01*
X109307200Y-119466071D02*
X109211961Y-119370833D01*
X109211961Y-119370833D02*
X109116723Y-119323214D01*
X109116723Y-119323214D02*
X108926247Y-119275595D01*
X108926247Y-119275595D02*
X108783390Y-119275595D01*
X108783390Y-119275595D02*
X108592914Y-119323214D01*
X108592914Y-119323214D02*
X108497676Y-119370833D01*
X108497676Y-119370833D02*
X108402438Y-119466071D01*
X108402438Y-119466071D02*
X108354819Y-119608928D01*
X108354819Y-119608928D02*
X108354819Y-119704166D01*
X108354819Y-119704166D02*
X108402438Y-119847023D01*
X108402438Y-119847023D02*
X108450057Y-119894642D01*
X109354819Y-120847023D02*
X109354819Y-120275595D01*
X109354819Y-120561309D02*
X108354819Y-120561309D01*
X108354819Y-120561309D02*
X108497676Y-120466071D01*
X108497676Y-120466071D02*
X108592914Y-120370833D01*
X108592914Y-120370833D02*
X108640533Y-120275595D01*
X108688152Y-121704166D02*
X109354819Y-121704166D01*
X108307200Y-121466071D02*
X109021485Y-121227976D01*
X109021485Y-121227976D02*
X109021485Y-121847023D01*
X111359580Y-119894642D02*
X111407200Y-119847023D01*
X111407200Y-119847023D02*
X111454819Y-119704166D01*
X111454819Y-119704166D02*
X111454819Y-119608928D01*
X111454819Y-119608928D02*
X111407200Y-119466071D01*
X111407200Y-119466071D02*
X111311961Y-119370833D01*
X111311961Y-119370833D02*
X111216723Y-119323214D01*
X111216723Y-119323214D02*
X111026247Y-119275595D01*
X111026247Y-119275595D02*
X110883390Y-119275595D01*
X110883390Y-119275595D02*
X110692914Y-119323214D01*
X110692914Y-119323214D02*
X110597676Y-119370833D01*
X110597676Y-119370833D02*
X110502438Y-119466071D01*
X110502438Y-119466071D02*
X110454819Y-119608928D01*
X110454819Y-119608928D02*
X110454819Y-119704166D01*
X110454819Y-119704166D02*
X110502438Y-119847023D01*
X110502438Y-119847023D02*
X110550057Y-119894642D01*
X111454819Y-120847023D02*
X111454819Y-120275595D01*
X111454819Y-120561309D02*
X110454819Y-120561309D01*
X110454819Y-120561309D02*
X110597676Y-120466071D01*
X110597676Y-120466071D02*
X110692914Y-120370833D01*
X110692914Y-120370833D02*
X110740533Y-120275595D01*
X110454819Y-121180357D02*
X110454819Y-121799404D01*
X110454819Y-121799404D02*
X110835771Y-121466071D01*
X110835771Y-121466071D02*
X110835771Y-121608928D01*
X110835771Y-121608928D02*
X110883390Y-121704166D01*
X110883390Y-121704166D02*
X110931009Y-121751785D01*
X110931009Y-121751785D02*
X111026247Y-121799404D01*
X111026247Y-121799404D02*
X111264342Y-121799404D01*
X111264342Y-121799404D02*
X111359580Y-121751785D01*
X111359580Y-121751785D02*
X111407200Y-121704166D01*
X111407200Y-121704166D02*
X111454819Y-121608928D01*
X111454819Y-121608928D02*
X111454819Y-121323214D01*
X111454819Y-121323214D02*
X111407200Y-121227976D01*
X111407200Y-121227976D02*
X111359580Y-121180357D01*
X75850057Y-116004761D02*
X75802438Y-115909523D01*
X75802438Y-115909523D02*
X75707200Y-115814285D01*
X75707200Y-115814285D02*
X75564342Y-115671428D01*
X75564342Y-115671428D02*
X75516723Y-115576190D01*
X75516723Y-115576190D02*
X75516723Y-115480952D01*
X75754819Y-115528571D02*
X75707200Y-115433333D01*
X75707200Y-115433333D02*
X75611961Y-115338095D01*
X75611961Y-115338095D02*
X75421485Y-115290476D01*
X75421485Y-115290476D02*
X75088152Y-115290476D01*
X75088152Y-115290476D02*
X74897676Y-115338095D01*
X74897676Y-115338095D02*
X74802438Y-115433333D01*
X74802438Y-115433333D02*
X74754819Y-115528571D01*
X74754819Y-115528571D02*
X74754819Y-115719047D01*
X74754819Y-115719047D02*
X74802438Y-115814285D01*
X74802438Y-115814285D02*
X74897676Y-115909523D01*
X74897676Y-115909523D02*
X75088152Y-115957142D01*
X75088152Y-115957142D02*
X75421485Y-115957142D01*
X75421485Y-115957142D02*
X75611961Y-115909523D01*
X75611961Y-115909523D02*
X75707200Y-115814285D01*
X75707200Y-115814285D02*
X75754819Y-115719047D01*
X75754819Y-115719047D02*
X75754819Y-115528571D01*
X74754819Y-116290476D02*
X74754819Y-116909523D01*
X74754819Y-116909523D02*
X75135771Y-116576190D01*
X75135771Y-116576190D02*
X75135771Y-116719047D01*
X75135771Y-116719047D02*
X75183390Y-116814285D01*
X75183390Y-116814285D02*
X75231009Y-116861904D01*
X75231009Y-116861904D02*
X75326247Y-116909523D01*
X75326247Y-116909523D02*
X75564342Y-116909523D01*
X75564342Y-116909523D02*
X75659580Y-116861904D01*
X75659580Y-116861904D02*
X75707200Y-116814285D01*
X75707200Y-116814285D02*
X75754819Y-116719047D01*
X75754819Y-116719047D02*
X75754819Y-116433333D01*
X75754819Y-116433333D02*
X75707200Y-116338095D01*
X75707200Y-116338095D02*
X75659580Y-116290476D01*
X109109580Y-110357142D02*
X109157200Y-110309523D01*
X109157200Y-110309523D02*
X109204819Y-110166666D01*
X109204819Y-110166666D02*
X109204819Y-110071428D01*
X109204819Y-110071428D02*
X109157200Y-109928571D01*
X109157200Y-109928571D02*
X109061961Y-109833333D01*
X109061961Y-109833333D02*
X108966723Y-109785714D01*
X108966723Y-109785714D02*
X108776247Y-109738095D01*
X108776247Y-109738095D02*
X108633390Y-109738095D01*
X108633390Y-109738095D02*
X108442914Y-109785714D01*
X108442914Y-109785714D02*
X108347676Y-109833333D01*
X108347676Y-109833333D02*
X108252438Y-109928571D01*
X108252438Y-109928571D02*
X108204819Y-110071428D01*
X108204819Y-110071428D02*
X108204819Y-110166666D01*
X108204819Y-110166666D02*
X108252438Y-110309523D01*
X108252438Y-110309523D02*
X108300057Y-110357142D01*
X109204819Y-111309523D02*
X109204819Y-110738095D01*
X109204819Y-111023809D02*
X108204819Y-111023809D01*
X108204819Y-111023809D02*
X108347676Y-110928571D01*
X108347676Y-110928571D02*
X108442914Y-110833333D01*
X108442914Y-110833333D02*
X108490533Y-110738095D01*
X108300057Y-111690476D02*
X108252438Y-111738095D01*
X108252438Y-111738095D02*
X108204819Y-111833333D01*
X108204819Y-111833333D02*
X108204819Y-112071428D01*
X108204819Y-112071428D02*
X108252438Y-112166666D01*
X108252438Y-112166666D02*
X108300057Y-112214285D01*
X108300057Y-112214285D02*
X108395295Y-112261904D01*
X108395295Y-112261904D02*
X108490533Y-112261904D01*
X108490533Y-112261904D02*
X108633390Y-112214285D01*
X108633390Y-112214285D02*
X109204819Y-111642857D01*
X109204819Y-111642857D02*
X109204819Y-112261904D01*
X103142857Y-59704819D02*
X103476190Y-59228628D01*
X103714285Y-59704819D02*
X103714285Y-58704819D01*
X103714285Y-58704819D02*
X103333333Y-58704819D01*
X103333333Y-58704819D02*
X103238095Y-58752438D01*
X103238095Y-58752438D02*
X103190476Y-58800057D01*
X103190476Y-58800057D02*
X103142857Y-58895295D01*
X103142857Y-58895295D02*
X103142857Y-59038152D01*
X103142857Y-59038152D02*
X103190476Y-59133390D01*
X103190476Y-59133390D02*
X103238095Y-59181009D01*
X103238095Y-59181009D02*
X103333333Y-59228628D01*
X103333333Y-59228628D02*
X103714285Y-59228628D01*
X102190476Y-59704819D02*
X102761904Y-59704819D01*
X102476190Y-59704819D02*
X102476190Y-58704819D01*
X102476190Y-58704819D02*
X102571428Y-58847676D01*
X102571428Y-58847676D02*
X102666666Y-58942914D01*
X102666666Y-58942914D02*
X102761904Y-58990533D01*
X101238095Y-59704819D02*
X101809523Y-59704819D01*
X101523809Y-59704819D02*
X101523809Y-58704819D01*
X101523809Y-58704819D02*
X101619047Y-58847676D01*
X101619047Y-58847676D02*
X101714285Y-58942914D01*
X101714285Y-58942914D02*
X101809523Y-58990533D01*
X74150057Y-126104761D02*
X74102438Y-126009523D01*
X74102438Y-126009523D02*
X74007200Y-125914285D01*
X74007200Y-125914285D02*
X73864342Y-125771428D01*
X73864342Y-125771428D02*
X73816723Y-125676190D01*
X73816723Y-125676190D02*
X73816723Y-125580952D01*
X74054819Y-125628571D02*
X74007200Y-125533333D01*
X74007200Y-125533333D02*
X73911961Y-125438095D01*
X73911961Y-125438095D02*
X73721485Y-125390476D01*
X73721485Y-125390476D02*
X73388152Y-125390476D01*
X73388152Y-125390476D02*
X73197676Y-125438095D01*
X73197676Y-125438095D02*
X73102438Y-125533333D01*
X73102438Y-125533333D02*
X73054819Y-125628571D01*
X73054819Y-125628571D02*
X73054819Y-125819047D01*
X73054819Y-125819047D02*
X73102438Y-125914285D01*
X73102438Y-125914285D02*
X73197676Y-126009523D01*
X73197676Y-126009523D02*
X73388152Y-126057142D01*
X73388152Y-126057142D02*
X73721485Y-126057142D01*
X73721485Y-126057142D02*
X73911961Y-126009523D01*
X73911961Y-126009523D02*
X74007200Y-125914285D01*
X74007200Y-125914285D02*
X74054819Y-125819047D01*
X74054819Y-125819047D02*
X74054819Y-125628571D01*
X73054819Y-126914285D02*
X73054819Y-126723809D01*
X73054819Y-126723809D02*
X73102438Y-126628571D01*
X73102438Y-126628571D02*
X73150057Y-126580952D01*
X73150057Y-126580952D02*
X73292914Y-126485714D01*
X73292914Y-126485714D02*
X73483390Y-126438095D01*
X73483390Y-126438095D02*
X73864342Y-126438095D01*
X73864342Y-126438095D02*
X73959580Y-126485714D01*
X73959580Y-126485714D02*
X74007200Y-126533333D01*
X74007200Y-126533333D02*
X74054819Y-126628571D01*
X74054819Y-126628571D02*
X74054819Y-126819047D01*
X74054819Y-126819047D02*
X74007200Y-126914285D01*
X74007200Y-126914285D02*
X73959580Y-126961904D01*
X73959580Y-126961904D02*
X73864342Y-127009523D01*
X73864342Y-127009523D02*
X73626247Y-127009523D01*
X73626247Y-127009523D02*
X73531009Y-126961904D01*
X73531009Y-126961904D02*
X73483390Y-126914285D01*
X73483390Y-126914285D02*
X73435771Y-126819047D01*
X73435771Y-126819047D02*
X73435771Y-126628571D01*
X73435771Y-126628571D02*
X73483390Y-126533333D01*
X73483390Y-126533333D02*
X73531009Y-126485714D01*
X73531009Y-126485714D02*
X73626247Y-126438095D01*
X67509580Y-71833333D02*
X67557200Y-71785714D01*
X67557200Y-71785714D02*
X67604819Y-71642857D01*
X67604819Y-71642857D02*
X67604819Y-71547619D01*
X67604819Y-71547619D02*
X67557200Y-71404762D01*
X67557200Y-71404762D02*
X67461961Y-71309524D01*
X67461961Y-71309524D02*
X67366723Y-71261905D01*
X67366723Y-71261905D02*
X67176247Y-71214286D01*
X67176247Y-71214286D02*
X67033390Y-71214286D01*
X67033390Y-71214286D02*
X66842914Y-71261905D01*
X66842914Y-71261905D02*
X66747676Y-71309524D01*
X66747676Y-71309524D02*
X66652438Y-71404762D01*
X66652438Y-71404762D02*
X66604819Y-71547619D01*
X66604819Y-71547619D02*
X66604819Y-71642857D01*
X66604819Y-71642857D02*
X66652438Y-71785714D01*
X66652438Y-71785714D02*
X66700057Y-71833333D01*
X67033390Y-72404762D02*
X66985771Y-72309524D01*
X66985771Y-72309524D02*
X66938152Y-72261905D01*
X66938152Y-72261905D02*
X66842914Y-72214286D01*
X66842914Y-72214286D02*
X66795295Y-72214286D01*
X66795295Y-72214286D02*
X66700057Y-72261905D01*
X66700057Y-72261905D02*
X66652438Y-72309524D01*
X66652438Y-72309524D02*
X66604819Y-72404762D01*
X66604819Y-72404762D02*
X66604819Y-72595238D01*
X66604819Y-72595238D02*
X66652438Y-72690476D01*
X66652438Y-72690476D02*
X66700057Y-72738095D01*
X66700057Y-72738095D02*
X66795295Y-72785714D01*
X66795295Y-72785714D02*
X66842914Y-72785714D01*
X66842914Y-72785714D02*
X66938152Y-72738095D01*
X66938152Y-72738095D02*
X66985771Y-72690476D01*
X66985771Y-72690476D02*
X67033390Y-72595238D01*
X67033390Y-72595238D02*
X67033390Y-72404762D01*
X67033390Y-72404762D02*
X67081009Y-72309524D01*
X67081009Y-72309524D02*
X67128628Y-72261905D01*
X67128628Y-72261905D02*
X67223866Y-72214286D01*
X67223866Y-72214286D02*
X67414342Y-72214286D01*
X67414342Y-72214286D02*
X67509580Y-72261905D01*
X67509580Y-72261905D02*
X67557200Y-72309524D01*
X67557200Y-72309524D02*
X67604819Y-72404762D01*
X67604819Y-72404762D02*
X67604819Y-72595238D01*
X67604819Y-72595238D02*
X67557200Y-72690476D01*
X67557200Y-72690476D02*
X67509580Y-72738095D01*
X67509580Y-72738095D02*
X67414342Y-72785714D01*
X67414342Y-72785714D02*
X67223866Y-72785714D01*
X67223866Y-72785714D02*
X67128628Y-72738095D01*
X67128628Y-72738095D02*
X67081009Y-72690476D01*
X67081009Y-72690476D02*
X67033390Y-72595238D01*
X111109580Y-110357142D02*
X111157200Y-110309523D01*
X111157200Y-110309523D02*
X111204819Y-110166666D01*
X111204819Y-110166666D02*
X111204819Y-110071428D01*
X111204819Y-110071428D02*
X111157200Y-109928571D01*
X111157200Y-109928571D02*
X111061961Y-109833333D01*
X111061961Y-109833333D02*
X110966723Y-109785714D01*
X110966723Y-109785714D02*
X110776247Y-109738095D01*
X110776247Y-109738095D02*
X110633390Y-109738095D01*
X110633390Y-109738095D02*
X110442914Y-109785714D01*
X110442914Y-109785714D02*
X110347676Y-109833333D01*
X110347676Y-109833333D02*
X110252438Y-109928571D01*
X110252438Y-109928571D02*
X110204819Y-110071428D01*
X110204819Y-110071428D02*
X110204819Y-110166666D01*
X110204819Y-110166666D02*
X110252438Y-110309523D01*
X110252438Y-110309523D02*
X110300057Y-110357142D01*
X111204819Y-111309523D02*
X111204819Y-110738095D01*
X111204819Y-111023809D02*
X110204819Y-111023809D01*
X110204819Y-111023809D02*
X110347676Y-110928571D01*
X110347676Y-110928571D02*
X110442914Y-110833333D01*
X110442914Y-110833333D02*
X110490533Y-110738095D01*
X111204819Y-112261904D02*
X111204819Y-111690476D01*
X111204819Y-111976190D02*
X110204819Y-111976190D01*
X110204819Y-111976190D02*
X110347676Y-111880952D01*
X110347676Y-111880952D02*
X110442914Y-111785714D01*
X110442914Y-111785714D02*
X110490533Y-111690476D01*
X90254819Y-56583333D02*
X89778628Y-56250000D01*
X90254819Y-56011905D02*
X89254819Y-56011905D01*
X89254819Y-56011905D02*
X89254819Y-56392857D01*
X89254819Y-56392857D02*
X89302438Y-56488095D01*
X89302438Y-56488095D02*
X89350057Y-56535714D01*
X89350057Y-56535714D02*
X89445295Y-56583333D01*
X89445295Y-56583333D02*
X89588152Y-56583333D01*
X89588152Y-56583333D02*
X89683390Y-56535714D01*
X89683390Y-56535714D02*
X89731009Y-56488095D01*
X89731009Y-56488095D02*
X89778628Y-56392857D01*
X89778628Y-56392857D02*
X89778628Y-56011905D01*
X90254819Y-57059524D02*
X90254819Y-57250000D01*
X90254819Y-57250000D02*
X90207200Y-57345238D01*
X90207200Y-57345238D02*
X90159580Y-57392857D01*
X90159580Y-57392857D02*
X90016723Y-57488095D01*
X90016723Y-57488095D02*
X89826247Y-57535714D01*
X89826247Y-57535714D02*
X89445295Y-57535714D01*
X89445295Y-57535714D02*
X89350057Y-57488095D01*
X89350057Y-57488095D02*
X89302438Y-57440476D01*
X89302438Y-57440476D02*
X89254819Y-57345238D01*
X89254819Y-57345238D02*
X89254819Y-57154762D01*
X89254819Y-57154762D02*
X89302438Y-57059524D01*
X89302438Y-57059524D02*
X89350057Y-57011905D01*
X89350057Y-57011905D02*
X89445295Y-56964286D01*
X89445295Y-56964286D02*
X89683390Y-56964286D01*
X89683390Y-56964286D02*
X89778628Y-57011905D01*
X89778628Y-57011905D02*
X89826247Y-57059524D01*
X89826247Y-57059524D02*
X89873866Y-57154762D01*
X89873866Y-57154762D02*
X89873866Y-57345238D01*
X89873866Y-57345238D02*
X89826247Y-57440476D01*
X89826247Y-57440476D02*
X89778628Y-57488095D01*
X89778628Y-57488095D02*
X89683390Y-57535714D01*
X98795238Y-117950057D02*
X98890476Y-117902438D01*
X98890476Y-117902438D02*
X98985714Y-117807200D01*
X98985714Y-117807200D02*
X99128571Y-117664342D01*
X99128571Y-117664342D02*
X99223809Y-117616723D01*
X99223809Y-117616723D02*
X99319047Y-117616723D01*
X99271428Y-117854819D02*
X99366666Y-117807200D01*
X99366666Y-117807200D02*
X99461904Y-117711961D01*
X99461904Y-117711961D02*
X99509523Y-117521485D01*
X99509523Y-117521485D02*
X99509523Y-117188152D01*
X99509523Y-117188152D02*
X99461904Y-116997676D01*
X99461904Y-116997676D02*
X99366666Y-116902438D01*
X99366666Y-116902438D02*
X99271428Y-116854819D01*
X99271428Y-116854819D02*
X99080952Y-116854819D01*
X99080952Y-116854819D02*
X98985714Y-116902438D01*
X98985714Y-116902438D02*
X98890476Y-116997676D01*
X98890476Y-116997676D02*
X98842857Y-117188152D01*
X98842857Y-117188152D02*
X98842857Y-117521485D01*
X98842857Y-117521485D02*
X98890476Y-117711961D01*
X98890476Y-117711961D02*
X98985714Y-117807200D01*
X98985714Y-117807200D02*
X99080952Y-117854819D01*
X99080952Y-117854819D02*
X99271428Y-117854819D01*
X97985714Y-117188152D02*
X97985714Y-117854819D01*
X98223809Y-116807200D02*
X98461904Y-117521485D01*
X98461904Y-117521485D02*
X97842857Y-117521485D01*
X103142857Y-57754819D02*
X103476190Y-57278628D01*
X103714285Y-57754819D02*
X103714285Y-56754819D01*
X103714285Y-56754819D02*
X103333333Y-56754819D01*
X103333333Y-56754819D02*
X103238095Y-56802438D01*
X103238095Y-56802438D02*
X103190476Y-56850057D01*
X103190476Y-56850057D02*
X103142857Y-56945295D01*
X103142857Y-56945295D02*
X103142857Y-57088152D01*
X103142857Y-57088152D02*
X103190476Y-57183390D01*
X103190476Y-57183390D02*
X103238095Y-57231009D01*
X103238095Y-57231009D02*
X103333333Y-57278628D01*
X103333333Y-57278628D02*
X103714285Y-57278628D01*
X102190476Y-57754819D02*
X102761904Y-57754819D01*
X102476190Y-57754819D02*
X102476190Y-56754819D01*
X102476190Y-56754819D02*
X102571428Y-56897676D01*
X102571428Y-56897676D02*
X102666666Y-56992914D01*
X102666666Y-56992914D02*
X102761904Y-57040533D01*
X101571428Y-56754819D02*
X101476190Y-56754819D01*
X101476190Y-56754819D02*
X101380952Y-56802438D01*
X101380952Y-56802438D02*
X101333333Y-56850057D01*
X101333333Y-56850057D02*
X101285714Y-56945295D01*
X101285714Y-56945295D02*
X101238095Y-57135771D01*
X101238095Y-57135771D02*
X101238095Y-57373866D01*
X101238095Y-57373866D02*
X101285714Y-57564342D01*
X101285714Y-57564342D02*
X101333333Y-57659580D01*
X101333333Y-57659580D02*
X101380952Y-57707200D01*
X101380952Y-57707200D02*
X101476190Y-57754819D01*
X101476190Y-57754819D02*
X101571428Y-57754819D01*
X101571428Y-57754819D02*
X101666666Y-57707200D01*
X101666666Y-57707200D02*
X101714285Y-57659580D01*
X101714285Y-57659580D02*
X101761904Y-57564342D01*
X101761904Y-57564342D02*
X101809523Y-57373866D01*
X101809523Y-57373866D02*
X101809523Y-57135771D01*
X101809523Y-57135771D02*
X101761904Y-56945295D01*
X101761904Y-56945295D02*
X101714285Y-56850057D01*
X101714285Y-56850057D02*
X101666666Y-56802438D01*
X101666666Y-56802438D02*
X101571428Y-56754819D01*
X103142857Y-61704819D02*
X103476190Y-61228628D01*
X103714285Y-61704819D02*
X103714285Y-60704819D01*
X103714285Y-60704819D02*
X103333333Y-60704819D01*
X103333333Y-60704819D02*
X103238095Y-60752438D01*
X103238095Y-60752438D02*
X103190476Y-60800057D01*
X103190476Y-60800057D02*
X103142857Y-60895295D01*
X103142857Y-60895295D02*
X103142857Y-61038152D01*
X103142857Y-61038152D02*
X103190476Y-61133390D01*
X103190476Y-61133390D02*
X103238095Y-61181009D01*
X103238095Y-61181009D02*
X103333333Y-61228628D01*
X103333333Y-61228628D02*
X103714285Y-61228628D01*
X102190476Y-61704819D02*
X102761904Y-61704819D01*
X102476190Y-61704819D02*
X102476190Y-60704819D01*
X102476190Y-60704819D02*
X102571428Y-60847676D01*
X102571428Y-60847676D02*
X102666666Y-60942914D01*
X102666666Y-60942914D02*
X102761904Y-60990533D01*
X101809523Y-60800057D02*
X101761904Y-60752438D01*
X101761904Y-60752438D02*
X101666666Y-60704819D01*
X101666666Y-60704819D02*
X101428571Y-60704819D01*
X101428571Y-60704819D02*
X101333333Y-60752438D01*
X101333333Y-60752438D02*
X101285714Y-60800057D01*
X101285714Y-60800057D02*
X101238095Y-60895295D01*
X101238095Y-60895295D02*
X101238095Y-60990533D01*
X101238095Y-60990533D02*
X101285714Y-61133390D01*
X101285714Y-61133390D02*
X101857142Y-61704819D01*
X101857142Y-61704819D02*
X101238095Y-61704819D01*
X108559580Y-77557142D02*
X108607200Y-77509523D01*
X108607200Y-77509523D02*
X108654819Y-77366666D01*
X108654819Y-77366666D02*
X108654819Y-77271428D01*
X108654819Y-77271428D02*
X108607200Y-77128571D01*
X108607200Y-77128571D02*
X108511961Y-77033333D01*
X108511961Y-77033333D02*
X108416723Y-76985714D01*
X108416723Y-76985714D02*
X108226247Y-76938095D01*
X108226247Y-76938095D02*
X108083390Y-76938095D01*
X108083390Y-76938095D02*
X107892914Y-76985714D01*
X107892914Y-76985714D02*
X107797676Y-77033333D01*
X107797676Y-77033333D02*
X107702438Y-77128571D01*
X107702438Y-77128571D02*
X107654819Y-77271428D01*
X107654819Y-77271428D02*
X107654819Y-77366666D01*
X107654819Y-77366666D02*
X107702438Y-77509523D01*
X107702438Y-77509523D02*
X107750057Y-77557142D01*
X108654819Y-78509523D02*
X108654819Y-77938095D01*
X108654819Y-78223809D02*
X107654819Y-78223809D01*
X107654819Y-78223809D02*
X107797676Y-78128571D01*
X107797676Y-78128571D02*
X107892914Y-78033333D01*
X107892914Y-78033333D02*
X107940533Y-77938095D01*
X107654819Y-79128571D02*
X107654819Y-79223809D01*
X107654819Y-79223809D02*
X107702438Y-79319047D01*
X107702438Y-79319047D02*
X107750057Y-79366666D01*
X107750057Y-79366666D02*
X107845295Y-79414285D01*
X107845295Y-79414285D02*
X108035771Y-79461904D01*
X108035771Y-79461904D02*
X108273866Y-79461904D01*
X108273866Y-79461904D02*
X108464342Y-79414285D01*
X108464342Y-79414285D02*
X108559580Y-79366666D01*
X108559580Y-79366666D02*
X108607200Y-79319047D01*
X108607200Y-79319047D02*
X108654819Y-79223809D01*
X108654819Y-79223809D02*
X108654819Y-79128571D01*
X108654819Y-79128571D02*
X108607200Y-79033333D01*
X108607200Y-79033333D02*
X108559580Y-78985714D01*
X108559580Y-78985714D02*
X108464342Y-78938095D01*
X108464342Y-78938095D02*
X108273866Y-78890476D01*
X108273866Y-78890476D02*
X108035771Y-78890476D01*
X108035771Y-78890476D02*
X107845295Y-78938095D01*
X107845295Y-78938095D02*
X107750057Y-78985714D01*
X107750057Y-78985714D02*
X107702438Y-79033333D01*
X107702438Y-79033333D02*
X107654819Y-79128571D01*
X94800495Y-56583333D02*
X94848115Y-56535714D01*
X94848115Y-56535714D02*
X94895734Y-56392857D01*
X94895734Y-56392857D02*
X94895734Y-56297619D01*
X94895734Y-56297619D02*
X94848115Y-56154762D01*
X94848115Y-56154762D02*
X94752876Y-56059524D01*
X94752876Y-56059524D02*
X94657638Y-56011905D01*
X94657638Y-56011905D02*
X94467162Y-55964286D01*
X94467162Y-55964286D02*
X94324305Y-55964286D01*
X94324305Y-55964286D02*
X94133829Y-56011905D01*
X94133829Y-56011905D02*
X94038591Y-56059524D01*
X94038591Y-56059524D02*
X93943353Y-56154762D01*
X93943353Y-56154762D02*
X93895734Y-56297619D01*
X93895734Y-56297619D02*
X93895734Y-56392857D01*
X93895734Y-56392857D02*
X93943353Y-56535714D01*
X93943353Y-56535714D02*
X93990972Y-56583333D01*
X93895734Y-57440476D02*
X93895734Y-57250000D01*
X93895734Y-57250000D02*
X93943353Y-57154762D01*
X93943353Y-57154762D02*
X93990972Y-57107143D01*
X93990972Y-57107143D02*
X94133829Y-57011905D01*
X94133829Y-57011905D02*
X94324305Y-56964286D01*
X94324305Y-56964286D02*
X94705257Y-56964286D01*
X94705257Y-56964286D02*
X94800495Y-57011905D01*
X94800495Y-57011905D02*
X94848115Y-57059524D01*
X94848115Y-57059524D02*
X94895734Y-57154762D01*
X94895734Y-57154762D02*
X94895734Y-57345238D01*
X94895734Y-57345238D02*
X94848115Y-57440476D01*
X94848115Y-57440476D02*
X94800495Y-57488095D01*
X94800495Y-57488095D02*
X94705257Y-57535714D01*
X94705257Y-57535714D02*
X94467162Y-57535714D01*
X94467162Y-57535714D02*
X94371924Y-57488095D01*
X94371924Y-57488095D02*
X94324305Y-57440476D01*
X94324305Y-57440476D02*
X94276686Y-57345238D01*
X94276686Y-57345238D02*
X94276686Y-57154762D01*
X94276686Y-57154762D02*
X94324305Y-57059524D01*
X94324305Y-57059524D02*
X94371924Y-57011905D01*
X94371924Y-57011905D02*
X94467162Y-56964286D01*
X85054819Y-95757142D02*
X84578628Y-95423809D01*
X85054819Y-95185714D02*
X84054819Y-95185714D01*
X84054819Y-95185714D02*
X84054819Y-95566666D01*
X84054819Y-95566666D02*
X84102438Y-95661904D01*
X84102438Y-95661904D02*
X84150057Y-95709523D01*
X84150057Y-95709523D02*
X84245295Y-95757142D01*
X84245295Y-95757142D02*
X84388152Y-95757142D01*
X84388152Y-95757142D02*
X84483390Y-95709523D01*
X84483390Y-95709523D02*
X84531009Y-95661904D01*
X84531009Y-95661904D02*
X84578628Y-95566666D01*
X84578628Y-95566666D02*
X84578628Y-95185714D01*
X85054819Y-96709523D02*
X85054819Y-96138095D01*
X85054819Y-96423809D02*
X84054819Y-96423809D01*
X84054819Y-96423809D02*
X84197676Y-96328571D01*
X84197676Y-96328571D02*
X84292914Y-96233333D01*
X84292914Y-96233333D02*
X84340533Y-96138095D01*
X84054819Y-97614285D02*
X84054819Y-97138095D01*
X84054819Y-97138095D02*
X84531009Y-97090476D01*
X84531009Y-97090476D02*
X84483390Y-97138095D01*
X84483390Y-97138095D02*
X84435771Y-97233333D01*
X84435771Y-97233333D02*
X84435771Y-97471428D01*
X84435771Y-97471428D02*
X84483390Y-97566666D01*
X84483390Y-97566666D02*
X84531009Y-97614285D01*
X84531009Y-97614285D02*
X84626247Y-97661904D01*
X84626247Y-97661904D02*
X84864342Y-97661904D01*
X84864342Y-97661904D02*
X84959580Y-97614285D01*
X84959580Y-97614285D02*
X85007200Y-97566666D01*
X85007200Y-97566666D02*
X85054819Y-97471428D01*
X85054819Y-97471428D02*
X85054819Y-97233333D01*
X85054819Y-97233333D02*
X85007200Y-97138095D01*
X85007200Y-97138095D02*
X84959580Y-97090476D01*
X68759580Y-76833333D02*
X68807200Y-76785714D01*
X68807200Y-76785714D02*
X68854819Y-76642857D01*
X68854819Y-76642857D02*
X68854819Y-76547619D01*
X68854819Y-76547619D02*
X68807200Y-76404762D01*
X68807200Y-76404762D02*
X68711961Y-76309524D01*
X68711961Y-76309524D02*
X68616723Y-76261905D01*
X68616723Y-76261905D02*
X68426247Y-76214286D01*
X68426247Y-76214286D02*
X68283390Y-76214286D01*
X68283390Y-76214286D02*
X68092914Y-76261905D01*
X68092914Y-76261905D02*
X67997676Y-76309524D01*
X67997676Y-76309524D02*
X67902438Y-76404762D01*
X67902438Y-76404762D02*
X67854819Y-76547619D01*
X67854819Y-76547619D02*
X67854819Y-76642857D01*
X67854819Y-76642857D02*
X67902438Y-76785714D01*
X67902438Y-76785714D02*
X67950057Y-76833333D01*
X68854819Y-77309524D02*
X68854819Y-77500000D01*
X68854819Y-77500000D02*
X68807200Y-77595238D01*
X68807200Y-77595238D02*
X68759580Y-77642857D01*
X68759580Y-77642857D02*
X68616723Y-77738095D01*
X68616723Y-77738095D02*
X68426247Y-77785714D01*
X68426247Y-77785714D02*
X68045295Y-77785714D01*
X68045295Y-77785714D02*
X67950057Y-77738095D01*
X67950057Y-77738095D02*
X67902438Y-77690476D01*
X67902438Y-77690476D02*
X67854819Y-77595238D01*
X67854819Y-77595238D02*
X67854819Y-77404762D01*
X67854819Y-77404762D02*
X67902438Y-77309524D01*
X67902438Y-77309524D02*
X67950057Y-77261905D01*
X67950057Y-77261905D02*
X68045295Y-77214286D01*
X68045295Y-77214286D02*
X68283390Y-77214286D01*
X68283390Y-77214286D02*
X68378628Y-77261905D01*
X68378628Y-77261905D02*
X68426247Y-77309524D01*
X68426247Y-77309524D02*
X68473866Y-77404762D01*
X68473866Y-77404762D02*
X68473866Y-77595238D01*
X68473866Y-77595238D02*
X68426247Y-77690476D01*
X68426247Y-77690476D02*
X68378628Y-77738095D01*
X68378628Y-77738095D02*
X68283390Y-77785714D01*
X96800495Y-56583333D02*
X96848115Y-56535714D01*
X96848115Y-56535714D02*
X96895734Y-56392857D01*
X96895734Y-56392857D02*
X96895734Y-56297619D01*
X96895734Y-56297619D02*
X96848115Y-56154762D01*
X96848115Y-56154762D02*
X96752876Y-56059524D01*
X96752876Y-56059524D02*
X96657638Y-56011905D01*
X96657638Y-56011905D02*
X96467162Y-55964286D01*
X96467162Y-55964286D02*
X96324305Y-55964286D01*
X96324305Y-55964286D02*
X96133829Y-56011905D01*
X96133829Y-56011905D02*
X96038591Y-56059524D01*
X96038591Y-56059524D02*
X95943353Y-56154762D01*
X95943353Y-56154762D02*
X95895734Y-56297619D01*
X95895734Y-56297619D02*
X95895734Y-56392857D01*
X95895734Y-56392857D02*
X95943353Y-56535714D01*
X95943353Y-56535714D02*
X95990972Y-56583333D01*
X95895734Y-57488095D02*
X95895734Y-57011905D01*
X95895734Y-57011905D02*
X96371924Y-56964286D01*
X96371924Y-56964286D02*
X96324305Y-57011905D01*
X96324305Y-57011905D02*
X96276686Y-57107143D01*
X96276686Y-57107143D02*
X96276686Y-57345238D01*
X96276686Y-57345238D02*
X96324305Y-57440476D01*
X96324305Y-57440476D02*
X96371924Y-57488095D01*
X96371924Y-57488095D02*
X96467162Y-57535714D01*
X96467162Y-57535714D02*
X96705257Y-57535714D01*
X96705257Y-57535714D02*
X96800495Y-57488095D01*
X96800495Y-57488095D02*
X96848115Y-57440476D01*
X96848115Y-57440476D02*
X96895734Y-57345238D01*
X96895734Y-57345238D02*
X96895734Y-57107143D01*
X96895734Y-57107143D02*
X96848115Y-57011905D01*
X96848115Y-57011905D02*
X96800495Y-56964286D01*
X76050057Y-105804761D02*
X76002438Y-105709523D01*
X76002438Y-105709523D02*
X75907200Y-105614285D01*
X75907200Y-105614285D02*
X75764342Y-105471428D01*
X75764342Y-105471428D02*
X75716723Y-105376190D01*
X75716723Y-105376190D02*
X75716723Y-105280952D01*
X75954819Y-105328571D02*
X75907200Y-105233333D01*
X75907200Y-105233333D02*
X75811961Y-105138095D01*
X75811961Y-105138095D02*
X75621485Y-105090476D01*
X75621485Y-105090476D02*
X75288152Y-105090476D01*
X75288152Y-105090476D02*
X75097676Y-105138095D01*
X75097676Y-105138095D02*
X75002438Y-105233333D01*
X75002438Y-105233333D02*
X74954819Y-105328571D01*
X74954819Y-105328571D02*
X74954819Y-105519047D01*
X74954819Y-105519047D02*
X75002438Y-105614285D01*
X75002438Y-105614285D02*
X75097676Y-105709523D01*
X75097676Y-105709523D02*
X75288152Y-105757142D01*
X75288152Y-105757142D02*
X75621485Y-105757142D01*
X75621485Y-105757142D02*
X75811961Y-105709523D01*
X75811961Y-105709523D02*
X75907200Y-105614285D01*
X75907200Y-105614285D02*
X75954819Y-105519047D01*
X75954819Y-105519047D02*
X75954819Y-105328571D01*
X75050057Y-106138095D02*
X75002438Y-106185714D01*
X75002438Y-106185714D02*
X74954819Y-106280952D01*
X74954819Y-106280952D02*
X74954819Y-106519047D01*
X74954819Y-106519047D02*
X75002438Y-106614285D01*
X75002438Y-106614285D02*
X75050057Y-106661904D01*
X75050057Y-106661904D02*
X75145295Y-106709523D01*
X75145295Y-106709523D02*
X75240533Y-106709523D01*
X75240533Y-106709523D02*
X75383390Y-106661904D01*
X75383390Y-106661904D02*
X75954819Y-106090476D01*
X75954819Y-106090476D02*
X75954819Y-106709523D01*
X78954819Y-73738095D02*
X79764342Y-73738095D01*
X79764342Y-73738095D02*
X79859580Y-73785714D01*
X79859580Y-73785714D02*
X79907200Y-73833333D01*
X79907200Y-73833333D02*
X79954819Y-73928571D01*
X79954819Y-73928571D02*
X79954819Y-74119047D01*
X79954819Y-74119047D02*
X79907200Y-74214285D01*
X79907200Y-74214285D02*
X79859580Y-74261904D01*
X79859580Y-74261904D02*
X79764342Y-74309523D01*
X79764342Y-74309523D02*
X78954819Y-74309523D01*
X79288152Y-75214285D02*
X79954819Y-75214285D01*
X78907200Y-74976190D02*
X79621485Y-74738095D01*
X79621485Y-74738095D02*
X79621485Y-75357142D01*
X85250057Y-122067261D02*
X85202438Y-121972023D01*
X85202438Y-121972023D02*
X85107200Y-121876785D01*
X85107200Y-121876785D02*
X84964342Y-121733928D01*
X84964342Y-121733928D02*
X84916723Y-121638690D01*
X84916723Y-121638690D02*
X84916723Y-121543452D01*
X85154819Y-121591071D02*
X85107200Y-121495833D01*
X85107200Y-121495833D02*
X85011961Y-121400595D01*
X85011961Y-121400595D02*
X84821485Y-121352976D01*
X84821485Y-121352976D02*
X84488152Y-121352976D01*
X84488152Y-121352976D02*
X84297676Y-121400595D01*
X84297676Y-121400595D02*
X84202438Y-121495833D01*
X84202438Y-121495833D02*
X84154819Y-121591071D01*
X84154819Y-121591071D02*
X84154819Y-121781547D01*
X84154819Y-121781547D02*
X84202438Y-121876785D01*
X84202438Y-121876785D02*
X84297676Y-121972023D01*
X84297676Y-121972023D02*
X84488152Y-122019642D01*
X84488152Y-122019642D02*
X84821485Y-122019642D01*
X84821485Y-122019642D02*
X85011961Y-121972023D01*
X85011961Y-121972023D02*
X85107200Y-121876785D01*
X85107200Y-121876785D02*
X85154819Y-121781547D01*
X85154819Y-121781547D02*
X85154819Y-121591071D01*
X84154819Y-122924404D02*
X84154819Y-122448214D01*
X84154819Y-122448214D02*
X84631009Y-122400595D01*
X84631009Y-122400595D02*
X84583390Y-122448214D01*
X84583390Y-122448214D02*
X84535771Y-122543452D01*
X84535771Y-122543452D02*
X84535771Y-122781547D01*
X84535771Y-122781547D02*
X84583390Y-122876785D01*
X84583390Y-122876785D02*
X84631009Y-122924404D01*
X84631009Y-122924404D02*
X84726247Y-122972023D01*
X84726247Y-122972023D02*
X84964342Y-122972023D01*
X84964342Y-122972023D02*
X85059580Y-122924404D01*
X85059580Y-122924404D02*
X85107200Y-122876785D01*
X85107200Y-122876785D02*
X85154819Y-122781547D01*
X85154819Y-122781547D02*
X85154819Y-122543452D01*
X85154819Y-122543452D02*
X85107200Y-122448214D01*
X85107200Y-122448214D02*
X85059580Y-122400595D01*
X88159580Y-56833333D02*
X88207200Y-56785714D01*
X88207200Y-56785714D02*
X88254819Y-56642857D01*
X88254819Y-56642857D02*
X88254819Y-56547619D01*
X88254819Y-56547619D02*
X88207200Y-56404762D01*
X88207200Y-56404762D02*
X88111961Y-56309524D01*
X88111961Y-56309524D02*
X88016723Y-56261905D01*
X88016723Y-56261905D02*
X87826247Y-56214286D01*
X87826247Y-56214286D02*
X87683390Y-56214286D01*
X87683390Y-56214286D02*
X87492914Y-56261905D01*
X87492914Y-56261905D02*
X87397676Y-56309524D01*
X87397676Y-56309524D02*
X87302438Y-56404762D01*
X87302438Y-56404762D02*
X87254819Y-56547619D01*
X87254819Y-56547619D02*
X87254819Y-56642857D01*
X87254819Y-56642857D02*
X87302438Y-56785714D01*
X87302438Y-56785714D02*
X87350057Y-56833333D01*
X87254819Y-57166667D02*
X87254819Y-57833333D01*
X87254819Y-57833333D02*
X88254819Y-57404762D01*
X103166666Y-55754819D02*
X103499999Y-55278628D01*
X103738094Y-55754819D02*
X103738094Y-54754819D01*
X103738094Y-54754819D02*
X103357142Y-54754819D01*
X103357142Y-54754819D02*
X103261904Y-54802438D01*
X103261904Y-54802438D02*
X103214285Y-54850057D01*
X103214285Y-54850057D02*
X103166666Y-54945295D01*
X103166666Y-54945295D02*
X103166666Y-55088152D01*
X103166666Y-55088152D02*
X103214285Y-55183390D01*
X103214285Y-55183390D02*
X103261904Y-55231009D01*
X103261904Y-55231009D02*
X103357142Y-55278628D01*
X103357142Y-55278628D02*
X103738094Y-55278628D01*
X102595237Y-55183390D02*
X102690475Y-55135771D01*
X102690475Y-55135771D02*
X102738094Y-55088152D01*
X102738094Y-55088152D02*
X102785713Y-54992914D01*
X102785713Y-54992914D02*
X102785713Y-54945295D01*
X102785713Y-54945295D02*
X102738094Y-54850057D01*
X102738094Y-54850057D02*
X102690475Y-54802438D01*
X102690475Y-54802438D02*
X102595237Y-54754819D01*
X102595237Y-54754819D02*
X102404761Y-54754819D01*
X102404761Y-54754819D02*
X102309523Y-54802438D01*
X102309523Y-54802438D02*
X102261904Y-54850057D01*
X102261904Y-54850057D02*
X102214285Y-54945295D01*
X102214285Y-54945295D02*
X102214285Y-54992914D01*
X102214285Y-54992914D02*
X102261904Y-55088152D01*
X102261904Y-55088152D02*
X102309523Y-55135771D01*
X102309523Y-55135771D02*
X102404761Y-55183390D01*
X102404761Y-55183390D02*
X102595237Y-55183390D01*
X102595237Y-55183390D02*
X102690475Y-55231009D01*
X102690475Y-55231009D02*
X102738094Y-55278628D01*
X102738094Y-55278628D02*
X102785713Y-55373866D01*
X102785713Y-55373866D02*
X102785713Y-55564342D01*
X102785713Y-55564342D02*
X102738094Y-55659580D01*
X102738094Y-55659580D02*
X102690475Y-55707200D01*
X102690475Y-55707200D02*
X102595237Y-55754819D01*
X102595237Y-55754819D02*
X102404761Y-55754819D01*
X102404761Y-55754819D02*
X102309523Y-55707200D01*
X102309523Y-55707200D02*
X102261904Y-55659580D01*
X102261904Y-55659580D02*
X102214285Y-55564342D01*
X102214285Y-55564342D02*
X102214285Y-55373866D01*
X102214285Y-55373866D02*
X102261904Y-55278628D01*
X102261904Y-55278628D02*
X102309523Y-55231009D01*
X102309523Y-55231009D02*
X102404761Y-55183390D01*
D14*
X77937381Y-84074318D02*
X77937381Y-82804318D01*
X77937381Y-82804318D02*
X77635000Y-82804318D01*
X77635000Y-82804318D02*
X77453571Y-82864794D01*
X77453571Y-82864794D02*
X77332619Y-82985746D01*
X77332619Y-82985746D02*
X77272142Y-83106699D01*
X77272142Y-83106699D02*
X77211666Y-83348603D01*
X77211666Y-83348603D02*
X77211666Y-83530032D01*
X77211666Y-83530032D02*
X77272142Y-83771937D01*
X77272142Y-83771937D02*
X77332619Y-83892889D01*
X77332619Y-83892889D02*
X77453571Y-84013842D01*
X77453571Y-84013842D02*
X77635000Y-84074318D01*
X77635000Y-84074318D02*
X77937381Y-84074318D01*
X76788333Y-82804318D02*
X76002142Y-82804318D01*
X76002142Y-82804318D02*
X76425476Y-83288127D01*
X76425476Y-83288127D02*
X76244047Y-83288127D01*
X76244047Y-83288127D02*
X76123095Y-83348603D01*
X76123095Y-83348603D02*
X76062619Y-83409080D01*
X76062619Y-83409080D02*
X76002142Y-83530032D01*
X76002142Y-83530032D02*
X76002142Y-83832413D01*
X76002142Y-83832413D02*
X76062619Y-83953365D01*
X76062619Y-83953365D02*
X76123095Y-84013842D01*
X76123095Y-84013842D02*
X76244047Y-84074318D01*
X76244047Y-84074318D02*
X76606904Y-84074318D01*
X76606904Y-84074318D02*
X76727857Y-84013842D01*
X76727857Y-84013842D02*
X76788333Y-83953365D01*
D13*
X75650057Y-132804761D02*
X75602438Y-132709523D01*
X75602438Y-132709523D02*
X75507200Y-132614285D01*
X75507200Y-132614285D02*
X75364342Y-132471428D01*
X75364342Y-132471428D02*
X75316723Y-132376190D01*
X75316723Y-132376190D02*
X75316723Y-132280952D01*
X75554819Y-132328571D02*
X75507200Y-132233333D01*
X75507200Y-132233333D02*
X75411961Y-132138095D01*
X75411961Y-132138095D02*
X75221485Y-132090476D01*
X75221485Y-132090476D02*
X74888152Y-132090476D01*
X74888152Y-132090476D02*
X74697676Y-132138095D01*
X74697676Y-132138095D02*
X74602438Y-132233333D01*
X74602438Y-132233333D02*
X74554819Y-132328571D01*
X74554819Y-132328571D02*
X74554819Y-132519047D01*
X74554819Y-132519047D02*
X74602438Y-132614285D01*
X74602438Y-132614285D02*
X74697676Y-132709523D01*
X74697676Y-132709523D02*
X74888152Y-132757142D01*
X74888152Y-132757142D02*
X75221485Y-132757142D01*
X75221485Y-132757142D02*
X75411961Y-132709523D01*
X75411961Y-132709523D02*
X75507200Y-132614285D01*
X75507200Y-132614285D02*
X75554819Y-132519047D01*
X75554819Y-132519047D02*
X75554819Y-132328571D01*
X74554819Y-133090476D02*
X74554819Y-133757142D01*
X74554819Y-133757142D02*
X75554819Y-133328571D01*
X91454819Y-95757142D02*
X90978628Y-95423809D01*
X91454819Y-95185714D02*
X90454819Y-95185714D01*
X90454819Y-95185714D02*
X90454819Y-95566666D01*
X90454819Y-95566666D02*
X90502438Y-95661904D01*
X90502438Y-95661904D02*
X90550057Y-95709523D01*
X90550057Y-95709523D02*
X90645295Y-95757142D01*
X90645295Y-95757142D02*
X90788152Y-95757142D01*
X90788152Y-95757142D02*
X90883390Y-95709523D01*
X90883390Y-95709523D02*
X90931009Y-95661904D01*
X90931009Y-95661904D02*
X90978628Y-95566666D01*
X90978628Y-95566666D02*
X90978628Y-95185714D01*
X91454819Y-96709523D02*
X91454819Y-96138095D01*
X91454819Y-96423809D02*
X90454819Y-96423809D01*
X90454819Y-96423809D02*
X90597676Y-96328571D01*
X90597676Y-96328571D02*
X90692914Y-96233333D01*
X90692914Y-96233333D02*
X90740533Y-96138095D01*
X90788152Y-97566666D02*
X91454819Y-97566666D01*
X90407200Y-97328571D02*
X91121485Y-97090476D01*
X91121485Y-97090476D02*
X91121485Y-97709523D01*
D15*
%TO.C,G\u002A\u002A\u002A*%
G36*
X121042966Y-67193973D02*
G01*
X121016817Y-67503856D01*
X120964853Y-67774207D01*
X120903526Y-67978065D01*
X120731631Y-68389534D01*
X120554217Y-68681027D01*
X120502161Y-68766556D01*
X120209699Y-69118778D01*
X120190261Y-69139071D01*
X119843770Y-69448669D01*
X119460450Y-69698780D01*
X119041712Y-69888619D01*
X118588967Y-70017406D01*
X118436727Y-70040030D01*
X118201169Y-70054426D01*
X117938843Y-70053736D01*
X117672814Y-70038773D01*
X117426147Y-70010348D01*
X117221908Y-69969274D01*
X116920756Y-69871456D01*
X116509736Y-69677682D01*
X116134634Y-69426447D01*
X115800537Y-69121933D01*
X115512534Y-68768321D01*
X115275711Y-68369793D01*
X115151749Y-68095721D01*
X115059033Y-67818891D01*
X115001935Y-67535955D01*
X114976503Y-67226976D01*
X114977902Y-67009285D01*
X115460763Y-67009285D01*
X115463450Y-67124607D01*
X115515599Y-67533978D01*
X115630571Y-67923463D01*
X115803549Y-68286796D01*
X116029714Y-68617713D01*
X116304249Y-68909949D01*
X116622336Y-69157239D01*
X116979158Y-69353317D01*
X117369897Y-69491920D01*
X117389237Y-69496842D01*
X117576754Y-69530722D01*
X117801464Y-69553310D01*
X118037023Y-69563389D01*
X118257090Y-69559741D01*
X118435319Y-69541150D01*
X118753332Y-69459495D01*
X119105518Y-69314932D01*
X119436328Y-69124085D01*
X119723872Y-68897879D01*
X119957309Y-68681027D01*
X119819741Y-68584205D01*
X119670875Y-68479797D01*
X119481135Y-68347745D01*
X119305270Y-68226427D01*
X119151964Y-68121762D01*
X119029902Y-68039673D01*
X118947766Y-67986077D01*
X118914242Y-67966896D01*
X118916371Y-67988929D01*
X118940974Y-68059056D01*
X118983411Y-68160585D01*
X119021318Y-68255271D01*
X119062381Y-68430611D01*
X119046731Y-68567534D01*
X118973687Y-68668820D01*
X118842570Y-68737251D01*
X118836925Y-68739060D01*
X118697231Y-68751537D01*
X118572369Y-68708356D01*
X118476059Y-68621673D01*
X118422022Y-68503643D01*
X118423979Y-68366421D01*
X118424486Y-68364372D01*
X118453390Y-68280512D01*
X118503929Y-68160773D01*
X118565488Y-68030368D01*
X118682394Y-67796047D01*
X118352169Y-67565812D01*
X118231653Y-67482835D01*
X118110378Y-67401675D01*
X118018868Y-67343057D01*
X117970830Y-67315962D01*
X117969196Y-67315500D01*
X117929909Y-67335293D01*
X117857262Y-67404836D01*
X117749548Y-67526040D01*
X117605061Y-67700820D01*
X117422095Y-67931086D01*
X117339764Y-68035446D01*
X117203739Y-68204840D01*
X117084830Y-68349129D01*
X116989453Y-68460716D01*
X116924023Y-68532004D01*
X116894955Y-68555395D01*
X116839003Y-68528875D01*
X116739158Y-68474359D01*
X116607926Y-68399158D01*
X116456813Y-68310238D01*
X116297327Y-68214565D01*
X116140978Y-68119106D01*
X115999272Y-68030825D01*
X115883718Y-67956691D01*
X115805824Y-67903668D01*
X115777098Y-67878723D01*
X115786277Y-67847588D01*
X115819994Y-67760692D01*
X115874118Y-67630260D01*
X115944030Y-67467379D01*
X116025114Y-67283137D01*
X116082013Y-67154994D01*
X116171807Y-66951542D01*
X116254943Y-66761799D01*
X116315763Y-66621699D01*
X116415917Y-66621699D01*
X116418759Y-66623340D01*
X116468402Y-66632941D01*
X116562718Y-66643486D01*
X116682641Y-66653665D01*
X116809103Y-66662163D01*
X116923040Y-66667670D01*
X117005384Y-66668871D01*
X117037069Y-66664456D01*
X117036563Y-66662834D01*
X117003790Y-66632561D01*
X116931304Y-66578110D01*
X116835172Y-66510375D01*
X116731461Y-66440249D01*
X116636240Y-66378625D01*
X116565575Y-66336394D01*
X116535534Y-66324450D01*
X116519873Y-66352381D01*
X116484493Y-66428062D01*
X116448710Y-66514732D01*
X116422520Y-66587557D01*
X116415917Y-66621699D01*
X116315763Y-66621699D01*
X116324093Y-66602511D01*
X116371931Y-66490426D01*
X116469462Y-66257679D01*
X116122831Y-66020193D01*
X116119378Y-66017828D01*
X115985203Y-65927648D01*
X115881465Y-65860873D01*
X116778036Y-65860873D01*
X116778729Y-65861464D01*
X116821955Y-65893600D01*
X116911346Y-65957324D01*
X117035804Y-66044928D01*
X117184231Y-66148704D01*
X117345530Y-66260946D01*
X117508601Y-66373946D01*
X117662347Y-66479996D01*
X117795670Y-66571390D01*
X117897471Y-66640420D01*
X117933983Y-66664456D01*
X117956652Y-66679379D01*
X117959678Y-66681264D01*
X118049879Y-66729154D01*
X118127850Y-66745374D01*
X118203863Y-66724632D01*
X118288190Y-66661638D01*
X118391104Y-66551101D01*
X118522876Y-66387731D01*
X118536751Y-66369947D01*
X118646961Y-66225905D01*
X118718041Y-66125220D01*
X118755330Y-66058530D01*
X118764168Y-66016472D01*
X118749894Y-65989685D01*
X118719035Y-65967980D01*
X118634307Y-65914527D01*
X118507341Y-65837011D01*
X118348288Y-65741403D01*
X118167301Y-65633676D01*
X117974532Y-65519804D01*
X117780134Y-65405759D01*
X117594259Y-65297513D01*
X117427060Y-65201041D01*
X117288689Y-65122314D01*
X117189298Y-65067306D01*
X117139039Y-65041989D01*
X117119554Y-65041275D01*
X117086780Y-65068148D01*
X117045018Y-65135853D01*
X116989395Y-65252770D01*
X116915040Y-65427280D01*
X116912084Y-65434434D01*
X116849456Y-65594070D01*
X116803650Y-65726548D01*
X116778549Y-65819578D01*
X116778036Y-65860873D01*
X115881465Y-65860873D01*
X115874022Y-65856082D01*
X115797313Y-65810304D01*
X115766557Y-65797492D01*
X115744656Y-65833172D01*
X115656224Y-66020984D01*
X115578402Y-66253176D01*
X115516406Y-66509074D01*
X115475454Y-66768002D01*
X115460763Y-67009285D01*
X114977902Y-67009285D01*
X114978784Y-66872016D01*
X114987495Y-66687465D01*
X115001504Y-66517761D01*
X115022982Y-66376871D01*
X115055459Y-66242550D01*
X115102464Y-66092552D01*
X115129599Y-66014774D01*
X115320225Y-65585590D01*
X115474410Y-65340836D01*
X116099943Y-65340836D01*
X116104914Y-65357941D01*
X116155343Y-65415124D01*
X116252046Y-65495953D01*
X116385732Y-65592255D01*
X116680605Y-65792649D01*
X116715269Y-65693213D01*
X116720108Y-65679542D01*
X116764725Y-65564184D01*
X116822540Y-65427045D01*
X116886856Y-65282532D01*
X116950976Y-65145053D01*
X117008204Y-65029015D01*
X117051841Y-64948827D01*
X117075191Y-64918896D01*
X117110064Y-64933710D01*
X117196894Y-64979752D01*
X117325672Y-65051626D01*
X117487086Y-65143831D01*
X117671825Y-65250864D01*
X117870577Y-65367223D01*
X118074029Y-65487404D01*
X118272870Y-65605906D01*
X118457788Y-65717225D01*
X118619471Y-65815860D01*
X118748607Y-65896309D01*
X118835884Y-65953068D01*
X118871990Y-65980635D01*
X118873011Y-66011298D01*
X118870571Y-66016472D01*
X118837247Y-66087140D01*
X118757453Y-66206714D01*
X118631485Y-66373525D01*
X118618105Y-66390644D01*
X118482315Y-66565104D01*
X118384738Y-66693235D01*
X118320531Y-66782997D01*
X118284854Y-66842348D01*
X118272866Y-66879248D01*
X118279725Y-66901655D01*
X118300590Y-66917529D01*
X118324662Y-66933056D01*
X118401436Y-66985169D01*
X118517427Y-67065242D01*
X118661826Y-67165801D01*
X118823828Y-67279373D01*
X118945950Y-67365024D01*
X119087443Y-67462536D01*
X119186238Y-67526571D01*
X119250917Y-67561505D01*
X119290059Y-67571712D01*
X119312245Y-67561567D01*
X119326055Y-67535445D01*
X119338416Y-67505644D01*
X119379351Y-67413845D01*
X119437688Y-67287277D01*
X119505155Y-67144021D01*
X119654995Y-66829146D01*
X119819744Y-67167806D01*
X119848771Y-67228550D01*
X119930788Y-67422305D01*
X119971812Y-67571499D01*
X119972313Y-67685463D01*
X119932754Y-67773531D01*
X119853605Y-67845034D01*
X119744761Y-67918115D01*
X119984299Y-68082644D01*
X120023056Y-68109142D01*
X120128090Y-68179598D01*
X120204349Y-68228722D01*
X120237460Y-68247172D01*
X120240790Y-68245700D01*
X120268022Y-68203196D01*
X120309486Y-68114105D01*
X120358653Y-67994834D01*
X120408992Y-67861790D01*
X120453975Y-67731380D01*
X120487069Y-67620011D01*
X120519791Y-67458364D01*
X120545061Y-67152809D01*
X120534479Y-66825528D01*
X120490307Y-66498139D01*
X120414806Y-66192257D01*
X120310236Y-65929497D01*
X120156305Y-65661568D01*
X119903575Y-65329843D01*
X119613197Y-65050085D01*
X119291476Y-64823629D01*
X118944716Y-64651809D01*
X118579222Y-64535958D01*
X118201298Y-64477409D01*
X117817248Y-64477496D01*
X117433378Y-64537554D01*
X117055991Y-64658915D01*
X116691391Y-64842913D01*
X116345884Y-65090882D01*
X116300550Y-65129754D01*
X116200774Y-65221651D01*
X116129537Y-65296451D01*
X116099943Y-65340836D01*
X115474410Y-65340836D01*
X115563185Y-65199913D01*
X115854156Y-64861029D01*
X116188816Y-64572222D01*
X116562843Y-64336776D01*
X116971913Y-64157976D01*
X117411705Y-64039108D01*
X117877897Y-63983454D01*
X118226681Y-63985194D01*
X118675559Y-64045835D01*
X119101963Y-64172518D01*
X119503966Y-64364456D01*
X119879640Y-64620864D01*
X120227056Y-64940955D01*
X120358107Y-65088035D01*
X120619319Y-65451420D01*
X120820988Y-65848313D01*
X120966704Y-66285241D01*
X121017697Y-66558100D01*
X121043271Y-66870181D01*
X121043005Y-67152809D01*
X121042966Y-67193973D01*
G37*
G36*
X119117292Y-66467049D02*
G01*
X119178666Y-66601036D01*
X119248008Y-66787052D01*
X119274345Y-66929989D01*
X119257403Y-67037739D01*
X119196908Y-67118196D01*
X119092587Y-67179251D01*
X118991737Y-67207638D01*
X118849953Y-67199187D01*
X118730568Y-67136132D01*
X118650006Y-67024227D01*
X118635836Y-66976389D01*
X118634447Y-66874266D01*
X118666058Y-66743061D01*
X118733290Y-66573496D01*
X118838766Y-66356292D01*
X118955308Y-66129550D01*
X119117292Y-66467049D01*
G37*
D16*
%TO.C,D10*%
X65052600Y-139466200D02*
X65052600Y-137546200D01*
X65052600Y-137546200D02*
X67912600Y-137546200D01*
X67912600Y-139466200D02*
X65052600Y-139466200D01*
%TO.C,D9*%
X65043600Y-127452000D02*
X65043600Y-125532000D01*
X65043600Y-125532000D02*
X67903600Y-125532000D01*
X67903600Y-127452000D02*
X65043600Y-127452000D01*
%TO.C,D8*%
X76803800Y-123032400D02*
X76803800Y-121112400D01*
X76803800Y-121112400D02*
X79663800Y-121112400D01*
X79663800Y-123032400D02*
X76803800Y-123032400D01*
%TO.C,D7*%
X88894200Y-122956200D02*
X88894200Y-121036200D01*
X88894200Y-121036200D02*
X91754200Y-121036200D01*
X91754200Y-122956200D02*
X88894200Y-122956200D01*
%TO.C,D6*%
X65069000Y-115463200D02*
X65069000Y-113543200D01*
X65069000Y-113543200D02*
X67929000Y-113543200D01*
X67929000Y-115463200D02*
X65069000Y-115463200D01*
%TO.C,D5*%
X64992800Y-103423600D02*
X64992800Y-101503600D01*
X64992800Y-101503600D02*
X67852800Y-101503600D01*
X67852800Y-103423600D02*
X64992800Y-103423600D01*
%TO.C,D4*%
X65069000Y-91511000D02*
X65069000Y-89591000D01*
X65069000Y-89591000D02*
X67929000Y-89591000D01*
X67929000Y-91511000D02*
X65069000Y-91511000D01*
%TO.C,R13*%
X106027064Y-62565000D02*
X105572936Y-62565000D01*
X106027064Y-64035000D02*
X105572936Y-64035000D01*
%TO.C,Q1*%
X74040000Y-92400000D02*
X74040000Y-91750000D01*
X74040000Y-92400000D02*
X74040000Y-93050000D01*
X77160000Y-92400000D02*
X77160000Y-91750000D01*
X77160000Y-92400000D02*
X77160000Y-93050000D01*
X77440000Y-93802500D02*
X77110000Y-93562500D01*
X77440000Y-93322500D01*
X77440000Y-93802500D01*
G36*
X77440000Y-93802500D02*
G01*
X77110000Y-93562500D01*
X77440000Y-93322500D01*
X77440000Y-93802500D01*
G37*
%TO.C,C14*%
X108165000Y-116938748D02*
X108165000Y-117461252D01*
X109635000Y-116938748D02*
X109635000Y-117461252D01*
%TO.C,C13*%
X110165000Y-116938748D02*
X110165000Y-117461252D01*
X111635000Y-116938748D02*
X111635000Y-117461252D01*
%TO.C,Q3*%
X73740000Y-113062500D02*
X73740000Y-112412500D01*
X73740000Y-113062500D02*
X73740000Y-113712500D01*
X76860000Y-113062500D02*
X76860000Y-112412500D01*
X76860000Y-113062500D02*
X76860000Y-113712500D01*
X77140000Y-114465000D02*
X76810000Y-114225000D01*
X77140000Y-113985000D01*
X77140000Y-114465000D01*
G36*
X77140000Y-114465000D02*
G01*
X76810000Y-114225000D01*
X77140000Y-113985000D01*
X77140000Y-114465000D01*
G37*
%TO.C,C12*%
X108065000Y-107761252D02*
X108065000Y-107238748D01*
X109535000Y-107761252D02*
X109535000Y-107238748D01*
%TO.C,R11*%
X105572936Y-58565000D02*
X106027064Y-58565000D01*
X105572936Y-60035000D02*
X106027064Y-60035000D01*
%TO.C,Q6*%
X72040000Y-123200000D02*
X72040000Y-122550000D01*
X72040000Y-123200000D02*
X72040000Y-123850000D01*
X75160000Y-123200000D02*
X75160000Y-122550000D01*
X75160000Y-123200000D02*
X75160000Y-123850000D01*
X72090000Y-122037500D02*
X71760000Y-122277500D01*
X71760000Y-121797500D01*
X72090000Y-122037500D01*
G36*
X72090000Y-122037500D02*
G01*
X71760000Y-122277500D01*
X71760000Y-121797500D01*
X72090000Y-122037500D01*
G37*
D15*
%TO.C,G\u002A\u002A\u002A*%
G36*
X107680858Y-133612460D02*
G01*
X107707206Y-133695613D01*
X107723218Y-133751086D01*
X107728616Y-133778068D01*
X107728392Y-133788449D01*
X107716874Y-133838215D01*
X107682926Y-133882925D01*
X107637236Y-133928615D01*
X107227811Y-133928615D01*
X107192140Y-133928621D01*
X107076096Y-133928820D01*
X106986981Y-133929473D01*
X106921369Y-133930812D01*
X106875837Y-133933071D01*
X106846959Y-133936483D01*
X106831309Y-133941281D01*
X106825463Y-133947699D01*
X106825995Y-133955969D01*
X106826155Y-133956501D01*
X106834214Y-133978276D01*
X106852676Y-134025901D01*
X106880380Y-134096453D01*
X106916169Y-134187004D01*
X106958882Y-134294629D01*
X107007363Y-134416402D01*
X107060451Y-134549398D01*
X107116987Y-134690690D01*
X107120426Y-134699278D01*
X107176754Y-134840967D01*
X107229260Y-134974922D01*
X107276807Y-135098109D01*
X107318258Y-135207499D01*
X107352477Y-135300058D01*
X107378326Y-135372756D01*
X107394669Y-135422559D01*
X107400370Y-135446438D01*
X107400234Y-135451908D01*
X107386452Y-135498586D01*
X107347225Y-135547963D01*
X107335284Y-135559147D01*
X107274905Y-135594844D01*
X107211644Y-135599765D01*
X107147344Y-135573671D01*
X107138490Y-135565102D01*
X107110062Y-135534239D01*
X107064281Y-135483025D01*
X107002842Y-135413429D01*
X106927443Y-135327420D01*
X106839779Y-135226968D01*
X106741546Y-135114042D01*
X106634441Y-134990612D01*
X106520160Y-134858649D01*
X106400399Y-134720120D01*
X106276855Y-134576996D01*
X106151223Y-134431247D01*
X106025201Y-134284842D01*
X105900483Y-134139751D01*
X105778767Y-133997943D01*
X105661749Y-133861387D01*
X105551125Y-133732054D01*
X105448591Y-133611913D01*
X105355843Y-133502934D01*
X105274578Y-133407086D01*
X105206492Y-133326339D01*
X105161188Y-133272123D01*
X105602204Y-133272123D01*
X106120498Y-133877815D01*
X106146165Y-133907806D01*
X106246622Y-134025113D01*
X106341103Y-134135326D01*
X106427561Y-134236062D01*
X106503947Y-134324942D01*
X106568213Y-134399583D01*
X106618311Y-134457604D01*
X106652194Y-134496623D01*
X106667814Y-134514260D01*
X106670623Y-134511143D01*
X106663563Y-134483184D01*
X106646691Y-134432335D01*
X106621128Y-134361789D01*
X106587997Y-134274739D01*
X106548419Y-134174378D01*
X106515685Y-134091438D01*
X106478303Y-133993485D01*
X106446444Y-133906369D01*
X106421708Y-133834606D01*
X106405694Y-133782711D01*
X106400001Y-133755200D01*
X106400157Y-133749287D01*
X106414000Y-133702727D01*
X106453145Y-133653513D01*
X106506290Y-133600369D01*
X106914253Y-133600369D01*
X107016787Y-133600067D01*
X107115819Y-133599137D01*
X107199973Y-133597672D01*
X107265155Y-133595765D01*
X107307268Y-133593511D01*
X107322216Y-133591002D01*
X107320788Y-133586162D01*
X107310484Y-133555762D01*
X107290958Y-133499636D01*
X107263070Y-133420214D01*
X107227681Y-133319927D01*
X107185650Y-133201208D01*
X107137838Y-133066488D01*
X107085104Y-132918198D01*
X107028310Y-132758769D01*
X106968315Y-132590633D01*
X106614413Y-131599630D01*
X106218038Y-131599630D01*
X106125854Y-131599834D01*
X106027426Y-131600549D01*
X105943638Y-131601705D01*
X105878644Y-131603224D01*
X105836600Y-131605028D01*
X105821662Y-131607039D01*
X105821889Y-131607900D01*
X105829684Y-131628857D01*
X105847776Y-131675496D01*
X105875061Y-131745030D01*
X105910440Y-131834670D01*
X105952808Y-131941629D01*
X106001064Y-132063119D01*
X106054106Y-132196351D01*
X106110831Y-132338538D01*
X106120711Y-132363296D01*
X106177075Y-132505304D01*
X106229537Y-132638741D01*
X106276983Y-132760691D01*
X106318300Y-132868235D01*
X106352373Y-132958457D01*
X106378091Y-133028440D01*
X106394337Y-133075266D01*
X106400001Y-133096019D01*
X106397278Y-133127160D01*
X106370701Y-133191886D01*
X106318329Y-133240795D01*
X106313802Y-133243497D01*
X106294182Y-133253285D01*
X106270642Y-133260552D01*
X106238627Y-133265669D01*
X106193579Y-133269007D01*
X106130942Y-133270938D01*
X106046158Y-133271833D01*
X105934671Y-133272064D01*
X105602204Y-133272123D01*
X105161188Y-133272123D01*
X105153282Y-133262662D01*
X105116643Y-133218026D01*
X105098271Y-133194398D01*
X105088325Y-133177939D01*
X105071158Y-133114179D01*
X105080968Y-133047669D01*
X105116972Y-132987108D01*
X105162558Y-132936061D01*
X105570264Y-132931413D01*
X105672572Y-132930018D01*
X105771589Y-132928183D01*
X105855735Y-132926110D01*
X105920912Y-132923917D01*
X105963022Y-132921723D01*
X105977970Y-132919645D01*
X105977757Y-132918840D01*
X105970020Y-132898120D01*
X105951964Y-132851707D01*
X105924694Y-132782389D01*
X105889315Y-132692954D01*
X105846931Y-132586191D01*
X105798648Y-132464887D01*
X105745569Y-132331832D01*
X105688801Y-132189813D01*
X105679489Y-132166521D01*
X105623025Y-132024467D01*
X105570464Y-131890854D01*
X105522922Y-131768615D01*
X105481518Y-131660686D01*
X105447369Y-131569999D01*
X105421593Y-131499490D01*
X105405308Y-131452091D01*
X105399631Y-131430738D01*
X105400641Y-131414561D01*
X105422266Y-131352324D01*
X105467892Y-131299085D01*
X105478182Y-131292450D01*
X105493318Y-131286900D01*
X105516093Y-131282443D01*
X105549461Y-131278959D01*
X105596373Y-131276327D01*
X105659782Y-131274427D01*
X105742642Y-131273138D01*
X105847904Y-131272340D01*
X105978523Y-131271911D01*
X106137450Y-131271732D01*
X106181322Y-131271712D01*
X106340154Y-131271797D01*
X106471285Y-131272372D01*
X106577572Y-131273735D01*
X106661870Y-131276182D01*
X106727033Y-131280012D01*
X106775918Y-131285521D01*
X106811380Y-131293008D01*
X106836273Y-131302769D01*
X106853454Y-131315102D01*
X106865777Y-131330304D01*
X106876099Y-131348673D01*
X106877522Y-131351842D01*
X106888840Y-131380846D01*
X106909550Y-131436297D01*
X106938813Y-131515877D01*
X106975790Y-131617267D01*
X107019639Y-131738148D01*
X107069522Y-131876201D01*
X107124598Y-132029107D01*
X107184028Y-132194548D01*
X107246971Y-132370205D01*
X107312588Y-132553758D01*
X107321148Y-132577739D01*
X107403723Y-132809918D01*
X107477616Y-133019290D01*
X107542552Y-133205042D01*
X107598255Y-133366362D01*
X107644449Y-133502439D01*
X107673757Y-133591002D01*
X107680858Y-133612460D01*
G37*
G36*
X110391823Y-135657314D02*
G01*
X110363770Y-135787142D01*
X110313348Y-135905907D01*
X110255249Y-135992034D01*
X110163143Y-136087956D01*
X110055142Y-136167373D01*
X109938021Y-136225472D01*
X109818555Y-136257439D01*
X109815368Y-136257779D01*
X109782950Y-136259190D01*
X109721458Y-136260521D01*
X109632668Y-136261773D01*
X109518353Y-136262945D01*
X109380287Y-136264036D01*
X109220246Y-136265048D01*
X109040003Y-136265978D01*
X108841333Y-136266828D01*
X108626010Y-136267597D01*
X108395809Y-136268284D01*
X108152504Y-136268890D01*
X107897870Y-136269414D01*
X107633681Y-136269856D01*
X107361712Y-136270216D01*
X107083736Y-136270493D01*
X106801528Y-136270688D01*
X106516863Y-136270799D01*
X106231516Y-136270828D01*
X105947259Y-136270773D01*
X105665869Y-136270634D01*
X105389119Y-136270411D01*
X105118783Y-136270104D01*
X104856637Y-136269713D01*
X104604455Y-136269237D01*
X104364010Y-136268676D01*
X104137078Y-136268030D01*
X103925433Y-136267299D01*
X103730848Y-136266482D01*
X103555100Y-136265580D01*
X103399961Y-136264591D01*
X103267207Y-136263516D01*
X103158612Y-136262354D01*
X103075951Y-136261106D01*
X103020997Y-136259771D01*
X102995525Y-136258349D01*
X102873387Y-136228694D01*
X102746083Y-136169580D01*
X102633433Y-136086460D01*
X102539022Y-135982642D01*
X102466432Y-135861437D01*
X102419247Y-135726153D01*
X102409534Y-135675262D01*
X102402040Y-135550770D01*
X102405578Y-135517444D01*
X102744278Y-135517444D01*
X102744969Y-135591687D01*
X102755234Y-135670080D01*
X102789407Y-135760470D01*
X102848092Y-135832597D01*
X102932718Y-135888718D01*
X103014262Y-135929353D01*
X106400001Y-135929353D01*
X109785739Y-135929353D01*
X109867283Y-135888718D01*
X109931390Y-135849449D01*
X109997032Y-135781927D01*
X110037770Y-135696758D01*
X110055032Y-135591687D01*
X110056200Y-135529285D01*
X110049987Y-135472329D01*
X110034151Y-135427564D01*
X110029524Y-135418486D01*
X110005655Y-135373251D01*
X109968296Y-135303855D01*
X109918287Y-135211814D01*
X109856470Y-135098643D01*
X109783687Y-134965858D01*
X109700779Y-134814974D01*
X109608588Y-134647506D01*
X109507955Y-134464970D01*
X109399722Y-134268881D01*
X109284730Y-134060755D01*
X109163820Y-133842107D01*
X109037834Y-133614451D01*
X108907615Y-133379304D01*
X108774002Y-133138181D01*
X108637838Y-132892598D01*
X108499963Y-132644068D01*
X108361221Y-132394109D01*
X108222452Y-132144236D01*
X108084497Y-131895962D01*
X107948198Y-131650805D01*
X107814397Y-131410280D01*
X107683935Y-131175901D01*
X107557653Y-130949184D01*
X107436394Y-130731645D01*
X107320998Y-130524799D01*
X107212307Y-130330161D01*
X107111163Y-130149246D01*
X107018407Y-129983570D01*
X106934880Y-129834649D01*
X106861424Y-129703997D01*
X106798881Y-129593131D01*
X106748092Y-129503564D01*
X106709899Y-129436814D01*
X106685142Y-129394394D01*
X106674664Y-129377821D01*
X106598384Y-129317812D01*
X106508075Y-129282673D01*
X106400001Y-129271332D01*
X106292230Y-129282597D01*
X106201993Y-129317620D01*
X106125034Y-129378132D01*
X106123410Y-129380342D01*
X106108497Y-129404931D01*
X106079562Y-129454908D01*
X106037446Y-129528756D01*
X105982990Y-129624960D01*
X105917037Y-129742005D01*
X105840428Y-129878376D01*
X105754003Y-130032556D01*
X105658606Y-130203030D01*
X105555076Y-130388283D01*
X105444257Y-130586800D01*
X105326988Y-130797064D01*
X105204113Y-131017561D01*
X105076472Y-131246775D01*
X104944906Y-131483190D01*
X104810258Y-131725292D01*
X104673369Y-131971564D01*
X104535080Y-132220491D01*
X104396233Y-132470557D01*
X104257670Y-132720248D01*
X104120231Y-132968048D01*
X103984759Y-133212440D01*
X103852095Y-133451911D01*
X103723080Y-133684944D01*
X103598556Y-133910023D01*
X103479365Y-134125634D01*
X103366348Y-134330261D01*
X103260346Y-134522388D01*
X103162202Y-134700500D01*
X103072756Y-134863082D01*
X102992850Y-135008617D01*
X102923325Y-135135591D01*
X102865024Y-135242488D01*
X102818788Y-135327793D01*
X102785457Y-135389990D01*
X102765875Y-135427564D01*
X102752152Y-135463558D01*
X102744278Y-135517444D01*
X102405578Y-135517444D01*
X102415105Y-135427689D01*
X102447903Y-135317761D01*
X102448603Y-135316212D01*
X102461786Y-135290493D01*
X102489293Y-135238897D01*
X102530419Y-135162708D01*
X102584458Y-135063212D01*
X102650706Y-134941691D01*
X102728458Y-134799431D01*
X102817009Y-134637714D01*
X102915654Y-134457827D01*
X103023687Y-134261052D01*
X103140404Y-134048674D01*
X103265101Y-133821977D01*
X103397071Y-133582245D01*
X103535610Y-133330763D01*
X103680012Y-133068814D01*
X103829574Y-132797684D01*
X103983590Y-132518655D01*
X104141354Y-132233012D01*
X104287748Y-131968098D01*
X104474003Y-131631249D01*
X104646086Y-131320290D01*
X104804488Y-131034346D01*
X104949702Y-130772540D01*
X105082221Y-130533995D01*
X105202538Y-130317835D01*
X105311145Y-130123184D01*
X105408536Y-129949165D01*
X105495202Y-129794901D01*
X105571636Y-129659517D01*
X105638332Y-129542135D01*
X105695781Y-129441879D01*
X105744477Y-129357873D01*
X105784913Y-129289240D01*
X105817580Y-129235104D01*
X105842971Y-129194589D01*
X105861580Y-129166817D01*
X105873899Y-129150912D01*
X105937698Y-129090355D01*
X106049842Y-129016578D01*
X106174911Y-128966042D01*
X106308072Y-128938749D01*
X106444493Y-128934698D01*
X106579339Y-128953888D01*
X106707778Y-128996321D01*
X106824977Y-129061996D01*
X106926102Y-129150912D01*
X106934575Y-129161498D01*
X106951475Y-129186050D01*
X106975027Y-129223114D01*
X107005724Y-129273567D01*
X107044060Y-129338285D01*
X107090526Y-129418145D01*
X107145615Y-129514023D01*
X107209820Y-129626796D01*
X107283634Y-129757340D01*
X107367550Y-129906531D01*
X107462060Y-130075246D01*
X107567656Y-130264362D01*
X107684832Y-130474755D01*
X107814080Y-130707302D01*
X107955893Y-130962878D01*
X108110763Y-131242361D01*
X108279184Y-131546626D01*
X108461647Y-131876551D01*
X108658647Y-132233012D01*
X108682564Y-132276304D01*
X108839810Y-132561034D01*
X108993201Y-132838959D01*
X109142033Y-133108792D01*
X109285600Y-133369250D01*
X109423197Y-133619048D01*
X109554119Y-133856903D01*
X109677661Y-134081531D01*
X109793118Y-134291646D01*
X109899786Y-134485966D01*
X109996959Y-134663205D01*
X110083932Y-134822080D01*
X110160001Y-134961306D01*
X110224460Y-135079599D01*
X110276604Y-135175676D01*
X110315728Y-135248251D01*
X110341128Y-135296040D01*
X110352098Y-135317761D01*
X110378635Y-135397680D01*
X110396961Y-135524726D01*
X110396784Y-135529285D01*
X110391823Y-135657314D01*
G37*
D16*
%TO.C,U5*%
X81090000Y-98565000D02*
X81090000Y-98810000D01*
X81090000Y-116685000D02*
X81090000Y-116440000D01*
X84950000Y-98565000D02*
X81090000Y-98565000D01*
X84950000Y-98565000D02*
X88810000Y-98565000D01*
X84950000Y-116685000D02*
X81090000Y-116685000D01*
X84950000Y-116685000D02*
X88810000Y-116685000D01*
X88810000Y-98565000D02*
X88810000Y-98810000D01*
X88810000Y-116685000D02*
X88810000Y-116440000D01*
X89662500Y-98810000D02*
X89322500Y-98340000D01*
X90002500Y-98340000D01*
X89662500Y-98810000D01*
G36*
X89662500Y-98810000D02*
G01*
X89322500Y-98340000D01*
X90002500Y-98340000D01*
X89662500Y-98810000D01*
G37*
%TO.C,C8*%
X67990000Y-69365000D02*
X71010000Y-69365000D01*
X67990000Y-73750000D02*
X67990000Y-69365000D01*
X71010000Y-69365000D02*
X71010000Y-73750000D01*
%TO.C,C11*%
X110065000Y-107761252D02*
X110065000Y-107238748D01*
X111535000Y-107761252D02*
X111535000Y-107238748D01*
%TO.C,R9*%
X89065000Y-53427064D02*
X89065000Y-52972936D01*
X90535000Y-53427064D02*
X90535000Y-52972936D01*
%TO.C,Q4*%
X95600000Y-115840000D02*
X94950000Y-115840000D01*
X95600000Y-115840000D02*
X96250000Y-115840000D01*
X95600000Y-118960000D02*
X94950000Y-118960000D01*
X95600000Y-118960000D02*
X96250000Y-118960000D01*
X94677500Y-119240000D02*
X94197500Y-119240000D01*
X94437500Y-118910000D01*
X94677500Y-119240000D01*
G36*
X94677500Y-119240000D02*
G01*
X94197500Y-119240000D01*
X94437500Y-118910000D01*
X94677500Y-119240000D01*
G37*
%TO.C,R10*%
X105572936Y-56565000D02*
X106027064Y-56565000D01*
X105572936Y-58035000D02*
X106027064Y-58035000D01*
%TO.C,R12*%
X105572936Y-60565000D02*
X106027064Y-60565000D01*
X105572936Y-62035000D02*
X106027064Y-62035000D01*
%TO.C,C10*%
X107465000Y-74938748D02*
X107465000Y-75461252D01*
X108935000Y-74938748D02*
X108935000Y-75461252D01*
%TO.C,C6*%
X93665000Y-53101248D02*
X93665000Y-53623752D01*
X95135000Y-53101248D02*
X95135000Y-53623752D01*
%TO.C,R15*%
X85665000Y-96172936D02*
X85665000Y-96627064D01*
X87135000Y-96172936D02*
X87135000Y-96627064D01*
%TO.C,C9*%
X69265000Y-77261252D02*
X69265000Y-76738748D01*
X70735000Y-77261252D02*
X70735000Y-76738748D01*
D15*
%TO.C,G\u002A\u002A\u002A*%
G36*
X120206763Y-56602237D02*
G01*
X120474022Y-56999533D01*
X120672762Y-57435362D01*
X120797111Y-57900581D01*
X120841196Y-58386052D01*
X120840015Y-58400000D01*
X120799146Y-58882634D01*
X120758917Y-59074855D01*
X120597446Y-59551011D01*
X120360295Y-59984983D01*
X120055113Y-60369456D01*
X119689549Y-60697113D01*
X119271254Y-60960639D01*
X118807876Y-61152718D01*
X118307066Y-61266033D01*
X118248003Y-61273434D01*
X117783582Y-61281363D01*
X117317937Y-61206420D01*
X116864581Y-61055401D01*
X116437026Y-60835099D01*
X116048784Y-60552310D01*
X115859651Y-60361448D01*
X116216456Y-60361448D01*
X116221279Y-60399204D01*
X116248164Y-60432469D01*
X116345441Y-60512329D01*
X116526014Y-60629793D01*
X116741773Y-60748981D01*
X116963525Y-60854030D01*
X117162078Y-60929078D01*
X117548917Y-61019033D01*
X118018416Y-61051116D01*
X118472965Y-61001994D01*
X118904469Y-60877619D01*
X119304836Y-60683945D01*
X119665975Y-60426925D01*
X119979791Y-60112513D01*
X120238193Y-59746661D01*
X120433088Y-59335322D01*
X120556384Y-58884451D01*
X120599988Y-58400000D01*
X120579750Y-58021299D01*
X120493350Y-57601154D01*
X120332207Y-57208289D01*
X120088970Y-56819966D01*
X119926814Y-56597359D01*
X119263134Y-57257103D01*
X118599454Y-57916848D01*
X118608569Y-58975181D01*
X118609928Y-59141920D01*
X118611909Y-59433345D01*
X118613141Y-59688118D01*
X118613581Y-59892394D01*
X118613189Y-60032332D01*
X118611923Y-60094089D01*
X118581044Y-60132084D01*
X118479620Y-60140103D01*
X118353080Y-60125543D01*
X118369172Y-59136232D01*
X118385263Y-58146920D01*
X117969490Y-58560351D01*
X117945649Y-58584058D01*
X117506036Y-59021195D01*
X117551902Y-59343297D01*
X117566298Y-59444046D01*
X117600309Y-59682930D01*
X117622046Y-59850146D01*
X117631218Y-59960291D01*
X117627538Y-60027964D01*
X117610716Y-60067763D01*
X117580463Y-60094284D01*
X117536492Y-60122127D01*
X117428036Y-60169980D01*
X117307234Y-60153298D01*
X117291185Y-60146862D01*
X117205983Y-60090841D01*
X117159074Y-60000483D01*
X117145125Y-59857472D01*
X117158802Y-59643491D01*
X117189004Y-59343297D01*
X116678445Y-59848425D01*
X116578122Y-59947871D01*
X116414528Y-60112411D01*
X116305064Y-60228933D01*
X116241712Y-60308318D01*
X116216456Y-60361448D01*
X115859651Y-60361448D01*
X115713368Y-60213828D01*
X115444289Y-59826449D01*
X115417750Y-59778342D01*
X115223186Y-59323053D01*
X115110753Y-58841529D01*
X115096768Y-58614610D01*
X115317075Y-58614610D01*
X115398050Y-59072776D01*
X115565443Y-59524244D01*
X115591844Y-59578394D01*
X115692430Y-59767442D01*
X115792675Y-59933968D01*
X115874321Y-60047069D01*
X116006341Y-60198668D01*
X116613817Y-59586924D01*
X117221293Y-58975181D01*
X117220468Y-58745108D01*
X117220456Y-58742204D01*
X117218966Y-58620889D01*
X117218303Y-58584058D01*
X117501812Y-58584058D01*
X117503052Y-58594975D01*
X117545111Y-58630072D01*
X117558021Y-58628317D01*
X117616848Y-58584058D01*
X117621177Y-58560351D01*
X117573550Y-58538043D01*
X117539266Y-58543675D01*
X117501812Y-58584058D01*
X117218303Y-58584058D01*
X117215476Y-58427107D01*
X117210372Y-58179682D01*
X117204042Y-57897437D01*
X117196875Y-57599194D01*
X117190166Y-57300383D01*
X117187686Y-57037965D01*
X117192872Y-56849383D01*
X117207983Y-56724979D01*
X117235278Y-56655100D01*
X117277017Y-56630088D01*
X117335459Y-56640290D01*
X117412862Y-56676049D01*
X117507814Y-56744164D01*
X117579429Y-56845286D01*
X117630224Y-56990996D01*
X117663017Y-57193029D01*
X117680627Y-57463123D01*
X117685870Y-57813012D01*
X117685870Y-58512568D01*
X118007972Y-58192935D01*
X118095088Y-58104500D01*
X118216093Y-57973749D01*
X118299193Y-57873456D01*
X118330073Y-57820183D01*
X118319248Y-57782728D01*
X118261051Y-57709782D01*
X118244753Y-57692494D01*
X118214381Y-57617354D01*
X118199464Y-57485078D01*
X118197474Y-57278514D01*
X118202580Y-57098206D01*
X118213964Y-56920578D01*
X118228849Y-56800140D01*
X118244995Y-56743795D01*
X118260164Y-56758446D01*
X118272117Y-56850998D01*
X118278614Y-57028353D01*
X118280469Y-57104325D01*
X118291296Y-57275604D01*
X118308749Y-57400704D01*
X118330073Y-57456703D01*
X118335922Y-57458214D01*
X118357772Y-57410831D01*
X118371392Y-57278897D01*
X118376088Y-57068295D01*
X118376995Y-56973433D01*
X118383680Y-56808185D01*
X118395446Y-56694019D01*
X118410598Y-56651400D01*
X118425260Y-56677810D01*
X118438147Y-56773847D01*
X118441816Y-56915983D01*
X118442745Y-57021200D01*
X118452714Y-57201747D01*
X118470269Y-57341666D01*
X118481922Y-57384008D01*
X118494399Y-57367798D01*
X118503025Y-57263596D01*
X118508074Y-57069414D01*
X118512511Y-56886779D01*
X118521304Y-56736579D01*
X118532361Y-56670640D01*
X118544184Y-56690886D01*
X118555270Y-56799240D01*
X118564118Y-56997623D01*
X118564157Y-56998931D01*
X118575441Y-57213138D01*
X118592150Y-57350853D01*
X118611086Y-57409090D01*
X118629048Y-57384865D01*
X118642839Y-57275191D01*
X118649258Y-57077083D01*
X118649885Y-57030893D01*
X118659581Y-56848083D01*
X118677463Y-56719281D01*
X118699471Y-56651930D01*
X118721544Y-56653474D01*
X118739624Y-56731358D01*
X118749648Y-56893025D01*
X118749873Y-56903070D01*
X118755718Y-57103564D01*
X118769180Y-57237114D01*
X118799892Y-57304085D01*
X118857484Y-57304846D01*
X118951587Y-57239762D01*
X119091832Y-57109202D01*
X119287850Y-56913531D01*
X119762475Y-56436840D01*
X119609952Y-56321720D01*
X119223050Y-56074597D01*
X118744204Y-55866762D01*
X118643692Y-55836504D01*
X118297574Y-55774173D01*
X117918286Y-55756711D01*
X117541458Y-55784338D01*
X117202718Y-55857272D01*
X116817674Y-56008885D01*
X116411149Y-56250944D01*
X116061686Y-56552053D01*
X115773478Y-56902820D01*
X115550720Y-57293851D01*
X115397604Y-57715755D01*
X115318324Y-58159139D01*
X115317075Y-58614610D01*
X115096768Y-58614610D01*
X115080289Y-58347212D01*
X115131633Y-57853544D01*
X115264624Y-57373970D01*
X115479101Y-56921932D01*
X115652918Y-56665884D01*
X115973239Y-56317512D01*
X116353796Y-56017229D01*
X116778097Y-55777390D01*
X117229648Y-55610353D01*
X117373035Y-55578035D01*
X117697138Y-55539382D01*
X118050962Y-55532287D01*
X118397111Y-55556694D01*
X118698189Y-55612547D01*
X119052596Y-55732935D01*
X119490178Y-55959798D01*
X119876857Y-56252611D01*
X120050695Y-56436840D01*
X120206763Y-56602237D01*
G37*
D16*
%TO.C,C5*%
X95663000Y-53101248D02*
X95663000Y-53623752D01*
X97133000Y-53101248D02*
X97133000Y-53623752D01*
%TO.C,Q2*%
X73940000Y-102700000D02*
X73940000Y-102050000D01*
X73940000Y-102700000D02*
X73940000Y-103350000D01*
X77060000Y-102700000D02*
X77060000Y-102050000D01*
X77060000Y-102700000D02*
X77060000Y-103350000D01*
X77340000Y-104102500D02*
X77010000Y-103862500D01*
X77340000Y-103622500D01*
X77340000Y-104102500D01*
G36*
X77340000Y-104102500D02*
G01*
X77010000Y-103862500D01*
X77340000Y-103622500D01*
X77340000Y-104102500D01*
G37*
%TO.C,U4*%
X71590000Y-72590000D02*
X72850000Y-72590000D01*
X71590000Y-76350000D02*
X71590000Y-72590000D01*
X78410000Y-72590000D02*
X77150000Y-72590000D01*
X78410000Y-76350000D02*
X78410000Y-72590000D01*
X78640000Y-77870000D02*
X78310000Y-77630000D01*
X78640000Y-77390000D01*
X78640000Y-77870000D01*
G36*
X78640000Y-77870000D02*
G01*
X78310000Y-77630000D01*
X78640000Y-77390000D01*
X78640000Y-77870000D01*
G37*
%TO.C,Q5*%
X83140000Y-119162500D02*
X83140000Y-118512500D01*
X83140000Y-119162500D02*
X83140000Y-119812500D01*
X86260000Y-119162500D02*
X86260000Y-118512500D01*
X86260000Y-119162500D02*
X86260000Y-119812500D01*
X83190000Y-118000000D02*
X82860000Y-118240000D01*
X82860000Y-117760000D01*
X83190000Y-118000000D01*
G36*
X83190000Y-118000000D02*
G01*
X82860000Y-118240000D01*
X82860000Y-117760000D01*
X83190000Y-118000000D01*
G37*
%TO.C,C7*%
X87065000Y-53661252D02*
X87065000Y-53138748D01*
X88535000Y-53661252D02*
X88535000Y-53138748D01*
%TO.C,R8*%
X105572936Y-54565000D02*
X106027064Y-54565000D01*
X105572936Y-56035000D02*
X106027064Y-56035000D01*
D17*
%TO.C,D3*%
X74400000Y-79700000D02*
X79600000Y-79700000D01*
X79600000Y-82300000D02*
X74125000Y-82300000D01*
D16*
%TO.C,Q7*%
X73540000Y-129800000D02*
X73540000Y-129150000D01*
X73540000Y-129800000D02*
X73540000Y-130450000D01*
X76660000Y-129800000D02*
X76660000Y-129150000D01*
X76660000Y-129800000D02*
X76660000Y-130450000D01*
X73590000Y-128637500D02*
X73260000Y-128877500D01*
X73260000Y-128397500D01*
X73590000Y-128637500D01*
G36*
X73590000Y-128637500D02*
G01*
X73260000Y-128877500D01*
X73260000Y-128397500D01*
X73590000Y-128637500D01*
G37*
%TO.C,R14*%
X88565000Y-96172936D02*
X88565000Y-96627064D01*
X90035000Y-96172936D02*
X90035000Y-96627064D01*
%TD*%
M02*
